<?xml version="1.0" encoding="UTF-8" standalone="no"?>
<!DOCTYPE svg PUBLIC "-//W3C//DTD SVG 1.0//EN" "http://www.w3.org/TR/2001/PR-SVG-20010719/DTD/svg10.dtd">
<svg width="40cm" height="29cm" viewBox="-2 36 783 571" xmlns="http://www.w3.org/2000/svg" xmlns:xlink="http://www.w3.org/1999/xlink">
  <rect style="fill: none; fill-opacity:0; stroke-width: 2; stroke: #000000" x="180" y="60" width="580" height="440"/>
  <rect style="fill: none; fill-opacity:0; stroke-width: 2; stroke: #00ff00" x="340" y="80" width="400" height="400"/>
  <text font-size="12.8" style="fill: #000000;text-anchor:start;font-family:sans-serif;font-style:normal;font-weight:normal" x="295" y="151">
    <tspan x="295" y="151"></tspan>
  </text>
  <text font-size="12.8" style="fill: #000000;text-anchor:start;font-family:sans-serif;font-style:normal;font-weight:normal" x="420" y="100">
    <tspan x="420" y="100">frontend</tspan>
    <tspan x="420" y="116">  - Apache</tspan>
    <tspan x="420" y="132">  - PHP</tspan>
  </text>
  <text font-size="12.8" style="fill: #000000;text-anchor:start;font-family:sans-serif;font-style:normal;font-weight:normal" x="360" y="460">
    <tspan x="360" y="460">mysql: instance</tspan>
    <tspan x="360" y="476">SQL server</tspan>
  </text>
  <text font-size="12.8" style="fill: #000000;text-anchor:start;font-family:sans-serif;font-style:normal;font-weight:normal" x="470" y="280">
    <tspan x="470" y="280"></tspan>
  </text>
  <g>
    <line style="fill: none; fill-opacity:0; stroke-width: 2; stroke-dasharray: 4; stroke: #000000" x1="403.388" y1="365.251" x2="404.332" y2="185.635"/>
    <polygon style="fill: #000000" points="403.349,372.751 398.401,362.725 403.388,365.251 408.401,362.777 "/>
    <polygon style="fill: none; fill-opacity:0; stroke-width: 2; stroke: #000000" points="403.349,372.751 398.401,362.725 403.388,365.251 408.401,362.777 "/>
    <polygon style="fill: #000000" points="404.372,178.135 409.319,188.161 404.332,185.635 399.319,188.108 "/>
    <polygon style="fill: none; fill-opacity:0; stroke-width: 2; stroke: #000000" points="404.372,178.135 409.319,188.161 404.332,185.635 399.319,188.108 "/>
  </g>
  <text font-size="12.8" style="fill: #000000;text-anchor:start;font-family:sans-serif;font-style:normal;font-weight:normal" x="200" y="220">
    <tspan x="200" y="220">Permanent VM:</tspan>
    <tspan x="200" y="236">bank SQL server</tspan>
  </text>
  <text font-size="12.8" style="fill: #000000;text-anchor:start;font-family:sans-serif;font-style:normal;font-weight:normal" x="320" y="291.881">
    <tspan x="320" y="291.881">MySQL</tspan>
    <tspan x="320" y="307.881">federation</tspan>
  </text>
  <g>
    <line style="fill: none; fill-opacity:0; stroke-width: 2; stroke: #000000" x1="505.968" y1="358.984" x2="417.693" y2="184.094"/>
    <polygon style="fill: #000000" points="509.347,365.68 500.378,359.006 505.968,358.984 509.305,354.5 "/>
    <polygon style="fill: none; fill-opacity:0; stroke-width: 2; stroke: #000000" points="509.347,365.68 500.378,359.006 505.968,358.984 509.305,354.5 "/>
    <polygon style="fill: #000000" points="414.314,177.399 423.284,184.073 417.693,184.094 414.356,188.579 "/>
    <polygon style="fill: none; fill-opacity:0; stroke-width: 2; stroke: #000000" points="414.314,177.399 423.284,184.073 417.693,184.094 414.356,188.579 "/>
  </g>
  <g>
    <path style="fill: #b7b79d" d="M 540 127.32 L 540,218.308 L 593.779,218.308 L 593.779,127.32 L 540,127.32z"/>
    <path style="fill: none; fill-opacity:0; stroke-width: 0.02; stroke: #494936" d="M 540 127.32 L 540,218.308 L 593.779,218.308 L 593.779,127.32 L 540,127.32"/>
    <path style="fill: #c9c9b6" d="M 540 127.32 L 547.287,120 L 601.051,120 L 593.779,127.32 L 540,127.32z"/>
    <path style="fill: none; fill-opacity:0; stroke-width: 0.02; stroke: #494936" d="M 540 127.32 L 547.287,120 L 600.697,120"/>
    <path style="fill: none; fill-opacity:0; stroke-width: 0.02; stroke: #494936" d="M 600.697 120.37 L 593.779,127.32 L 540,127.32"/>
    <path style="fill: #c9c9b6" d="M 543.314 132.612 L 567.879,132.612 L 567.879,144.549 L 543.314,144.549 L 543.314,132.612z"/>
    <path style="fill: none; fill-opacity:0; stroke-width: 0.02; stroke: #626248" d="M 543.314 132.612 L 567.863,132.612 L 567.863,144.533 L 543.314,144.533 L 543.314,132.612"/>
    <path style="fill: none; fill-opacity:0; stroke-width: 0.6; stroke: #ecece7" d="M 546.628 138.597 L 563.857,138.597"/>
    <path style="fill: #7a7a5a" d="M 593.779 218.308 L 601.051,210.973 L 601.051,120 L 593.779,127.32 L 593.779,218.308z"/>
    <path style="fill: none; fill-opacity:0; stroke-width: 0.02; stroke: #494936" d="M 593.779 218.308 L 600.697,211.343"/>
    <path style="fill: none; fill-opacity:0; stroke-width: 0.02; stroke: #494936" d="M 600.697 120.37 L 593.779,127.32 L 593.779,218.308"/>
    <path style="fill: none; fill-opacity:0; stroke-width: 0.6; stroke: #ecece7" d="M 540.676 212.308 L 593.763,212.308"/>
    <path style="fill: none; fill-opacity:0; stroke-width: 0.6; stroke: #000000" d="M 540.676 163.837 L 593.763,163.837"/>
    <path style="fill: none; fill-opacity:0; stroke-width: 0.6; stroke: #494936" d="M 540 211.648 L 593.715,211.648"/>
    <path style="fill: none; fill-opacity:0; stroke-width: 0.6; stroke: #000000" d="M 540 163.162 L 593.715,163.162"/>
    <path style="fill: none; fill-opacity:0; stroke-width: 0.02; stroke: #ecece7" d="M 543.314 143.905 L 543.314,132.612 L 567.203,132.612"/>
  </g>
  <text font-size="12.8" style="fill: #000000;text-anchor:start;font-family:sans-serif;font-style:normal;font-weight:normal" x="600" y="100">
    <tspan x="600" y="100">master</tspan>
    <tspan x="600" y="116">  - SLURM</tspan>
    <tspan x="600" y="132">  - jbpmmicroscope</tspan>
  </text>
  <g>
    <line style="fill: none; fill-opacity:0; stroke-width: 2; stroke: #000000" x1="537.401" y1="350.423" x2="559.798" y2="227.901"/>
    <polygon style="fill: #000000" points="536.052,357.801 532.932,347.065 537.401,350.423 542.769,348.863 "/>
    <polygon style="fill: none; fill-opacity:0; stroke-width: 2; stroke: #000000" points="536.052,357.801 532.932,347.065 537.401,350.423 542.769,348.863 "/>
    <polygon style="fill: #000000" points="561.146,220.523 564.267,231.259 559.798,227.901 554.43,229.461 "/>
    <polygon style="fill: none; fill-opacity:0; stroke-width: 2; stroke: #000000" points="561.146,220.523 564.267,231.259 559.798,227.901 554.43,229.461 "/>
  </g>
  <g>
    <path style="fill: #b7b79d" d="M 680 286.121 L 680,362.206 L 724.97,362.206 L 724.97,286.121 L 680,286.121z"/>
    <path style="fill: none; fill-opacity:0; stroke-width: 0.02; stroke: #494936" d="M 680 286.121 L 680,362.206 L 724.97,362.206 L 724.97,286.121 L 680,286.121"/>
    <path style="fill: #c9c9b6" d="M 680 286.121 L 686.094,280 L 731.051,280 L 724.97,286.121 L 680,286.121z"/>
    <path style="fill: none; fill-opacity:0; stroke-width: 0.02; stroke: #494936" d="M 680 286.121 L 686.094,280 L 730.755,280"/>
    <path style="fill: none; fill-opacity:0; stroke-width: 0.02; stroke: #494936" d="M 730.755 280.309 L 724.97,286.121 L 680,286.121"/>
    <path style="fill: #c9c9b6" d="M 682.771 290.546 L 703.312,290.546 L 703.312,300.528 L 682.771,300.528 L 682.771,290.546z"/>
    <path style="fill: none; fill-opacity:0; stroke-width: 0.02; stroke: #626248" d="M 682.771 290.546 L 703.299,290.546 L 703.299,300.514 L 682.771,300.514 L 682.771,290.546"/>
    <path style="fill: none; fill-opacity:0; stroke-width: 0.6; stroke: #ecece7" d="M 685.542 295.551 L 699.949,295.551"/>
    <path style="fill: #7a7a5a" d="M 724.97 362.206 L 731.051,356.071 L 731.051,280 L 724.97,286.121 L 724.97,362.206z"/>
    <path style="fill: none; fill-opacity:0; stroke-width: 0.02; stroke: #494936" d="M 724.97 362.206 L 730.755,356.381"/>
    <path style="fill: none; fill-opacity:0; stroke-width: 0.02; stroke: #494936" d="M 730.755 280.309 L 724.97,286.121 L 724.97,362.206"/>
    <path style="fill: none; fill-opacity:0; stroke-width: 0.6; stroke: #ecece7" d="M 680.565 357.188 L 724.957,357.188"/>
    <path style="fill: none; fill-opacity:0; stroke-width: 0.6; stroke: #000000" d="M 680.565 316.657 L 724.957,316.657"/>
    <path style="fill: none; fill-opacity:0; stroke-width: 0.6; stroke: #494936" d="M 680 356.636 L 724.916,356.636"/>
    <path style="fill: none; fill-opacity:0; stroke-width: 0.6; stroke: #000000" d="M 680 316.092 L 724.916,316.092"/>
    <path style="fill: none; fill-opacity:0; stroke-width: 0.02; stroke: #ecece7" d="M 682.771 299.99 L 682.771,290.546 L 702.747,290.546"/>
  </g>
  <g>
    <path style="fill: #b7b79d" d="M 660 306.575 L 660,388.308 L 708.309,388.308 L 708.309,306.575 L 660,306.575z"/>
    <path style="fill: none; fill-opacity:0; stroke-width: 0.02; stroke: #494936" d="M 660 306.575 L 660,388.308 L 708.309,388.308 L 708.309,306.575 L 660,306.575"/>
    <path style="fill: #c9c9b6" d="M 660 306.575 L 666.546,300 L 714.84,300 L 708.309,306.575 L 660,306.575z"/>
    <path style="fill: none; fill-opacity:0; stroke-width: 0.02; stroke: #494936" d="M 660 306.575 L 666.546,300 L 714.523,300"/>
    <path style="fill: none; fill-opacity:0; stroke-width: 0.02; stroke: #494936" d="M 714.523 300.332 L 708.309,306.575 L 660,306.575"/>
    <path style="fill: #c9c9b6" d="M 662.977 311.329 L 685.043,311.329 L 685.043,322.052 L 662.977,322.052 L 662.977,311.329z"/>
    <path style="fill: none; fill-opacity:0; stroke-width: 0.02; stroke: #626248" d="M 662.977 311.329 L 685.029,311.329 L 685.029,322.037 L 662.977,322.037 L 662.977,311.329"/>
    <path style="fill: none; fill-opacity:0; stroke-width: 0.6; stroke: #ecece7" d="M 665.954 316.705 L 681.43,316.705"/>
    <path style="fill: #7a7a5a" d="M 708.309 388.308 L 714.84,381.719 L 714.84,300 L 708.309,306.575 L 708.309,388.308z"/>
    <path style="fill: none; fill-opacity:0; stroke-width: 0.02; stroke: #494936" d="M 708.309 388.308 L 714.523,382.051"/>
    <path style="fill: none; fill-opacity:0; stroke-width: 0.02; stroke: #494936" d="M 714.523 300.332 L 708.309,306.575 L 708.309,388.308"/>
    <path style="fill: none; fill-opacity:0; stroke-width: 0.6; stroke: #ecece7" d="M 660.607 382.918 L 708.294,382.918"/>
    <path style="fill: none; fill-opacity:0; stroke-width: 0.6; stroke: #000000" d="M 660.607 339.378 L 708.294,339.378"/>
    <path style="fill: none; fill-opacity:0; stroke-width: 0.6; stroke: #494936" d="M 660 382.326 L 708.251,382.326"/>
    <path style="fill: none; fill-opacity:0; stroke-width: 0.6; stroke: #000000" d="M 660 338.771 L 708.251,338.771"/>
    <path style="fill: none; fill-opacity:0; stroke-width: 0.02; stroke: #ecece7" d="M 662.977 321.474 L 662.977,311.329 L 684.436,311.329"/>
  </g>
  <text font-size="12.8" style="fill: #000000;text-anchor:start;font-family:sans-serif;font-style:normal;font-weight:normal" x="700" y="400">
    <tspan x="700" y="400">slave</tspan>
  </text>
  <g>
    <path style="fill: #0078aa" d="M 434.973 165.334 L 434.922,164.798 L 434.803,164.27 L 434.607,163.733 L 434.343,163.205 L 434.002,162.695 L 433.576,162.175 L 433.074,161.673 L 432.503,161.179 L 431.856,160.693 L 431.141,160.225 L 430.34,159.757 L 429.497,159.305 L 428.586,158.879 L 427.624,158.471 L 426.576,158.07 L 425.495,157.687 L 424.345,157.33 L 423.145,156.997 L 421.893,156.682 L 420.615,156.384 L 419.27,156.112 L 417.916,155.873 L 416.494,155.643 L 415.08,155.431 L 413.598,155.269 L 412.117,155.116 L 410.618,155.005 L 409.102,154.92 L 407.561,154.843 L 406.028,154.792 L 404.478,154.792 L 404.478,154.792 L 402.945,154.792 L 401.395,154.843 L 399.862,154.92 L 398.347,155.005 L 396.848,155.116 L 395.366,155.269 L 393.893,155.431 L 392.454,155.643 L 391.049,155.873 L 389.686,156.112 L 388.358,156.384 L 387.072,156.682 L 385.811,156.997 L 384.628,157.33 L 383.47,157.687 L 382.397,158.07 L 381.341,158.471 L 380.378,158.879 L 379.459,159.305 L 378.616,159.757 L 377.824,160.225 L 377.108,160.693 L 376.461,161.179 L 375.899,161.673 L 375.388,162.175 L 374.962,162.695 L 374.63,163.205 L 374.349,163.733 L 374.162,164.27 L 374.034,164.798 L 374,165.334 L 374,165.334 L 374.034,165.862 L 374.162,166.399 L 374.349,166.927 L 374.63,167.463 L 374.962,167.983 L 375.388,168.502 L 375.899,169.005 L 376.461,169.499 L 377.108,169.984 L 377.824,170.444 L 378.616,170.921 L 379.459,171.372 L 380.378,171.798 L 381.341,172.198 L 382.397,172.607 L 383.47,172.99 L 384.628,173.348 L 385.811,173.68 L 387.072,173.995 L 388.358,174.293 L 389.686,174.566 L 391.049,174.804 L 392.454,175.034 L 393.893,175.238 L 395.366,175.409 L 396.848,175.553 L 398.347,175.664 L 399.862,175.766 L 401.395,175.834 L 402.945,175.877 L 404.478,175.885 L 404.478,175.885 L 406.028,175.877 L 407.561,175.834 L 409.102,175.766 L 410.618,175.664 L 412.117,175.553 L 413.598,175.409 L 415.08,175.238 L 416.494,175.034 L 417.916,174.804 L 419.27,174.566 L 420.615,174.293 L 421.893,173.995 L 423.145,173.68 L 424.345,173.348 L 425.495,172.99 L 426.576,172.607 L 427.624,172.198 L 428.586,171.798 L 429.497,171.372 L 430.34,170.921 L 431.141,170.444 L 431.856,169.984 L 432.503,169.499 L 433.074,169.005 L 433.576,168.502 L 434.002,167.983 L 434.343,167.463 L 434.607,166.927 L 434.803,166.399 L 434.922,165.862 L 434.973,165.334z"/>
    <path style="fill: none; fill-opacity:0; stroke-width: 0.02; stroke: #aae6ff" d="M 434.607 165.173 L 434.573,164.636 L 434.462,164.108 L 434.266,163.606 L 434.011,163.095 L 433.636,162.567 L 433.21,162.064 L 432.742,161.579 L 432.154,161.077 L 431.507,160.608 L 430.809,160.14 L 430.017,159.688 L 429.174,159.254 L 428.28,158.828 L 427.317,158.411 L 426.27,158.028 L 425.188,157.662 L 424.039,157.313 L 422.864,156.972 L 421.62,156.657 L 420.334,156.376 L 419.006,156.103 L 417.652,155.873 L 416.264,155.643 L 414.842,155.456 L 413.377,155.286 L 411.904,155.141 L 410.413,155.005 L 408.906,154.928 L 407.382,154.86 L 405.832,154.817 L 404.308,154.792 L 404.308,154.792 L 402.766,154.817 L 401.233,154.86 L 399.709,154.928 L 398.193,155.005 L 396.703,155.141 L 395.238,155.286 L 393.782,155.456 L 392.343,155.643 L 390.946,155.873 L 389.609,156.103 L 388.264,156.376 L 386.987,156.657 L 385.76,156.972 L 384.568,157.313 L 383.427,157.662 L 382.337,158.028 L 381.298,158.411 L 380.344,158.828 L 379.425,159.254 L 378.581,159.688 L 377.807,160.14 L 377.091,160.608 L 376.453,161.077 L 375.882,161.579 L 375.388,162.064 L 374.962,162.567 L 374.613,163.095 L 374.341,163.606 L 374.136,164.108 L 374.034,164.636 L 374,165.173 L 374,165.173 L 374.034,165.701 L 374.136,166.22 L 374.341,166.74 L 374.613,167.25 L 374.962,167.778 L 375.388,168.272 L 375.882,168.766 L 376.453,169.26 L 377.091,169.729 L 377.807,170.205 L 378.581,170.657 L 379.425,171.083 L 380.344,171.508 L 381.298,171.926 L 382.337,172.317 L 383.427,172.675 L 384.568,173.033 L 385.76,173.365 L 386.987,173.671 L 388.264,173.969 L 389.609,174.242 L 390.946,174.472 L 392.343,174.702 L 393.782,174.889 L 395.238,175.059 L 396.703,175.196 L 398.193,175.323 L 399.709,175.409 L 401.233,175.477 L 402.766,175.519 L 404.308,175.528 L 404.308,175.528 L 405.832,175.519 L 407.382,175.477 L 408.906,175.409 L 410.413,175.323 L 411.904,175.196 L 413.377,175.059 L 414.842,174.889 L 416.264,174.702 L 417.652,174.472 L 419.006,174.242 L 420.334,173.969 L 421.62,173.671 L 422.864,173.365 L 424.039,173.033 L 425.188,172.675 L 426.27,172.317 L 427.317,171.926 L 428.28,171.508 L 429.174,171.083 L 430.017,170.657 L 430.809,170.205 L 431.507,169.729 L 432.154,169.26 L 432.742,168.766 L 433.21,168.272 L 433.636,167.778 L 434.011,167.25 L 434.266,166.74 L 434.462,166.22 L 434.573,165.701 L 434.607,165.173"/>
    <path style="fill: #0078aa" d="M 374 150.738 L 374,165.539 L 434.607,165.539 L 434.607,150.738 L 374,150.738z"/>
    <path style="fill: #00b4ff" d="M 434.973 150.534 L 434.922,149.998 L 434.803,149.47 L 434.607,148.942 L 434.343,148.405 L 434.002,147.894 L 433.576,147.383 L 433.074,146.881 L 432.503,146.37 L 431.856,145.893 L 431.141,145.416 L 430.34,144.948 L 429.497,144.513 L 428.586,144.088 L 427.624,143.67 L 426.576,143.27 L 425.495,142.895 L 424.345,142.538 L 423.145,142.206 L 421.893,141.891 L 420.615,141.592 L 419.27,141.32 L 417.916,141.082 L 416.494,140.843 L 415.08,140.639 L 413.598,140.477 L 412.117,140.332 L 410.618,140.213 L 409.102,140.119 L 407.561,140.051 L 406.028,140 L 404.478,140 L 404.478,140 L 402.945,140 L 401.395,140.051 L 399.862,140.119 L 398.347,140.213 L 396.848,140.332 L 395.366,140.477 L 393.893,140.639 L 392.454,140.843 L 391.049,141.082 L 389.686,141.32 L 388.358,141.592 L 387.072,141.891 L 385.811,142.206 L 384.628,142.538 L 383.47,142.895 L 382.397,143.27 L 381.341,143.67 L 380.378,144.088 L 379.459,144.513 L 378.616,144.948 L 377.824,145.416 L 377.108,145.893 L 376.461,146.37 L 375.899,146.881 L 375.388,147.383 L 374.962,147.894 L 374.63,148.405 L 374.349,148.942 L 374.162,149.47 L 374.034,149.998 L 374,150.534 L 374,150.534 L 374.034,151.071 L 374.162,151.598 L 374.349,152.135 L 374.63,152.654 L 374.962,153.174 L 375.388,153.676 L 375.899,154.187 L 376.461,154.69 L 377.108,155.167 L 377.824,155.643 L 378.616,156.112 L 379.459,156.546 L 380.378,156.989 L 381.341,157.398 L 382.397,157.798 L 383.47,158.173 L 384.628,158.522 L 385.811,158.871 L 387.072,159.186 L 388.358,159.476 L 389.686,159.748 L 391.049,159.995 L 392.454,160.225 L 393.893,160.421 L 395.366,160.591 L 396.848,160.736 L 398.347,160.855 L 399.862,160.949 L 401.395,161.017 L 402.945,161.06 L 404.478,161.077 L 404.478,161.077 L 406.028,161.06 L 407.561,161.017 L 409.102,160.949 L 410.618,160.855 L 412.117,160.736 L 413.598,160.591 L 415.08,160.421 L 416.494,160.225 L 417.916,159.995 L 419.27,159.748 L 420.615,159.476 L 421.893,159.186 L 423.145,158.871 L 424.345,158.522 L 425.495,158.173 L 426.576,157.798 L 427.624,157.398 L 428.586,156.989 L 429.497,156.546 L 430.34,156.112 L 431.141,155.643 L 431.856,155.167 L 432.503,154.69 L 433.074,154.187 L 433.576,153.676 L 434.002,153.174 L 434.343,152.654 L 434.607,152.135 L 434.803,151.598 L 434.922,151.071 L 434.973,150.534z"/>
    <path style="fill: none; fill-opacity:0; stroke-width: 0.02; stroke: #aae6ff" d="M 434.607 150.355 L 434.573,149.827 L 434.462,149.308 L 434.266,148.78 L 434.011,148.277 L 433.636,147.749 L 433.21,147.255 L 432.742,146.753 L 432.154,146.268 L 431.507,145.799 L 430.809,145.322 L 430.017,144.871 L 429.174,144.437 L 428.28,144.011 L 427.317,143.602 L 426.27,143.21 L 425.188,142.844 L 424.039,142.495 L 422.864,142.163 L 421.62,141.856 L 420.334,141.558 L 419.006,141.277 L 417.652,141.056 L 416.264,140.826 L 414.842,140.639 L 413.377,140.468 L 411.904,140.332 L 410.413,140.204 L 408.906,140.119 L 407.382,140.051 L 405.832,140 L 404.308,140 L 404.308,140 L 402.766,140 L 401.233,140.051 L 399.709,140.119 L 398.193,140.204 L 396.703,140.332 L 395.238,140.468 L 393.782,140.639 L 392.343,140.826 L 390.946,141.056 L 389.609,141.277 L 388.264,141.558 L 386.987,141.856 L 385.76,142.163 L 384.568,142.495 L 383.427,142.844 L 382.337,143.21 L 381.298,143.602 L 380.344,144.011 L 379.425,144.437 L 378.581,144.871 L 377.807,145.322 L 377.091,145.799 L 376.453,146.268 L 375.882,146.753 L 375.388,147.255 L 374.962,147.749 L 374.613,148.277 L 374.341,148.78 L 374.136,149.308 L 374.034,149.827 L 374,150.355 L 374,150.355 L 374.034,150.892 L 374.136,151.403 L 374.341,151.922 L 374.613,152.433 L 374.962,152.961 L 375.388,153.463 L 375.882,153.94 L 376.453,154.443 L 377.091,154.92 L 377.807,155.379 L 378.581,155.839 L 379.425,156.274 L 380.344,156.699 L 381.298,157.108 L 382.337,157.5 L 383.427,157.866 L 384.568,158.215 L 385.76,158.547 L 386.987,158.871 L 388.264,159.152 L 389.609,159.424 L 390.946,159.654 L 392.343,159.884 L 393.782,160.063 L 395.238,160.242 L 396.703,160.387 L 398.193,160.515 L 399.709,160.6 L 401.233,160.668 L 402.766,160.702 L 404.308,160.727 L 404.308,160.727 L 405.832,160.702 L 407.382,160.668 L 408.906,160.6 L 410.413,160.515 L 411.904,160.387 L 413.377,160.242 L 414.842,160.063 L 416.264,159.884 L 417.652,159.654 L 419.006,159.424 L 420.334,159.152 L 421.62,158.871 L 422.864,158.547 L 424.039,158.215 L 425.188,157.866 L 426.27,157.5 L 427.317,157.108 L 428.28,156.699 L 429.174,156.274 L 430.017,155.839 L 430.809,155.379 L 431.507,154.92 L 432.154,154.443 L 432.742,153.94 L 433.21,153.463 L 433.636,152.961 L 434.011,152.433 L 434.266,151.922 L 434.462,151.403 L 434.573,150.892 L 434.607,150.355"/>
    <path style="fill: none; fill-opacity:0; stroke-width: 0.02; stroke: #aae6ff" d="M 374 150.355 L 374,165.139"/>
    <path style="fill: none; fill-opacity:0; stroke-width: 0.02; stroke: #aae6ff" d="M 434.607 150.355 L 434.607,165.139"/>
    <path style="fill: #ffffff" d="M 393.229 147.026 L 394.685,153.319 L 395.434,153.319 L 396.541,149.623 L 397.648,153.319 L 398.389,153.319 L 399.871,147.026 L 398.772,147.026 L 398.023,150.738 L 396.916,147.026 L 396.167,147.026 L 395.077,150.738 L 393.944,147.026 L 393.229,147.026z"/>
    <path style="fill: none; fill-opacity:0; stroke-width: 0.02; stroke: #000000" d="M 393.229 147.026 L 394.685,153.319 L 395.434,153.319 L 396.541,149.623 L 397.648,153.319 L 398.389,153.319 L 399.871,147.026 L 398.772,147.026 L 398.023,150.738 L 396.916,147.026 L 396.167,147.026 L 395.077,150.738 L 393.944,147.026 L 393.229,147.026"/>
    <path style="fill: #ffffff" d="M 400.603 147.026 L 402.477,153.319 L 403.192,153.319 L 404.308,149.623 L 405.406,153.319 L 406.147,153.319 L 407.637,147.026 L 406.53,147.026 L 405.789,150.738 L 404.665,147.026 L 403.933,147.026 L 402.826,150.738 L 401.71,147.026 L 400.603,147.026z"/>
    <path style="fill: none; fill-opacity:0; stroke-width: 0.02; stroke: #000000" d="M 400.603 147.026 L 402.477,153.319 L 403.192,153.319 L 404.308,149.623 L 405.406,153.319 L 406.147,153.319 L 407.637,147.026 L 406.53,147.026 L 405.789,150.738 L 404.665,147.026 L 403.933,147.026 L 402.826,150.738 L 401.71,147.026 L 400.603,147.026"/>
    <path style="fill: #ffffff" d="M 408.378 147.026 L 409.851,153.319 L 410.95,153.319 L 412.074,149.623 L 413.173,153.319 L 413.922,153.319 L 415.404,147.026 L 414.288,147.026 L 413.547,150.738 L 412.432,147.026 L 411.691,147.026 L 410.592,150.738 L 409.46,147.026 L 408.378,147.026z"/>
    <path style="fill: none; fill-opacity:0; stroke-width: 0.02; stroke: #000000" d="M 408.378 147.026 L 409.851,153.319 L 410.95,153.319 L 412.074,149.623 L 413.173,153.319 L 413.922,153.319 L 415.404,147.026 L 414.288,147.026 L 413.547,150.738 L 412.432,147.026 L 411.691,147.026 L 410.592,150.738 L 409.46,147.026 L 408.378,147.026"/>
    <path style="fill: #ffffff" d="M 390.623 142.589 L 384.347,144.811 L 390.623,147.392 L 390.623,145.918 L 424.252,145.918 L 424.252,143.696 L 390.623,143.696 L 390.623,142.589z"/>
    <path style="fill: #000000" d="M 390.623 142.955 L 424.252,142.955 L 424.252,143.696 L 390.623,143.696 L 390.623,142.955z"/>
    <path style="fill: #ffffff" d="M 418.342 154.068 L 424.635,156.282 L 418.342,158.496 L 418.342,157.032 L 383.248,157.032 L 383.248,155.167 L 418.342,155.167 L 418.342,154.068z"/>
    <path style="fill: #000000" d="M 418.342 154.068 L 424.635,156.282 L 425.367,155.907 L 418.342,153.319 L 418.342,154.068z"/>
    <path style="fill: #000000" d="M 418.342 154.417 L 383.248,154.417 L 383.248,155.167 L 418.342,155.167 L 418.342,154.417z"/>
    <path style="fill: #000000" d="M 390.623 142.589 L 384.347,144.811 L 383.597,144.437 L 390.623,142.214 L 390.623,142.589z"/>
  </g>
  <g>
    <path style="fill: #a5a585" d="M 446.985 421.189 L 446.926,420.428 L 446.759,419.68 L 446.474,418.932 L 446.082,418.196 L 445.595,417.459 L 444.99,416.735 L 444.277,416.022 L 443.458,415.321 L 442.531,414.633 L 441.51,413.979 L 440.393,413.326 L 439.194,412.685 L 437.876,412.079 L 436.486,411.497 L 435.013,410.939 L 433.446,410.404 L 431.818,409.906 L 430.108,409.431 L 428.339,408.991 L 426.486,408.575 L 424.597,408.184 L 422.638,407.839 L 420.631,407.507 L 418.6,407.233 L 416.509,406.996 L 414.383,406.794 L 412.246,406.616 L 410.072,406.497 L 407.887,406.39 L 405.69,406.319 L 403.493,406.319 L 403.493,406.319 L 401.283,406.319 L 399.086,406.39 L 396.901,406.497 L 394.727,406.616 L 392.59,406.794 L 390.464,406.996 L 388.385,407.233 L 386.343,407.507 L 384.335,407.839 L 382.376,408.184 L 380.487,408.575 L 378.646,408.991 L 376.877,409.431 L 375.167,409.906 L 373.528,410.404 L 371.96,410.939 L 370.499,411.497 L 369.098,412.079 L 367.791,412.685 L 366.58,413.326 L 365.463,413.979 L 364.442,414.633 L 363.516,415.321 L 362.696,416.022 L 361.983,416.735 L 361.378,417.459 L 360.891,418.196 L 360.499,418.932 L 360.214,419.68 L 360.059,420.428 L 360,421.189 L 360,421.189 L 360.059,421.949 L 360.214,422.685 L 360.499,423.445 L 360.891,424.181 L 361.378,424.918 L 361.983,425.642 L 362.696,426.355 L 363.516,427.056 L 364.442,427.733 L 365.463,428.398 L 366.58,429.051 L 367.791,429.692 L 369.098,430.298 L 370.499,430.88 L 371.96,431.438 L 373.528,431.973 L 375.167,432.471 L 376.877,432.946 L 378.646,433.386 L 380.487,433.802 L 382.376,434.194 L 384.335,434.538 L 386.343,434.859 L 388.385,435.144 L 390.464,435.381 L 392.59,435.583 L 394.727,435.749 L 396.901,435.88 L 399.086,435.975 L 401.283,436.046 L 403.493,436.058 L 403.493,436.058 L 405.69,436.046 L 407.887,435.975 L 410.072,435.88 L 412.246,435.749 L 414.383,435.583 L 416.509,435.381 L 418.6,435.144 L 420.631,434.859 L 422.638,434.538 L 424.597,434.194 L 426.486,433.802 L 428.339,433.386 L 430.108,432.946 L 431.818,432.471 L 433.446,431.973 L 435.013,431.438 L 436.486,430.88 L 437.876,430.298 L 439.194,429.692 L 440.393,429.051 L 441.51,428.398 L 442.531,427.733 L 443.458,427.056 L 444.277,426.355 L 444.99,425.642 L 445.595,424.918 L 446.082,424.181 L 446.474,423.445 L 446.759,422.685 L 446.926,421.949 L 446.985,421.189z"/>
    <path style="fill: none; fill-opacity:0; stroke-width: 0.02; stroke: #494936" d="M 446.474 420.951 L 446.415,420.191 L 446.261,419.466 L 445.987,418.73 L 445.607,418.006 L 445.097,417.269 L 444.479,416.568 L 443.802,415.856 L 442.971,415.191 L 442.056,414.514 L 441.047,413.849 L 439.93,413.219 L 438.731,412.59 L 437.436,411.996 L 436.07,411.402 L 434.574,410.868 L 433.018,410.345 L 431.391,409.846 L 429.704,409.383 L 427.947,408.956 L 426.118,408.54 L 424.217,408.172 L 422.281,407.827 L 420.286,407.507 L 418.267,407.233 L 416.201,406.996 L 414.075,406.806 L 411.949,406.616 L 409.787,406.509 L 407.626,406.414 L 405.417,406.355 L 403.231,406.319 L 403.231,406.319 L 401.046,406.355 L 398.861,406.414 L 396.675,406.509 L 394.537,406.616 L 392.4,406.806 L 390.286,406.996 L 388.207,407.233 L 386.176,407.507 L 384.193,407.827 L 382.257,408.172 L 380.357,408.54 L 378.528,408.956 L 376.782,409.383 L 375.072,409.846 L 373.433,410.345 L 371.889,410.868 L 370.416,411.402 L 369.05,411.996 L 367.744,412.59 L 366.532,413.219 L 365.44,413.849 L 364.43,414.514 L 363.492,415.191 L 362.684,415.856 L 361.983,416.568 L 361.378,417.269 L 360.879,418.006 L 360.487,418.73 L 360.214,419.466 L 360.059,420.191 L 360,420.951 L 360,420.951 L 360.059,421.687 L 360.214,422.412 L 360.487,423.16 L 360.879,423.885 L 361.378,424.609 L 361.983,425.322 L 362.684,426.022 L 363.492,426.699 L 364.43,427.364 L 365.44,428.041 L 366.532,428.683 L 367.744,429.288 L 369.05,429.894 L 370.416,430.476 L 371.889,431.022 L 373.433,431.545 L 375.072,432.032 L 376.782,432.507 L 378.528,432.935 L 380.357,433.35 L 382.257,433.73 L 384.193,434.063 L 386.176,434.372 L 388.207,434.645 L 390.286,434.882 L 392.4,435.084 L 394.537,435.262 L 396.675,435.381 L 398.861,435.476 L 401.046,435.536 L 403.231,435.559 L 403.231,435.559 L 405.417,435.536 L 407.626,435.476 L 409.787,435.381 L 411.949,435.262 L 414.075,435.084 L 416.201,434.882 L 418.267,434.645 L 420.286,434.372 L 422.281,434.063 L 424.217,433.73 L 426.118,433.35 L 427.947,432.935 L 429.704,432.507 L 431.391,432.032 L 433.018,431.545 L 434.574,431.022 L 436.07,430.476 L 437.436,429.894 L 438.731,429.288 L 439.93,428.683 L 441.047,428.041 L 442.056,427.364 L 442.971,426.699 L 443.802,426.022 L 444.479,425.322 L 445.097,424.609 L 445.607,423.885 L 445.987,423.16 L 446.261,422.412 L 446.415,421.687 L 446.474,420.951"/>
    <path style="fill: #a5a585" d="M 360 390.131 L 360,421.45 L 446.474,421.45 L 446.474,390.131 L 360,390.131z"/>
    <path style="fill: #c9c9b6" d="M 446.985 389.87 L 446.926,389.098 L 446.759,388.349 L 446.474,387.613 L 446.082,386.877 L 445.595,386.128 L 444.99,385.404 L 444.277,384.68 L 443.458,384.003 L 442.531,383.326 L 441.51,382.637 L 440.393,382.007 L 439.194,381.366 L 437.876,380.748 L 436.486,380.178 L 435.013,379.62 L 433.446,379.074 L 431.818,378.575 L 430.108,378.112 L 428.339,377.66 L 426.486,377.245 L 424.597,376.865 L 422.638,376.52 L 420.631,376.2 L 418.6,375.915 L 416.509,375.677 L 414.383,375.475 L 412.246,375.309 L 410.072,375.178 L 407.887,375.071 L 405.69,375.012 L 403.493,375 L 403.493,375 L 401.283,375.012 L 399.086,375.071 L 396.901,375.178 L 394.727,375.309 L 392.59,375.475 L 390.464,375.677 L 388.385,375.915 L 386.343,376.2 L 384.335,376.52 L 382.376,376.865 L 380.487,377.245 L 378.646,377.66 L 376.877,378.112 L 375.167,378.575 L 373.528,379.074 L 371.96,379.62 L 370.499,380.178 L 369.098,380.748 L 367.791,381.366 L 366.58,382.007 L 365.463,382.637 L 364.442,383.326 L 363.516,384.003 L 362.696,384.68 L 361.983,385.404 L 361.378,386.128 L 360.891,386.877 L 360.499,387.613 L 360.214,388.349 L 360.059,389.098 L 360,389.87 L 360,389.87 L 360.059,390.618 L 360.214,391.378 L 360.499,392.102 L 360.891,392.863 L 361.378,393.587 L 361.983,394.323 L 362.696,395.036 L 363.516,395.725 L 364.442,396.414 L 365.463,397.079 L 366.58,397.732 L 367.791,398.361 L 369.098,398.967 L 370.499,399.549 L 371.96,400.119 L 373.528,400.642 L 375.167,401.153 L 376.877,401.628 L 378.646,402.067 L 380.487,402.483 L 382.376,402.875 L 384.335,403.207 L 386.343,403.54 L 388.385,403.813 L 390.464,404.05 L 392.59,404.264 L 394.727,404.419 L 396.901,404.561 L 399.086,404.656 L 401.283,404.716 L 403.493,404.739 L 403.493,404.739 L 405.69,404.716 L 407.887,404.656 L 410.072,404.561 L 412.246,404.419 L 414.383,404.264 L 416.509,404.05 L 418.6,403.813 L 420.631,403.54 L 422.638,403.207 L 424.597,402.875 L 426.486,402.483 L 428.339,402.067 L 430.108,401.628 L 431.818,401.153 L 433.446,400.642 L 435.013,400.119 L 436.486,399.549 L 437.876,398.967 L 439.194,398.361 L 440.393,397.732 L 441.51,397.079 L 442.531,396.414 L 443.458,395.725 L 444.277,395.036 L 444.99,394.323 L 445.595,393.587 L 446.082,392.863 L 446.474,392.102 L 446.759,391.378 L 446.926,390.618 L 446.985,389.87z"/>
    <path style="fill: none; fill-opacity:0; stroke-width: 0.02; stroke: #494936" d="M 446.474 389.632 L 446.415,388.872 L 446.261,388.148 L 445.987,387.423 L 445.607,386.687 L 445.097,385.938 L 444.479,385.238 L 443.802,384.561 L 442.971,383.86 L 442.056,383.195 L 441.047,382.518 L 439.93,381.9 L 438.731,381.271 L 437.436,380.665 L 436.07,380.107 L 434.574,379.549 L 433.018,379.038 L 431.391,378.539 L 429.704,378.064 L 427.947,377.625 L 426.118,377.221 L 424.217,376.853 L 422.281,376.508 L 420.286,376.2 L 418.267,375.915 L 416.201,375.677 L 414.075,375.475 L 411.949,375.309 L 409.787,375.178 L 409.063,375.143 L 397.4,375.143 L 396.675,375.178 L 394.537,375.309 L 392.4,375.475 L 390.286,375.677 L 388.207,375.915 L 386.176,376.2 L 384.193,376.508 L 382.257,376.853 L 380.357,377.221 L 378.528,377.625 L 376.782,378.064 L 375.072,378.539 L 373.433,379.038 L 371.889,379.549 L 370.416,380.107 L 369.05,380.665 L 367.744,381.271 L 366.532,381.9 L 365.44,382.518 L 364.43,383.195 L 363.492,383.86 L 362.684,384.561 L 361.983,385.238 L 361.378,385.938 L 360.879,386.687 L 360.487,387.423 L 360.214,388.148 L 360.059,388.872 L 360,389.632 L 360,389.632 L 360.059,390.357 L 360.214,391.105 L 360.487,391.841 L 360.879,392.566 L 361.378,393.29 L 361.983,394.003 L 362.684,394.692 L 363.492,395.392 L 364.43,396.057 L 365.44,396.723 L 366.532,397.364 L 367.744,397.97 L 369.05,398.563 L 370.416,399.157 L 371.889,399.704 L 373.433,400.214 L 375.072,400.701 L 376.782,401.176 L 378.528,401.604 L 380.357,402.02 L 382.257,402.411 L 384.193,402.72 L 386.176,403.053 L 388.207,403.314 L 390.286,403.563 L 392.4,403.777 L 394.537,403.944 L 396.675,404.074 L 398.861,404.157 L 401.046,404.205 L 403.231,404.24 L 403.231,404.24 L 405.417,404.205 L 407.626,404.157 L 409.787,404.074 L 411.949,403.944 L 414.075,403.777 L 416.201,403.563 L 418.267,403.314 L 420.286,403.053 L 422.281,402.72 L 424.217,402.411 L 426.118,402.02 L 427.947,401.604 L 429.704,401.176 L 431.391,400.701 L 433.018,400.214 L 434.574,399.704 L 436.07,399.157 L 437.436,398.563 L 438.731,397.97 L 439.93,397.364 L 441.047,396.723 L 442.056,396.057 L 442.971,395.392 L 443.802,394.692 L 444.479,394.003 L 445.097,393.29 L 445.607,392.566 L 445.987,391.841 L 446.261,391.105 L 446.415,390.357 L 446.474,389.632"/>
    <path style="fill: none; fill-opacity:0; stroke-width: 0.02; stroke: #000000" d="M 360 389.632 L 360,420.927"/>
    <path style="fill: none; fill-opacity:0; stroke-width: 0.02; stroke: #000000" d="M 446.474 389.632 L 446.474,420.927"/>
  </g>
  <g>
    <path style="fill: #a5a585" d="M 286.985 186.189 L 286.926,185.428 L 286.759,184.68 L 286.474,183.932 L 286.082,183.196 L 285.595,182.459 L 284.99,181.735 L 284.277,181.022 L 283.458,180.321 L 282.531,179.633 L 281.51,178.979 L 280.393,178.326 L 279.194,177.685 L 277.876,177.079 L 276.486,176.497 L 275.013,175.939 L 273.446,175.404 L 271.818,174.906 L 270.108,174.431 L 268.339,173.991 L 266.486,173.575 L 264.597,173.184 L 262.638,172.839 L 260.631,172.507 L 258.6,172.233 L 256.509,171.996 L 254.383,171.794 L 252.246,171.616 L 250.072,171.497 L 247.887,171.39 L 245.69,171.319 L 243.493,171.319 L 243.493,171.319 L 241.283,171.319 L 239.086,171.39 L 236.901,171.497 L 234.727,171.616 L 232.59,171.794 L 230.464,171.996 L 228.385,172.233 L 226.343,172.507 L 224.335,172.839 L 222.376,173.184 L 220.487,173.575 L 218.646,173.991 L 216.877,174.431 L 215.167,174.906 L 213.528,175.404 L 211.96,175.939 L 210.499,176.497 L 209.098,177.079 L 207.791,177.685 L 206.58,178.326 L 205.463,178.979 L 204.442,179.633 L 203.516,180.321 L 202.696,181.022 L 201.983,181.735 L 201.378,182.459 L 200.891,183.196 L 200.499,183.932 L 200.214,184.68 L 200.059,185.428 L 200,186.189 L 200,186.189 L 200.059,186.949 L 200.214,187.685 L 200.499,188.445 L 200.891,189.181 L 201.378,189.918 L 201.983,190.642 L 202.696,191.355 L 203.516,192.056 L 204.442,192.733 L 205.463,193.398 L 206.58,194.051 L 207.791,194.692 L 209.098,195.298 L 210.499,195.88 L 211.96,196.438 L 213.528,196.973 L 215.167,197.471 L 216.877,197.946 L 218.646,198.386 L 220.487,198.802 L 222.376,199.194 L 224.335,199.538 L 226.343,199.859 L 228.385,200.144 L 230.464,200.381 L 232.59,200.583 L 234.727,200.749 L 236.901,200.88 L 239.086,200.975 L 241.283,201.046 L 243.493,201.058 L 243.493,201.058 L 245.69,201.046 L 247.887,200.975 L 250.072,200.88 L 252.246,200.749 L 254.383,200.583 L 256.509,200.381 L 258.6,200.144 L 260.631,199.859 L 262.638,199.538 L 264.597,199.194 L 266.486,198.802 L 268.339,198.386 L 270.108,197.946 L 271.818,197.471 L 273.446,196.973 L 275.013,196.438 L 276.486,195.88 L 277.876,195.298 L 279.194,194.692 L 280.393,194.051 L 281.51,193.398 L 282.531,192.733 L 283.458,192.056 L 284.277,191.355 L 284.99,190.642 L 285.595,189.918 L 286.082,189.181 L 286.474,188.445 L 286.759,187.685 L 286.926,186.949 L 286.985,186.189z"/>
    <path style="fill: none; fill-opacity:0; stroke-width: 0.02; stroke: #494936" d="M 286.474 185.951 L 286.415,185.191 L 286.261,184.466 L 285.987,183.73 L 285.607,183.006 L 285.097,182.269 L 284.479,181.568 L 283.802,180.856 L 282.971,180.191 L 282.056,179.514 L 281.047,178.849 L 279.93,178.219 L 278.731,177.59 L 277.436,176.996 L 276.07,176.402 L 274.574,175.868 L 273.018,175.345 L 271.391,174.846 L 269.704,174.383 L 267.947,173.956 L 266.118,173.54 L 264.217,173.172 L 262.281,172.827 L 260.286,172.507 L 258.267,172.233 L 256.201,171.996 L 254.075,171.806 L 251.949,171.616 L 249.787,171.509 L 247.626,171.414 L 245.417,171.355 L 243.231,171.319 L 243.231,171.319 L 241.046,171.355 L 238.861,171.414 L 236.675,171.509 L 234.537,171.616 L 232.4,171.806 L 230.286,171.996 L 228.207,172.233 L 226.176,172.507 L 224.193,172.827 L 222.257,173.172 L 220.357,173.54 L 218.528,173.956 L 216.782,174.383 L 215.072,174.846 L 213.433,175.345 L 211.889,175.868 L 210.416,176.402 L 209.05,176.996 L 207.744,177.59 L 206.532,178.219 L 205.44,178.849 L 204.43,179.514 L 203.492,180.191 L 202.684,180.856 L 201.983,181.568 L 201.378,182.269 L 200.879,183.006 L 200.487,183.73 L 200.214,184.466 L 200.059,185.191 L 200,185.951 L 200,185.951 L 200.059,186.687 L 200.214,187.412 L 200.487,188.16 L 200.879,188.885 L 201.378,189.609 L 201.983,190.322 L 202.684,191.022 L 203.492,191.699 L 204.43,192.364 L 205.44,193.041 L 206.532,193.683 L 207.744,194.288 L 209.05,194.894 L 210.416,195.476 L 211.889,196.022 L 213.433,196.545 L 215.072,197.032 L 216.782,197.507 L 218.528,197.935 L 220.357,198.35 L 222.257,198.73 L 224.193,199.063 L 226.176,199.372 L 228.207,199.645 L 230.286,199.882 L 232.4,200.084 L 234.537,200.262 L 236.675,200.381 L 238.861,200.476 L 241.046,200.536 L 243.231,200.559 L 243.231,200.559 L 245.417,200.536 L 247.626,200.476 L 249.787,200.381 L 251.949,200.262 L 254.075,200.084 L 256.201,199.882 L 258.267,199.645 L 260.286,199.372 L 262.281,199.063 L 264.217,198.73 L 266.118,198.35 L 267.947,197.935 L 269.704,197.507 L 271.391,197.032 L 273.018,196.545 L 274.574,196.022 L 276.07,195.476 L 277.436,194.894 L 278.731,194.288 L 279.93,193.683 L 281.047,193.041 L 282.056,192.364 L 282.971,191.699 L 283.802,191.022 L 284.479,190.322 L 285.097,189.609 L 285.607,188.885 L 285.987,188.16 L 286.261,187.412 L 286.415,186.687 L 286.474,185.951"/>
    <path style="fill: #a5a585" d="M 200 155.131 L 200,186.45 L 286.474,186.45 L 286.474,155.131 L 200,155.131z"/>
    <path style="fill: #c9c9b6" d="M 286.985 154.87 L 286.926,154.098 L 286.759,153.349 L 286.474,152.613 L 286.082,151.877 L 285.595,151.128 L 284.99,150.404 L 284.277,149.68 L 283.458,149.003 L 282.531,148.326 L 281.51,147.637 L 280.393,147.007 L 279.194,146.366 L 277.876,145.748 L 276.486,145.178 L 275.013,144.62 L 273.446,144.074 L 271.818,143.575 L 270.108,143.112 L 268.339,142.66 L 266.486,142.245 L 264.597,141.865 L 262.638,141.52 L 260.631,141.2 L 258.6,140.915 L 256.509,140.677 L 254.383,140.475 L 252.246,140.309 L 250.072,140.178 L 247.887,140.071 L 245.69,140.012 L 243.493,140 L 243.493,140 L 241.283,140.012 L 239.086,140.071 L 236.901,140.178 L 234.727,140.309 L 232.59,140.475 L 230.464,140.677 L 228.385,140.915 L 226.343,141.2 L 224.335,141.52 L 222.376,141.865 L 220.487,142.245 L 218.646,142.66 L 216.877,143.112 L 215.167,143.575 L 213.528,144.074 L 211.96,144.62 L 210.499,145.178 L 209.098,145.748 L 207.791,146.366 L 206.58,147.007 L 205.463,147.637 L 204.442,148.326 L 203.516,149.003 L 202.696,149.68 L 201.983,150.404 L 201.378,151.128 L 200.891,151.877 L 200.499,152.613 L 200.214,153.349 L 200.059,154.098 L 200,154.87 L 200,154.87 L 200.059,155.618 L 200.214,156.378 L 200.499,157.102 L 200.891,157.863 L 201.378,158.587 L 201.983,159.323 L 202.696,160.036 L 203.516,160.725 L 204.442,161.414 L 205.463,162.079 L 206.58,162.732 L 207.791,163.361 L 209.098,163.967 L 210.499,164.549 L 211.96,165.119 L 213.528,165.642 L 215.167,166.153 L 216.877,166.628 L 218.646,167.067 L 220.487,167.483 L 222.376,167.875 L 224.335,168.207 L 226.343,168.54 L 228.385,168.813 L 230.464,169.05 L 232.59,169.264 L 234.727,169.419 L 236.901,169.561 L 239.086,169.656 L 241.283,169.716 L 243.493,169.739 L 243.493,169.739 L 245.69,169.716 L 247.887,169.656 L 250.072,169.561 L 252.246,169.419 L 254.383,169.264 L 256.509,169.05 L 258.6,168.813 L 260.631,168.54 L 262.638,168.207 L 264.597,167.875 L 266.486,167.483 L 268.339,167.067 L 270.108,166.628 L 271.818,166.153 L 273.446,165.642 L 275.013,165.119 L 276.486,164.549 L 277.876,163.967 L 279.194,163.361 L 280.393,162.732 L 281.51,162.079 L 282.531,161.414 L 283.458,160.725 L 284.277,160.036 L 284.99,159.323 L 285.595,158.587 L 286.082,157.863 L 286.474,157.102 L 286.759,156.378 L 286.926,155.618 L 286.985,154.87z"/>
    <path style="fill: none; fill-opacity:0; stroke-width: 0.02; stroke: #494936" d="M 286.474 154.632 L 286.415,153.872 L 286.261,153.148 L 285.987,152.423 L 285.607,151.687 L 285.097,150.938 L 284.479,150.238 L 283.802,149.561 L 282.971,148.86 L 282.056,148.195 L 281.047,147.518 L 279.93,146.9 L 278.731,146.271 L 277.436,145.665 L 276.07,145.107 L 274.574,144.549 L 273.018,144.038 L 271.391,143.539 L 269.704,143.064 L 267.947,142.625 L 266.118,142.221 L 264.217,141.853 L 262.281,141.508 L 260.286,141.2 L 258.267,140.915 L 256.201,140.677 L 254.075,140.475 L 251.949,140.309 L 249.787,140.178 L 249.063,140.143 L 237.4,140.143 L 236.675,140.178 L 234.537,140.309 L 232.4,140.475 L 230.286,140.677 L 228.207,140.915 L 226.176,141.2 L 224.193,141.508 L 222.257,141.853 L 220.357,142.221 L 218.528,142.625 L 216.782,143.064 L 215.072,143.539 L 213.433,144.038 L 211.889,144.549 L 210.416,145.107 L 209.05,145.665 L 207.744,146.271 L 206.532,146.9 L 205.44,147.518 L 204.43,148.195 L 203.492,148.86 L 202.684,149.561 L 201.983,150.238 L 201.378,150.938 L 200.879,151.687 L 200.487,152.423 L 200.214,153.148 L 200.059,153.872 L 200,154.632 L 200,154.632 L 200.059,155.357 L 200.214,156.105 L 200.487,156.841 L 200.879,157.566 L 201.378,158.29 L 201.983,159.003 L 202.684,159.692 L 203.492,160.392 L 204.43,161.057 L 205.44,161.723 L 206.532,162.364 L 207.744,162.97 L 209.05,163.563 L 210.416,164.157 L 211.889,164.704 L 213.433,165.214 L 215.072,165.701 L 216.782,166.176 L 218.528,166.604 L 220.357,167.02 L 222.257,167.411 L 224.193,167.72 L 226.176,168.053 L 228.207,168.314 L 230.286,168.563 L 232.4,168.777 L 234.537,168.944 L 236.675,169.074 L 238.861,169.157 L 241.046,169.205 L 243.231,169.24 L 243.231,169.24 L 245.417,169.205 L 247.626,169.157 L 249.787,169.074 L 251.949,168.944 L 254.075,168.777 L 256.201,168.563 L 258.267,168.314 L 260.286,168.053 L 262.281,167.72 L 264.217,167.411 L 266.118,167.02 L 267.947,166.604 L 269.704,166.176 L 271.391,165.701 L 273.018,165.214 L 274.574,164.704 L 276.07,164.157 L 277.436,163.563 L 278.731,162.97 L 279.93,162.364 L 281.047,161.723 L 282.056,161.057 L 282.971,160.392 L 283.802,159.692 L 284.479,159.003 L 285.097,158.29 L 285.607,157.566 L 285.987,156.841 L 286.261,156.105 L 286.415,155.357 L 286.474,154.632"/>
    <path style="fill: none; fill-opacity:0; stroke-width: 0.02; stroke: #000000" d="M 200 154.632 L 200,185.927"/>
    <path style="fill: none; fill-opacity:0; stroke-width: 0.02; stroke: #000000" d="M 286.474 154.632 L 286.474,185.927"/>
  </g>
  <g>
    <path style="fill: #b7b796" d="M 500 467.974 L 556.464,467.974 L 556.464,378.035 L 500,378.035 L 500,467.974z"/>
    <path style="fill: none; fill-opacity:0; stroke-width: 0.02; stroke: #494936" d="M 500 467.974 L 556.464,467.974 L 556.464,378.035 L 500,378.035 L 500,467.974"/>
    <path style="fill: #7a7a5a" d="M 556.464 378.031 L 556.464,467.974 L 574.495,449.943 L 574.495,360 L 556.464,378.031z"/>
    <path style="fill: none; fill-opacity:0; stroke-width: 0.02; stroke: #494936" d="M 556.464 378.031 L 556.464,467.974 L 574.495,449.943 L 574.495,360 L 556.464,378.031"/>
    <path style="fill: #c9c9b6" d="M 574.498 360 L 518.035,360 L 500.004,378.031 L 556.467,378.031 L 574.498,360z"/>
    <path style="fill: none; fill-opacity:0; stroke-width: 0.02; stroke: #494936" d="M 574.498 360 L 518.035,360 L 500.004,378.031 L 556.467,378.031 L 574.498,360"/>
    <path style="fill: #ffffff" d="M 526.786 446.24 C 526.786,448.464 521.994,450.273 516.086,450.273 C 510.175,450.273 505.379,448.468 505.379,446.24 C 505.379,444.009 510.175,442.2 516.086,442.2 C 521.994,442.2 526.786,444.006 526.786,446.24z"/>
    <path style="fill: none; fill-opacity:0; stroke-width: 0.02; stroke: #ffffff" d="M 526.786 446.24 C 526.786,448.464 521.994,450.273 516.086,450.273 C 510.175,450.273 505.379,448.468 505.379,446.24 C 505.379,444.009 510.175,442.2 516.086,442.2 C 521.994,442.2 526.786,444.006 526.786,446.24"/>
    <path style="fill: none; fill-opacity:0; stroke-width: 0.6; stroke-linecap: round; stroke-linejoin: round; stroke: #000000" d="M 526.786 446.24 C 526.786,448.464 521.994,450.273 516.086,450.273 C 510.175,450.273 505.379,448.468 505.379,446.24 C 505.379,444.009 510.175,442.2 516.086,442.2 C 521.994,442.2 526.786,444.006 526.786,446.24"/>
    <path style="fill: #000000" d="M 519.249 446.02 C 519.249,446.688 517.807,447.227 516.039,447.227 C 514.263,447.227 512.828,446.684 512.828,446.02 C 512.828,445.345 514.263,444.806 516.039,444.806 C 517.807,444.806 519.249,445.349 519.249,446.02z"/>
    <path style="fill: none; fill-opacity:0; stroke-width: 0.02; stroke: #000000" d="M 519.249 446.02 C 519.249,446.688 517.807,447.227 516.039,447.227 C 514.263,447.227 512.828,446.684 512.828,446.02 C 512.828,445.345 514.263,444.806 516.039,444.806 C 517.807,444.806 519.249,445.349 519.249,446.02"/>
    <path style="fill: #000000" d="M 519.249 443.819 C 519.249,444.486 517.807,445.026 516.039,445.026 C 514.263,445.026 512.828,444.483 512.828,443.819 C 512.828,443.147 514.263,442.608 516.039,442.608 C 517.807,442.608 519.249,443.151 519.249,443.819z"/>
    <path style="fill: none; fill-opacity:0; stroke-width: 0.02; stroke: #000000" d="M 519.249 443.819 C 519.249,444.486 517.807,445.026 516.039,445.026 C 514.263,445.026 512.828,444.483 512.828,443.819 C 512.828,443.147 514.263,442.608 516.039,442.608 C 517.807,442.608 519.249,443.151 519.249,443.819"/>
    <path style="fill: #ffffff" d="M 526.786 441.837 C 526.786,444.064 521.994,445.873 516.086,445.873 C 510.175,445.873 505.379,444.068 505.379,441.837 C 505.379,439.606 510.175,437.797 516.086,437.797 C 521.994,437.797 526.786,439.602 526.786,441.837z"/>
    <path style="fill: none; fill-opacity:0; stroke-width: 0.02; stroke: #ffffff" d="M 526.786 441.837 C 526.786,444.064 521.994,445.873 516.086,445.873 C 510.175,445.873 505.379,444.068 505.379,441.837 C 505.379,439.606 510.175,437.797 516.086,437.797 C 521.994,437.797 526.786,439.602 526.786,441.837"/>
    <path style="fill: none; fill-opacity:0; stroke-width: 0.6; stroke-linecap: round; stroke-linejoin: round; stroke: #000000" d="M 526.786 441.837 C 526.786,444.064 521.994,445.873 516.086,445.873 C 510.175,445.873 505.379,444.068 505.379,441.837 C 505.379,439.606 510.175,437.797 516.086,437.797 C 521.994,437.797 526.786,439.602 526.786,441.837"/>
    <path style="fill: #000000" d="M 519.249 441.617 C 519.249,442.285 517.807,442.824 516.039,442.824 C 514.263,442.824 512.828,442.281 512.828,441.617 C 512.828,440.945 514.263,440.402 516.039,440.402 C 517.807,440.402 519.249,440.945 519.249,441.617z"/>
    <path style="fill: none; fill-opacity:0; stroke-width: 0.02; stroke: #000000" d="M 519.249 441.617 C 519.249,442.285 517.807,442.824 516.039,442.824 C 514.263,442.824 512.828,442.281 512.828,441.617 C 512.828,440.945 514.263,440.402 516.039,440.402 C 517.807,440.402 519.249,440.945 519.249,441.617"/>
    <path style="fill: #000000" d="M 519.249 439.412 C 519.249,440.079 517.807,440.623 516.039,440.623 C 514.263,440.623 512.828,440.079 512.828,439.412 C 512.828,438.74 514.263,438.201 516.039,438.201 C 517.807,438.201 519.249,438.744 519.249,439.412z"/>
    <path style="fill: none; fill-opacity:0; stroke-width: 0.02; stroke: #000000" d="M 519.249 439.412 C 519.249,440.079 517.807,440.623 516.039,440.623 C 514.263,440.623 512.828,440.079 512.828,439.412 C 512.828,438.74 514.263,438.201 516.039,438.201 C 517.807,438.201 519.249,438.744 519.249,439.412"/>
    <path style="fill: #ffffff" d="M 526.786 437.43 C 526.786,439.657 521.994,441.466 516.086,441.466 C 510.175,441.466 505.379,439.661 505.379,437.43 C 505.379,435.199 510.175,433.39 516.086,433.39 C 521.994,433.39 526.786,435.196 526.786,437.43z"/>
    <path style="fill: none; fill-opacity:0; stroke-width: 0.02; stroke: #ffffff" d="M 526.786 437.43 C 526.786,439.657 521.994,441.466 516.086,441.466 C 510.175,441.466 505.379,439.661 505.379,437.43 C 505.379,435.199 510.175,433.39 516.086,433.39 C 521.994,433.39 526.786,435.196 526.786,437.43"/>
    <path style="fill: none; fill-opacity:0; stroke-width: 0.6; stroke-linecap: round; stroke-linejoin: round; stroke: #000000" d="M 526.786 437.43 C 526.786,439.657 521.994,441.466 516.086,441.466 C 510.175,441.466 505.379,439.661 505.379,437.43 C 505.379,435.199 510.175,433.39 516.086,433.39 C 521.994,433.39 526.786,435.196 526.786,437.43"/>
    <path style="fill: #000000" d="M 519.249 437.214 C 519.249,437.882 517.807,438.421 516.039,438.421 C 514.263,438.421 512.828,437.878 512.828,437.214 C 512.828,436.542 514.263,436.003 516.039,436.003 C 517.807,436.003 519.249,436.542 519.249,437.214z"/>
    <path style="fill: none; fill-opacity:0; stroke-width: 0.02; stroke: #000000" d="M 519.249 437.214 C 519.249,437.882 517.807,438.421 516.039,438.421 C 514.263,438.421 512.828,437.878 512.828,437.214 C 512.828,436.542 514.263,436.003 516.039,436.003 C 517.807,436.003 519.249,436.542 519.249,437.214"/>
    <path style="fill: #ffffff" d="M 526.786 428.627 C 526.786,430.851 521.994,432.66 516.086,432.66 C 510.175,432.66 505.379,430.855 505.379,428.627 C 505.379,426.397 510.175,424.588 516.086,424.588 C 521.994,424.588 526.786,426.393 526.786,428.627z"/>
    <path style="fill: none; fill-opacity:0; stroke-width: 0.02; stroke: #ffffff" d="M 526.786 428.627 C 526.786,430.851 521.994,432.66 516.086,432.66 C 510.175,432.66 505.379,430.855 505.379,428.627 C 505.379,426.397 510.175,424.588 516.086,424.588 C 521.994,424.588 526.786,426.393 526.786,428.627"/>
    <path style="fill: none; fill-opacity:0; stroke-width: 0.6; stroke-linecap: round; stroke-linejoin: round; stroke: #000000" d="M 526.786 428.627 C 526.786,430.851 521.994,432.66 516.086,432.66 C 510.175,432.66 505.379,430.855 505.379,428.627 C 505.379,426.397 510.175,424.588 516.086,424.588 C 521.994,424.588 526.786,426.393 526.786,428.627"/>
    <path style="fill: #000000" d="M 519.249 428.404 C 519.249,429.071 517.807,429.615 516.039,429.615 C 514.263,429.615 512.828,429.071 512.828,428.404 C 512.828,427.732 514.263,427.193 516.039,427.193 C 517.807,427.193 519.249,427.736 519.249,428.404z"/>
    <path style="fill: none; fill-opacity:0; stroke-width: 0.02; stroke: #000000" d="M 519.249 428.404 C 519.249,429.071 517.807,429.615 516.039,429.615 C 514.263,429.615 512.828,429.071 512.828,428.404 C 512.828,427.732 514.263,427.193 516.039,427.193 C 517.807,427.193 519.249,427.736 519.249,428.404"/>
    <path style="fill: #000000" d="M 519.249 426.206 C 519.249,426.874 517.807,427.413 516.039,427.413 C 514.263,427.413 512.828,426.87 512.828,426.206 C 512.828,425.534 514.263,424.995 516.039,424.995 C 517.807,424.995 519.249,425.534 519.249,426.206z"/>
    <path style="fill: none; fill-opacity:0; stroke-width: 0.02; stroke: #000000" d="M 519.249 426.206 C 519.249,426.874 517.807,427.413 516.039,427.413 C 514.263,427.413 512.828,426.87 512.828,426.206 C 512.828,425.534 514.263,424.995 516.039,424.995 C 517.807,424.995 519.249,425.534 519.249,426.206"/>
    <path style="fill: #ffffff" d="M 526.786 424.224 C 526.786,426.448 521.994,428.257 516.086,428.257 C 510.175,428.257 505.379,426.452 505.379,424.224 C 505.379,421.993 510.175,420.184 516.086,420.184 C 521.994,420.184 526.786,421.99 526.786,424.224z"/>
    <path style="fill: none; fill-opacity:0; stroke-width: 0.02; stroke: #ffffff" d="M 526.786 424.224 C 526.786,426.448 521.994,428.257 516.086,428.257 C 510.175,428.257 505.379,426.452 505.379,424.224 C 505.379,421.993 510.175,420.184 516.086,420.184 C 521.994,420.184 526.786,421.99 526.786,424.224"/>
    <path style="fill: none; fill-opacity:0; stroke-width: 0.6; stroke-linecap: round; stroke-linejoin: round; stroke: #000000" d="M 526.786 424.224 C 526.786,426.448 521.994,428.257 516.086,428.257 C 510.175,428.257 505.379,426.452 505.379,424.224 C 505.379,421.993 510.175,420.184 516.086,420.184 C 521.994,420.184 526.786,421.99 526.786,424.224"/>
    <path style="fill: #000000" d="M 519.249 424.004 C 519.249,424.672 517.807,425.211 516.039,425.211 C 514.263,425.211 512.828,424.668 512.828,424.004 C 512.828,423.329 514.263,422.79 516.039,422.79 C 517.807,422.79 519.249,423.333 519.249,424.004z"/>
    <path style="fill: none; fill-opacity:0; stroke-width: 0.02; stroke: #000000" d="M 519.249 424.004 C 519.249,424.672 517.807,425.211 516.039,425.211 C 514.263,425.211 512.828,424.668 512.828,424.004 C 512.828,423.329 514.263,422.79 516.039,422.79 C 517.807,422.79 519.249,423.333 519.249,424.004"/>
    <path style="fill: #000000" d="M 519.249 421.803 C 519.249,422.47 517.807,423.01 516.039,423.01 C 514.263,423.01 512.828,422.467 512.828,421.803 C 512.828,421.131 514.263,420.592 516.039,420.592 C 517.807,420.592 519.249,421.135 519.249,421.803z"/>
    <path style="fill: none; fill-opacity:0; stroke-width: 0.02; stroke: #000000" d="M 519.249 421.803 C 519.249,422.47 517.807,423.01 516.039,423.01 C 514.263,423.01 512.828,422.467 512.828,421.803 C 512.828,421.131 514.263,420.592 516.039,420.592 C 517.807,420.592 519.249,421.135 519.249,421.803"/>
    <path style="fill: #ffffff" d="M 526.786 419.821 C 526.786,422.048 521.994,423.857 516.086,423.857 C 510.175,423.857 505.379,422.052 505.379,419.821 C 505.379,417.59 510.175,415.781 516.086,415.781 C 521.994,415.781 526.786,417.586 526.786,419.821z"/>
    <path style="fill: none; fill-opacity:0; stroke-width: 0.02; stroke: #ffffff" d="M 526.786 419.821 C 526.786,422.048 521.994,423.857 516.086,423.857 C 510.175,423.857 505.379,422.052 505.379,419.821 C 505.379,417.59 510.175,415.781 516.086,415.781 C 521.994,415.781 526.786,417.586 526.786,419.821"/>
    <path style="fill: none; fill-opacity:0; stroke-width: 0.6; stroke-linecap: round; stroke-linejoin: round; stroke: #000000" d="M 526.786 419.821 C 526.786,422.048 521.994,423.857 516.086,423.857 C 510.175,423.857 505.379,422.052 505.379,419.821 C 505.379,417.59 510.175,415.781 516.086,415.781 C 521.994,415.781 526.786,417.586 526.786,419.821"/>
    <path style="fill: #000000" d="M 519.249 419.601 C 519.249,420.269 517.807,420.808 516.039,420.808 C 514.263,420.808 512.828,420.265 512.828,419.601 C 512.828,418.929 514.263,418.386 516.039,418.386 C 517.807,418.386 519.249,418.929 519.249,419.601z"/>
    <path style="fill: none; fill-opacity:0; stroke-width: 0.02; stroke: #000000" d="M 519.249 419.601 C 519.249,420.269 517.807,420.808 516.039,420.808 C 514.263,420.808 512.828,420.265 512.828,419.601 C 512.828,418.929 514.263,418.386 516.039,418.386 C 517.807,418.386 519.249,418.929 519.249,419.601"/>
    <path style="fill: #ffffff" d="M 526.786 411.011 C 526.786,413.238 521.994,415.047 516.086,415.047 C 510.175,415.047 505.379,413.242 505.379,411.011 C 505.379,408.784 510.175,406.975 516.086,406.975 C 521.994,406.975 526.786,408.78 526.786,411.011z"/>
    <path style="fill: none; fill-opacity:0; stroke-width: 0.02; stroke: #ffffff" d="M 526.786 411.011 C 526.786,413.238 521.994,415.047 516.086,415.047 C 510.175,415.047 505.379,413.242 505.379,411.011 C 505.379,408.784 510.175,406.975 516.086,406.975 C 521.994,406.975 526.786,408.78 526.786,411.011"/>
    <path style="fill: none; fill-opacity:0; stroke-width: 0.6; stroke-linecap: round; stroke-linejoin: round; stroke: #000000" d="M 526.786 411.011 C 526.786,413.238 521.994,415.047 516.086,415.047 C 510.175,415.047 505.379,413.242 505.379,411.011 C 505.379,408.784 510.175,406.975 516.086,406.975 C 521.994,406.975 526.786,408.78 526.786,411.011"/>
    <path style="fill: #000000" d="M 519.249 410.795 C 519.249,411.462 517.807,412.002 516.039,412.002 C 514.263,412.002 512.828,411.459 512.828,410.795 C 512.828,410.123 514.263,409.584 516.039,409.584 C 517.807,409.584 519.249,410.127 519.249,410.795z"/>
    <path style="fill: none; fill-opacity:0; stroke-width: 0.02; stroke: #000000" d="M 519.249 410.795 C 519.249,411.462 517.807,412.002 516.039,412.002 C 514.263,412.002 512.828,411.459 512.828,410.795 C 512.828,410.123 514.263,409.584 516.039,409.584 C 517.807,409.584 519.249,410.127 519.249,410.795"/>
    <path style="fill: #000000" d="M 519.249 408.593 C 519.249,409.261 517.807,409.8 516.039,409.8 C 514.263,409.8 512.828,409.257 512.828,408.593 C 512.828,407.921 514.263,407.378 516.039,407.378 C 517.807,407.378 519.249,407.921 519.249,408.593z"/>
    <path style="fill: none; fill-opacity:0; stroke-width: 0.02; stroke: #000000" d="M 519.249 408.593 C 519.249,409.261 517.807,409.8 516.039,409.8 C 514.263,409.8 512.828,409.257 512.828,408.593 C 512.828,407.921 514.263,407.378 516.039,407.378 C 517.807,407.378 519.249,407.921 519.249,408.593"/>
    <path style="fill: #ffffff" d="M 526.786 406.611 C 526.786,408.835 521.994,410.644 516.086,410.644 C 510.175,410.644 505.379,408.839 505.379,406.611 C 505.379,404.381 510.175,402.572 516.086,402.572 C 521.994,402.572 526.786,404.377 526.786,406.611z"/>
    <path style="fill: none; fill-opacity:0; stroke-width: 0.02; stroke: #ffffff" d="M 526.786 406.611 C 526.786,408.835 521.994,410.644 516.086,410.644 C 510.175,410.644 505.379,408.839 505.379,406.611 C 505.379,404.381 510.175,402.572 516.086,402.572 C 521.994,402.572 526.786,404.377 526.786,406.611"/>
    <path style="fill: none; fill-opacity:0; stroke-width: 0.6; stroke-linecap: round; stroke-linejoin: round; stroke: #000000" d="M 526.786 406.611 C 526.786,408.835 521.994,410.644 516.086,410.644 C 510.175,410.644 505.379,408.839 505.379,406.611 C 505.379,404.381 510.175,402.572 516.086,402.572 C 521.994,402.572 526.786,404.377 526.786,406.611"/>
    <path style="fill: #000000" d="M 519.249 406.388 C 519.249,407.055 517.807,407.599 516.039,407.599 C 514.263,407.599 512.828,407.055 512.828,406.388 C 512.828,405.716 514.263,405.177 516.039,405.177 C 517.807,405.177 519.249,405.72 519.249,406.388z"/>
    <path style="fill: none; fill-opacity:0; stroke-width: 0.02; stroke: #000000" d="M 519.249 406.388 C 519.249,407.055 517.807,407.599 516.039,407.599 C 514.263,407.599 512.828,407.055 512.828,406.388 C 512.828,405.716 514.263,405.177 516.039,405.177 C 517.807,405.177 519.249,405.72 519.249,406.388"/>
    <path style="fill: #000000" d="M 519.249 404.19 C 519.249,404.858 517.807,405.397 516.039,405.397 C 514.263,405.397 512.828,404.854 512.828,404.19 C 512.828,403.518 514.263,402.979 516.039,402.979 C 517.807,402.979 519.249,403.518 519.249,404.19z"/>
    <path style="fill: none; fill-opacity:0; stroke-width: 0.02; stroke: #000000" d="M 519.249 404.19 C 519.249,404.858 517.807,405.397 516.039,405.397 C 514.263,405.397 512.828,404.854 512.828,404.19 C 512.828,403.518 514.263,402.979 516.039,402.979 C 517.807,402.979 519.249,403.518 519.249,404.19"/>
    <path style="fill: #ffffff" d="M 526.786 402.208 C 526.786,404.432 521.994,406.241 516.086,406.241 C 510.175,406.241 505.379,404.436 505.379,402.208 C 505.379,399.977 510.175,398.168 516.086,398.168 C 521.994,398.168 526.786,399.974 526.786,402.208z"/>
    <path style="fill: none; fill-opacity:0; stroke-width: 0.02; stroke: #ffffff" d="M 526.786 402.208 C 526.786,404.432 521.994,406.241 516.086,406.241 C 510.175,406.241 505.379,404.436 505.379,402.208 C 505.379,399.977 510.175,398.168 516.086,398.168 C 521.994,398.168 526.786,399.974 526.786,402.208"/>
    <path style="fill: none; fill-opacity:0; stroke-width: 0.6; stroke-linecap: round; stroke-linejoin: round; stroke: #000000" d="M 526.786 402.208 C 526.786,404.432 521.994,406.241 516.086,406.241 C 510.175,406.241 505.379,404.436 505.379,402.208 C 505.379,399.977 510.175,398.168 516.086,398.168 C 521.994,398.168 526.786,399.974 526.786,402.208"/>
    <path style="fill: #000000" d="M 519.249 401.988 C 519.249,402.656 517.807,403.195 516.039,403.195 C 514.263,403.195 512.828,402.652 512.828,401.988 C 512.828,401.313 514.263,400.774 516.039,400.774 C 517.807,400.774 519.249,401.317 519.249,401.988z"/>
    <path style="fill: none; fill-opacity:0; stroke-width: 0.02; stroke: #000000" d="M 519.249 401.988 C 519.249,402.656 517.807,403.195 516.039,403.195 C 514.263,403.195 512.828,402.652 512.828,401.988 C 512.828,401.313 514.263,400.774 516.039,400.774 C 517.807,400.774 519.249,401.317 519.249,401.988"/>
    <path style="fill: #ffffff" d="M 550.64 446.24 C 550.64,448.464 545.845,450.273 539.941,450.273 C 534.029,450.273 529.234,448.468 529.234,446.24 C 529.234,444.009 534.029,442.2 539.941,442.2 C 545.848,442.2 550.64,444.006 550.64,446.24z"/>
    <path style="fill: none; fill-opacity:0; stroke-width: 0.02; stroke: #ffffff" d="M 550.64 446.24 C 550.64,448.464 545.845,450.273 539.941,450.273 C 534.029,450.273 529.234,448.468 529.234,446.24 C 529.234,444.009 534.029,442.2 539.941,442.2 C 545.848,442.2 550.64,444.006 550.64,446.24"/>
    <path style="fill: none; fill-opacity:0; stroke-width: 0.6; stroke-linecap: round; stroke-linejoin: round; stroke: #000000" d="M 550.64 446.24 C 550.64,448.464 545.845,450.273 539.941,450.273 C 534.029,450.273 529.234,448.468 529.234,446.24 C 529.234,444.009 534.029,442.2 539.941,442.2 C 545.848,442.2 550.64,444.006 550.64,446.24"/>
    <path style="fill: #000000" d="M 543.1 446.02 C 543.1,446.688 541.658,447.227 539.889,447.227 C 538.113,447.227 536.679,446.684 536.679,446.02 C 536.679,445.345 538.113,444.806 539.889,444.806 C 541.662,444.806 543.1,445.349 543.1,446.02z"/>
    <path style="fill: none; fill-opacity:0; stroke-width: 0.02; stroke: #000000" d="M 543.1 446.02 C 543.1,446.688 541.658,447.227 539.889,447.227 C 538.113,447.227 536.679,446.684 536.679,446.02 C 536.679,445.345 538.113,444.806 539.889,444.806 C 541.662,444.806 543.1,445.349 543.1,446.02"/>
    <path style="fill: #000000" d="M 543.1 443.819 C 543.1,444.486 541.658,445.026 539.889,445.026 C 538.113,445.026 536.679,444.483 536.679,443.819 C 536.679,443.147 538.113,442.608 539.889,442.608 C 541.662,442.608 543.1,443.151 543.1,443.819z"/>
    <path style="fill: none; fill-opacity:0; stroke-width: 0.02; stroke: #000000" d="M 543.1 443.819 C 543.1,444.486 541.658,445.026 539.889,445.026 C 538.113,445.026 536.679,444.483 536.679,443.819 C 536.679,443.147 538.113,442.608 539.889,442.608 C 541.662,442.608 543.1,443.151 543.1,443.819"/>
    <path style="fill: #ffffff" d="M 550.64 441.837 C 550.64,444.064 545.845,445.873 539.941,445.873 C 534.029,445.873 529.234,444.068 529.234,441.837 C 529.234,439.606 534.029,437.797 539.941,437.797 C 545.848,437.797 550.64,439.602 550.64,441.837z"/>
    <path style="fill: none; fill-opacity:0; stroke-width: 0.02; stroke: #ffffff" d="M 550.64 441.837 C 550.64,444.064 545.845,445.873 539.941,445.873 C 534.029,445.873 529.234,444.068 529.234,441.837 C 529.234,439.606 534.029,437.797 539.941,437.797 C 545.848,437.797 550.64,439.602 550.64,441.837"/>
    <path style="fill: none; fill-opacity:0; stroke-width: 0.6; stroke-linecap: round; stroke-linejoin: round; stroke: #000000" d="M 550.64 441.837 C 550.64,444.064 545.845,445.873 539.941,445.873 C 534.029,445.873 529.234,444.068 529.234,441.837 C 529.234,439.606 534.029,437.797 539.941,437.797 C 545.848,437.797 550.64,439.602 550.64,441.837"/>
    <path style="fill: #000000" d="M 543.1 441.617 C 543.1,442.285 541.658,442.824 539.889,442.824 C 538.113,442.824 536.679,442.281 536.679,441.617 C 536.679,440.945 538.113,440.402 539.889,440.402 C 541.662,440.402 543.1,440.945 543.1,441.617z"/>
    <path style="fill: none; fill-opacity:0; stroke-width: 0.02; stroke: #000000" d="M 543.1 441.617 C 543.1,442.285 541.658,442.824 539.889,442.824 C 538.113,442.824 536.679,442.281 536.679,441.617 C 536.679,440.945 538.113,440.402 539.889,440.402 C 541.662,440.402 543.1,440.945 543.1,441.617"/>
    <path style="fill: #000000" d="M 543.1 439.412 C 543.1,440.079 541.658,440.623 539.889,440.623 C 538.113,440.623 536.679,440.079 536.679,439.412 C 536.679,438.74 538.113,438.201 539.889,438.201 C 541.662,438.201 543.1,438.744 543.1,439.412z"/>
    <path style="fill: none; fill-opacity:0; stroke-width: 0.02; stroke: #000000" d="M 543.1 439.412 C 543.1,440.079 541.658,440.623 539.889,440.623 C 538.113,440.623 536.679,440.079 536.679,439.412 C 536.679,438.74 538.113,438.201 539.889,438.201 C 541.662,438.201 543.1,438.744 543.1,439.412"/>
    <path style="fill: #ffffff" d="M 550.64 437.43 C 550.64,439.657 545.845,441.466 539.941,441.466 C 534.029,441.466 529.234,439.661 529.234,437.43 C 529.234,435.199 534.029,433.39 539.941,433.39 C 545.848,433.39 550.64,435.196 550.64,437.43z"/>
    <path style="fill: none; fill-opacity:0; stroke-width: 0.02; stroke: #ffffff" d="M 550.64 437.43 C 550.64,439.657 545.845,441.466 539.941,441.466 C 534.029,441.466 529.234,439.661 529.234,437.43 C 529.234,435.199 534.029,433.39 539.941,433.39 C 545.848,433.39 550.64,435.196 550.64,437.43"/>
    <path style="fill: none; fill-opacity:0; stroke-width: 0.6; stroke-linecap: round; stroke-linejoin: round; stroke: #000000" d="M 550.64 437.43 C 550.64,439.657 545.845,441.466 539.941,441.466 C 534.029,441.466 529.234,439.661 529.234,437.43 C 529.234,435.199 534.029,433.39 539.941,433.39 C 545.848,433.39 550.64,435.196 550.64,437.43"/>
    <path style="fill: #000000" d="M 543.1 437.214 C 543.1,437.882 541.658,438.421 539.889,438.421 C 538.113,438.421 536.679,437.878 536.679,437.214 C 536.679,436.542 538.113,436.003 539.889,436.003 C 541.662,436.003 543.1,436.542 543.1,437.214z"/>
    <path style="fill: none; fill-opacity:0; stroke-width: 0.02; stroke: #000000" d="M 543.1 437.214 C 543.1,437.882 541.658,438.421 539.889,438.421 C 538.113,438.421 536.679,437.878 536.679,437.214 C 536.679,436.542 538.113,436.003 539.889,436.003 C 541.662,436.003 543.1,436.542 543.1,437.214"/>
    <path style="fill: #ffffff" d="M 550.64 428.627 C 550.64,430.851 545.845,432.66 539.941,432.66 C 534.029,432.66 529.234,430.855 529.234,428.627 C 529.234,426.397 534.029,424.588 539.941,424.588 C 545.848,424.588 550.64,426.393 550.64,428.627z"/>
    <path style="fill: none; fill-opacity:0; stroke-width: 0.02; stroke: #ffffff" d="M 550.64 428.627 C 550.64,430.851 545.845,432.66 539.941,432.66 C 534.029,432.66 529.234,430.855 529.234,428.627 C 529.234,426.397 534.029,424.588 539.941,424.588 C 545.848,424.588 550.64,426.393 550.64,428.627"/>
    <path style="fill: none; fill-opacity:0; stroke-width: 0.6; stroke-linecap: round; stroke-linejoin: round; stroke: #000000" d="M 550.64 428.627 C 550.64,430.851 545.845,432.66 539.941,432.66 C 534.029,432.66 529.234,430.855 529.234,428.627 C 529.234,426.397 534.029,424.588 539.941,424.588 C 545.848,424.588 550.64,426.393 550.64,428.627"/>
    <path style="fill: #000000" d="M 543.1 428.404 C 543.1,429.071 541.658,429.615 539.889,429.615 C 538.113,429.615 536.679,429.071 536.679,428.404 C 536.679,427.732 538.113,427.193 539.889,427.193 C 541.662,427.193 543.1,427.736 543.1,428.404z"/>
    <path style="fill: none; fill-opacity:0; stroke-width: 0.02; stroke: #000000" d="M 543.1 428.404 C 543.1,429.071 541.658,429.615 539.889,429.615 C 538.113,429.615 536.679,429.071 536.679,428.404 C 536.679,427.732 538.113,427.193 539.889,427.193 C 541.662,427.193 543.1,427.736 543.1,428.404"/>
    <path style="fill: #000000" d="M 543.1 426.206 C 543.1,426.874 541.658,427.413 539.889,427.413 C 538.113,427.413 536.679,426.87 536.679,426.206 C 536.679,425.534 538.113,424.995 539.889,424.995 C 541.662,424.995 543.1,425.534 543.1,426.206z"/>
    <path style="fill: none; fill-opacity:0; stroke-width: 0.02; stroke: #000000" d="M 543.1 426.206 C 543.1,426.874 541.658,427.413 539.889,427.413 C 538.113,427.413 536.679,426.87 536.679,426.206 C 536.679,425.534 538.113,424.995 539.889,424.995 C 541.662,424.995 543.1,425.534 543.1,426.206"/>
    <path style="fill: #ffffff" d="M 550.64 424.224 C 550.64,426.448 545.845,428.257 539.941,428.257 C 534.029,428.257 529.234,426.452 529.234,424.224 C 529.234,421.993 534.029,420.184 539.941,420.184 C 545.848,420.184 550.64,421.99 550.64,424.224z"/>
    <path style="fill: none; fill-opacity:0; stroke-width: 0.02; stroke: #ffffff" d="M 550.64 424.224 C 550.64,426.448 545.845,428.257 539.941,428.257 C 534.029,428.257 529.234,426.452 529.234,424.224 C 529.234,421.993 534.029,420.184 539.941,420.184 C 545.848,420.184 550.64,421.99 550.64,424.224"/>
    <path style="fill: none; fill-opacity:0; stroke-width: 0.6; stroke-linecap: round; stroke-linejoin: round; stroke: #000000" d="M 550.64 424.224 C 550.64,426.448 545.845,428.257 539.941,428.257 C 534.029,428.257 529.234,426.452 529.234,424.224 C 529.234,421.993 534.029,420.184 539.941,420.184 C 545.848,420.184 550.64,421.99 550.64,424.224"/>
    <path style="fill: #000000" d="M 543.1 424.004 C 543.1,424.672 541.658,425.211 539.889,425.211 C 538.113,425.211 536.679,424.668 536.679,424.004 C 536.679,423.329 538.113,422.79 539.889,422.79 C 541.662,422.79 543.1,423.333 543.1,424.004z"/>
    <path style="fill: none; fill-opacity:0; stroke-width: 0.02; stroke: #000000" d="M 543.1 424.004 C 543.1,424.672 541.658,425.211 539.889,425.211 C 538.113,425.211 536.679,424.668 536.679,424.004 C 536.679,423.329 538.113,422.79 539.889,422.79 C 541.662,422.79 543.1,423.333 543.1,424.004"/>
    <path style="fill: #000000" d="M 543.1 421.803 C 543.1,422.47 541.658,423.01 539.889,423.01 C 538.113,423.01 536.679,422.467 536.679,421.803 C 536.679,421.131 538.113,420.592 539.889,420.592 C 541.662,420.592 543.1,421.135 543.1,421.803z"/>
    <path style="fill: none; fill-opacity:0; stroke-width: 0.02; stroke: #000000" d="M 543.1 421.803 C 543.1,422.47 541.658,423.01 539.889,423.01 C 538.113,423.01 536.679,422.467 536.679,421.803 C 536.679,421.131 538.113,420.592 539.889,420.592 C 541.662,420.592 543.1,421.135 543.1,421.803"/>
    <path style="fill: #ffffff" d="M 550.64 419.821 C 550.64,422.048 545.845,423.857 539.941,423.857 C 534.029,423.857 529.234,422.052 529.234,419.821 C 529.234,417.59 534.029,415.781 539.941,415.781 C 545.848,415.781 550.64,417.586 550.64,419.821z"/>
    <path style="fill: none; fill-opacity:0; stroke-width: 0.02; stroke: #ffffff" d="M 550.64 419.821 C 550.64,422.048 545.845,423.857 539.941,423.857 C 534.029,423.857 529.234,422.052 529.234,419.821 C 529.234,417.59 534.029,415.781 539.941,415.781 C 545.848,415.781 550.64,417.586 550.64,419.821"/>
    <path style="fill: none; fill-opacity:0; stroke-width: 0.6; stroke-linecap: round; stroke-linejoin: round; stroke: #000000" d="M 550.64 419.821 C 550.64,422.048 545.845,423.857 539.941,423.857 C 534.029,423.857 529.234,422.052 529.234,419.821 C 529.234,417.59 534.029,415.781 539.941,415.781 C 545.848,415.781 550.64,417.586 550.64,419.821"/>
    <path style="fill: #000000" d="M 543.1 419.601 C 543.1,420.269 541.658,420.808 539.889,420.808 C 538.113,420.808 536.679,420.265 536.679,419.601 C 536.679,418.929 538.113,418.386 539.889,418.386 C 541.662,418.386 543.1,418.929 543.1,419.601z"/>
    <path style="fill: none; fill-opacity:0; stroke-width: 0.02; stroke: #000000" d="M 543.1 419.601 C 543.1,420.269 541.658,420.808 539.889,420.808 C 538.113,420.808 536.679,420.265 536.679,419.601 C 536.679,418.929 538.113,418.386 539.889,418.386 C 541.662,418.386 543.1,418.929 543.1,419.601"/>
    <path style="fill: #ffffff" d="M 550.64 411.011 C 550.64,413.238 545.845,415.047 539.941,415.047 C 534.029,415.047 529.234,413.242 529.234,411.011 C 529.234,408.784 534.029,406.975 539.941,406.975 C 545.848,406.975 550.64,408.78 550.64,411.011z"/>
    <path style="fill: none; fill-opacity:0; stroke-width: 0.02; stroke: #ffffff" d="M 550.64 411.011 C 550.64,413.238 545.845,415.047 539.941,415.047 C 534.029,415.047 529.234,413.242 529.234,411.011 C 529.234,408.784 534.029,406.975 539.941,406.975 C 545.848,406.975 550.64,408.78 550.64,411.011"/>
    <path style="fill: none; fill-opacity:0; stroke-width: 0.6; stroke-linecap: round; stroke-linejoin: round; stroke: #000000" d="M 550.64 411.011 C 550.64,413.238 545.845,415.047 539.941,415.047 C 534.029,415.047 529.234,413.242 529.234,411.011 C 529.234,408.784 534.029,406.975 539.941,406.975 C 545.848,406.975 550.64,408.78 550.64,411.011"/>
    <path style="fill: #000000" d="M 543.1 410.795 C 543.1,411.462 541.658,412.002 539.889,412.002 C 538.113,412.002 536.679,411.459 536.679,410.795 C 536.679,410.123 538.113,409.584 539.889,409.584 C 541.662,409.584 543.1,410.127 543.1,410.795z"/>
    <path style="fill: none; fill-opacity:0; stroke-width: 0.02; stroke: #000000" d="M 543.1 410.795 C 543.1,411.462 541.658,412.002 539.889,412.002 C 538.113,412.002 536.679,411.459 536.679,410.795 C 536.679,410.123 538.113,409.584 539.889,409.584 C 541.662,409.584 543.1,410.127 543.1,410.795"/>
    <path style="fill: #000000" d="M 543.1 408.593 C 543.1,409.261 541.658,409.8 539.889,409.8 C 538.113,409.8 536.679,409.257 536.679,408.593 C 536.679,407.921 538.113,407.378 539.889,407.378 C 541.662,407.378 543.1,407.921 543.1,408.593z"/>
    <path style="fill: none; fill-opacity:0; stroke-width: 0.02; stroke: #000000" d="M 543.1 408.593 C 543.1,409.261 541.658,409.8 539.889,409.8 C 538.113,409.8 536.679,409.257 536.679,408.593 C 536.679,407.921 538.113,407.378 539.889,407.378 C 541.662,407.378 543.1,407.921 543.1,408.593"/>
    <path style="fill: #ffffff" d="M 550.64 406.611 C 550.64,408.835 545.845,410.644 539.941,410.644 C 534.029,410.644 529.234,408.839 529.234,406.611 C 529.234,404.381 534.029,402.572 539.941,402.572 C 545.848,402.572 550.64,404.377 550.64,406.611z"/>
    <path style="fill: none; fill-opacity:0; stroke-width: 0.02; stroke: #ffffff" d="M 550.64 406.611 C 550.64,408.835 545.845,410.644 539.941,410.644 C 534.029,410.644 529.234,408.839 529.234,406.611 C 529.234,404.381 534.029,402.572 539.941,402.572 C 545.848,402.572 550.64,404.377 550.64,406.611"/>
    <path style="fill: none; fill-opacity:0; stroke-width: 0.6; stroke-linecap: round; stroke-linejoin: round; stroke: #000000" d="M 550.64 406.611 C 550.64,408.835 545.845,410.644 539.941,410.644 C 534.029,410.644 529.234,408.839 529.234,406.611 C 529.234,404.381 534.029,402.572 539.941,402.572 C 545.848,402.572 550.64,404.377 550.64,406.611"/>
    <path style="fill: #000000" d="M 543.1 406.388 C 543.1,407.055 541.658,407.599 539.889,407.599 C 538.113,407.599 536.679,407.055 536.679,406.388 C 536.679,405.716 538.113,405.177 539.889,405.177 C 541.662,405.177 543.1,405.72 543.1,406.388z"/>
    <path style="fill: none; fill-opacity:0; stroke-width: 0.02; stroke: #000000" d="M 543.1 406.388 C 543.1,407.055 541.658,407.599 539.889,407.599 C 538.113,407.599 536.679,407.055 536.679,406.388 C 536.679,405.716 538.113,405.177 539.889,405.177 C 541.662,405.177 543.1,405.72 543.1,406.388"/>
    <path style="fill: #000000" d="M 543.1 404.19 C 543.1,404.858 541.658,405.397 539.889,405.397 C 538.113,405.397 536.679,404.854 536.679,404.19 C 536.679,403.518 538.113,402.979 539.889,402.979 C 541.662,402.979 543.1,403.518 543.1,404.19z"/>
    <path style="fill: none; fill-opacity:0; stroke-width: 0.02; stroke: #000000" d="M 543.1 404.19 C 543.1,404.858 541.658,405.397 539.889,405.397 C 538.113,405.397 536.679,404.854 536.679,404.19 C 536.679,403.518 538.113,402.979 539.889,402.979 C 541.662,402.979 543.1,403.518 543.1,404.19"/>
    <path style="fill: #ffffff" d="M 550.64 402.208 C 550.64,404.432 545.845,406.241 539.941,406.241 C 534.029,406.241 529.234,404.436 529.234,402.208 C 529.234,399.977 534.029,398.168 539.941,398.168 C 545.848,398.168 550.64,399.974 550.64,402.208z"/>
    <path style="fill: none; fill-opacity:0; stroke-width: 0.02; stroke: #ffffff" d="M 550.64 402.208 C 550.64,404.432 545.845,406.241 539.941,406.241 C 534.029,406.241 529.234,404.436 529.234,402.208 C 529.234,399.977 534.029,398.168 539.941,398.168 C 545.848,398.168 550.64,399.974 550.64,402.208"/>
    <path style="fill: none; fill-opacity:0; stroke-width: 0.6; stroke-linecap: round; stroke-linejoin: round; stroke: #000000" d="M 550.64 402.208 C 550.64,404.432 545.845,406.241 539.941,406.241 C 534.029,406.241 529.234,404.436 529.234,402.208 C 529.234,399.977 534.029,398.168 539.941,398.168 C 545.848,398.168 550.64,399.974 550.64,402.208"/>
    <path style="fill: #000000" d="M 543.1 401.988 C 543.1,402.656 541.658,403.195 539.889,403.195 C 538.113,403.195 536.679,402.652 536.679,401.988 C 536.679,401.313 538.113,400.774 539.889,400.774 C 541.662,400.774 543.1,401.317 543.1,401.988z"/>
    <path style="fill: none; fill-opacity:0; stroke-width: 0.02; stroke: #000000" d="M 543.1 401.988 C 543.1,402.656 541.658,403.195 539.889,403.195 C 538.113,403.195 536.679,402.652 536.679,401.988 C 536.679,401.313 538.113,400.774 539.889,400.774 C 541.662,400.774 543.1,401.317 543.1,401.988"/>
  </g>
  <g>
    <line style="fill: none; fill-opacity:0; stroke-width: 2; stroke-dasharray: 4; stroke: #000000" x1="429.172" y1="368.757" x2="534.369" y2="220.251"/>
    <polygon style="fill: #000000" points="424.836,374.877 426.537,363.827 429.172,368.757 434.697,369.607 "/>
    <polygon style="fill: none; fill-opacity:0; stroke-width: 2; stroke: #000000" points="424.836,374.877 426.537,363.827 429.172,368.757 434.697,369.607 "/>
    <polygon style="fill: #000000" points="538.704,214.131 537.004,225.182 534.369,220.251 528.844,219.401 "/>
    <polygon style="fill: none; fill-opacity:0; stroke-width: 2; stroke: #000000" points="538.704,214.131 537.004,225.182 534.369,220.251 528.844,219.401 "/>
  </g>
  <g>
    <line style="fill: none; fill-opacity:0; stroke-width: 2; stroke: #000000" x1="583.641" y1="382.08" x2="650.847" y2="357.551"/>
    <polygon style="fill: #000000" points="576.595,384.652 584.275,376.526 583.641,382.08 587.704,385.92 "/>
    <polygon style="fill: none; fill-opacity:0; stroke-width: 2; stroke: #000000" points="576.595,384.652 584.275,376.526 583.641,382.08 587.704,385.92 "/>
    <polygon style="fill: #000000" points="657.893,354.979 650.213,363.105 650.847,357.551 646.785,353.711 "/>
    <polygon style="fill: none; fill-opacity:0; stroke-width: 2; stroke: #000000" points="657.893,354.979 650.213,363.105 650.847,357.551 646.785,353.711 "/>
  </g>
  <g>
    <line style="fill: none; fill-opacity:0; stroke-width: 2; stroke-dasharray: 20 8 4 8; stroke: #000000" x1="604.887" y1="220.646" x2="655.954" y2="297.094"/>
    <polygon style="fill: #000000" points="600.722,214.409 610.434,219.948 604.887,220.646 602.118,225.502 "/>
    <polygon style="fill: none; fill-opacity:0; stroke-width: 2; stroke: #000000" points="600.722,214.409 610.434,219.948 604.887,220.646 602.118,225.502 "/>
    <polygon style="fill: #000000" points="660.12,303.331 650.408,297.793 655.954,297.094 658.723,292.238 "/>
    <polygon style="fill: none; fill-opacity:0; stroke-width: 2; stroke: #000000" points="660.12,303.331 650.408,297.793 655.954,297.094 658.723,292.238 "/>
  </g>
  <g>
    <line style="fill: none; fill-opacity:0; stroke-width: 2; stroke: #000000" x1="490.263" y1="403.34" x2="456.216" y2="404.166"/>
    <polygon style="fill: #000000" points="497.761,403.158 487.885,408.399 490.263,403.34 487.642,398.402 "/>
    <polygon style="fill: none; fill-opacity:0; stroke-width: 2; stroke: #000000" points="497.761,403.158 487.885,408.399 490.263,403.34 487.642,398.402 "/>
    <polygon style="fill: #000000" points="448.718,404.348 458.594,399.107 456.216,404.166 458.836,409.104 "/>
    <polygon style="fill: none; fill-opacity:0; stroke-width: 2; stroke: #000000" points="448.718,404.348 458.594,399.107 456.216,404.166 458.836,409.104 "/>
  </g>
  <text font-size="12.8" style="fill: #000000;text-anchor:start;font-family:sans-serif;font-style:normal;font-weight:normal" x="580" y="420">
    <tspan x="580" y="420">nfsserver:</tspan>
    <tspan x="580" y="436">NFS share (web data</tspan>
    <tspan x="580" y="452">software, computation</tspan>
    <tspan x="580" y="468">results)</tspan>
  </text>
  <line style="fill: none; fill-opacity:0; stroke-width: 2; stroke-dasharray: 20; stroke: #000000" x1="180" y1="260" x2="780" y2="260"/>
  <text font-size="20.32" style="fill: #000000;text-anchor:start;font-family:sans-serif;font-style:normal;font-weight:700" x="180" y="55.2078">
    <tspan x="180" y="55.2078">ifb-prabi-girofle</tspan>
  </text>
  <text font-size="16.9333" style="fill: #000000;text-anchor:start;font-family:sans-serif;font-style:normal;font-weight:700" x="200" y="294.84">
    <tspan x="200" y="294.84">private</tspan>
    <tspan x="200" y="316.006">network</tspan>
  </text>
  <text font-size="16.9333" style="fill: #000000;text-anchor:start;font-family:sans-serif;font-style:normal;font-weight:700" x="200" y="94.8398">
    <tspan x="200" y="94.8398">public</tspan>
    <tspan x="200" y="116.006">network</tspan>
  </text>
  <rect style="fill: none; fill-opacity:0; stroke-width: 2; stroke: #000000" x="0" y="60" width="160" height="180"/>
  <text font-size="20.32" style="fill: #000000;text-anchor:start;font-family:sans-serif;font-style:normal;font-weight:700" x="0" y="55.2078">
    <tspan x="0" y="55.2078">genoscope</tspan>
  </text>
  <g>
    <polyline style="fill: none; fill-opacity:0; stroke-width: 2; stroke-dasharray: 4; stroke: #000000" points="350.264,405.428 320,405.428 320,170.523 296.722,170.523 "/>
    <polygon style="fill: #000000" points="357.764,405.428 347.764,410.428 350.264,405.428 347.764,400.428 "/>
    <polygon style="fill: none; fill-opacity:0; stroke-width: 2; stroke: #000000" points="357.764,405.428 347.764,410.428 350.264,405.428 347.764,400.428 "/>
    <polygon style="fill: #000000" points="289.222,170.523 299.222,165.523 296.722,170.523 299.222,175.523 "/>
    <polygon style="fill: none; fill-opacity:0; stroke-width: 2; stroke: #000000" points="289.222,170.523 299.222,165.523 296.722,170.523 299.222,175.523 "/>
  </g>
  <g>
    <path style="fill: #0078aa" d="M 107.964 208.239 L 107.907,207.641 L 107.774,207.053 L 107.556,206.455 L 107.262,205.866 L 106.882,205.297 L 106.407,204.718 L 105.847,204.158 L 105.211,203.607 L 104.49,203.066 L 103.692,202.544 L 102.8,202.022 L 101.86,201.519 L 100.845,201.044 L 99.7722,200.589 L 98.6047,200.142 L 97.3991,199.715 L 96.1177,199.317 L 94.7793,198.946 L 93.384,198.595 L 91.9601,198.263 L 90.4604,197.959 L 88.9511,197.693 L 87.3659,197.437 L 85.7902,197.2 L 84.1386,197.019 L 82.4869,196.849 L 80.8163,196.725 L 79.1267,196.63 L 77.4086,196.545 L 75.7,196.488 L 73.9725,196.488 L 73.9725,196.488 L 72.2639,196.488 L 70.5363,196.545 L 68.8277,196.63 L 67.1381,196.725 L 65.4675,196.849 L 63.8159,197.019 L 62.1737,197.2 L 60.5695,197.437 L 59.0033,197.693 L 57.4846,197.959 L 56.0038,198.263 L 54.5705,198.595 L 53.1656,198.946 L 51.8462,199.317 L 50.5553,199.715 L 49.3593,200.142 L 48.1822,200.589 L 47.1096,201.044 L 46.0845,201.519 L 45.1448,202.022 L 44.262,202.544 L 43.4646,203.066 L 42.7432,203.607 L 42.1168,204.158 L 41.5472,204.718 L 41.0726,205.297 L 40.7024,205.866 L 40.3892,206.455 L 40.1804,207.053 L 40.038,207.641 L 40,208.239 L 40,208.239 L 40.038,208.828 L 40.1804,209.426 L 40.3892,210.014 L 40.7024,210.612 L 41.0726,211.191 L 41.5472,211.77 L 42.1168,212.33 L 42.7432,212.881 L 43.4646,213.422 L 44.262,213.935 L 45.1448,214.466 L 46.0845,214.969 L 47.1096,215.444 L 48.1822,215.89 L 49.3593,216.346 L 50.5553,216.773 L 51.8462,217.171 L 53.1656,217.542 L 54.5705,217.893 L 56.0038,218.225 L 57.4846,218.529 L 59.0033,218.794 L 60.5695,219.051 L 62.1737,219.279 L 63.8159,219.468 L 65.4675,219.63 L 67.1381,219.753 L 68.8277,219.867 L 70.5363,219.943 L 72.2639,219.991 L 73.9725,220 L 73.9725,220 L 75.7,219.991 L 77.4086,219.943 L 79.1267,219.867 L 80.8163,219.753 L 82.4869,219.63 L 84.1386,219.468 L 85.7902,219.279 L 87.3659,219.051 L 88.9511,218.794 L 90.4604,218.529 L 91.9601,218.225 L 93.384,217.893 L 94.7793,217.542 L 96.1177,217.171 L 97.3991,216.773 L 98.6047,216.346 L 99.7722,215.89 L 100.845,215.444 L 101.86,214.969 L 102.8,214.466 L 103.692,213.935 L 104.49,213.422 L 105.211,212.881 L 105.847,212.33 L 106.407,211.77 L 106.882,211.191 L 107.262,210.612 L 107.556,210.014 L 107.774,209.426 L 107.907,208.828 L 107.964,208.239z"/>
    <path style="fill: none; fill-opacity:0; stroke-width: 0.02; stroke: #aae6ff" d="M 107.556 208.059 L 107.518,207.461 L 107.394,206.872 L 107.176,206.312 L 106.891,205.743 L 106.474,205.154 L 105.999,204.594 L 105.477,204.053 L 104.822,203.493 L 104.101,202.971 L 103.322,202.449 L 102.439,201.946 L 101.5,201.462 L 100.503,200.987 L 99.4305,200.522 L 98.2629,200.095 L 97.0574,199.687 L 95.776,199.298 L 94.4661,198.918 L 93.0802,198.567 L 91.6469,198.253 L 90.1661,197.95 L 88.6569,197.693 L 87.1096,197.437 L 85.5244,197.228 L 83.8918,197.038 L 82.2496,196.877 L 80.5885,196.725 L 78.9084,196.64 L 77.2093,196.564 L 75.4817,196.516 L 73.7826,196.488 L 73.7826,196.488 L 72.0645,196.516 L 70.356,196.564 L 68.6569,196.64 L 66.9673,196.725 L 65.3061,196.877 L 63.6735,197.038 L 62.0503,197.228 L 60.4461,197.437 L 58.8894,197.693 L 57.3991,197.95 L 55.8994,198.253 L 54.4756,198.567 L 53.1087,198.918 L 51.7798,199.298 L 50.5078,199.687 L 49.2928,200.095 L 48.1348,200.522 L 47.0717,200.987 L 46.0465,201.462 L 45.1068,201.946 L 44.243,202.449 L 43.4457,202.971 L 42.7337,203.493 L 42.0978,204.053 L 41.5472,204.594 L 41.0726,205.154 L 40.6834,205.743 L 40.3797,206.312 L 40.1519,206.872 L 40.038,207.461 L 40,208.059 L 40,208.059 L 40.038,208.647 L 40.1519,209.226 L 40.3797,209.805 L 40.6834,210.375 L 41.0726,210.963 L 41.5472,211.514 L 42.0978,212.065 L 42.7337,212.615 L 43.4457,213.137 L 44.243,213.669 L 45.1068,214.172 L 46.0465,214.646 L 47.0717,215.121 L 48.1348,215.586 L 49.2928,216.023 L 50.5078,216.421 L 51.7798,216.82 L 53.1087,217.19 L 54.4756,217.532 L 55.8994,217.864 L 57.3991,218.168 L 58.8894,218.424 L 60.4461,218.681 L 62.0503,218.889 L 63.6735,219.079 L 65.3061,219.231 L 66.9673,219.374 L 68.6569,219.468 L 70.356,219.544 L 72.0645,219.592 L 73.7826,219.601 L 73.7826,219.601 L 75.4817,219.592 L 77.2093,219.544 L 78.9084,219.468 L 80.5885,219.374 L 82.2496,219.231 L 83.8918,219.079 L 85.5244,218.889 L 87.1096,218.681 L 88.6569,218.424 L 90.1661,218.168 L 91.6469,217.864 L 93.0802,217.532 L 94.4661,217.19 L 95.776,216.82 L 97.0574,216.421 L 98.2629,216.023 L 99.4305,215.586 L 100.503,215.121 L 101.5,214.646 L 102.439,214.172 L 103.322,213.669 L 104.101,213.137 L 104.822,212.615 L 105.477,212.065 L 105.999,211.514 L 106.474,210.963 L 106.891,210.375 L 107.176,209.805 L 107.394,209.226 L 107.518,208.647 L 107.556,208.059"/>
    <path style="fill: #0078aa" d="M 40 191.97 L 40,208.467 L 107.556,208.467 L 107.556,191.97 L 40,191.97z"/>
    <path style="fill: #00b4ff" d="M 107.964 191.742 L 107.907,191.144 L 107.774,190.555 L 107.556,189.967 L 107.262,189.369 L 106.882,188.799 L 106.407,188.23 L 105.847,187.67 L 105.211,187.1 L 104.49,186.569 L 103.692,186.037 L 102.8,185.515 L 101.86,185.031 L 100.845,184.556 L 99.7722,184.091 L 98.6047,183.645 L 97.3991,183.227 L 96.1177,182.829 L 94.7793,182.458 L 93.384,182.107 L 91.9601,181.775 L 90.4604,181.471 L 88.9511,181.206 L 87.3659,180.94 L 85.7902,180.712 L 84.1386,180.532 L 82.4869,180.37 L 80.8163,180.237 L 79.1267,180.133 L 77.4086,180.057 L 75.7,180 L 73.9725,180 L 73.9725,180 L 72.2639,180 L 70.5363,180.057 L 68.8277,180.133 L 67.1381,180.237 L 65.4675,180.37 L 63.8159,180.532 L 62.1737,180.712 L 60.5695,180.94 L 59.0033,181.206 L 57.4846,181.471 L 56.0038,181.775 L 54.5705,182.107 L 53.1656,182.458 L 51.8462,182.829 L 50.5553,183.227 L 49.3593,183.645 L 48.1822,184.091 L 47.1096,184.556 L 46.0845,185.031 L 45.1448,185.515 L 44.262,186.037 L 43.4646,186.569 L 42.7432,187.1 L 42.1168,187.67 L 41.5472,188.23 L 41.0726,188.799 L 40.7024,189.369 L 40.3892,189.967 L 40.1804,190.555 L 40.038,191.144 L 40,191.742 L 40,191.742 L 40.038,192.34 L 40.1804,192.928 L 40.3892,193.526 L 40.7024,194.105 L 41.0726,194.684 L 41.5472,195.244 L 42.1168,195.814 L 42.7432,196.374 L 43.4646,196.906 L 44.262,197.437 L 45.1448,197.959 L 46.0845,198.443 L 47.1096,198.937 L 48.1822,199.393 L 49.3593,199.839 L 50.5553,200.256 L 51.8462,200.645 L 53.1656,201.035 L 54.5705,201.386 L 56.0038,201.709 L 57.4846,202.012 L 59.0033,202.288 L 60.5695,202.544 L 62.1737,202.762 L 63.8159,202.952 L 65.4675,203.113 L 67.1381,203.246 L 68.8277,203.351 L 70.5363,203.427 L 72.2639,203.474 L 73.9725,203.493 L 73.9725,203.493 L 75.7,203.474 L 77.4086,203.427 L 79.1267,203.351 L 80.8163,203.246 L 82.4869,203.113 L 84.1386,202.952 L 85.7902,202.762 L 87.3659,202.544 L 88.9511,202.288 L 90.4604,202.012 L 91.9601,201.709 L 93.384,201.386 L 94.7793,201.035 L 96.1177,200.645 L 97.3991,200.256 L 98.6047,199.839 L 99.7722,199.393 L 100.845,198.937 L 101.86,198.443 L 102.8,197.959 L 103.692,197.437 L 104.49,196.906 L 105.211,196.374 L 105.847,195.814 L 106.407,195.244 L 106.882,194.684 L 107.262,194.105 L 107.556,193.526 L 107.774,192.928 L 107.907,192.34 L 107.964,191.742z"/>
    <path style="fill: none; fill-opacity:0; stroke-width: 0.02; stroke: #aae6ff" d="M 107.556 191.542 L 107.518,190.954 L 107.394,190.375 L 107.176,189.786 L 106.891,189.226 L 106.474,188.638 L 105.999,188.087 L 105.477,187.527 L 104.822,186.986 L 104.101,186.464 L 103.322,185.933 L 102.439,185.43 L 101.5,184.945 L 100.503,184.471 L 99.4305,184.015 L 98.2629,183.579 L 97.0574,183.17 L 95.776,182.781 L 94.4661,182.411 L 93.0802,182.069 L 91.6469,181.737 L 90.1661,181.424 L 88.6569,181.177 L 87.1096,180.921 L 85.5244,180.712 L 83.8918,180.522 L 82.2496,180.37 L 80.5885,180.228 L 78.9084,180.133 L 77.2093,180.057 L 75.4817,180 L 73.7826,180 L 73.7826,180 L 72.0645,180 L 70.356,180.057 L 68.6569,180.133 L 66.9673,180.228 L 65.3061,180.37 L 63.6735,180.522 L 62.0503,180.712 L 60.4461,180.921 L 58.8894,181.177 L 57.3991,181.424 L 55.8994,181.737 L 54.4756,182.069 L 53.1087,182.411 L 51.7798,182.781 L 50.5078,183.17 L 49.2928,183.579 L 48.1348,184.015 L 47.0717,184.471 L 46.0465,184.945 L 45.1068,185.43 L 44.243,185.933 L 43.4457,186.464 L 42.7337,186.986 L 42.0978,187.527 L 41.5472,188.087 L 41.0726,188.638 L 40.6834,189.226 L 40.3797,189.786 L 40.1519,190.375 L 40.038,190.954 L 40,191.542 L 40,191.542 L 40.038,192.14 L 40.1519,192.71 L 40.3797,193.289 L 40.6834,193.859 L 41.0726,194.447 L 41.5472,195.007 L 42.0978,195.539 L 42.7337,196.099 L 43.4457,196.63 L 44.243,197.143 L 45.1068,197.655 L 46.0465,198.14 L 47.0717,198.614 L 48.1348,199.07 L 49.2928,199.506 L 50.5078,199.915 L 51.7798,200.304 L 53.1087,200.674 L 54.4756,201.035 L 55.8994,201.348 L 57.3991,201.652 L 58.8894,201.908 L 60.4461,202.164 L 62.0503,202.364 L 63.6735,202.563 L 65.3061,202.724 L 66.9673,202.867 L 68.6569,202.962 L 70.356,203.037 L 72.0645,203.075 L 73.7826,203.104 L 73.7826,203.104 L 75.4817,203.075 L 77.2093,203.037 L 78.9084,202.962 L 80.5885,202.867 L 82.2496,202.724 L 83.8918,202.563 L 85.5244,202.364 L 87.1096,202.164 L 88.6569,201.908 L 90.1661,201.652 L 91.6469,201.348 L 93.0802,201.035 L 94.4661,200.674 L 95.776,200.304 L 97.0574,199.915 L 98.2629,199.506 L 99.4305,199.07 L 100.503,198.614 L 101.5,198.14 L 102.439,197.655 L 103.322,197.143 L 104.101,196.63 L 104.822,196.099 L 105.477,195.539 L 105.999,195.007 L 106.474,194.447 L 106.891,193.859 L 107.176,193.289 L 107.394,192.71 L 107.518,192.14 L 107.556,191.542"/>
    <path style="fill: none; fill-opacity:0; stroke-width: 0.02; stroke: #aae6ff" d="M 40 191.542 L 40,208.021"/>
    <path style="fill: none; fill-opacity:0; stroke-width: 0.02; stroke: #aae6ff" d="M 107.556 191.542 L 107.556,208.021"/>
    <path style="fill: #ffffff" d="M 61.4333 187.831 L 63.0565,194.846 L 63.8918,194.846 L 65.1258,190.726 L 66.3598,194.846 L 67.1856,194.846 L 68.8372,187.831 L 67.6127,187.831 L 66.7774,191.97 L 65.5434,187.831 L 64.7081,187.831 L 63.4931,191.97 L 62.2307,187.831 L 61.4333,187.831z"/>
    <path style="fill: none; fill-opacity:0; stroke-width: 0.02; stroke: #000000" d="M 61.4333 187.831 L 63.0565,194.846 L 63.8918,194.846 L 65.1258,190.726 L 66.3598,194.846 L 67.1856,194.846 L 68.8372,187.831 L 67.6127,187.831 L 66.7774,191.97 L 65.5434,187.831 L 64.7081,187.831 L 63.4931,191.97 L 62.2307,187.831 L 61.4333,187.831"/>
    <path style="fill: #ffffff" d="M 69.6535 187.831 L 71.7418,194.846 L 72.5392,194.846 L 73.7826,190.726 L 75.0071,194.846 L 75.8329,194.846 L 77.4941,187.831 L 76.2601,187.831 L 75.4343,191.97 L 74.1813,187.831 L 73.365,187.831 L 72.131,191.97 L 70.8875,187.831 L 69.6535,187.831z"/>
    <path style="fill: none; fill-opacity:0; stroke-width: 0.02; stroke: #000000" d="M 69.6535 187.831 L 71.7418,194.846 L 72.5392,194.846 L 73.7826,190.726 L 75.0071,194.846 L 75.8329,194.846 L 77.4941,187.831 L 76.2601,187.831 L 75.4343,191.97 L 74.1813,187.831 L 73.365,187.831 L 72.131,191.97 L 70.8875,187.831 L 69.6535,187.831"/>
    <path style="fill: #ffffff" d="M 78.3199 187.831 L 79.962,194.846 L 81.1865,194.846 L 82.4395,190.726 L 83.664,194.846 L 84.4993,194.846 L 86.1509,187.831 L 84.9075,187.831 L 84.0816,191.97 L 82.8382,187.831 L 82.0123,187.831 L 80.7879,191.97 L 79.5254,187.831 L 78.3199,187.831z"/>
    <path style="fill: none; fill-opacity:0; stroke-width: 0.02; stroke: #000000" d="M 78.3199 187.831 L 79.962,194.846 L 81.1865,194.846 L 82.4395,190.726 L 83.664,194.846 L 84.4993,194.846 L 86.1509,187.831 L 84.9075,187.831 L 84.0816,191.97 L 82.8382,187.831 L 82.0123,187.831 L 80.7879,191.97 L 79.5254,187.831 L 78.3199,187.831"/>
    <path style="fill: #ffffff" d="M 58.5287 182.886 L 51.533,185.363 L 58.5287,188.239 L 58.5287,186.597 L 96.0133,186.597 L 96.0133,184.12 L 58.5287,184.12 L 58.5287,182.886z"/>
    <path style="fill: #000000" d="M 58.5287 183.294 L 96.0133,183.294 L 96.0133,184.12 L 58.5287,184.12 L 58.5287,183.294z"/>
    <path style="fill: #ffffff" d="M 89.4257 195.681 L 96.4404,198.149 L 89.4257,200.617 L 89.4257,198.984 L 50.3085,198.984 L 50.3085,196.906 L 89.4257,196.906 L 89.4257,195.681z"/>
    <path style="fill: #000000" d="M 89.4257 195.681 L 96.4404,198.149 L 97.2568,197.731 L 89.4257,194.846 L 89.4257,195.681z"/>
    <path style="fill: #000000" d="M 89.4257 196.07 L 50.3085,196.07 L 50.3085,196.906 L 89.4257,196.906 L 89.4257,196.07z"/>
    <path style="fill: #000000" d="M 58.5287 182.886 L 51.533,185.363 L 50.6977,184.945 L 58.5287,182.468 L 58.5287,182.886z"/>
  </g>
  <text font-size="12.8" style="fill: #000000;text-anchor:start;font-family:sans-serif;font-style:normal;font-weight:normal" x="0" y="80">
    <tspan x="0" y="80">Genoscope web server</tspan>
    <tspan x="0" y="96">  - MicroScope code</tspan>
    <tspan x="0" y="112">    and data</tspan>
    <tspan x="0" y="128">  - MicroScope UDF</tspan>
    <tspan x="0" y="144">  - jbpmmicroscope</tspan>
    <tspan x="0" y="160">    code</tspan>
    <tspan x="0" y="176">  - modules</tspan>
  </text>
  <g>
    <g>
      <line style="fill: none; fill-opacity:0; stroke-width: 2; stroke-dasharray: 4; stroke: #000000" x1="189.736" y1="520" x2="270.264" y2="520"/>
      <polygon style="fill: #000000" points="182.236,520 192.236,515 189.736,520 192.236,525 "/>
      <polygon style="fill: none; fill-opacity:0; stroke-width: 2; stroke: #000000" points="182.236,520 192.236,515 189.736,520 192.236,525 "/>
      <polygon style="fill: #000000" points="277.764,520 267.764,525 270.264,520 267.764,515 "/>
      <polygon style="fill: none; fill-opacity:0; stroke-width: 2; stroke: #000000" points="277.764,520 267.764,525 270.264,520 267.764,515 "/>
    </g>
    <g>
      <line style="fill: none; fill-opacity:0; stroke-width: 2; stroke: #000000" x1="270.264" y1="560" x2="189.736" y2="560"/>
      <polygon style="fill: #000000" points="277.764,560 267.764,565 270.264,560 267.764,555 "/>
      <polygon style="fill: none; fill-opacity:0; stroke-width: 2; stroke: #000000" points="277.764,560 267.764,565 270.264,560 267.764,555 "/>
      <polygon style="fill: #000000" points="182.236,560 192.236,555 189.736,560 192.236,565 "/>
      <polygon style="fill: none; fill-opacity:0; stroke-width: 2; stroke: #000000" points="182.236,560 192.236,555 189.736,560 192.236,565 "/>
    </g>
    <g>
      <line style="fill: none; fill-opacity:0; stroke-width: 2; stroke-dasharray: 20 8 4 8; stroke: #000000" x1="189.736" y1="600" x2="270.264" y2="600"/>
      <polygon style="fill: #000000" points="182.236,600 192.236,595 189.736,600 192.236,605 "/>
      <polygon style="fill: none; fill-opacity:0; stroke-width: 2; stroke: #000000" points="182.236,600 192.236,595 189.736,600 192.236,605 "/>
      <polygon style="fill: #000000" points="277.764,600 267.764,605 270.264,600 267.764,595 "/>
      <polygon style="fill: none; fill-opacity:0; stroke-width: 2; stroke: #000000" points="277.764,600 267.764,605 270.264,600 267.764,595 "/>
    </g>
    <text font-size="12.8" style="fill: #000000;text-anchor:start;font-family:sans-serif;font-style:normal;font-weight:normal" x="300" y="520">
      <tspan x="300" y="520">MySQL queries</tspan>
    </text>
    <text font-size="12.8" style="fill: #000000;text-anchor:start;font-family:sans-serif;font-style:normal;font-weight:normal" x="300" y="560">
      <tspan x="300" y="560">NFS mount (/env)</tspan>
    </text>
    <text font-size="12.8" style="fill: #000000;text-anchor:start;font-family:sans-serif;font-style:normal;font-weight:normal" x="300" y="600">
      <tspan x="300" y="600">SLURM</tspan>
    </text>
  </g>
  <g>
    <path style="fill: none; fill-opacity:0; stroke-width: 2; stroke: #00ff00" d="M 93.8281 217.78 C 190.106,304.161 489.466,186.522 530.47,177.763"/>
    <polygon style="fill: #00ff00" points="537.805,176.197 529.07,183.175 530.47,177.763 526.981,173.396 "/>
    <polygon style="fill: none; fill-opacity:0; stroke-width: 2; stroke: #00ff00" points="537.805,176.197 529.07,183.175 530.47,177.763 526.981,173.396 "/>
  </g>
  <g>
    <path style="fill: none; fill-opacity:0; stroke-width: 2; stroke: #00ff00" d="M 94.2712 182.34 C 140.299,142.375 316.142,105.972 372.228,138.949"/>
    <polygon style="fill: #00ff00" points="378.693,142.751 367.538,141.992 372.228,138.949 372.607,133.372 "/>
    <polygon style="fill: none; fill-opacity:0; stroke-width: 2; stroke: #00ff00" points="378.693,142.751 367.538,141.992 372.228,138.949 372.607,133.372 "/>
  </g>
  <rect style="fill: none; fill-opacity:0; stroke-width: 2; stroke: #00ff00" x="460" y="520" width="100" height="20"/>
  <text font-size="12.8" style="fill: #000000;text-anchor:start;font-family:sans-serif;font-style:normal;font-weight:normal" x="580" y="520">
    <tspan x="580" y="520">A deployment</tspan>
    <tspan x="580" y="536">(temporary VMs)</tspan>
  </text>
  <g>
    <path style="fill: none; fill-opacity:0; stroke-width: 2; stroke: #00ff00" d="M 460 600 C 426.028,600.034 520,600 550.264,600"/>
    <polygon style="fill: #00ff00" points="557.764,600 547.764,605 550.264,600 547.764,595 "/>
    <polygon style="fill: none; fill-opacity:0; stroke-width: 2; stroke: #00ff00" points="557.764,600 547.764,605 550.264,600 547.764,595 "/>
  </g>
  <text font-size="12.8" style="fill: #000000;text-anchor:start;font-family:sans-serif;font-style:normal;font-weight:normal" x="580" y="600">
    <tspan x="580" y="600">Download (HTTP)</tspan>
  </text>
  <g>
    <path style="fill: none; fill-opacity:0; stroke-width: 2; stroke: #00ff00" d="M 85.8377 219.28 C 171.865,359.314 216.819,441.308 350.434,415.601"/>
    <polygon style="fill: #00ff00" points="357.799,414.184 348.924,420.983 350.434,415.601 347.034,411.164 "/>
    <polygon style="fill: none; fill-opacity:0; stroke-width: 2; stroke: #00ff00" points="357.799,414.184 348.924,420.983 350.434,415.601 347.034,411.164 "/>
  </g>
</svg>
