<?xml version="1.0" encoding="UTF-8" standalone="no"?>
<!DOCTYPE svg PUBLIC "-//W3C//DTD SVG 1.0//EN" "http://www.w3.org/TR/2001/PR-SVG-20010719/DTD/svg10.dtd">
<svg width="53cm" height="25cm" viewBox="158 36 1057 485" xmlns="http://www.w3.org/2000/svg" xmlns:xlink="http://www.w3.org/1999/xlink">
  <rect style="fill: none; fill-opacity:0; stroke-width: 2; stroke: #000000" x="160" y="60" width="780" height="460"/>
  <rect style="fill: none; fill-opacity:0; stroke-width: 2; stroke: #00ff00" x="280" y="80" width="640" height="420"/>
  <text font-size="12.8" style="fill: #000000;text-anchor:start;font-family:sans-serif;font-style:normal;font-weight:normal" x="455" y="151">
    <tspan x="455" y="151"></tspan>
  </text>
  <text font-size="12.8" style="fill: #000000;text-anchor:start;font-family:sans-serif;font-style:normal;font-weight:normal" x="480" y="100">
    <tspan x="480" y="100">frontend</tspan>
    <tspan x="480" y="116">  - Apache</tspan>
    <tspan x="480" y="132">  - PHP</tspan>
  </text>
  <text font-size="12.8" style="fill: #000000;text-anchor:start;font-family:sans-serif;font-style:normal;font-weight:normal" x="315" y="422">
    <tspan x="315" y="422"></tspan>
  </text>
  <text font-size="12.8" style="fill: #000000;text-anchor:start;font-family:sans-serif;font-style:normal;font-weight:normal" x="320" y="460">
    <tspan x="320" y="460">MySQL server</tspan>
  </text>
  <text font-size="12.8" style="fill: #000000;text-anchor:start;font-family:sans-serif;font-style:normal;font-weight:normal" x="380" y="371">
    <tspan x="380" y="371"></tspan>
  </text>
  <text font-size="12.8" style="fill: #000000;text-anchor:start;font-family:sans-serif;font-style:normal;font-weight:normal" x="380" y="391">
    <tspan x="380" y="391"></tspan>
  </text>
  <g>
    <line style="fill: none; fill-opacity:0; stroke-width: 2; stroke-dasharray: 4; stroke: #000000" x1="363.714" y1="365.392" x2="423.127" y2="145.16"/>
    <polygon style="fill: #000000" points="361.761,372.633 359.538,361.676 363.714,365.392 369.193,364.281 "/>
    <polygon style="fill: none; fill-opacity:0; stroke-width: 2; stroke: #000000" points="361.761,372.633 359.538,361.676 363.714,365.392 369.193,364.281 "/>
    <polygon style="fill: #000000" points="425.081,137.918 427.304,148.876 423.127,145.16 417.649,146.271 "/>
    <polygon style="fill: none; fill-opacity:0; stroke-width: 2; stroke: #000000" points="425.081,137.918 427.304,148.876 423.127,145.16 417.649,146.271 "/>
  </g>
  <text font-size="12.8" style="fill: #000000;text-anchor:start;font-family:sans-serif;font-style:normal;font-weight:normal" x="255" y="651">
    <tspan x="255" y="651"></tspan>
  </text>
  <text font-size="12.8" style="fill: #000000;text-anchor:start;font-family:sans-serif;font-style:normal;font-weight:normal" x="180" y="260">
    <tspan x="180" y="260">Permanent</tspan>
    <tspan x="180" y="276">MySQL server</tspan>
  </text>
  <text font-size="12.8" style="fill: #000000;text-anchor:start;font-family:sans-serif;font-style:normal;font-weight:normal" x="320" y="600">
    <tspan x="320" y="600"></tspan>
  </text>
  <text font-size="12.8" style="fill: #000000;text-anchor:start;font-family:sans-serif;font-style:normal;font-weight:normal" x="320" y="620">
    <tspan x="320" y="620"></tspan>
  </text>
  <text font-size="12.8" style="fill: #000000;text-anchor:start;font-family:sans-serif;font-style:normal;font-weight:normal" x="320" y="600">
    <tspan x="320" y="600"></tspan>
  </text>
  <text font-size="12.8" style="fill: #000000;text-anchor:start;font-family:sans-serif;font-style:normal;font-weight:normal" x="320" y="600">
    <tspan x="320" y="600"></tspan>
  </text>
  <g>
    <line style="fill: none; fill-opacity:0; stroke-width: 2; stroke-dasharray: 4; stroke: #000000" x1="311.2" y1="374.101" x2="265.55" y2="341.093"/>
    <polygon style="fill: #000000" points="317.278,378.496 306.244,376.688 311.2,374.101 312.104,368.585 "/>
    <polygon style="fill: none; fill-opacity:0; stroke-width: 2; stroke: #000000" points="317.278,378.496 306.244,376.688 311.2,374.101 312.104,368.585 "/>
    <polygon style="fill: #000000" points="259.472,336.698 270.505,338.506 265.55,341.093 264.646,346.609 "/>
    <polygon style="fill: none; fill-opacity:0; stroke-width: 2; stroke: #000000" points="259.472,336.698 270.505,338.506 265.55,341.093 264.646,346.609 "/>
  </g>
  <text font-size="12.8" style="fill: #000000;text-anchor:start;font-family:sans-serif;font-style:normal;font-weight:normal" x="288.374" y="338.579">
    <tspan x="288.374" y="338.579">MySQL</tspan>
    <tspan x="288.374" y="354.579">federation</tspan>
  </text>
  <text font-size="12.8" style="fill: #000000;text-anchor:start;font-family:sans-serif;font-style:normal;font-weight:normal" x="380" y="371">
    <tspan x="380" y="371"></tspan>
  </text>
  <g>
    <line style="fill: none; fill-opacity:0; stroke-width: 2; stroke: #000000" x1="582.661" y1="361.961" x2="446.42" y2="143.478"/>
    <polygon style="fill: #000000" points="586.63,368.325 577.096,362.485 582.661,361.961 585.581,357.194 "/>
    <polygon style="fill: none; fill-opacity:0; stroke-width: 2; stroke: #000000" points="586.63,368.325 577.096,362.485 582.661,361.961 585.581,357.194 "/>
    <polygon style="fill: #000000" points="442.452,137.114 451.986,142.954 446.42,143.478 443.5,148.245 "/>
    <polygon style="fill: none; fill-opacity:0; stroke-width: 2; stroke: #000000" points="442.452,137.114 451.986,142.954 446.42,143.478 443.5,148.245 "/>
  </g>
  <g>
    <path style="fill: #b7b79d" d="M 700 107.32 L 700,198.308 L 753.779,198.308 L 753.779,107.32 L 700,107.32z"/>
    <path style="fill: none; fill-opacity:0; stroke-width: 0.02; stroke: #494936" d="M 700 107.32 L 700,198.308 L 753.779,198.308 L 753.779,107.32 L 700,107.32"/>
    <path style="fill: #c9c9b6" d="M 700 107.32 L 707.287,100 L 761.051,100 L 753.779,107.32 L 700,107.32z"/>
    <path style="fill: none; fill-opacity:0; stroke-width: 0.02; stroke: #494936" d="M 700 107.32 L 707.287,100 L 760.697,100"/>
    <path style="fill: none; fill-opacity:0; stroke-width: 0.02; stroke: #494936" d="M 760.697 100.37 L 753.779,107.32 L 700,107.32"/>
    <path style="fill: #c9c9b6" d="M 703.314 112.612 L 727.879,112.612 L 727.879,124.549 L 703.314,124.549 L 703.314,112.612z"/>
    <path style="fill: none; fill-opacity:0; stroke-width: 0.02; stroke: #626248" d="M 703.314 112.612 L 727.863,112.612 L 727.863,124.533 L 703.314,124.533 L 703.314,112.612"/>
    <path style="fill: none; fill-opacity:0; stroke-width: 0.6; stroke: #ecece7" d="M 706.628 118.597 L 723.857,118.597"/>
    <path style="fill: #7a7a5a" d="M 753.779 198.308 L 761.051,190.973 L 761.051,100 L 753.779,107.32 L 753.779,198.308z"/>
    <path style="fill: none; fill-opacity:0; stroke-width: 0.02; stroke: #494936" d="M 753.779 198.308 L 760.697,191.343"/>
    <path style="fill: none; fill-opacity:0; stroke-width: 0.02; stroke: #494936" d="M 760.697 100.37 L 753.779,107.32 L 753.779,198.308"/>
    <path style="fill: none; fill-opacity:0; stroke-width: 0.6; stroke: #ecece7" d="M 700.676 192.308 L 753.763,192.308"/>
    <path style="fill: none; fill-opacity:0; stroke-width: 0.6; stroke: #000000" d="M 700.676 143.837 L 753.763,143.837"/>
    <path style="fill: none; fill-opacity:0; stroke-width: 0.6; stroke: #494936" d="M 700 191.648 L 753.715,191.648"/>
    <path style="fill: none; fill-opacity:0; stroke-width: 0.6; stroke: #000000" d="M 700 143.162 L 753.715,143.162"/>
    <path style="fill: none; fill-opacity:0; stroke-width: 0.02; stroke: #ecece7" d="M 703.314 123.905 L 703.314,112.612 L 727.203,112.612"/>
  </g>
  <text font-size="12.8" style="fill: #000000;text-anchor:start;font-family:sans-serif;font-style:normal;font-weight:normal" x="780" y="100">
    <tspan x="780" y="100">master</tspan>
    <tspan x="780" y="116">  - SLURM</tspan>
    <tspan x="780" y="132">  - jbpmmicroscope</tspan>
  </text>
  <g>
    <line style="fill: none; fill-opacity:0; stroke-width: 2; stroke: #000000" x1="632.684" y1="351.239" x2="702.504" y2="207.071"/>
    <polygon style="fill: #000000" points="629.415,357.989 629.274,346.81 632.684,351.239 638.274,351.169 "/>
    <polygon style="fill: none; fill-opacity:0; stroke-width: 2; stroke: #000000" points="629.415,357.989 629.274,346.81 632.684,351.239 638.274,351.169 "/>
    <polygon style="fill: #000000" points="705.773,200.321 705.914,211.501 702.504,207.071 696.914,207.142 "/>
    <polygon style="fill: none; fill-opacity:0; stroke-width: 2; stroke: #000000" points="705.773,200.321 705.914,211.501 702.504,207.071 696.914,207.142 "/>
  </g>
  <g>
    <path style="fill: #b7b79d" d="M 860 346.121 L 860,422.206 L 904.97,422.206 L 904.97,346.121 L 860,346.121z"/>
    <path style="fill: none; fill-opacity:0; stroke-width: 0.02; stroke: #494936" d="M 860 346.121 L 860,422.206 L 904.97,422.206 L 904.97,346.121 L 860,346.121"/>
    <path style="fill: #c9c9b6" d="M 860 346.121 L 866.094,340 L 911.051,340 L 904.97,346.121 L 860,346.121z"/>
    <path style="fill: none; fill-opacity:0; stroke-width: 0.02; stroke: #494936" d="M 860 346.121 L 866.094,340 L 910.755,340"/>
    <path style="fill: none; fill-opacity:0; stroke-width: 0.02; stroke: #494936" d="M 910.755 340.309 L 904.97,346.121 L 860,346.121"/>
    <path style="fill: #c9c9b6" d="M 862.771 350.546 L 883.312,350.546 L 883.312,360.528 L 862.771,360.528 L 862.771,350.546z"/>
    <path style="fill: none; fill-opacity:0; stroke-width: 0.02; stroke: #626248" d="M 862.771 350.546 L 883.299,350.546 L 883.299,360.514 L 862.771,360.514 L 862.771,350.546"/>
    <path style="fill: none; fill-opacity:0; stroke-width: 0.6; stroke: #ecece7" d="M 865.542 355.551 L 879.949,355.551"/>
    <path style="fill: #7a7a5a" d="M 904.97 422.206 L 911.051,416.071 L 911.051,340 L 904.97,346.121 L 904.97,422.206z"/>
    <path style="fill: none; fill-opacity:0; stroke-width: 0.02; stroke: #494936" d="M 904.97 422.206 L 910.755,416.381"/>
    <path style="fill: none; fill-opacity:0; stroke-width: 0.02; stroke: #494936" d="M 910.755 340.309 L 904.97,346.121 L 904.97,422.206"/>
    <path style="fill: none; fill-opacity:0; stroke-width: 0.6; stroke: #ecece7" d="M 860.565 417.188 L 904.957,417.188"/>
    <path style="fill: none; fill-opacity:0; stroke-width: 0.6; stroke: #000000" d="M 860.565 376.657 L 904.957,376.657"/>
    <path style="fill: none; fill-opacity:0; stroke-width: 0.6; stroke: #494936" d="M 860 416.636 L 904.916,416.636"/>
    <path style="fill: none; fill-opacity:0; stroke-width: 0.6; stroke: #000000" d="M 860 376.092 L 904.916,376.092"/>
    <path style="fill: none; fill-opacity:0; stroke-width: 0.02; stroke: #ecece7" d="M 862.771 359.99 L 862.771,350.546 L 882.747,350.546"/>
  </g>
  <g>
    <path style="fill: #b7b79d" d="M 840 366.575 L 840,448.308 L 888.309,448.308 L 888.309,366.575 L 840,366.575z"/>
    <path style="fill: none; fill-opacity:0; stroke-width: 0.02; stroke: #494936" d="M 840 366.575 L 840,448.308 L 888.309,448.308 L 888.309,366.575 L 840,366.575"/>
    <path style="fill: #c9c9b6" d="M 840 366.575 L 846.546,360 L 894.84,360 L 888.309,366.575 L 840,366.575z"/>
    <path style="fill: none; fill-opacity:0; stroke-width: 0.02; stroke: #494936" d="M 840 366.575 L 846.546,360 L 894.523,360"/>
    <path style="fill: none; fill-opacity:0; stroke-width: 0.02; stroke: #494936" d="M 894.523 360.332 L 888.309,366.575 L 840,366.575"/>
    <path style="fill: #c9c9b6" d="M 842.977 371.329 L 865.043,371.329 L 865.043,382.052 L 842.977,382.052 L 842.977,371.329z"/>
    <path style="fill: none; fill-opacity:0; stroke-width: 0.02; stroke: #626248" d="M 842.977 371.329 L 865.029,371.329 L 865.029,382.037 L 842.977,382.037 L 842.977,371.329"/>
    <path style="fill: none; fill-opacity:0; stroke-width: 0.6; stroke: #ecece7" d="M 845.954 376.705 L 861.43,376.705"/>
    <path style="fill: #7a7a5a" d="M 888.309 448.308 L 894.84,441.719 L 894.84,360 L 888.309,366.575 L 888.309,448.308z"/>
    <path style="fill: none; fill-opacity:0; stroke-width: 0.02; stroke: #494936" d="M 888.309 448.308 L 894.523,442.051"/>
    <path style="fill: none; fill-opacity:0; stroke-width: 0.02; stroke: #494936" d="M 894.523 360.332 L 888.309,366.575 L 888.309,448.308"/>
    <path style="fill: none; fill-opacity:0; stroke-width: 0.6; stroke: #ecece7" d="M 840.607 442.918 L 888.294,442.918"/>
    <path style="fill: none; fill-opacity:0; stroke-width: 0.6; stroke: #000000" d="M 840.607 399.378 L 888.294,399.378"/>
    <path style="fill: none; fill-opacity:0; stroke-width: 0.6; stroke: #494936" d="M 840 442.326 L 888.251,442.326"/>
    <path style="fill: none; fill-opacity:0; stroke-width: 0.6; stroke: #000000" d="M 840 398.771 L 888.251,398.771"/>
    <path style="fill: none; fill-opacity:0; stroke-width: 0.02; stroke: #ecece7" d="M 842.977 381.474 L 842.977,371.329 L 864.436,371.329"/>
  </g>
  <text font-size="12.8" style="fill: #000000;text-anchor:start;font-family:sans-serif;font-style:normal;font-weight:normal" x="840" y="460">
    <tspan x="840" y="460">slave</tspan>
  </text>
  <g>
    <path style="fill: #0078aa" d="M 460.973 125.334 L 460.922,124.798 L 460.803,124.27 L 460.607,123.733 L 460.343,123.205 L 460.002,122.695 L 459.576,122.175 L 459.074,121.673 L 458.503,121.179 L 457.856,120.693 L 457.141,120.225 L 456.34,119.757 L 455.497,119.305 L 454.586,118.879 L 453.624,118.471 L 452.576,118.07 L 451.495,117.687 L 450.345,117.33 L 449.145,116.997 L 447.893,116.682 L 446.615,116.384 L 445.27,116.112 L 443.916,115.873 L 442.494,115.643 L 441.08,115.431 L 439.598,115.269 L 438.117,115.116 L 436.618,115.005 L 435.102,114.92 L 433.561,114.843 L 432.028,114.792 L 430.478,114.792 L 430.478,114.792 L 428.945,114.792 L 427.395,114.843 L 425.862,114.92 L 424.347,115.005 L 422.848,115.116 L 421.366,115.269 L 419.893,115.431 L 418.454,115.643 L 417.049,115.873 L 415.686,116.112 L 414.358,116.384 L 413.072,116.682 L 411.811,116.997 L 410.628,117.33 L 409.47,117.687 L 408.397,118.07 L 407.341,118.471 L 406.378,118.879 L 405.459,119.305 L 404.616,119.757 L 403.824,120.225 L 403.108,120.693 L 402.461,121.179 L 401.899,121.673 L 401.388,122.175 L 400.962,122.695 L 400.63,123.205 L 400.349,123.733 L 400.162,124.27 L 400.034,124.798 L 400,125.334 L 400,125.334 L 400.034,125.862 L 400.162,126.399 L 400.349,126.927 L 400.63,127.463 L 400.962,127.983 L 401.388,128.502 L 401.899,129.005 L 402.461,129.499 L 403.108,129.984 L 403.824,130.444 L 404.616,130.921 L 405.459,131.372 L 406.378,131.798 L 407.341,132.198 L 408.397,132.607 L 409.47,132.99 L 410.628,133.348 L 411.811,133.68 L 413.072,133.995 L 414.358,134.293 L 415.686,134.566 L 417.049,134.804 L 418.454,135.034 L 419.893,135.238 L 421.366,135.409 L 422.848,135.553 L 424.347,135.664 L 425.862,135.766 L 427.395,135.834 L 428.945,135.877 L 430.478,135.885 L 430.478,135.885 L 432.028,135.877 L 433.561,135.834 L 435.102,135.766 L 436.618,135.664 L 438.117,135.553 L 439.598,135.409 L 441.08,135.238 L 442.494,135.034 L 443.916,134.804 L 445.27,134.566 L 446.615,134.293 L 447.893,133.995 L 449.145,133.68 L 450.345,133.348 L 451.495,132.99 L 452.576,132.607 L 453.624,132.198 L 454.586,131.798 L 455.497,131.372 L 456.34,130.921 L 457.141,130.444 L 457.856,129.984 L 458.503,129.499 L 459.074,129.005 L 459.576,128.502 L 460.002,127.983 L 460.343,127.463 L 460.607,126.927 L 460.803,126.399 L 460.922,125.862 L 460.973,125.334z"/>
    <path style="fill: none; fill-opacity:0; stroke-width: 0.02; stroke: #aae6ff" d="M 460.607 125.173 L 460.573,124.636 L 460.462,124.108 L 460.266,123.606 L 460.011,123.095 L 459.636,122.567 L 459.21,122.064 L 458.742,121.579 L 458.154,121.077 L 457.507,120.608 L 456.809,120.14 L 456.017,119.688 L 455.174,119.254 L 454.28,118.828 L 453.317,118.411 L 452.27,118.028 L 451.188,117.662 L 450.039,117.313 L 448.864,116.972 L 447.62,116.657 L 446.334,116.376 L 445.006,116.103 L 443.652,115.873 L 442.264,115.643 L 440.842,115.456 L 439.377,115.286 L 437.904,115.141 L 436.413,115.005 L 434.906,114.928 L 433.382,114.86 L 431.832,114.817 L 430.308,114.792 L 430.308,114.792 L 428.766,114.817 L 427.233,114.86 L 425.709,114.928 L 424.193,115.005 L 422.703,115.141 L 421.238,115.286 L 419.782,115.456 L 418.343,115.643 L 416.946,115.873 L 415.609,116.103 L 414.264,116.376 L 412.987,116.657 L 411.76,116.972 L 410.568,117.313 L 409.427,117.662 L 408.337,118.028 L 407.298,118.411 L 406.344,118.828 L 405.425,119.254 L 404.581,119.688 L 403.807,120.14 L 403.091,120.608 L 402.453,121.077 L 401.882,121.579 L 401.388,122.064 L 400.962,122.567 L 400.613,123.095 L 400.341,123.606 L 400.136,124.108 L 400.034,124.636 L 400,125.173 L 400,125.173 L 400.034,125.701 L 400.136,126.22 L 400.341,126.74 L 400.613,127.25 L 400.962,127.778 L 401.388,128.272 L 401.882,128.766 L 402.453,129.26 L 403.091,129.729 L 403.807,130.205 L 404.581,130.657 L 405.425,131.083 L 406.344,131.508 L 407.298,131.926 L 408.337,132.317 L 409.427,132.675 L 410.568,133.033 L 411.76,133.365 L 412.987,133.671 L 414.264,133.969 L 415.609,134.242 L 416.946,134.472 L 418.343,134.702 L 419.782,134.889 L 421.238,135.059 L 422.703,135.196 L 424.193,135.323 L 425.709,135.409 L 427.233,135.477 L 428.766,135.519 L 430.308,135.528 L 430.308,135.528 L 431.832,135.519 L 433.382,135.477 L 434.906,135.409 L 436.413,135.323 L 437.904,135.196 L 439.377,135.059 L 440.842,134.889 L 442.264,134.702 L 443.652,134.472 L 445.006,134.242 L 446.334,133.969 L 447.62,133.671 L 448.864,133.365 L 450.039,133.033 L 451.188,132.675 L 452.27,132.317 L 453.317,131.926 L 454.28,131.508 L 455.174,131.083 L 456.017,130.657 L 456.809,130.205 L 457.507,129.729 L 458.154,129.26 L 458.742,128.766 L 459.21,128.272 L 459.636,127.778 L 460.011,127.25 L 460.266,126.74 L 460.462,126.22 L 460.573,125.701 L 460.607,125.173"/>
    <path style="fill: #0078aa" d="M 400 110.738 L 400,125.539 L 460.607,125.539 L 460.607,110.738 L 400,110.738z"/>
    <path style="fill: #00b4ff" d="M 460.973 110.534 L 460.922,109.998 L 460.803,109.47 L 460.607,108.942 L 460.343,108.405 L 460.002,107.894 L 459.576,107.383 L 459.074,106.881 L 458.503,106.37 L 457.856,105.893 L 457.141,105.416 L 456.34,104.948 L 455.497,104.513 L 454.586,104.088 L 453.624,103.67 L 452.576,103.27 L 451.495,102.895 L 450.345,102.538 L 449.145,102.206 L 447.893,101.891 L 446.615,101.592 L 445.27,101.32 L 443.916,101.082 L 442.494,100.843 L 441.08,100.639 L 439.598,100.477 L 438.117,100.332 L 436.618,100.213 L 435.102,100.119 L 433.561,100.051 L 432.028,100 L 430.478,100 L 430.478,100 L 428.945,100 L 427.395,100.051 L 425.862,100.119 L 424.347,100.213 L 422.848,100.332 L 421.366,100.477 L 419.893,100.639 L 418.454,100.843 L 417.049,101.082 L 415.686,101.32 L 414.358,101.592 L 413.072,101.891 L 411.811,102.206 L 410.628,102.538 L 409.47,102.895 L 408.397,103.27 L 407.341,103.67 L 406.378,104.088 L 405.459,104.513 L 404.616,104.948 L 403.824,105.416 L 403.108,105.893 L 402.461,106.37 L 401.899,106.881 L 401.388,107.383 L 400.962,107.894 L 400.63,108.405 L 400.349,108.942 L 400.162,109.47 L 400.034,109.998 L 400,110.534 L 400,110.534 L 400.034,111.071 L 400.162,111.598 L 400.349,112.135 L 400.63,112.654 L 400.962,113.174 L 401.388,113.676 L 401.899,114.187 L 402.461,114.69 L 403.108,115.167 L 403.824,115.643 L 404.616,116.112 L 405.459,116.546 L 406.378,116.989 L 407.341,117.398 L 408.397,117.798 L 409.47,118.173 L 410.628,118.522 L 411.811,118.871 L 413.072,119.186 L 414.358,119.476 L 415.686,119.748 L 417.049,119.995 L 418.454,120.225 L 419.893,120.421 L 421.366,120.591 L 422.848,120.736 L 424.347,120.855 L 425.862,120.949 L 427.395,121.017 L 428.945,121.06 L 430.478,121.077 L 430.478,121.077 L 432.028,121.06 L 433.561,121.017 L 435.102,120.949 L 436.618,120.855 L 438.117,120.736 L 439.598,120.591 L 441.08,120.421 L 442.494,120.225 L 443.916,119.995 L 445.27,119.748 L 446.615,119.476 L 447.893,119.186 L 449.145,118.871 L 450.345,118.522 L 451.495,118.173 L 452.576,117.798 L 453.624,117.398 L 454.586,116.989 L 455.497,116.546 L 456.34,116.112 L 457.141,115.643 L 457.856,115.167 L 458.503,114.69 L 459.074,114.187 L 459.576,113.676 L 460.002,113.174 L 460.343,112.654 L 460.607,112.135 L 460.803,111.598 L 460.922,111.071 L 460.973,110.534z"/>
    <path style="fill: none; fill-opacity:0; stroke-width: 0.02; stroke: #aae6ff" d="M 460.607 110.355 L 460.573,109.827 L 460.462,109.308 L 460.266,108.78 L 460.011,108.277 L 459.636,107.749 L 459.21,107.255 L 458.742,106.753 L 458.154,106.268 L 457.507,105.799 L 456.809,105.322 L 456.017,104.871 L 455.174,104.437 L 454.28,104.011 L 453.317,103.602 L 452.27,103.21 L 451.188,102.844 L 450.039,102.495 L 448.864,102.163 L 447.62,101.856 L 446.334,101.558 L 445.006,101.277 L 443.652,101.056 L 442.264,100.826 L 440.842,100.639 L 439.377,100.468 L 437.904,100.332 L 436.413,100.204 L 434.906,100.119 L 433.382,100.051 L 431.832,100 L 430.308,100 L 430.308,100 L 428.766,100 L 427.233,100.051 L 425.709,100.119 L 424.193,100.204 L 422.703,100.332 L 421.238,100.468 L 419.782,100.639 L 418.343,100.826 L 416.946,101.056 L 415.609,101.277 L 414.264,101.558 L 412.987,101.856 L 411.76,102.163 L 410.568,102.495 L 409.427,102.844 L 408.337,103.21 L 407.298,103.602 L 406.344,104.011 L 405.425,104.437 L 404.581,104.871 L 403.807,105.322 L 403.091,105.799 L 402.453,106.268 L 401.882,106.753 L 401.388,107.255 L 400.962,107.749 L 400.613,108.277 L 400.341,108.78 L 400.136,109.308 L 400.034,109.827 L 400,110.355 L 400,110.355 L 400.034,110.892 L 400.136,111.403 L 400.341,111.922 L 400.613,112.433 L 400.962,112.961 L 401.388,113.463 L 401.882,113.94 L 402.453,114.443 L 403.091,114.92 L 403.807,115.379 L 404.581,115.839 L 405.425,116.274 L 406.344,116.699 L 407.298,117.108 L 408.337,117.5 L 409.427,117.866 L 410.568,118.215 L 411.76,118.547 L 412.987,118.871 L 414.264,119.152 L 415.609,119.424 L 416.946,119.654 L 418.343,119.884 L 419.782,120.063 L 421.238,120.242 L 422.703,120.387 L 424.193,120.515 L 425.709,120.6 L 427.233,120.668 L 428.766,120.702 L 430.308,120.727 L 430.308,120.727 L 431.832,120.702 L 433.382,120.668 L 434.906,120.6 L 436.413,120.515 L 437.904,120.387 L 439.377,120.242 L 440.842,120.063 L 442.264,119.884 L 443.652,119.654 L 445.006,119.424 L 446.334,119.152 L 447.62,118.871 L 448.864,118.547 L 450.039,118.215 L 451.188,117.866 L 452.27,117.5 L 453.317,117.108 L 454.28,116.699 L 455.174,116.274 L 456.017,115.839 L 456.809,115.379 L 457.507,114.92 L 458.154,114.443 L 458.742,113.94 L 459.21,113.463 L 459.636,112.961 L 460.011,112.433 L 460.266,111.922 L 460.462,111.403 L 460.573,110.892 L 460.607,110.355"/>
    <path style="fill: none; fill-opacity:0; stroke-width: 0.02; stroke: #aae6ff" d="M 400 110.355 L 400,125.139"/>
    <path style="fill: none; fill-opacity:0; stroke-width: 0.02; stroke: #aae6ff" d="M 460.607 110.355 L 460.607,125.139"/>
    <path style="fill: #ffffff" d="M 419.229 107.026 L 420.685,113.319 L 421.434,113.319 L 422.541,109.623 L 423.648,113.319 L 424.389,113.319 L 425.871,107.026 L 424.772,107.026 L 424.023,110.738 L 422.916,107.026 L 422.167,107.026 L 421.077,110.738 L 419.944,107.026 L 419.229,107.026z"/>
    <path style="fill: none; fill-opacity:0; stroke-width: 0.02; stroke: #000000" d="M 419.229 107.026 L 420.685,113.319 L 421.434,113.319 L 422.541,109.623 L 423.648,113.319 L 424.389,113.319 L 425.871,107.026 L 424.772,107.026 L 424.023,110.738 L 422.916,107.026 L 422.167,107.026 L 421.077,110.738 L 419.944,107.026 L 419.229,107.026"/>
    <path style="fill: #ffffff" d="M 426.603 107.026 L 428.477,113.319 L 429.192,113.319 L 430.308,109.623 L 431.406,113.319 L 432.147,113.319 L 433.637,107.026 L 432.53,107.026 L 431.789,110.738 L 430.665,107.026 L 429.933,107.026 L 428.826,110.738 L 427.71,107.026 L 426.603,107.026z"/>
    <path style="fill: none; fill-opacity:0; stroke-width: 0.02; stroke: #000000" d="M 426.603 107.026 L 428.477,113.319 L 429.192,113.319 L 430.308,109.623 L 431.406,113.319 L 432.147,113.319 L 433.637,107.026 L 432.53,107.026 L 431.789,110.738 L 430.665,107.026 L 429.933,107.026 L 428.826,110.738 L 427.71,107.026 L 426.603,107.026"/>
    <path style="fill: #ffffff" d="M 434.378 107.026 L 435.851,113.319 L 436.95,113.319 L 438.074,109.623 L 439.173,113.319 L 439.922,113.319 L 441.404,107.026 L 440.288,107.026 L 439.547,110.738 L 438.432,107.026 L 437.691,107.026 L 436.592,110.738 L 435.46,107.026 L 434.378,107.026z"/>
    <path style="fill: none; fill-opacity:0; stroke-width: 0.02; stroke: #000000" d="M 434.378 107.026 L 435.851,113.319 L 436.95,113.319 L 438.074,109.623 L 439.173,113.319 L 439.922,113.319 L 441.404,107.026 L 440.288,107.026 L 439.547,110.738 L 438.432,107.026 L 437.691,107.026 L 436.592,110.738 L 435.46,107.026 L 434.378,107.026"/>
    <path style="fill: #ffffff" d="M 416.623 102.589 L 410.347,104.811 L 416.623,107.392 L 416.623,105.918 L 450.252,105.918 L 450.252,103.696 L 416.623,103.696 L 416.623,102.589z"/>
    <path style="fill: #000000" d="M 416.623 102.955 L 450.252,102.955 L 450.252,103.696 L 416.623,103.696 L 416.623,102.955z"/>
    <path style="fill: #ffffff" d="M 444.342 114.068 L 450.635,116.282 L 444.342,118.496 L 444.342,117.032 L 409.248,117.032 L 409.248,115.167 L 444.342,115.167 L 444.342,114.068z"/>
    <path style="fill: #000000" d="M 444.342 114.068 L 450.635,116.282 L 451.367,115.907 L 444.342,113.319 L 444.342,114.068z"/>
    <path style="fill: #000000" d="M 444.342 114.417 L 409.248,114.417 L 409.248,115.167 L 444.342,115.167 L 444.342,114.417z"/>
    <path style="fill: #000000" d="M 416.623 102.589 L 410.347,104.811 L 409.597,104.437 L 416.623,102.214 L 416.623,102.589z"/>
  </g>
  <g>
    <path style="fill: #a5a585" d="M 396.985 420.189 L 396.926,419.428 L 396.759,418.68 L 396.474,417.932 L 396.082,417.196 L 395.595,416.459 L 394.99,415.735 L 394.277,415.022 L 393.458,414.321 L 392.531,413.633 L 391.51,412.979 L 390.393,412.326 L 389.194,411.685 L 387.876,411.079 L 386.486,410.497 L 385.013,409.939 L 383.446,409.404 L 381.818,408.906 L 380.108,408.431 L 378.339,407.991 L 376.486,407.575 L 374.597,407.184 L 372.638,406.839 L 370.631,406.507 L 368.6,406.233 L 366.509,405.996 L 364.383,405.794 L 362.246,405.616 L 360.072,405.497 L 357.887,405.39 L 355.69,405.319 L 353.493,405.319 L 353.493,405.319 L 351.283,405.319 L 349.086,405.39 L 346.901,405.497 L 344.727,405.616 L 342.59,405.794 L 340.464,405.996 L 338.385,406.233 L 336.343,406.507 L 334.335,406.839 L 332.376,407.184 L 330.487,407.575 L 328.646,407.991 L 326.877,408.431 L 325.167,408.906 L 323.528,409.404 L 321.96,409.939 L 320.499,410.497 L 319.098,411.079 L 317.791,411.685 L 316.58,412.326 L 315.463,412.979 L 314.442,413.633 L 313.516,414.321 L 312.696,415.022 L 311.983,415.735 L 311.378,416.459 L 310.891,417.196 L 310.499,417.932 L 310.214,418.68 L 310.059,419.428 L 310,420.189 L 310,420.189 L 310.059,420.949 L 310.214,421.685 L 310.499,422.445 L 310.891,423.181 L 311.378,423.918 L 311.983,424.642 L 312.696,425.355 L 313.516,426.056 L 314.442,426.733 L 315.463,427.398 L 316.58,428.051 L 317.791,428.692 L 319.098,429.298 L 320.499,429.88 L 321.96,430.438 L 323.528,430.973 L 325.167,431.471 L 326.877,431.946 L 328.646,432.386 L 330.487,432.802 L 332.376,433.194 L 334.335,433.538 L 336.343,433.859 L 338.385,434.144 L 340.464,434.381 L 342.59,434.583 L 344.727,434.749 L 346.901,434.88 L 349.086,434.975 L 351.283,435.046 L 353.493,435.058 L 353.493,435.058 L 355.69,435.046 L 357.887,434.975 L 360.072,434.88 L 362.246,434.749 L 364.383,434.583 L 366.509,434.381 L 368.6,434.144 L 370.631,433.859 L 372.638,433.538 L 374.597,433.194 L 376.486,432.802 L 378.339,432.386 L 380.108,431.946 L 381.818,431.471 L 383.446,430.973 L 385.013,430.438 L 386.486,429.88 L 387.876,429.298 L 389.194,428.692 L 390.393,428.051 L 391.51,427.398 L 392.531,426.733 L 393.458,426.056 L 394.277,425.355 L 394.99,424.642 L 395.595,423.918 L 396.082,423.181 L 396.474,422.445 L 396.759,421.685 L 396.926,420.949 L 396.985,420.189z"/>
    <path style="fill: none; fill-opacity:0; stroke-width: 0.02; stroke: #494936" d="M 396.474 419.951 L 396.415,419.191 L 396.261,418.466 L 395.987,417.73 L 395.607,417.006 L 395.097,416.269 L 394.479,415.568 L 393.802,414.856 L 392.971,414.191 L 392.056,413.514 L 391.047,412.849 L 389.93,412.219 L 388.731,411.59 L 387.436,410.996 L 386.07,410.402 L 384.574,409.868 L 383.018,409.345 L 381.391,408.846 L 379.704,408.383 L 377.947,407.956 L 376.118,407.54 L 374.217,407.172 L 372.281,406.827 L 370.286,406.507 L 368.267,406.233 L 366.201,405.996 L 364.075,405.806 L 361.949,405.616 L 359.787,405.509 L 357.626,405.414 L 355.417,405.355 L 353.231,405.319 L 353.231,405.319 L 351.046,405.355 L 348.861,405.414 L 346.675,405.509 L 344.537,405.616 L 342.4,405.806 L 340.286,405.996 L 338.207,406.233 L 336.176,406.507 L 334.193,406.827 L 332.257,407.172 L 330.357,407.54 L 328.528,407.956 L 326.782,408.383 L 325.072,408.846 L 323.433,409.345 L 321.889,409.868 L 320.416,410.402 L 319.05,410.996 L 317.744,411.59 L 316.532,412.219 L 315.44,412.849 L 314.43,413.514 L 313.492,414.191 L 312.684,414.856 L 311.983,415.568 L 311.378,416.269 L 310.879,417.006 L 310.487,417.73 L 310.214,418.466 L 310.059,419.191 L 310,419.951 L 310,419.951 L 310.059,420.687 L 310.214,421.412 L 310.487,422.16 L 310.879,422.885 L 311.378,423.609 L 311.983,424.322 L 312.684,425.022 L 313.492,425.699 L 314.43,426.364 L 315.44,427.041 L 316.532,427.683 L 317.744,428.288 L 319.05,428.894 L 320.416,429.476 L 321.889,430.022 L 323.433,430.545 L 325.072,431.032 L 326.782,431.507 L 328.528,431.935 L 330.357,432.35 L 332.257,432.73 L 334.193,433.063 L 336.176,433.372 L 338.207,433.645 L 340.286,433.882 L 342.4,434.084 L 344.537,434.262 L 346.675,434.381 L 348.861,434.476 L 351.046,434.536 L 353.231,434.559 L 353.231,434.559 L 355.417,434.536 L 357.626,434.476 L 359.787,434.381 L 361.949,434.262 L 364.075,434.084 L 366.201,433.882 L 368.267,433.645 L 370.286,433.372 L 372.281,433.063 L 374.217,432.73 L 376.118,432.35 L 377.947,431.935 L 379.704,431.507 L 381.391,431.032 L 383.018,430.545 L 384.574,430.022 L 386.07,429.476 L 387.436,428.894 L 388.731,428.288 L 389.93,427.683 L 391.047,427.041 L 392.056,426.364 L 392.971,425.699 L 393.802,425.022 L 394.479,424.322 L 395.097,423.609 L 395.607,422.885 L 395.987,422.16 L 396.261,421.412 L 396.415,420.687 L 396.474,419.951"/>
    <path style="fill: #a5a585" d="M 310 389.131 L 310,420.45 L 396.474,420.45 L 396.474,389.131 L 310,389.131z"/>
    <path style="fill: #c9c9b6" d="M 396.985 388.87 L 396.926,388.098 L 396.759,387.349 L 396.474,386.613 L 396.082,385.877 L 395.595,385.128 L 394.99,384.404 L 394.277,383.68 L 393.458,383.003 L 392.531,382.326 L 391.51,381.637 L 390.393,381.007 L 389.194,380.366 L 387.876,379.748 L 386.486,379.178 L 385.013,378.62 L 383.446,378.074 L 381.818,377.575 L 380.108,377.112 L 378.339,376.66 L 376.486,376.245 L 374.597,375.865 L 372.638,375.52 L 370.631,375.2 L 368.6,374.915 L 366.509,374.677 L 364.383,374.475 L 362.246,374.309 L 360.072,374.178 L 357.887,374.071 L 355.69,374.012 L 353.493,374 L 353.493,374 L 351.283,374.012 L 349.086,374.071 L 346.901,374.178 L 344.727,374.309 L 342.59,374.475 L 340.464,374.677 L 338.385,374.915 L 336.343,375.2 L 334.335,375.52 L 332.376,375.865 L 330.487,376.245 L 328.646,376.66 L 326.877,377.112 L 325.167,377.575 L 323.528,378.074 L 321.96,378.62 L 320.499,379.178 L 319.098,379.748 L 317.791,380.366 L 316.58,381.007 L 315.463,381.637 L 314.442,382.326 L 313.516,383.003 L 312.696,383.68 L 311.983,384.404 L 311.378,385.128 L 310.891,385.877 L 310.499,386.613 L 310.214,387.349 L 310.059,388.098 L 310,388.87 L 310,388.87 L 310.059,389.618 L 310.214,390.378 L 310.499,391.102 L 310.891,391.863 L 311.378,392.587 L 311.983,393.323 L 312.696,394.036 L 313.516,394.725 L 314.442,395.414 L 315.463,396.079 L 316.58,396.732 L 317.791,397.361 L 319.098,397.967 L 320.499,398.549 L 321.96,399.119 L 323.528,399.642 L 325.167,400.153 L 326.877,400.628 L 328.646,401.067 L 330.487,401.483 L 332.376,401.875 L 334.335,402.207 L 336.343,402.54 L 338.385,402.813 L 340.464,403.05 L 342.59,403.264 L 344.727,403.419 L 346.901,403.561 L 349.086,403.656 L 351.283,403.716 L 353.493,403.739 L 353.493,403.739 L 355.69,403.716 L 357.887,403.656 L 360.072,403.561 L 362.246,403.419 L 364.383,403.264 L 366.509,403.05 L 368.6,402.813 L 370.631,402.54 L 372.638,402.207 L 374.597,401.875 L 376.486,401.483 L 378.339,401.067 L 380.108,400.628 L 381.818,400.153 L 383.446,399.642 L 385.013,399.119 L 386.486,398.549 L 387.876,397.967 L 389.194,397.361 L 390.393,396.732 L 391.51,396.079 L 392.531,395.414 L 393.458,394.725 L 394.277,394.036 L 394.99,393.323 L 395.595,392.587 L 396.082,391.863 L 396.474,391.102 L 396.759,390.378 L 396.926,389.618 L 396.985,388.87z"/>
    <path style="fill: none; fill-opacity:0; stroke-width: 0.02; stroke: #494936" d="M 396.474 388.632 L 396.415,387.872 L 396.261,387.148 L 395.987,386.423 L 395.607,385.687 L 395.097,384.938 L 394.479,384.238 L 393.802,383.561 L 392.971,382.86 L 392.056,382.195 L 391.047,381.518 L 389.93,380.9 L 388.731,380.271 L 387.436,379.665 L 386.07,379.107 L 384.574,378.549 L 383.018,378.038 L 381.391,377.539 L 379.704,377.064 L 377.947,376.625 L 376.118,376.221 L 374.217,375.853 L 372.281,375.508 L 370.286,375.2 L 368.267,374.915 L 366.201,374.677 L 364.075,374.475 L 361.949,374.309 L 359.787,374.178 L 359.063,374.143 L 347.4,374.143 L 346.675,374.178 L 344.537,374.309 L 342.4,374.475 L 340.286,374.677 L 338.207,374.915 L 336.176,375.2 L 334.193,375.508 L 332.257,375.853 L 330.357,376.221 L 328.528,376.625 L 326.782,377.064 L 325.072,377.539 L 323.433,378.038 L 321.889,378.549 L 320.416,379.107 L 319.05,379.665 L 317.744,380.271 L 316.532,380.9 L 315.44,381.518 L 314.43,382.195 L 313.492,382.86 L 312.684,383.561 L 311.983,384.238 L 311.378,384.938 L 310.879,385.687 L 310.487,386.423 L 310.214,387.148 L 310.059,387.872 L 310,388.632 L 310,388.632 L 310.059,389.357 L 310.214,390.105 L 310.487,390.841 L 310.879,391.566 L 311.378,392.29 L 311.983,393.003 L 312.684,393.692 L 313.492,394.392 L 314.43,395.057 L 315.44,395.723 L 316.532,396.364 L 317.744,396.97 L 319.05,397.563 L 320.416,398.157 L 321.889,398.704 L 323.433,399.214 L 325.072,399.701 L 326.782,400.176 L 328.528,400.604 L 330.357,401.02 L 332.257,401.411 L 334.193,401.72 L 336.176,402.053 L 338.207,402.314 L 340.286,402.563 L 342.4,402.777 L 344.537,402.944 L 346.675,403.074 L 348.861,403.157 L 351.046,403.205 L 353.231,403.24 L 353.231,403.24 L 355.417,403.205 L 357.626,403.157 L 359.787,403.074 L 361.949,402.944 L 364.075,402.777 L 366.201,402.563 L 368.267,402.314 L 370.286,402.053 L 372.281,401.72 L 374.217,401.411 L 376.118,401.02 L 377.947,400.604 L 379.704,400.176 L 381.391,399.701 L 383.018,399.214 L 384.574,398.704 L 386.07,398.157 L 387.436,397.563 L 388.731,396.97 L 389.93,396.364 L 391.047,395.723 L 392.056,395.057 L 392.971,394.392 L 393.802,393.692 L 394.479,393.003 L 395.097,392.29 L 395.607,391.566 L 395.987,390.841 L 396.261,390.105 L 396.415,389.357 L 396.474,388.632"/>
    <path style="fill: none; fill-opacity:0; stroke-width: 0.02; stroke: #000000" d="M 310 388.632 L 310,419.927"/>
    <path style="fill: none; fill-opacity:0; stroke-width: 0.02; stroke: #000000" d="M 396.474 388.632 L 396.474,419.927"/>
  </g>
  <g>
    <path style="fill: #a5a585" d="M 266.985 326.189 L 266.926,325.428 L 266.759,324.68 L 266.474,323.932 L 266.082,323.196 L 265.595,322.459 L 264.99,321.735 L 264.277,321.022 L 263.458,320.321 L 262.531,319.633 L 261.51,318.979 L 260.393,318.326 L 259.194,317.685 L 257.876,317.079 L 256.486,316.497 L 255.013,315.939 L 253.446,315.404 L 251.818,314.906 L 250.108,314.431 L 248.339,313.991 L 246.486,313.575 L 244.597,313.184 L 242.638,312.839 L 240.631,312.507 L 238.6,312.233 L 236.509,311.996 L 234.383,311.794 L 232.246,311.616 L 230.072,311.497 L 227.887,311.39 L 225.69,311.319 L 223.493,311.319 L 223.493,311.319 L 221.283,311.319 L 219.086,311.39 L 216.901,311.497 L 214.727,311.616 L 212.59,311.794 L 210.464,311.996 L 208.385,312.233 L 206.343,312.507 L 204.335,312.839 L 202.376,313.184 L 200.487,313.575 L 198.646,313.991 L 196.877,314.431 L 195.167,314.906 L 193.528,315.404 L 191.96,315.939 L 190.499,316.497 L 189.098,317.079 L 187.791,317.685 L 186.58,318.326 L 185.463,318.979 L 184.442,319.633 L 183.516,320.321 L 182.696,321.022 L 181.983,321.735 L 181.378,322.459 L 180.891,323.196 L 180.499,323.932 L 180.214,324.68 L 180.059,325.428 L 180,326.189 L 180,326.189 L 180.059,326.949 L 180.214,327.685 L 180.499,328.445 L 180.891,329.181 L 181.378,329.918 L 181.983,330.642 L 182.696,331.355 L 183.516,332.056 L 184.442,332.733 L 185.463,333.398 L 186.58,334.051 L 187.791,334.692 L 189.098,335.298 L 190.499,335.88 L 191.96,336.438 L 193.528,336.973 L 195.167,337.471 L 196.877,337.946 L 198.646,338.386 L 200.487,338.802 L 202.376,339.194 L 204.335,339.538 L 206.343,339.859 L 208.385,340.144 L 210.464,340.381 L 212.59,340.583 L 214.727,340.749 L 216.901,340.88 L 219.086,340.975 L 221.283,341.046 L 223.493,341.058 L 223.493,341.058 L 225.69,341.046 L 227.887,340.975 L 230.072,340.88 L 232.246,340.749 L 234.383,340.583 L 236.509,340.381 L 238.6,340.144 L 240.631,339.859 L 242.638,339.538 L 244.597,339.194 L 246.486,338.802 L 248.339,338.386 L 250.108,337.946 L 251.818,337.471 L 253.446,336.973 L 255.013,336.438 L 256.486,335.88 L 257.876,335.298 L 259.194,334.692 L 260.393,334.051 L 261.51,333.398 L 262.531,332.733 L 263.458,332.056 L 264.277,331.355 L 264.99,330.642 L 265.595,329.918 L 266.082,329.181 L 266.474,328.445 L 266.759,327.685 L 266.926,326.949 L 266.985,326.189z"/>
    <path style="fill: none; fill-opacity:0; stroke-width: 0.02; stroke: #494936" d="M 266.474 325.951 L 266.415,325.191 L 266.261,324.466 L 265.987,323.73 L 265.607,323.006 L 265.097,322.269 L 264.479,321.568 L 263.802,320.856 L 262.971,320.191 L 262.056,319.514 L 261.047,318.849 L 259.93,318.219 L 258.731,317.59 L 257.436,316.996 L 256.07,316.402 L 254.574,315.868 L 253.018,315.345 L 251.391,314.846 L 249.704,314.383 L 247.947,313.956 L 246.118,313.54 L 244.217,313.172 L 242.281,312.827 L 240.286,312.507 L 238.267,312.233 L 236.201,311.996 L 234.075,311.806 L 231.949,311.616 L 229.787,311.509 L 227.626,311.414 L 225.417,311.355 L 223.231,311.319 L 223.231,311.319 L 221.046,311.355 L 218.861,311.414 L 216.675,311.509 L 214.537,311.616 L 212.4,311.806 L 210.286,311.996 L 208.207,312.233 L 206.176,312.507 L 204.193,312.827 L 202.257,313.172 L 200.357,313.54 L 198.528,313.956 L 196.782,314.383 L 195.072,314.846 L 193.433,315.345 L 191.889,315.868 L 190.416,316.402 L 189.05,316.996 L 187.744,317.59 L 186.532,318.219 L 185.44,318.849 L 184.43,319.514 L 183.492,320.191 L 182.684,320.856 L 181.983,321.568 L 181.378,322.269 L 180.879,323.006 L 180.487,323.73 L 180.214,324.466 L 180.059,325.191 L 180,325.951 L 180,325.951 L 180.059,326.687 L 180.214,327.412 L 180.487,328.16 L 180.879,328.885 L 181.378,329.609 L 181.983,330.322 L 182.684,331.022 L 183.492,331.699 L 184.43,332.364 L 185.44,333.041 L 186.532,333.683 L 187.744,334.288 L 189.05,334.894 L 190.416,335.476 L 191.889,336.022 L 193.433,336.545 L 195.072,337.032 L 196.782,337.507 L 198.528,337.935 L 200.357,338.35 L 202.257,338.73 L 204.193,339.063 L 206.176,339.372 L 208.207,339.645 L 210.286,339.882 L 212.4,340.084 L 214.537,340.262 L 216.675,340.381 L 218.861,340.476 L 221.046,340.536 L 223.231,340.559 L 223.231,340.559 L 225.417,340.536 L 227.626,340.476 L 229.787,340.381 L 231.949,340.262 L 234.075,340.084 L 236.201,339.882 L 238.267,339.645 L 240.286,339.372 L 242.281,339.063 L 244.217,338.73 L 246.118,338.35 L 247.947,337.935 L 249.704,337.507 L 251.391,337.032 L 253.018,336.545 L 254.574,336.022 L 256.07,335.476 L 257.436,334.894 L 258.731,334.288 L 259.93,333.683 L 261.047,333.041 L 262.056,332.364 L 262.971,331.699 L 263.802,331.022 L 264.479,330.322 L 265.097,329.609 L 265.607,328.885 L 265.987,328.16 L 266.261,327.412 L 266.415,326.687 L 266.474,325.951"/>
    <path style="fill: #a5a585" d="M 180 295.131 L 180,326.45 L 266.474,326.45 L 266.474,295.131 L 180,295.131z"/>
    <path style="fill: #c9c9b6" d="M 266.985 294.87 L 266.926,294.098 L 266.759,293.349 L 266.474,292.613 L 266.082,291.877 L 265.595,291.128 L 264.99,290.404 L 264.277,289.68 L 263.458,289.003 L 262.531,288.326 L 261.51,287.637 L 260.393,287.007 L 259.194,286.366 L 257.876,285.748 L 256.486,285.178 L 255.013,284.62 L 253.446,284.074 L 251.818,283.575 L 250.108,283.112 L 248.339,282.66 L 246.486,282.245 L 244.597,281.865 L 242.638,281.52 L 240.631,281.2 L 238.6,280.915 L 236.509,280.677 L 234.383,280.475 L 232.246,280.309 L 230.072,280.178 L 227.887,280.071 L 225.69,280.012 L 223.493,280 L 223.493,280 L 221.283,280.012 L 219.086,280.071 L 216.901,280.178 L 214.727,280.309 L 212.59,280.475 L 210.464,280.677 L 208.385,280.915 L 206.343,281.2 L 204.335,281.52 L 202.376,281.865 L 200.487,282.245 L 198.646,282.66 L 196.877,283.112 L 195.167,283.575 L 193.528,284.074 L 191.96,284.62 L 190.499,285.178 L 189.098,285.748 L 187.791,286.366 L 186.58,287.007 L 185.463,287.637 L 184.442,288.326 L 183.516,289.003 L 182.696,289.68 L 181.983,290.404 L 181.378,291.128 L 180.891,291.877 L 180.499,292.613 L 180.214,293.349 L 180.059,294.098 L 180,294.87 L 180,294.87 L 180.059,295.618 L 180.214,296.378 L 180.499,297.102 L 180.891,297.863 L 181.378,298.587 L 181.983,299.323 L 182.696,300.036 L 183.516,300.725 L 184.442,301.414 L 185.463,302.079 L 186.58,302.732 L 187.791,303.361 L 189.098,303.967 L 190.499,304.549 L 191.96,305.119 L 193.528,305.642 L 195.167,306.153 L 196.877,306.628 L 198.646,307.067 L 200.487,307.483 L 202.376,307.875 L 204.335,308.207 L 206.343,308.54 L 208.385,308.813 L 210.464,309.05 L 212.59,309.264 L 214.727,309.419 L 216.901,309.561 L 219.086,309.656 L 221.283,309.716 L 223.493,309.739 L 223.493,309.739 L 225.69,309.716 L 227.887,309.656 L 230.072,309.561 L 232.246,309.419 L 234.383,309.264 L 236.509,309.05 L 238.6,308.813 L 240.631,308.54 L 242.638,308.207 L 244.597,307.875 L 246.486,307.483 L 248.339,307.067 L 250.108,306.628 L 251.818,306.153 L 253.446,305.642 L 255.013,305.119 L 256.486,304.549 L 257.876,303.967 L 259.194,303.361 L 260.393,302.732 L 261.51,302.079 L 262.531,301.414 L 263.458,300.725 L 264.277,300.036 L 264.99,299.323 L 265.595,298.587 L 266.082,297.863 L 266.474,297.102 L 266.759,296.378 L 266.926,295.618 L 266.985,294.87z"/>
    <path style="fill: none; fill-opacity:0; stroke-width: 0.02; stroke: #494936" d="M 266.474 294.632 L 266.415,293.872 L 266.261,293.148 L 265.987,292.423 L 265.607,291.687 L 265.097,290.938 L 264.479,290.238 L 263.802,289.561 L 262.971,288.86 L 262.056,288.195 L 261.047,287.518 L 259.93,286.9 L 258.731,286.271 L 257.436,285.665 L 256.07,285.107 L 254.574,284.549 L 253.018,284.038 L 251.391,283.539 L 249.704,283.064 L 247.947,282.625 L 246.118,282.221 L 244.217,281.853 L 242.281,281.508 L 240.286,281.2 L 238.267,280.915 L 236.201,280.677 L 234.075,280.475 L 231.949,280.309 L 229.787,280.178 L 229.063,280.143 L 217.4,280.143 L 216.675,280.178 L 214.537,280.309 L 212.4,280.475 L 210.286,280.677 L 208.207,280.915 L 206.176,281.2 L 204.193,281.508 L 202.257,281.853 L 200.357,282.221 L 198.528,282.625 L 196.782,283.064 L 195.072,283.539 L 193.433,284.038 L 191.889,284.549 L 190.416,285.107 L 189.05,285.665 L 187.744,286.271 L 186.532,286.9 L 185.44,287.518 L 184.43,288.195 L 183.492,288.86 L 182.684,289.561 L 181.983,290.238 L 181.378,290.938 L 180.879,291.687 L 180.487,292.423 L 180.214,293.148 L 180.059,293.872 L 180,294.632 L 180,294.632 L 180.059,295.357 L 180.214,296.105 L 180.487,296.841 L 180.879,297.566 L 181.378,298.29 L 181.983,299.003 L 182.684,299.692 L 183.492,300.392 L 184.43,301.057 L 185.44,301.723 L 186.532,302.364 L 187.744,302.97 L 189.05,303.563 L 190.416,304.157 L 191.889,304.704 L 193.433,305.214 L 195.072,305.701 L 196.782,306.176 L 198.528,306.604 L 200.357,307.02 L 202.257,307.411 L 204.193,307.72 L 206.176,308.053 L 208.207,308.314 L 210.286,308.563 L 212.4,308.777 L 214.537,308.944 L 216.675,309.074 L 218.861,309.157 L 221.046,309.205 L 223.231,309.24 L 223.231,309.24 L 225.417,309.205 L 227.626,309.157 L 229.787,309.074 L 231.949,308.944 L 234.075,308.777 L 236.201,308.563 L 238.267,308.314 L 240.286,308.053 L 242.281,307.72 L 244.217,307.411 L 246.118,307.02 L 247.947,306.604 L 249.704,306.176 L 251.391,305.701 L 253.018,305.214 L 254.574,304.704 L 256.07,304.157 L 257.436,303.563 L 258.731,302.97 L 259.93,302.364 L 261.047,301.723 L 262.056,301.057 L 262.971,300.392 L 263.802,299.692 L 264.479,299.003 L 265.097,298.29 L 265.607,297.566 L 265.987,296.841 L 266.261,296.105 L 266.415,295.357 L 266.474,294.632"/>
    <path style="fill: none; fill-opacity:0; stroke-width: 0.02; stroke: #000000" d="M 180 294.632 L 180,325.927"/>
    <path style="fill: none; fill-opacity:0; stroke-width: 0.02; stroke: #000000" d="M 266.474 294.632 L 266.474,325.927"/>
  </g>
  <g>
    <path style="fill: #b7b796" d="M 580 467.974 L 636.464,467.974 L 636.464,378.035 L 580,378.035 L 580,467.974z"/>
    <path style="fill: none; fill-opacity:0; stroke-width: 0.02; stroke: #494936" d="M 580 467.974 L 636.464,467.974 L 636.464,378.035 L 580,378.035 L 580,467.974"/>
    <path style="fill: #7a7a5a" d="M 636.464 378.031 L 636.464,467.974 L 654.495,449.943 L 654.495,360 L 636.464,378.031z"/>
    <path style="fill: none; fill-opacity:0; stroke-width: 0.02; stroke: #494936" d="M 636.464 378.031 L 636.464,467.974 L 654.495,449.943 L 654.495,360 L 636.464,378.031"/>
    <path style="fill: #c9c9b6" d="M 654.498 360 L 598.035,360 L 580.004,378.031 L 636.467,378.031 L 654.498,360z"/>
    <path style="fill: none; fill-opacity:0; stroke-width: 0.02; stroke: #494936" d="M 654.498 360 L 598.035,360 L 580.004,378.031 L 636.467,378.031 L 654.498,360"/>
    <path style="fill: #ffffff" d="M 606.786 446.24 C 606.786,448.464 601.994,450.273 596.086,450.273 C 590.175,450.273 585.379,448.468 585.379,446.24 C 585.379,444.009 590.175,442.2 596.086,442.2 C 601.994,442.2 606.786,444.006 606.786,446.24z"/>
    <path style="fill: none; fill-opacity:0; stroke-width: 0.02; stroke: #ffffff" d="M 606.786 446.24 C 606.786,448.464 601.994,450.273 596.086,450.273 C 590.175,450.273 585.379,448.468 585.379,446.24 C 585.379,444.009 590.175,442.2 596.086,442.2 C 601.994,442.2 606.786,444.006 606.786,446.24"/>
    <path style="fill: none; fill-opacity:0; stroke-width: 0.6; stroke-linecap: round; stroke-linejoin: round; stroke: #000000" d="M 606.786 446.24 C 606.786,448.464 601.994,450.273 596.086,450.273 C 590.175,450.273 585.379,448.468 585.379,446.24 C 585.379,444.009 590.175,442.2 596.086,442.2 C 601.994,442.2 606.786,444.006 606.786,446.24"/>
    <path style="fill: #000000" d="M 599.249 446.02 C 599.249,446.688 597.807,447.227 596.039,447.227 C 594.263,447.227 592.828,446.684 592.828,446.02 C 592.828,445.345 594.263,444.806 596.039,444.806 C 597.807,444.806 599.249,445.349 599.249,446.02z"/>
    <path style="fill: none; fill-opacity:0; stroke-width: 0.02; stroke: #000000" d="M 599.249 446.02 C 599.249,446.688 597.807,447.227 596.039,447.227 C 594.263,447.227 592.828,446.684 592.828,446.02 C 592.828,445.345 594.263,444.806 596.039,444.806 C 597.807,444.806 599.249,445.349 599.249,446.02"/>
    <path style="fill: #000000" d="M 599.249 443.819 C 599.249,444.486 597.807,445.026 596.039,445.026 C 594.263,445.026 592.828,444.483 592.828,443.819 C 592.828,443.147 594.263,442.608 596.039,442.608 C 597.807,442.608 599.249,443.151 599.249,443.819z"/>
    <path style="fill: none; fill-opacity:0; stroke-width: 0.02; stroke: #000000" d="M 599.249 443.819 C 599.249,444.486 597.807,445.026 596.039,445.026 C 594.263,445.026 592.828,444.483 592.828,443.819 C 592.828,443.147 594.263,442.608 596.039,442.608 C 597.807,442.608 599.249,443.151 599.249,443.819"/>
    <path style="fill: #ffffff" d="M 606.786 441.837 C 606.786,444.064 601.994,445.873 596.086,445.873 C 590.175,445.873 585.379,444.068 585.379,441.837 C 585.379,439.606 590.175,437.797 596.086,437.797 C 601.994,437.797 606.786,439.602 606.786,441.837z"/>
    <path style="fill: none; fill-opacity:0; stroke-width: 0.02; stroke: #ffffff" d="M 606.786 441.837 C 606.786,444.064 601.994,445.873 596.086,445.873 C 590.175,445.873 585.379,444.068 585.379,441.837 C 585.379,439.606 590.175,437.797 596.086,437.797 C 601.994,437.797 606.786,439.602 606.786,441.837"/>
    <path style="fill: none; fill-opacity:0; stroke-width: 0.6; stroke-linecap: round; stroke-linejoin: round; stroke: #000000" d="M 606.786 441.837 C 606.786,444.064 601.994,445.873 596.086,445.873 C 590.175,445.873 585.379,444.068 585.379,441.837 C 585.379,439.606 590.175,437.797 596.086,437.797 C 601.994,437.797 606.786,439.602 606.786,441.837"/>
    <path style="fill: #000000" d="M 599.249 441.617 C 599.249,442.285 597.807,442.824 596.039,442.824 C 594.263,442.824 592.828,442.281 592.828,441.617 C 592.828,440.945 594.263,440.402 596.039,440.402 C 597.807,440.402 599.249,440.945 599.249,441.617z"/>
    <path style="fill: none; fill-opacity:0; stroke-width: 0.02; stroke: #000000" d="M 599.249 441.617 C 599.249,442.285 597.807,442.824 596.039,442.824 C 594.263,442.824 592.828,442.281 592.828,441.617 C 592.828,440.945 594.263,440.402 596.039,440.402 C 597.807,440.402 599.249,440.945 599.249,441.617"/>
    <path style="fill: #000000" d="M 599.249 439.412 C 599.249,440.079 597.807,440.623 596.039,440.623 C 594.263,440.623 592.828,440.079 592.828,439.412 C 592.828,438.74 594.263,438.201 596.039,438.201 C 597.807,438.201 599.249,438.744 599.249,439.412z"/>
    <path style="fill: none; fill-opacity:0; stroke-width: 0.02; stroke: #000000" d="M 599.249 439.412 C 599.249,440.079 597.807,440.623 596.039,440.623 C 594.263,440.623 592.828,440.079 592.828,439.412 C 592.828,438.74 594.263,438.201 596.039,438.201 C 597.807,438.201 599.249,438.744 599.249,439.412"/>
    <path style="fill: #ffffff" d="M 606.786 437.43 C 606.786,439.657 601.994,441.466 596.086,441.466 C 590.175,441.466 585.379,439.661 585.379,437.43 C 585.379,435.199 590.175,433.39 596.086,433.39 C 601.994,433.39 606.786,435.196 606.786,437.43z"/>
    <path style="fill: none; fill-opacity:0; stroke-width: 0.02; stroke: #ffffff" d="M 606.786 437.43 C 606.786,439.657 601.994,441.466 596.086,441.466 C 590.175,441.466 585.379,439.661 585.379,437.43 C 585.379,435.199 590.175,433.39 596.086,433.39 C 601.994,433.39 606.786,435.196 606.786,437.43"/>
    <path style="fill: none; fill-opacity:0; stroke-width: 0.6; stroke-linecap: round; stroke-linejoin: round; stroke: #000000" d="M 606.786 437.43 C 606.786,439.657 601.994,441.466 596.086,441.466 C 590.175,441.466 585.379,439.661 585.379,437.43 C 585.379,435.199 590.175,433.39 596.086,433.39 C 601.994,433.39 606.786,435.196 606.786,437.43"/>
    <path style="fill: #000000" d="M 599.249 437.214 C 599.249,437.882 597.807,438.421 596.039,438.421 C 594.263,438.421 592.828,437.878 592.828,437.214 C 592.828,436.542 594.263,436.003 596.039,436.003 C 597.807,436.003 599.249,436.542 599.249,437.214z"/>
    <path style="fill: none; fill-opacity:0; stroke-width: 0.02; stroke: #000000" d="M 599.249 437.214 C 599.249,437.882 597.807,438.421 596.039,438.421 C 594.263,438.421 592.828,437.878 592.828,437.214 C 592.828,436.542 594.263,436.003 596.039,436.003 C 597.807,436.003 599.249,436.542 599.249,437.214"/>
    <path style="fill: #ffffff" d="M 606.786 428.627 C 606.786,430.851 601.994,432.66 596.086,432.66 C 590.175,432.66 585.379,430.855 585.379,428.627 C 585.379,426.397 590.175,424.588 596.086,424.588 C 601.994,424.588 606.786,426.393 606.786,428.627z"/>
    <path style="fill: none; fill-opacity:0; stroke-width: 0.02; stroke: #ffffff" d="M 606.786 428.627 C 606.786,430.851 601.994,432.66 596.086,432.66 C 590.175,432.66 585.379,430.855 585.379,428.627 C 585.379,426.397 590.175,424.588 596.086,424.588 C 601.994,424.588 606.786,426.393 606.786,428.627"/>
    <path style="fill: none; fill-opacity:0; stroke-width: 0.6; stroke-linecap: round; stroke-linejoin: round; stroke: #000000" d="M 606.786 428.627 C 606.786,430.851 601.994,432.66 596.086,432.66 C 590.175,432.66 585.379,430.855 585.379,428.627 C 585.379,426.397 590.175,424.588 596.086,424.588 C 601.994,424.588 606.786,426.393 606.786,428.627"/>
    <path style="fill: #000000" d="M 599.249 428.404 C 599.249,429.071 597.807,429.615 596.039,429.615 C 594.263,429.615 592.828,429.071 592.828,428.404 C 592.828,427.732 594.263,427.193 596.039,427.193 C 597.807,427.193 599.249,427.736 599.249,428.404z"/>
    <path style="fill: none; fill-opacity:0; stroke-width: 0.02; stroke: #000000" d="M 599.249 428.404 C 599.249,429.071 597.807,429.615 596.039,429.615 C 594.263,429.615 592.828,429.071 592.828,428.404 C 592.828,427.732 594.263,427.193 596.039,427.193 C 597.807,427.193 599.249,427.736 599.249,428.404"/>
    <path style="fill: #000000" d="M 599.249 426.206 C 599.249,426.874 597.807,427.413 596.039,427.413 C 594.263,427.413 592.828,426.87 592.828,426.206 C 592.828,425.534 594.263,424.995 596.039,424.995 C 597.807,424.995 599.249,425.534 599.249,426.206z"/>
    <path style="fill: none; fill-opacity:0; stroke-width: 0.02; stroke: #000000" d="M 599.249 426.206 C 599.249,426.874 597.807,427.413 596.039,427.413 C 594.263,427.413 592.828,426.87 592.828,426.206 C 592.828,425.534 594.263,424.995 596.039,424.995 C 597.807,424.995 599.249,425.534 599.249,426.206"/>
    <path style="fill: #ffffff" d="M 606.786 424.224 C 606.786,426.448 601.994,428.257 596.086,428.257 C 590.175,428.257 585.379,426.452 585.379,424.224 C 585.379,421.993 590.175,420.184 596.086,420.184 C 601.994,420.184 606.786,421.99 606.786,424.224z"/>
    <path style="fill: none; fill-opacity:0; stroke-width: 0.02; stroke: #ffffff" d="M 606.786 424.224 C 606.786,426.448 601.994,428.257 596.086,428.257 C 590.175,428.257 585.379,426.452 585.379,424.224 C 585.379,421.993 590.175,420.184 596.086,420.184 C 601.994,420.184 606.786,421.99 606.786,424.224"/>
    <path style="fill: none; fill-opacity:0; stroke-width: 0.6; stroke-linecap: round; stroke-linejoin: round; stroke: #000000" d="M 606.786 424.224 C 606.786,426.448 601.994,428.257 596.086,428.257 C 590.175,428.257 585.379,426.452 585.379,424.224 C 585.379,421.993 590.175,420.184 596.086,420.184 C 601.994,420.184 606.786,421.99 606.786,424.224"/>
    <path style="fill: #000000" d="M 599.249 424.004 C 599.249,424.672 597.807,425.211 596.039,425.211 C 594.263,425.211 592.828,424.668 592.828,424.004 C 592.828,423.329 594.263,422.79 596.039,422.79 C 597.807,422.79 599.249,423.333 599.249,424.004z"/>
    <path style="fill: none; fill-opacity:0; stroke-width: 0.02; stroke: #000000" d="M 599.249 424.004 C 599.249,424.672 597.807,425.211 596.039,425.211 C 594.263,425.211 592.828,424.668 592.828,424.004 C 592.828,423.329 594.263,422.79 596.039,422.79 C 597.807,422.79 599.249,423.333 599.249,424.004"/>
    <path style="fill: #000000" d="M 599.249 421.803 C 599.249,422.47 597.807,423.01 596.039,423.01 C 594.263,423.01 592.828,422.467 592.828,421.803 C 592.828,421.131 594.263,420.592 596.039,420.592 C 597.807,420.592 599.249,421.135 599.249,421.803z"/>
    <path style="fill: none; fill-opacity:0; stroke-width: 0.02; stroke: #000000" d="M 599.249 421.803 C 599.249,422.47 597.807,423.01 596.039,423.01 C 594.263,423.01 592.828,422.467 592.828,421.803 C 592.828,421.131 594.263,420.592 596.039,420.592 C 597.807,420.592 599.249,421.135 599.249,421.803"/>
    <path style="fill: #ffffff" d="M 606.786 419.821 C 606.786,422.048 601.994,423.857 596.086,423.857 C 590.175,423.857 585.379,422.052 585.379,419.821 C 585.379,417.59 590.175,415.781 596.086,415.781 C 601.994,415.781 606.786,417.586 606.786,419.821z"/>
    <path style="fill: none; fill-opacity:0; stroke-width: 0.02; stroke: #ffffff" d="M 606.786 419.821 C 606.786,422.048 601.994,423.857 596.086,423.857 C 590.175,423.857 585.379,422.052 585.379,419.821 C 585.379,417.59 590.175,415.781 596.086,415.781 C 601.994,415.781 606.786,417.586 606.786,419.821"/>
    <path style="fill: none; fill-opacity:0; stroke-width: 0.6; stroke-linecap: round; stroke-linejoin: round; stroke: #000000" d="M 606.786 419.821 C 606.786,422.048 601.994,423.857 596.086,423.857 C 590.175,423.857 585.379,422.052 585.379,419.821 C 585.379,417.59 590.175,415.781 596.086,415.781 C 601.994,415.781 606.786,417.586 606.786,419.821"/>
    <path style="fill: #000000" d="M 599.249 419.601 C 599.249,420.269 597.807,420.808 596.039,420.808 C 594.263,420.808 592.828,420.265 592.828,419.601 C 592.828,418.929 594.263,418.386 596.039,418.386 C 597.807,418.386 599.249,418.929 599.249,419.601z"/>
    <path style="fill: none; fill-opacity:0; stroke-width: 0.02; stroke: #000000" d="M 599.249 419.601 C 599.249,420.269 597.807,420.808 596.039,420.808 C 594.263,420.808 592.828,420.265 592.828,419.601 C 592.828,418.929 594.263,418.386 596.039,418.386 C 597.807,418.386 599.249,418.929 599.249,419.601"/>
    <path style="fill: #ffffff" d="M 606.786 411.011 C 606.786,413.238 601.994,415.047 596.086,415.047 C 590.175,415.047 585.379,413.242 585.379,411.011 C 585.379,408.784 590.175,406.975 596.086,406.975 C 601.994,406.975 606.786,408.78 606.786,411.011z"/>
    <path style="fill: none; fill-opacity:0; stroke-width: 0.02; stroke: #ffffff" d="M 606.786 411.011 C 606.786,413.238 601.994,415.047 596.086,415.047 C 590.175,415.047 585.379,413.242 585.379,411.011 C 585.379,408.784 590.175,406.975 596.086,406.975 C 601.994,406.975 606.786,408.78 606.786,411.011"/>
    <path style="fill: none; fill-opacity:0; stroke-width: 0.6; stroke-linecap: round; stroke-linejoin: round; stroke: #000000" d="M 606.786 411.011 C 606.786,413.238 601.994,415.047 596.086,415.047 C 590.175,415.047 585.379,413.242 585.379,411.011 C 585.379,408.784 590.175,406.975 596.086,406.975 C 601.994,406.975 606.786,408.78 606.786,411.011"/>
    <path style="fill: #000000" d="M 599.249 410.795 C 599.249,411.462 597.807,412.002 596.039,412.002 C 594.263,412.002 592.828,411.459 592.828,410.795 C 592.828,410.123 594.263,409.584 596.039,409.584 C 597.807,409.584 599.249,410.127 599.249,410.795z"/>
    <path style="fill: none; fill-opacity:0; stroke-width: 0.02; stroke: #000000" d="M 599.249 410.795 C 599.249,411.462 597.807,412.002 596.039,412.002 C 594.263,412.002 592.828,411.459 592.828,410.795 C 592.828,410.123 594.263,409.584 596.039,409.584 C 597.807,409.584 599.249,410.127 599.249,410.795"/>
    <path style="fill: #000000" d="M 599.249 408.593 C 599.249,409.261 597.807,409.8 596.039,409.8 C 594.263,409.8 592.828,409.257 592.828,408.593 C 592.828,407.921 594.263,407.378 596.039,407.378 C 597.807,407.378 599.249,407.921 599.249,408.593z"/>
    <path style="fill: none; fill-opacity:0; stroke-width: 0.02; stroke: #000000" d="M 599.249 408.593 C 599.249,409.261 597.807,409.8 596.039,409.8 C 594.263,409.8 592.828,409.257 592.828,408.593 C 592.828,407.921 594.263,407.378 596.039,407.378 C 597.807,407.378 599.249,407.921 599.249,408.593"/>
    <path style="fill: #ffffff" d="M 606.786 406.611 C 606.786,408.835 601.994,410.644 596.086,410.644 C 590.175,410.644 585.379,408.839 585.379,406.611 C 585.379,404.381 590.175,402.572 596.086,402.572 C 601.994,402.572 606.786,404.377 606.786,406.611z"/>
    <path style="fill: none; fill-opacity:0; stroke-width: 0.02; stroke: #ffffff" d="M 606.786 406.611 C 606.786,408.835 601.994,410.644 596.086,410.644 C 590.175,410.644 585.379,408.839 585.379,406.611 C 585.379,404.381 590.175,402.572 596.086,402.572 C 601.994,402.572 606.786,404.377 606.786,406.611"/>
    <path style="fill: none; fill-opacity:0; stroke-width: 0.6; stroke-linecap: round; stroke-linejoin: round; stroke: #000000" d="M 606.786 406.611 C 606.786,408.835 601.994,410.644 596.086,410.644 C 590.175,410.644 585.379,408.839 585.379,406.611 C 585.379,404.381 590.175,402.572 596.086,402.572 C 601.994,402.572 606.786,404.377 606.786,406.611"/>
    <path style="fill: #000000" d="M 599.249 406.388 C 599.249,407.055 597.807,407.599 596.039,407.599 C 594.263,407.599 592.828,407.055 592.828,406.388 C 592.828,405.716 594.263,405.177 596.039,405.177 C 597.807,405.177 599.249,405.72 599.249,406.388z"/>
    <path style="fill: none; fill-opacity:0; stroke-width: 0.02; stroke: #000000" d="M 599.249 406.388 C 599.249,407.055 597.807,407.599 596.039,407.599 C 594.263,407.599 592.828,407.055 592.828,406.388 C 592.828,405.716 594.263,405.177 596.039,405.177 C 597.807,405.177 599.249,405.72 599.249,406.388"/>
    <path style="fill: #000000" d="M 599.249 404.19 C 599.249,404.858 597.807,405.397 596.039,405.397 C 594.263,405.397 592.828,404.854 592.828,404.19 C 592.828,403.518 594.263,402.979 596.039,402.979 C 597.807,402.979 599.249,403.518 599.249,404.19z"/>
    <path style="fill: none; fill-opacity:0; stroke-width: 0.02; stroke: #000000" d="M 599.249 404.19 C 599.249,404.858 597.807,405.397 596.039,405.397 C 594.263,405.397 592.828,404.854 592.828,404.19 C 592.828,403.518 594.263,402.979 596.039,402.979 C 597.807,402.979 599.249,403.518 599.249,404.19"/>
    <path style="fill: #ffffff" d="M 606.786 402.208 C 606.786,404.432 601.994,406.241 596.086,406.241 C 590.175,406.241 585.379,404.436 585.379,402.208 C 585.379,399.977 590.175,398.168 596.086,398.168 C 601.994,398.168 606.786,399.974 606.786,402.208z"/>
    <path style="fill: none; fill-opacity:0; stroke-width: 0.02; stroke: #ffffff" d="M 606.786 402.208 C 606.786,404.432 601.994,406.241 596.086,406.241 C 590.175,406.241 585.379,404.436 585.379,402.208 C 585.379,399.977 590.175,398.168 596.086,398.168 C 601.994,398.168 606.786,399.974 606.786,402.208"/>
    <path style="fill: none; fill-opacity:0; stroke-width: 0.6; stroke-linecap: round; stroke-linejoin: round; stroke: #000000" d="M 606.786 402.208 C 606.786,404.432 601.994,406.241 596.086,406.241 C 590.175,406.241 585.379,404.436 585.379,402.208 C 585.379,399.977 590.175,398.168 596.086,398.168 C 601.994,398.168 606.786,399.974 606.786,402.208"/>
    <path style="fill: #000000" d="M 599.249 401.988 C 599.249,402.656 597.807,403.195 596.039,403.195 C 594.263,403.195 592.828,402.652 592.828,401.988 C 592.828,401.313 594.263,400.774 596.039,400.774 C 597.807,400.774 599.249,401.317 599.249,401.988z"/>
    <path style="fill: none; fill-opacity:0; stroke-width: 0.02; stroke: #000000" d="M 599.249 401.988 C 599.249,402.656 597.807,403.195 596.039,403.195 C 594.263,403.195 592.828,402.652 592.828,401.988 C 592.828,401.313 594.263,400.774 596.039,400.774 C 597.807,400.774 599.249,401.317 599.249,401.988"/>
    <path style="fill: #ffffff" d="M 630.64 446.24 C 630.64,448.464 625.845,450.273 619.941,450.273 C 614.029,450.273 609.234,448.468 609.234,446.24 C 609.234,444.009 614.029,442.2 619.941,442.2 C 625.848,442.2 630.64,444.006 630.64,446.24z"/>
    <path style="fill: none; fill-opacity:0; stroke-width: 0.02; stroke: #ffffff" d="M 630.64 446.24 C 630.64,448.464 625.845,450.273 619.941,450.273 C 614.029,450.273 609.234,448.468 609.234,446.24 C 609.234,444.009 614.029,442.2 619.941,442.2 C 625.848,442.2 630.64,444.006 630.64,446.24"/>
    <path style="fill: none; fill-opacity:0; stroke-width: 0.6; stroke-linecap: round; stroke-linejoin: round; stroke: #000000" d="M 630.64 446.24 C 630.64,448.464 625.845,450.273 619.941,450.273 C 614.029,450.273 609.234,448.468 609.234,446.24 C 609.234,444.009 614.029,442.2 619.941,442.2 C 625.848,442.2 630.64,444.006 630.64,446.24"/>
    <path style="fill: #000000" d="M 623.1 446.02 C 623.1,446.688 621.658,447.227 619.889,447.227 C 618.113,447.227 616.679,446.684 616.679,446.02 C 616.679,445.345 618.113,444.806 619.889,444.806 C 621.662,444.806 623.1,445.349 623.1,446.02z"/>
    <path style="fill: none; fill-opacity:0; stroke-width: 0.02; stroke: #000000" d="M 623.1 446.02 C 623.1,446.688 621.658,447.227 619.889,447.227 C 618.113,447.227 616.679,446.684 616.679,446.02 C 616.679,445.345 618.113,444.806 619.889,444.806 C 621.662,444.806 623.1,445.349 623.1,446.02"/>
    <path style="fill: #000000" d="M 623.1 443.819 C 623.1,444.486 621.658,445.026 619.889,445.026 C 618.113,445.026 616.679,444.483 616.679,443.819 C 616.679,443.147 618.113,442.608 619.889,442.608 C 621.662,442.608 623.1,443.151 623.1,443.819z"/>
    <path style="fill: none; fill-opacity:0; stroke-width: 0.02; stroke: #000000" d="M 623.1 443.819 C 623.1,444.486 621.658,445.026 619.889,445.026 C 618.113,445.026 616.679,444.483 616.679,443.819 C 616.679,443.147 618.113,442.608 619.889,442.608 C 621.662,442.608 623.1,443.151 623.1,443.819"/>
    <path style="fill: #ffffff" d="M 630.64 441.837 C 630.64,444.064 625.845,445.873 619.941,445.873 C 614.029,445.873 609.234,444.068 609.234,441.837 C 609.234,439.606 614.029,437.797 619.941,437.797 C 625.848,437.797 630.64,439.602 630.64,441.837z"/>
    <path style="fill: none; fill-opacity:0; stroke-width: 0.02; stroke: #ffffff" d="M 630.64 441.837 C 630.64,444.064 625.845,445.873 619.941,445.873 C 614.029,445.873 609.234,444.068 609.234,441.837 C 609.234,439.606 614.029,437.797 619.941,437.797 C 625.848,437.797 630.64,439.602 630.64,441.837"/>
    <path style="fill: none; fill-opacity:0; stroke-width: 0.6; stroke-linecap: round; stroke-linejoin: round; stroke: #000000" d="M 630.64 441.837 C 630.64,444.064 625.845,445.873 619.941,445.873 C 614.029,445.873 609.234,444.068 609.234,441.837 C 609.234,439.606 614.029,437.797 619.941,437.797 C 625.848,437.797 630.64,439.602 630.64,441.837"/>
    <path style="fill: #000000" d="M 623.1 441.617 C 623.1,442.285 621.658,442.824 619.889,442.824 C 618.113,442.824 616.679,442.281 616.679,441.617 C 616.679,440.945 618.113,440.402 619.889,440.402 C 621.662,440.402 623.1,440.945 623.1,441.617z"/>
    <path style="fill: none; fill-opacity:0; stroke-width: 0.02; stroke: #000000" d="M 623.1 441.617 C 623.1,442.285 621.658,442.824 619.889,442.824 C 618.113,442.824 616.679,442.281 616.679,441.617 C 616.679,440.945 618.113,440.402 619.889,440.402 C 621.662,440.402 623.1,440.945 623.1,441.617"/>
    <path style="fill: #000000" d="M 623.1 439.412 C 623.1,440.079 621.658,440.623 619.889,440.623 C 618.113,440.623 616.679,440.079 616.679,439.412 C 616.679,438.74 618.113,438.201 619.889,438.201 C 621.662,438.201 623.1,438.744 623.1,439.412z"/>
    <path style="fill: none; fill-opacity:0; stroke-width: 0.02; stroke: #000000" d="M 623.1 439.412 C 623.1,440.079 621.658,440.623 619.889,440.623 C 618.113,440.623 616.679,440.079 616.679,439.412 C 616.679,438.74 618.113,438.201 619.889,438.201 C 621.662,438.201 623.1,438.744 623.1,439.412"/>
    <path style="fill: #ffffff" d="M 630.64 437.43 C 630.64,439.657 625.845,441.466 619.941,441.466 C 614.029,441.466 609.234,439.661 609.234,437.43 C 609.234,435.199 614.029,433.39 619.941,433.39 C 625.848,433.39 630.64,435.196 630.64,437.43z"/>
    <path style="fill: none; fill-opacity:0; stroke-width: 0.02; stroke: #ffffff" d="M 630.64 437.43 C 630.64,439.657 625.845,441.466 619.941,441.466 C 614.029,441.466 609.234,439.661 609.234,437.43 C 609.234,435.199 614.029,433.39 619.941,433.39 C 625.848,433.39 630.64,435.196 630.64,437.43"/>
    <path style="fill: none; fill-opacity:0; stroke-width: 0.6; stroke-linecap: round; stroke-linejoin: round; stroke: #000000" d="M 630.64 437.43 C 630.64,439.657 625.845,441.466 619.941,441.466 C 614.029,441.466 609.234,439.661 609.234,437.43 C 609.234,435.199 614.029,433.39 619.941,433.39 C 625.848,433.39 630.64,435.196 630.64,437.43"/>
    <path style="fill: #000000" d="M 623.1 437.214 C 623.1,437.882 621.658,438.421 619.889,438.421 C 618.113,438.421 616.679,437.878 616.679,437.214 C 616.679,436.542 618.113,436.003 619.889,436.003 C 621.662,436.003 623.1,436.542 623.1,437.214z"/>
    <path style="fill: none; fill-opacity:0; stroke-width: 0.02; stroke: #000000" d="M 623.1 437.214 C 623.1,437.882 621.658,438.421 619.889,438.421 C 618.113,438.421 616.679,437.878 616.679,437.214 C 616.679,436.542 618.113,436.003 619.889,436.003 C 621.662,436.003 623.1,436.542 623.1,437.214"/>
    <path style="fill: #ffffff" d="M 630.64 428.627 C 630.64,430.851 625.845,432.66 619.941,432.66 C 614.029,432.66 609.234,430.855 609.234,428.627 C 609.234,426.397 614.029,424.588 619.941,424.588 C 625.848,424.588 630.64,426.393 630.64,428.627z"/>
    <path style="fill: none; fill-opacity:0; stroke-width: 0.02; stroke: #ffffff" d="M 630.64 428.627 C 630.64,430.851 625.845,432.66 619.941,432.66 C 614.029,432.66 609.234,430.855 609.234,428.627 C 609.234,426.397 614.029,424.588 619.941,424.588 C 625.848,424.588 630.64,426.393 630.64,428.627"/>
    <path style="fill: none; fill-opacity:0; stroke-width: 0.6; stroke-linecap: round; stroke-linejoin: round; stroke: #000000" d="M 630.64 428.627 C 630.64,430.851 625.845,432.66 619.941,432.66 C 614.029,432.66 609.234,430.855 609.234,428.627 C 609.234,426.397 614.029,424.588 619.941,424.588 C 625.848,424.588 630.64,426.393 630.64,428.627"/>
    <path style="fill: #000000" d="M 623.1 428.404 C 623.1,429.071 621.658,429.615 619.889,429.615 C 618.113,429.615 616.679,429.071 616.679,428.404 C 616.679,427.732 618.113,427.193 619.889,427.193 C 621.662,427.193 623.1,427.736 623.1,428.404z"/>
    <path style="fill: none; fill-opacity:0; stroke-width: 0.02; stroke: #000000" d="M 623.1 428.404 C 623.1,429.071 621.658,429.615 619.889,429.615 C 618.113,429.615 616.679,429.071 616.679,428.404 C 616.679,427.732 618.113,427.193 619.889,427.193 C 621.662,427.193 623.1,427.736 623.1,428.404"/>
    <path style="fill: #000000" d="M 623.1 426.206 C 623.1,426.874 621.658,427.413 619.889,427.413 C 618.113,427.413 616.679,426.87 616.679,426.206 C 616.679,425.534 618.113,424.995 619.889,424.995 C 621.662,424.995 623.1,425.534 623.1,426.206z"/>
    <path style="fill: none; fill-opacity:0; stroke-width: 0.02; stroke: #000000" d="M 623.1 426.206 C 623.1,426.874 621.658,427.413 619.889,427.413 C 618.113,427.413 616.679,426.87 616.679,426.206 C 616.679,425.534 618.113,424.995 619.889,424.995 C 621.662,424.995 623.1,425.534 623.1,426.206"/>
    <path style="fill: #ffffff" d="M 630.64 424.224 C 630.64,426.448 625.845,428.257 619.941,428.257 C 614.029,428.257 609.234,426.452 609.234,424.224 C 609.234,421.993 614.029,420.184 619.941,420.184 C 625.848,420.184 630.64,421.99 630.64,424.224z"/>
    <path style="fill: none; fill-opacity:0; stroke-width: 0.02; stroke: #ffffff" d="M 630.64 424.224 C 630.64,426.448 625.845,428.257 619.941,428.257 C 614.029,428.257 609.234,426.452 609.234,424.224 C 609.234,421.993 614.029,420.184 619.941,420.184 C 625.848,420.184 630.64,421.99 630.64,424.224"/>
    <path style="fill: none; fill-opacity:0; stroke-width: 0.6; stroke-linecap: round; stroke-linejoin: round; stroke: #000000" d="M 630.64 424.224 C 630.64,426.448 625.845,428.257 619.941,428.257 C 614.029,428.257 609.234,426.452 609.234,424.224 C 609.234,421.993 614.029,420.184 619.941,420.184 C 625.848,420.184 630.64,421.99 630.64,424.224"/>
    <path style="fill: #000000" d="M 623.1 424.004 C 623.1,424.672 621.658,425.211 619.889,425.211 C 618.113,425.211 616.679,424.668 616.679,424.004 C 616.679,423.329 618.113,422.79 619.889,422.79 C 621.662,422.79 623.1,423.333 623.1,424.004z"/>
    <path style="fill: none; fill-opacity:0; stroke-width: 0.02; stroke: #000000" d="M 623.1 424.004 C 623.1,424.672 621.658,425.211 619.889,425.211 C 618.113,425.211 616.679,424.668 616.679,424.004 C 616.679,423.329 618.113,422.79 619.889,422.79 C 621.662,422.79 623.1,423.333 623.1,424.004"/>
    <path style="fill: #000000" d="M 623.1 421.803 C 623.1,422.47 621.658,423.01 619.889,423.01 C 618.113,423.01 616.679,422.467 616.679,421.803 C 616.679,421.131 618.113,420.592 619.889,420.592 C 621.662,420.592 623.1,421.135 623.1,421.803z"/>
    <path style="fill: none; fill-opacity:0; stroke-width: 0.02; stroke: #000000" d="M 623.1 421.803 C 623.1,422.47 621.658,423.01 619.889,423.01 C 618.113,423.01 616.679,422.467 616.679,421.803 C 616.679,421.131 618.113,420.592 619.889,420.592 C 621.662,420.592 623.1,421.135 623.1,421.803"/>
    <path style="fill: #ffffff" d="M 630.64 419.821 C 630.64,422.048 625.845,423.857 619.941,423.857 C 614.029,423.857 609.234,422.052 609.234,419.821 C 609.234,417.59 614.029,415.781 619.941,415.781 C 625.848,415.781 630.64,417.586 630.64,419.821z"/>
    <path style="fill: none; fill-opacity:0; stroke-width: 0.02; stroke: #ffffff" d="M 630.64 419.821 C 630.64,422.048 625.845,423.857 619.941,423.857 C 614.029,423.857 609.234,422.052 609.234,419.821 C 609.234,417.59 614.029,415.781 619.941,415.781 C 625.848,415.781 630.64,417.586 630.64,419.821"/>
    <path style="fill: none; fill-opacity:0; stroke-width: 0.6; stroke-linecap: round; stroke-linejoin: round; stroke: #000000" d="M 630.64 419.821 C 630.64,422.048 625.845,423.857 619.941,423.857 C 614.029,423.857 609.234,422.052 609.234,419.821 C 609.234,417.59 614.029,415.781 619.941,415.781 C 625.848,415.781 630.64,417.586 630.64,419.821"/>
    <path style="fill: #000000" d="M 623.1 419.601 C 623.1,420.269 621.658,420.808 619.889,420.808 C 618.113,420.808 616.679,420.265 616.679,419.601 C 616.679,418.929 618.113,418.386 619.889,418.386 C 621.662,418.386 623.1,418.929 623.1,419.601z"/>
    <path style="fill: none; fill-opacity:0; stroke-width: 0.02; stroke: #000000" d="M 623.1 419.601 C 623.1,420.269 621.658,420.808 619.889,420.808 C 618.113,420.808 616.679,420.265 616.679,419.601 C 616.679,418.929 618.113,418.386 619.889,418.386 C 621.662,418.386 623.1,418.929 623.1,419.601"/>
    <path style="fill: #ffffff" d="M 630.64 411.011 C 630.64,413.238 625.845,415.047 619.941,415.047 C 614.029,415.047 609.234,413.242 609.234,411.011 C 609.234,408.784 614.029,406.975 619.941,406.975 C 625.848,406.975 630.64,408.78 630.64,411.011z"/>
    <path style="fill: none; fill-opacity:0; stroke-width: 0.02; stroke: #ffffff" d="M 630.64 411.011 C 630.64,413.238 625.845,415.047 619.941,415.047 C 614.029,415.047 609.234,413.242 609.234,411.011 C 609.234,408.784 614.029,406.975 619.941,406.975 C 625.848,406.975 630.64,408.78 630.64,411.011"/>
    <path style="fill: none; fill-opacity:0; stroke-width: 0.6; stroke-linecap: round; stroke-linejoin: round; stroke: #000000" d="M 630.64 411.011 C 630.64,413.238 625.845,415.047 619.941,415.047 C 614.029,415.047 609.234,413.242 609.234,411.011 C 609.234,408.784 614.029,406.975 619.941,406.975 C 625.848,406.975 630.64,408.78 630.64,411.011"/>
    <path style="fill: #000000" d="M 623.1 410.795 C 623.1,411.462 621.658,412.002 619.889,412.002 C 618.113,412.002 616.679,411.459 616.679,410.795 C 616.679,410.123 618.113,409.584 619.889,409.584 C 621.662,409.584 623.1,410.127 623.1,410.795z"/>
    <path style="fill: none; fill-opacity:0; stroke-width: 0.02; stroke: #000000" d="M 623.1 410.795 C 623.1,411.462 621.658,412.002 619.889,412.002 C 618.113,412.002 616.679,411.459 616.679,410.795 C 616.679,410.123 618.113,409.584 619.889,409.584 C 621.662,409.584 623.1,410.127 623.1,410.795"/>
    <path style="fill: #000000" d="M 623.1 408.593 C 623.1,409.261 621.658,409.8 619.889,409.8 C 618.113,409.8 616.679,409.257 616.679,408.593 C 616.679,407.921 618.113,407.378 619.889,407.378 C 621.662,407.378 623.1,407.921 623.1,408.593z"/>
    <path style="fill: none; fill-opacity:0; stroke-width: 0.02; stroke: #000000" d="M 623.1 408.593 C 623.1,409.261 621.658,409.8 619.889,409.8 C 618.113,409.8 616.679,409.257 616.679,408.593 C 616.679,407.921 618.113,407.378 619.889,407.378 C 621.662,407.378 623.1,407.921 623.1,408.593"/>
    <path style="fill: #ffffff" d="M 630.64 406.611 C 630.64,408.835 625.845,410.644 619.941,410.644 C 614.029,410.644 609.234,408.839 609.234,406.611 C 609.234,404.381 614.029,402.572 619.941,402.572 C 625.848,402.572 630.64,404.377 630.64,406.611z"/>
    <path style="fill: none; fill-opacity:0; stroke-width: 0.02; stroke: #ffffff" d="M 630.64 406.611 C 630.64,408.835 625.845,410.644 619.941,410.644 C 614.029,410.644 609.234,408.839 609.234,406.611 C 609.234,404.381 614.029,402.572 619.941,402.572 C 625.848,402.572 630.64,404.377 630.64,406.611"/>
    <path style="fill: none; fill-opacity:0; stroke-width: 0.6; stroke-linecap: round; stroke-linejoin: round; stroke: #000000" d="M 630.64 406.611 C 630.64,408.835 625.845,410.644 619.941,410.644 C 614.029,410.644 609.234,408.839 609.234,406.611 C 609.234,404.381 614.029,402.572 619.941,402.572 C 625.848,402.572 630.64,404.377 630.64,406.611"/>
    <path style="fill: #000000" d="M 623.1 406.388 C 623.1,407.055 621.658,407.599 619.889,407.599 C 618.113,407.599 616.679,407.055 616.679,406.388 C 616.679,405.716 618.113,405.177 619.889,405.177 C 621.662,405.177 623.1,405.72 623.1,406.388z"/>
    <path style="fill: none; fill-opacity:0; stroke-width: 0.02; stroke: #000000" d="M 623.1 406.388 C 623.1,407.055 621.658,407.599 619.889,407.599 C 618.113,407.599 616.679,407.055 616.679,406.388 C 616.679,405.716 618.113,405.177 619.889,405.177 C 621.662,405.177 623.1,405.72 623.1,406.388"/>
    <path style="fill: #000000" d="M 623.1 404.19 C 623.1,404.858 621.658,405.397 619.889,405.397 C 618.113,405.397 616.679,404.854 616.679,404.19 C 616.679,403.518 618.113,402.979 619.889,402.979 C 621.662,402.979 623.1,403.518 623.1,404.19z"/>
    <path style="fill: none; fill-opacity:0; stroke-width: 0.02; stroke: #000000" d="M 623.1 404.19 C 623.1,404.858 621.658,405.397 619.889,405.397 C 618.113,405.397 616.679,404.854 616.679,404.19 C 616.679,403.518 618.113,402.979 619.889,402.979 C 621.662,402.979 623.1,403.518 623.1,404.19"/>
    <path style="fill: #ffffff" d="M 630.64 402.208 C 630.64,404.432 625.845,406.241 619.941,406.241 C 614.029,406.241 609.234,404.436 609.234,402.208 C 609.234,399.977 614.029,398.168 619.941,398.168 C 625.848,398.168 630.64,399.974 630.64,402.208z"/>
    <path style="fill: none; fill-opacity:0; stroke-width: 0.02; stroke: #ffffff" d="M 630.64 402.208 C 630.64,404.432 625.845,406.241 619.941,406.241 C 614.029,406.241 609.234,404.436 609.234,402.208 C 609.234,399.977 614.029,398.168 619.941,398.168 C 625.848,398.168 630.64,399.974 630.64,402.208"/>
    <path style="fill: none; fill-opacity:0; stroke-width: 0.6; stroke-linecap: round; stroke-linejoin: round; stroke: #000000" d="M 630.64 402.208 C 630.64,404.432 625.845,406.241 619.941,406.241 C 614.029,406.241 609.234,404.436 609.234,402.208 C 609.234,399.977 614.029,398.168 619.941,398.168 C 625.848,398.168 630.64,399.974 630.64,402.208"/>
    <path style="fill: #000000" d="M 623.1 401.988 C 623.1,402.656 621.658,403.195 619.889,403.195 C 618.113,403.195 616.679,402.652 616.679,401.988 C 616.679,401.313 618.113,400.774 619.889,400.774 C 621.662,400.774 623.1,401.317 623.1,401.988z"/>
    <path style="fill: none; fill-opacity:0; stroke-width: 0.02; stroke: #000000" d="M 623.1 401.988 C 623.1,402.656 621.658,403.195 619.889,403.195 C 618.113,403.195 616.679,402.652 616.679,401.988 C 616.679,401.313 618.113,400.774 619.889,400.774 C 621.662,400.774 623.1,401.317 623.1,401.988"/>
  </g>
  <g>
    <line style="fill: none; fill-opacity:0; stroke-width: 2; stroke-dasharray: 4; stroke: #000000" x1="397.009" y1="374.805" x2="691.946" y2="175.304"/>
    <polygon style="fill: #000000" points="390.797,379.007 396.279,369.262 397.009,374.805 401.881,377.545 "/>
    <polygon style="fill: none; fill-opacity:0; stroke-width: 2; stroke: #000000" points="390.797,379.007 396.279,369.262 397.009,374.805 401.881,377.545 "/>
    <polygon style="fill: #000000" points="698.158,171.102 692.676,180.847 691.946,175.304 687.073,172.564 "/>
    <polygon style="fill: none; fill-opacity:0; stroke-width: 2; stroke: #000000" points="698.158,171.102 692.676,180.847 691.946,175.304 687.073,172.564 "/>
  </g>
  <g>
    <line style="fill: none; fill-opacity:0; stroke-width: 2; stroke: #000000" x1="664.217" y1="402.812" x2="830.282" y2="403.948"/>
    <polygon style="fill: #000000" points="656.717,402.761 666.751,397.829 664.217,402.812 666.683,407.829 "/>
    <polygon style="fill: none; fill-opacity:0; stroke-width: 2; stroke: #000000" points="656.717,402.761 666.751,397.829 664.217,402.812 666.683,407.829 "/>
    <polygon style="fill: #000000" points="837.782,403.999 827.748,408.931 830.282,403.948 827.816,398.931 "/>
    <polygon style="fill: none; fill-opacity:0; stroke-width: 2; stroke: #000000" points="837.782,403.999 827.748,408.931 830.282,403.948 827.816,398.931 "/>
  </g>
  <g>
    <line style="fill: none; fill-opacity:0; stroke-width: 2; stroke-dasharray: 20 8 4 8; stroke: #000000" x1="760.407" y1="204.865" x2="840.081" y2="353.275"/>
    <polygon style="fill: #000000" points="756.86,198.257 765.995,204.703 760.407,204.865 757.184,209.433 "/>
    <polygon style="fill: none; fill-opacity:0; stroke-width: 2; stroke: #000000" points="756.86,198.257 765.995,204.703 760.407,204.865 757.184,209.433 "/>
    <polygon style="fill: #000000" points="843.629,359.883 834.494,353.437 840.081,353.275 843.304,348.707 "/>
    <polygon style="fill: none; fill-opacity:0; stroke-width: 2; stroke: #000000" points="843.629,359.883 834.494,353.437 840.081,353.275 843.304,348.707 "/>
  </g>
  <g>
    <line style="fill: none; fill-opacity:0; stroke-width: 2; stroke: #000000" x1="570.26" y1="402.726" x2="406.21" y2="404.032"/>
    <polygon style="fill: #000000" points="577.76,402.666 567.8,407.746 570.26,402.726 567.721,397.746 "/>
    <polygon style="fill: none; fill-opacity:0; stroke-width: 2; stroke: #000000" points="577.76,402.666 567.8,407.746 570.26,402.726 567.721,397.746 "/>
    <polygon style="fill: #000000" points="398.71,404.091 408.67,399.012 406.21,404.032 408.75,409.012 "/>
    <polygon style="fill: none; fill-opacity:0; stroke-width: 2; stroke: #000000" points="398.71,404.091 408.67,399.012 406.21,404.032 408.75,409.012 "/>
  </g>
  <g>
    <line style="fill: none; fill-opacity:0; stroke-width: 2; stroke-dasharray: 4; stroke: #000000" x1="1009.74" y1="100" x2="1090.26" y2="100"/>
    <polygon style="fill: #000000" points="1002.24,100 1012.24,95 1009.74,100 1012.24,105 "/>
    <polygon style="fill: none; fill-opacity:0; stroke-width: 2; stroke: #000000" points="1002.24,100 1012.24,95 1009.74,100 1012.24,105 "/>
    <polygon style="fill: #000000" points="1097.76,100 1087.76,105 1090.26,100 1087.76,95 "/>
    <polygon style="fill: none; fill-opacity:0; stroke-width: 2; stroke: #000000" points="1097.76,100 1087.76,105 1090.26,100 1087.76,95 "/>
  </g>
  <g>
    <line style="fill: none; fill-opacity:0; stroke-width: 2; stroke: #000000" x1="1090.26" y1="140" x2="1009.74" y2="140"/>
    <polygon style="fill: #000000" points="1097.76,140 1087.76,145 1090.26,140 1087.76,135 "/>
    <polygon style="fill: none; fill-opacity:0; stroke-width: 2; stroke: #000000" points="1097.76,140 1087.76,145 1090.26,140 1087.76,135 "/>
    <polygon style="fill: #000000" points="1002.24,140 1012.24,135 1009.74,140 1012.24,145 "/>
    <polygon style="fill: none; fill-opacity:0; stroke-width: 2; stroke: #000000" points="1002.24,140 1012.24,135 1009.74,140 1012.24,145 "/>
  </g>
  <g>
    <line style="fill: none; fill-opacity:0; stroke-width: 2; stroke-dasharray: 20 8 4 8; stroke: #000000" x1="1009.74" y1="180" x2="1090.26" y2="180"/>
    <polygon style="fill: #000000" points="1002.24,180 1012.24,175 1009.74,180 1012.24,185 "/>
    <polygon style="fill: none; fill-opacity:0; stroke-width: 2; stroke: #000000" points="1002.24,180 1012.24,175 1009.74,180 1012.24,185 "/>
    <polygon style="fill: #000000" points="1097.76,180 1087.76,185 1090.26,180 1087.76,175 "/>
    <polygon style="fill: none; fill-opacity:0; stroke-width: 2; stroke: #000000" points="1097.76,180 1087.76,185 1090.26,180 1087.76,175 "/>
  </g>
  <text font-size="12.8" style="fill: #000000;text-anchor:start;font-family:sans-serif;font-style:normal;font-weight:normal" x="1120" y="100">
    <tspan x="1120" y="100">MySQL queries</tspan>
  </text>
  <text font-size="12.8" style="fill: #000000;text-anchor:start;font-family:sans-serif;font-style:normal;font-weight:normal" x="1120" y="140">
    <tspan x="1120" y="140">NFS mount</tspan>
  </text>
  <text font-size="12.8" style="fill: #000000;text-anchor:start;font-family:sans-serif;font-style:normal;font-weight:normal" x="1120" y="180">
    <tspan x="1120" y="180">SLURM</tspan>
  </text>
  <text font-size="12.8" style="fill: #000000;text-anchor:start;font-family:sans-serif;font-style:normal;font-weight:normal" x="660" y="340">
    <tspan x="660" y="340">NFS share /env</tspan>
    <tspan x="660" y="356">  - web data</tspan>
    <tspan x="660" y="372">  - software</tspan>
    <tspan x="660" y="388">  - computation results</tspan>
  </text>
  <line style="fill: none; fill-opacity:0; stroke-width: 2; stroke-dasharray: 20; stroke: #000000" x1="280" y1="290" x2="920" y2="290"/>
  <text font-size="20.32" style="fill: #000000;text-anchor:start;font-family:sans-serif;font-style:normal;font-weight:700" x="160" y="55.2078">
    <tspan x="160" y="55.2078">ifb-prabi-girofle</tspan>
  </text>
  <rect style="fill: none; fill-opacity:0; stroke-width: 2; stroke: #00ff00" x="1000" y="220" width="100" height="20"/>
  <text font-size="12.8" style="fill: #000000;text-anchor:start;font-family:sans-serif;font-style:normal;font-weight:normal" x="1120" y="220">
    <tspan x="1120" y="220">Temporary VM</tspan>
  </text>
  <text font-size="16.9333" style="fill: #000000;text-anchor:start;font-family:sans-serif;font-style:normal;font-weight:700" x="440" y="434.84">
    <tspan x="440" y="434.84">private</tspan>
    <tspan x="440" y="456.006">network</tspan>
  </text>
  <text font-size="16.9333" style="fill: #000000;text-anchor:start;font-family:sans-serif;font-style:normal;font-weight:700" x="300" y="154.84">
    <tspan x="300" y="154.84">public</tspan>
    <tspan x="300" y="176.006">network</tspan>
  </text>
</svg>
