<?xml version="1.0" encoding="UTF-8" standalone="no"?>
<!DOCTYPE svg PUBLIC "-//W3C//DTD SVG 1.0//EN" "http://www.w3.org/TR/2001/PR-SVG-20010719/DTD/svg10.dtd">
<svg width="41cm" height="29cm" viewBox="178 36 803 571" xmlns="http://www.w3.org/2000/svg" xmlns:xlink="http://www.w3.org/1999/xlink">
  <rect style="fill: none; fill-opacity:0; stroke-width: 2; stroke: #000000" x="180" y="60" width="600" height="440"/>
  <rect style="fill: none; fill-opacity:0; stroke-width: 2; stroke: #00ff00" x="300" y="80" width="460" height="400"/>
  <text font-size="12.8" style="fill: #000000;text-anchor:start;font-family:sans-serif;font-style:normal;font-weight:normal" x="295" y="151">
    <tspan x="295" y="151"></tspan>
  </text>
  <text font-size="12.8" style="fill: #000000;text-anchor:start;font-family:sans-serif;font-style:normal;font-weight:normal" x="420" y="100">
    <tspan x="420" y="100">frontend</tspan>
    <tspan x="420" y="116">  - Apache</tspan>
    <tspan x="420" y="132">  - PHP</tspan>
  </text>
  <text font-size="12.8" style="fill: #000000;text-anchor:start;font-family:sans-serif;font-style:normal;font-weight:normal" x="340" y="440">
    <tspan x="340" y="440">MySQL server</tspan>
  </text>
  <text font-size="12.8" style="fill: #000000;text-anchor:start;font-family:sans-serif;font-style:normal;font-weight:normal" x="480" y="280">
    <tspan x="480" y="280"></tspan>
  </text>
  <g>
    <line style="fill: none; fill-opacity:0; stroke-width: 2; stroke-dasharray: 4; stroke: #000000" x1="390.226" y1="354.257" x2="390.444" y2="176.512"/>
    <polygon style="fill: #000000" points="390.217,361.757 385.229,351.751 390.226,354.257 395.229,351.763 "/>
    <polygon style="fill: none; fill-opacity:0; stroke-width: 2; stroke: #000000" points="390.217,361.757 385.229,351.751 390.226,354.257 395.229,351.763 "/>
    <polygon style="fill: #000000" points="390.453,169.012 395.441,179.018 390.444,176.512 385.441,179.006 "/>
    <polygon style="fill: none; fill-opacity:0; stroke-width: 2; stroke: #000000" points="390.453,169.012 395.441,179.018 390.444,176.512 385.441,179.006 "/>
  </g>
  <text font-size="12.8" style="fill: #000000;text-anchor:start;font-family:sans-serif;font-style:normal;font-weight:normal" x="200" y="100">
    <tspan x="200" y="100">Permanent</tspan>
    <tspan x="200" y="116">MySQL server</tspan>
  </text>
  <text font-size="12.8" style="fill: #000000;text-anchor:start;font-family:sans-serif;font-style:normal;font-weight:normal" x="240" y="291.881">
    <tspan x="240" y="291.881">MySQL</tspan>
    <tspan x="240" y="307.881">federation</tspan>
  </text>
  <g>
    <line style="fill: none; fill-opacity:0; stroke-width: 2; stroke: #000000" x1="505.068" y1="349.681" x2="405.244" y2="174.782"/>
    <polygon style="fill: #000000" points="508.786,356.195 499.487,349.989 505.068,349.681 508.172,345.032 "/>
    <polygon style="fill: none; fill-opacity:0; stroke-width: 2; stroke: #000000" points="508.786,356.195 499.487,349.989 505.068,349.681 508.172,345.032 "/>
    <polygon style="fill: #000000" points="401.526,168.268 410.825,174.475 405.244,174.782 402.14,179.432 "/>
    <polygon style="fill: none; fill-opacity:0; stroke-width: 2; stroke: #000000" points="401.526,168.268 410.825,174.475 405.244,174.782 402.14,179.432 "/>
  </g>
  <g>
    <path style="fill: #b7b79d" d="M 500 107.32 L 500,198.308 L 553.779,198.308 L 553.779,107.32 L 500,107.32z"/>
    <path style="fill: none; fill-opacity:0; stroke-width: 0.02; stroke: #494936" d="M 500 107.32 L 500,198.308 L 553.779,198.308 L 553.779,107.32 L 500,107.32"/>
    <path style="fill: #c9c9b6" d="M 500 107.32 L 507.287,100 L 561.051,100 L 553.779,107.32 L 500,107.32z"/>
    <path style="fill: none; fill-opacity:0; stroke-width: 0.02; stroke: #494936" d="M 500 107.32 L 507.287,100 L 560.697,100"/>
    <path style="fill: none; fill-opacity:0; stroke-width: 0.02; stroke: #494936" d="M 560.697 100.37 L 553.779,107.32 L 500,107.32"/>
    <path style="fill: #c9c9b6" d="M 503.314 112.612 L 527.879,112.612 L 527.879,124.549 L 503.314,124.549 L 503.314,112.612z"/>
    <path style="fill: none; fill-opacity:0; stroke-width: 0.02; stroke: #626248" d="M 503.314 112.612 L 527.863,112.612 L 527.863,124.533 L 503.314,124.533 L 503.314,112.612"/>
    <path style="fill: none; fill-opacity:0; stroke-width: 0.6; stroke: #ecece7" d="M 506.628 118.597 L 523.857,118.597"/>
    <path style="fill: #7a7a5a" d="M 553.779 198.308 L 561.051,190.973 L 561.051,100 L 553.779,107.32 L 553.779,198.308z"/>
    <path style="fill: none; fill-opacity:0; stroke-width: 0.02; stroke: #494936" d="M 553.779 198.308 L 560.697,191.343"/>
    <path style="fill: none; fill-opacity:0; stroke-width: 0.02; stroke: #494936" d="M 560.697 100.37 L 553.779,107.32 L 553.779,198.308"/>
    <path style="fill: none; fill-opacity:0; stroke-width: 0.6; stroke: #ecece7" d="M 500.676 192.308 L 553.763,192.308"/>
    <path style="fill: none; fill-opacity:0; stroke-width: 0.6; stroke: #000000" d="M 500.676 143.837 L 553.763,143.837"/>
    <path style="fill: none; fill-opacity:0; stroke-width: 0.6; stroke: #494936" d="M 500 191.648 L 553.715,191.648"/>
    <path style="fill: none; fill-opacity:0; stroke-width: 0.6; stroke: #000000" d="M 500 143.162 L 553.715,143.162"/>
    <path style="fill: none; fill-opacity:0; stroke-width: 0.02; stroke: #ecece7" d="M 503.314 123.905 L 503.314,112.612 L 527.203,112.612"/>
  </g>
  <text font-size="12.8" style="fill: #000000;text-anchor:start;font-family:sans-serif;font-style:normal;font-weight:normal" x="600" y="100">
    <tspan x="600" y="100">master</tspan>
    <tspan x="600" y="116">  - SLURM</tspan>
    <tspan x="600" y="132">  - jbpmmicroscope</tspan>
  </text>
  <g>
    <line style="fill: none; fill-opacity:0; stroke-width: 2; stroke: #000000" x1="529.246" y1="339.276" x2="530.13" y2="208.04"/>
    <polygon style="fill: #000000" points="529.196,346.776 524.263,336.742 529.246,339.276 534.263,336.81 "/>
    <polygon style="fill: none; fill-opacity:0; stroke-width: 2; stroke: #000000" points="529.196,346.776 524.263,336.742 529.246,339.276 534.263,336.81 "/>
    <polygon style="fill: #000000" points="530.181,200.541 535.114,210.574 530.13,208.04 525.114,210.507 "/>
    <polygon style="fill: none; fill-opacity:0; stroke-width: 2; stroke: #000000" points="530.181,200.541 535.114,210.574 530.13,208.04 525.114,210.507 "/>
  </g>
  <g>
    <path style="fill: #b7b79d" d="M 680 246.121 L 680,322.206 L 724.97,322.206 L 724.97,246.121 L 680,246.121z"/>
    <path style="fill: none; fill-opacity:0; stroke-width: 0.02; stroke: #494936" d="M 680 246.121 L 680,322.206 L 724.97,322.206 L 724.97,246.121 L 680,246.121"/>
    <path style="fill: #c9c9b6" d="M 680 246.121 L 686.094,240 L 731.051,240 L 724.97,246.121 L 680,246.121z"/>
    <path style="fill: none; fill-opacity:0; stroke-width: 0.02; stroke: #494936" d="M 680 246.121 L 686.094,240 L 730.755,240"/>
    <path style="fill: none; fill-opacity:0; stroke-width: 0.02; stroke: #494936" d="M 730.755 240.309 L 724.97,246.121 L 680,246.121"/>
    <path style="fill: #c9c9b6" d="M 682.771 250.546 L 703.312,250.546 L 703.312,260.528 L 682.771,260.528 L 682.771,250.546z"/>
    <path style="fill: none; fill-opacity:0; stroke-width: 0.02; stroke: #626248" d="M 682.771 250.546 L 703.299,250.546 L 703.299,260.514 L 682.771,260.514 L 682.771,250.546"/>
    <path style="fill: none; fill-opacity:0; stroke-width: 0.6; stroke: #ecece7" d="M 685.542 255.551 L 699.949,255.551"/>
    <path style="fill: #7a7a5a" d="M 724.97 322.206 L 731.051,316.071 L 731.051,240 L 724.97,246.121 L 724.97,322.206z"/>
    <path style="fill: none; fill-opacity:0; stroke-width: 0.02; stroke: #494936" d="M 724.97 322.206 L 730.755,316.381"/>
    <path style="fill: none; fill-opacity:0; stroke-width: 0.02; stroke: #494936" d="M 730.755 240.309 L 724.97,246.121 L 724.97,322.206"/>
    <path style="fill: none; fill-opacity:0; stroke-width: 0.6; stroke: #ecece7" d="M 680.565 317.188 L 724.957,317.188"/>
    <path style="fill: none; fill-opacity:0; stroke-width: 0.6; stroke: #000000" d="M 680.565 276.657 L 724.957,276.657"/>
    <path style="fill: none; fill-opacity:0; stroke-width: 0.6; stroke: #494936" d="M 680 316.636 L 724.916,316.636"/>
    <path style="fill: none; fill-opacity:0; stroke-width: 0.6; stroke: #000000" d="M 680 276.092 L 724.916,276.092"/>
    <path style="fill: none; fill-opacity:0; stroke-width: 0.02; stroke: #ecece7" d="M 682.771 259.99 L 682.771,250.546 L 702.747,250.546"/>
  </g>
  <g>
    <path style="fill: #b7b79d" d="M 660 266.575 L 660,348.308 L 708.309,348.308 L 708.309,266.575 L 660,266.575z"/>
    <path style="fill: none; fill-opacity:0; stroke-width: 0.02; stroke: #494936" d="M 660 266.575 L 660,348.308 L 708.309,348.308 L 708.309,266.575 L 660,266.575"/>
    <path style="fill: #c9c9b6" d="M 660 266.575 L 666.546,260 L 714.84,260 L 708.309,266.575 L 660,266.575z"/>
    <path style="fill: none; fill-opacity:0; stroke-width: 0.02; stroke: #494936" d="M 660 266.575 L 666.546,260 L 714.523,260"/>
    <path style="fill: none; fill-opacity:0; stroke-width: 0.02; stroke: #494936" d="M 714.523 260.332 L 708.309,266.575 L 660,266.575"/>
    <path style="fill: #c9c9b6" d="M 662.977 271.329 L 685.043,271.329 L 685.043,282.052 L 662.977,282.052 L 662.977,271.329z"/>
    <path style="fill: none; fill-opacity:0; stroke-width: 0.02; stroke: #626248" d="M 662.977 271.329 L 685.029,271.329 L 685.029,282.037 L 662.977,282.037 L 662.977,271.329"/>
    <path style="fill: none; fill-opacity:0; stroke-width: 0.6; stroke: #ecece7" d="M 665.954 276.705 L 681.43,276.705"/>
    <path style="fill: #7a7a5a" d="M 708.309 348.308 L 714.84,341.719 L 714.84,260 L 708.309,266.575 L 708.309,348.308z"/>
    <path style="fill: none; fill-opacity:0; stroke-width: 0.02; stroke: #494936" d="M 708.309 348.308 L 714.523,342.051"/>
    <path style="fill: none; fill-opacity:0; stroke-width: 0.02; stroke: #494936" d="M 714.523 260.332 L 708.309,266.575 L 708.309,348.308"/>
    <path style="fill: none; fill-opacity:0; stroke-width: 0.6; stroke: #ecece7" d="M 660.607 342.918 L 708.294,342.918"/>
    <path style="fill: none; fill-opacity:0; stroke-width: 0.6; stroke: #000000" d="M 660.607 299.378 L 708.294,299.378"/>
    <path style="fill: none; fill-opacity:0; stroke-width: 0.6; stroke: #494936" d="M 660 342.326 L 708.251,342.326"/>
    <path style="fill: none; fill-opacity:0; stroke-width: 0.6; stroke: #000000" d="M 660 298.771 L 708.251,298.771"/>
    <path style="fill: none; fill-opacity:0; stroke-width: 0.02; stroke: #ecece7" d="M 662.977 281.474 L 662.977,271.329 L 684.436,271.329"/>
  </g>
  <text font-size="12.8" style="fill: #000000;text-anchor:start;font-family:sans-serif;font-style:normal;font-weight:normal" x="660" y="360">
    <tspan x="660" y="360">slave</tspan>
  </text>
  <g>
    <path style="fill: #0078aa" d="M 420.973 156.334 L 420.922,155.798 L 420.803,155.27 L 420.607,154.733 L 420.343,154.205 L 420.002,153.695 L 419.576,153.175 L 419.074,152.673 L 418.503,152.179 L 417.856,151.693 L 417.141,151.225 L 416.34,150.757 L 415.497,150.305 L 414.586,149.879 L 413.624,149.471 L 412.576,149.07 L 411.495,148.687 L 410.345,148.33 L 409.145,147.997 L 407.893,147.682 L 406.615,147.384 L 405.27,147.112 L 403.916,146.873 L 402.494,146.643 L 401.08,146.431 L 399.598,146.269 L 398.117,146.116 L 396.618,146.005 L 395.102,145.92 L 393.561,145.843 L 392.028,145.792 L 390.478,145.792 L 390.478,145.792 L 388.945,145.792 L 387.395,145.843 L 385.862,145.92 L 384.347,146.005 L 382.848,146.116 L 381.366,146.269 L 379.893,146.431 L 378.454,146.643 L 377.049,146.873 L 375.686,147.112 L 374.358,147.384 L 373.072,147.682 L 371.811,147.997 L 370.628,148.33 L 369.47,148.687 L 368.397,149.07 L 367.341,149.471 L 366.378,149.879 L 365.459,150.305 L 364.616,150.757 L 363.824,151.225 L 363.108,151.693 L 362.461,152.179 L 361.899,152.673 L 361.388,153.175 L 360.962,153.695 L 360.63,154.205 L 360.349,154.733 L 360.162,155.27 L 360.034,155.798 L 360,156.334 L 360,156.334 L 360.034,156.862 L 360.162,157.399 L 360.349,157.927 L 360.63,158.463 L 360.962,158.983 L 361.388,159.502 L 361.899,160.005 L 362.461,160.499 L 363.108,160.984 L 363.824,161.444 L 364.616,161.921 L 365.459,162.372 L 366.378,162.798 L 367.341,163.198 L 368.397,163.607 L 369.47,163.99 L 370.628,164.348 L 371.811,164.68 L 373.072,164.995 L 374.358,165.293 L 375.686,165.566 L 377.049,165.804 L 378.454,166.034 L 379.893,166.238 L 381.366,166.409 L 382.848,166.553 L 384.347,166.664 L 385.862,166.766 L 387.395,166.834 L 388.945,166.877 L 390.478,166.885 L 390.478,166.885 L 392.028,166.877 L 393.561,166.834 L 395.102,166.766 L 396.618,166.664 L 398.117,166.553 L 399.598,166.409 L 401.08,166.238 L 402.494,166.034 L 403.916,165.804 L 405.27,165.566 L 406.615,165.293 L 407.893,164.995 L 409.145,164.68 L 410.345,164.348 L 411.495,163.99 L 412.576,163.607 L 413.624,163.198 L 414.586,162.798 L 415.497,162.372 L 416.34,161.921 L 417.141,161.444 L 417.856,160.984 L 418.503,160.499 L 419.074,160.005 L 419.576,159.502 L 420.002,158.983 L 420.343,158.463 L 420.607,157.927 L 420.803,157.399 L 420.922,156.862 L 420.973,156.334z"/>
    <path style="fill: none; fill-opacity:0; stroke-width: 0.02; stroke: #aae6ff" d="M 420.607 156.173 L 420.573,155.636 L 420.462,155.108 L 420.266,154.606 L 420.011,154.095 L 419.636,153.567 L 419.21,153.064 L 418.742,152.579 L 418.154,152.077 L 417.507,151.608 L 416.809,151.14 L 416.017,150.688 L 415.174,150.254 L 414.28,149.828 L 413.317,149.411 L 412.27,149.028 L 411.188,148.662 L 410.039,148.313 L 408.864,147.972 L 407.62,147.657 L 406.334,147.376 L 405.006,147.103 L 403.652,146.873 L 402.264,146.643 L 400.842,146.456 L 399.377,146.286 L 397.904,146.141 L 396.413,146.005 L 394.906,145.928 L 393.382,145.86 L 391.832,145.817 L 390.308,145.792 L 390.308,145.792 L 388.766,145.817 L 387.233,145.86 L 385.709,145.928 L 384.193,146.005 L 382.703,146.141 L 381.238,146.286 L 379.782,146.456 L 378.343,146.643 L 376.946,146.873 L 375.609,147.103 L 374.264,147.376 L 372.987,147.657 L 371.76,147.972 L 370.568,148.313 L 369.427,148.662 L 368.337,149.028 L 367.298,149.411 L 366.344,149.828 L 365.425,150.254 L 364.581,150.688 L 363.807,151.14 L 363.091,151.608 L 362.453,152.077 L 361.882,152.579 L 361.388,153.064 L 360.962,153.567 L 360.613,154.095 L 360.341,154.606 L 360.136,155.108 L 360.034,155.636 L 360,156.173 L 360,156.173 L 360.034,156.701 L 360.136,157.22 L 360.341,157.74 L 360.613,158.25 L 360.962,158.778 L 361.388,159.272 L 361.882,159.766 L 362.453,160.26 L 363.091,160.729 L 363.807,161.205 L 364.581,161.657 L 365.425,162.083 L 366.344,162.508 L 367.298,162.926 L 368.337,163.317 L 369.427,163.675 L 370.568,164.033 L 371.76,164.365 L 372.987,164.671 L 374.264,164.969 L 375.609,165.242 L 376.946,165.472 L 378.343,165.702 L 379.782,165.889 L 381.238,166.059 L 382.703,166.196 L 384.193,166.323 L 385.709,166.409 L 387.233,166.477 L 388.766,166.519 L 390.308,166.528 L 390.308,166.528 L 391.832,166.519 L 393.382,166.477 L 394.906,166.409 L 396.413,166.323 L 397.904,166.196 L 399.377,166.059 L 400.842,165.889 L 402.264,165.702 L 403.652,165.472 L 405.006,165.242 L 406.334,164.969 L 407.62,164.671 L 408.864,164.365 L 410.039,164.033 L 411.188,163.675 L 412.27,163.317 L 413.317,162.926 L 414.28,162.508 L 415.174,162.083 L 416.017,161.657 L 416.809,161.205 L 417.507,160.729 L 418.154,160.26 L 418.742,159.766 L 419.21,159.272 L 419.636,158.778 L 420.011,158.25 L 420.266,157.74 L 420.462,157.22 L 420.573,156.701 L 420.607,156.173"/>
    <path style="fill: #0078aa" d="M 360 141.738 L 360,156.539 L 420.607,156.539 L 420.607,141.738 L 360,141.738z"/>
    <path style="fill: #00b4ff" d="M 420.973 141.534 L 420.922,140.998 L 420.803,140.47 L 420.607,139.942 L 420.343,139.405 L 420.002,138.894 L 419.576,138.383 L 419.074,137.881 L 418.503,137.37 L 417.856,136.893 L 417.141,136.416 L 416.34,135.948 L 415.497,135.513 L 414.586,135.088 L 413.624,134.67 L 412.576,134.27 L 411.495,133.895 L 410.345,133.538 L 409.145,133.206 L 407.893,132.891 L 406.615,132.592 L 405.27,132.32 L 403.916,132.082 L 402.494,131.843 L 401.08,131.639 L 399.598,131.477 L 398.117,131.332 L 396.618,131.213 L 395.102,131.119 L 393.561,131.051 L 392.028,131 L 390.478,131 L 390.478,131 L 388.945,131 L 387.395,131.051 L 385.862,131.119 L 384.347,131.213 L 382.848,131.332 L 381.366,131.477 L 379.893,131.639 L 378.454,131.843 L 377.049,132.082 L 375.686,132.32 L 374.358,132.592 L 373.072,132.891 L 371.811,133.206 L 370.628,133.538 L 369.47,133.895 L 368.397,134.27 L 367.341,134.67 L 366.378,135.088 L 365.459,135.513 L 364.616,135.948 L 363.824,136.416 L 363.108,136.893 L 362.461,137.37 L 361.899,137.881 L 361.388,138.383 L 360.962,138.894 L 360.63,139.405 L 360.349,139.942 L 360.162,140.47 L 360.034,140.998 L 360,141.534 L 360,141.534 L 360.034,142.071 L 360.162,142.598 L 360.349,143.135 L 360.63,143.654 L 360.962,144.174 L 361.388,144.676 L 361.899,145.187 L 362.461,145.69 L 363.108,146.167 L 363.824,146.643 L 364.616,147.112 L 365.459,147.546 L 366.378,147.989 L 367.341,148.398 L 368.397,148.798 L 369.47,149.173 L 370.628,149.522 L 371.811,149.871 L 373.072,150.186 L 374.358,150.476 L 375.686,150.748 L 377.049,150.995 L 378.454,151.225 L 379.893,151.421 L 381.366,151.591 L 382.848,151.736 L 384.347,151.855 L 385.862,151.949 L 387.395,152.017 L 388.945,152.06 L 390.478,152.077 L 390.478,152.077 L 392.028,152.06 L 393.561,152.017 L 395.102,151.949 L 396.618,151.855 L 398.117,151.736 L 399.598,151.591 L 401.08,151.421 L 402.494,151.225 L 403.916,150.995 L 405.27,150.748 L 406.615,150.476 L 407.893,150.186 L 409.145,149.871 L 410.345,149.522 L 411.495,149.173 L 412.576,148.798 L 413.624,148.398 L 414.586,147.989 L 415.497,147.546 L 416.34,147.112 L 417.141,146.643 L 417.856,146.167 L 418.503,145.69 L 419.074,145.187 L 419.576,144.676 L 420.002,144.174 L 420.343,143.654 L 420.607,143.135 L 420.803,142.598 L 420.922,142.071 L 420.973,141.534z"/>
    <path style="fill: none; fill-opacity:0; stroke-width: 0.02; stroke: #aae6ff" d="M 420.607 141.355 L 420.573,140.827 L 420.462,140.308 L 420.266,139.78 L 420.011,139.277 L 419.636,138.749 L 419.21,138.255 L 418.742,137.753 L 418.154,137.268 L 417.507,136.799 L 416.809,136.322 L 416.017,135.871 L 415.174,135.437 L 414.28,135.011 L 413.317,134.602 L 412.27,134.21 L 411.188,133.844 L 410.039,133.495 L 408.864,133.163 L 407.62,132.856 L 406.334,132.558 L 405.006,132.277 L 403.652,132.056 L 402.264,131.826 L 400.842,131.639 L 399.377,131.468 L 397.904,131.332 L 396.413,131.204 L 394.906,131.119 L 393.382,131.051 L 391.832,131 L 390.308,131 L 390.308,131 L 388.766,131 L 387.233,131.051 L 385.709,131.119 L 384.193,131.204 L 382.703,131.332 L 381.238,131.468 L 379.782,131.639 L 378.343,131.826 L 376.946,132.056 L 375.609,132.277 L 374.264,132.558 L 372.987,132.856 L 371.76,133.163 L 370.568,133.495 L 369.427,133.844 L 368.337,134.21 L 367.298,134.602 L 366.344,135.011 L 365.425,135.437 L 364.581,135.871 L 363.807,136.322 L 363.091,136.799 L 362.453,137.268 L 361.882,137.753 L 361.388,138.255 L 360.962,138.749 L 360.613,139.277 L 360.341,139.78 L 360.136,140.308 L 360.034,140.827 L 360,141.355 L 360,141.355 L 360.034,141.892 L 360.136,142.403 L 360.341,142.922 L 360.613,143.433 L 360.962,143.961 L 361.388,144.463 L 361.882,144.94 L 362.453,145.443 L 363.091,145.92 L 363.807,146.379 L 364.581,146.839 L 365.425,147.274 L 366.344,147.699 L 367.298,148.108 L 368.337,148.5 L 369.427,148.866 L 370.568,149.215 L 371.76,149.547 L 372.987,149.871 L 374.264,150.152 L 375.609,150.424 L 376.946,150.654 L 378.343,150.884 L 379.782,151.063 L 381.238,151.242 L 382.703,151.387 L 384.193,151.515 L 385.709,151.6 L 387.233,151.668 L 388.766,151.702 L 390.308,151.727 L 390.308,151.727 L 391.832,151.702 L 393.382,151.668 L 394.906,151.6 L 396.413,151.515 L 397.904,151.387 L 399.377,151.242 L 400.842,151.063 L 402.264,150.884 L 403.652,150.654 L 405.006,150.424 L 406.334,150.152 L 407.62,149.871 L 408.864,149.547 L 410.039,149.215 L 411.188,148.866 L 412.27,148.5 L 413.317,148.108 L 414.28,147.699 L 415.174,147.274 L 416.017,146.839 L 416.809,146.379 L 417.507,145.92 L 418.154,145.443 L 418.742,144.94 L 419.21,144.463 L 419.636,143.961 L 420.011,143.433 L 420.266,142.922 L 420.462,142.403 L 420.573,141.892 L 420.607,141.355"/>
    <path style="fill: none; fill-opacity:0; stroke-width: 0.02; stroke: #aae6ff" d="M 360 141.355 L 360,156.139"/>
    <path style="fill: none; fill-opacity:0; stroke-width: 0.02; stroke: #aae6ff" d="M 420.607 141.355 L 420.607,156.139"/>
    <path style="fill: #ffffff" d="M 379.229 138.026 L 380.685,144.319 L 381.434,144.319 L 382.541,140.623 L 383.648,144.319 L 384.389,144.319 L 385.871,138.026 L 384.772,138.026 L 384.023,141.738 L 382.916,138.026 L 382.167,138.026 L 381.077,141.738 L 379.944,138.026 L 379.229,138.026z"/>
    <path style="fill: none; fill-opacity:0; stroke-width: 0.02; stroke: #000000" d="M 379.229 138.026 L 380.685,144.319 L 381.434,144.319 L 382.541,140.623 L 383.648,144.319 L 384.389,144.319 L 385.871,138.026 L 384.772,138.026 L 384.023,141.738 L 382.916,138.026 L 382.167,138.026 L 381.077,141.738 L 379.944,138.026 L 379.229,138.026"/>
    <path style="fill: #ffffff" d="M 386.603 138.026 L 388.477,144.319 L 389.192,144.319 L 390.308,140.623 L 391.406,144.319 L 392.147,144.319 L 393.637,138.026 L 392.53,138.026 L 391.789,141.738 L 390.665,138.026 L 389.933,138.026 L 388.826,141.738 L 387.71,138.026 L 386.603,138.026z"/>
    <path style="fill: none; fill-opacity:0; stroke-width: 0.02; stroke: #000000" d="M 386.603 138.026 L 388.477,144.319 L 389.192,144.319 L 390.308,140.623 L 391.406,144.319 L 392.147,144.319 L 393.637,138.026 L 392.53,138.026 L 391.789,141.738 L 390.665,138.026 L 389.933,138.026 L 388.826,141.738 L 387.71,138.026 L 386.603,138.026"/>
    <path style="fill: #ffffff" d="M 394.378 138.026 L 395.851,144.319 L 396.95,144.319 L 398.074,140.623 L 399.173,144.319 L 399.922,144.319 L 401.404,138.026 L 400.288,138.026 L 399.547,141.738 L 398.432,138.026 L 397.691,138.026 L 396.592,141.738 L 395.46,138.026 L 394.378,138.026z"/>
    <path style="fill: none; fill-opacity:0; stroke-width: 0.02; stroke: #000000" d="M 394.378 138.026 L 395.851,144.319 L 396.95,144.319 L 398.074,140.623 L 399.173,144.319 L 399.922,144.319 L 401.404,138.026 L 400.288,138.026 L 399.547,141.738 L 398.432,138.026 L 397.691,138.026 L 396.592,141.738 L 395.46,138.026 L 394.378,138.026"/>
    <path style="fill: #ffffff" d="M 376.623 133.589 L 370.347,135.811 L 376.623,138.392 L 376.623,136.918 L 410.252,136.918 L 410.252,134.696 L 376.623,134.696 L 376.623,133.589z"/>
    <path style="fill: #000000" d="M 376.623 133.955 L 410.252,133.955 L 410.252,134.696 L 376.623,134.696 L 376.623,133.955z"/>
    <path style="fill: #ffffff" d="M 404.342 145.068 L 410.635,147.282 L 404.342,149.496 L 404.342,148.032 L 369.248,148.032 L 369.248,146.167 L 404.342,146.167 L 404.342,145.068z"/>
    <path style="fill: #000000" d="M 404.342 145.068 L 410.635,147.282 L 411.367,146.907 L 404.342,144.319 L 404.342,145.068z"/>
    <path style="fill: #000000" d="M 404.342 145.417 L 369.248,145.417 L 369.248,146.167 L 404.342,146.167 L 404.342,145.417z"/>
    <path style="fill: #000000" d="M 376.623 133.589 L 370.347,135.811 L 369.597,135.437 L 376.623,133.214 L 376.623,133.589z"/>
  </g>
  <g>
    <path style="fill: #a5a585" d="M 433.985 410.189 L 433.926,409.428 L 433.759,408.68 L 433.474,407.932 L 433.082,407.196 L 432.595,406.459 L 431.99,405.735 L 431.277,405.022 L 430.458,404.321 L 429.531,403.633 L 428.51,402.979 L 427.393,402.326 L 426.194,401.685 L 424.876,401.079 L 423.486,400.497 L 422.013,399.939 L 420.446,399.404 L 418.818,398.906 L 417.108,398.431 L 415.339,397.991 L 413.486,397.575 L 411.597,397.184 L 409.638,396.839 L 407.631,396.507 L 405.6,396.233 L 403.509,395.996 L 401.383,395.794 L 399.246,395.616 L 397.072,395.497 L 394.887,395.39 L 392.69,395.319 L 390.493,395.319 L 390.493,395.319 L 388.283,395.319 L 386.086,395.39 L 383.901,395.497 L 381.727,395.616 L 379.59,395.794 L 377.464,395.996 L 375.385,396.233 L 373.343,396.507 L 371.335,396.839 L 369.376,397.184 L 367.487,397.575 L 365.646,397.991 L 363.877,398.431 L 362.167,398.906 L 360.528,399.404 L 358.96,399.939 L 357.499,400.497 L 356.098,401.079 L 354.791,401.685 L 353.58,402.326 L 352.463,402.979 L 351.442,403.633 L 350.516,404.321 L 349.696,405.022 L 348.983,405.735 L 348.378,406.459 L 347.891,407.196 L 347.499,407.932 L 347.214,408.68 L 347.059,409.428 L 347,410.189 L 347,410.189 L 347.059,410.949 L 347.214,411.685 L 347.499,412.445 L 347.891,413.181 L 348.378,413.918 L 348.983,414.642 L 349.696,415.355 L 350.516,416.056 L 351.442,416.733 L 352.463,417.398 L 353.58,418.051 L 354.791,418.692 L 356.098,419.298 L 357.499,419.88 L 358.96,420.438 L 360.528,420.973 L 362.167,421.471 L 363.877,421.946 L 365.646,422.386 L 367.487,422.802 L 369.376,423.194 L 371.335,423.538 L 373.343,423.859 L 375.385,424.144 L 377.464,424.381 L 379.59,424.583 L 381.727,424.749 L 383.901,424.88 L 386.086,424.975 L 388.283,425.046 L 390.493,425.058 L 390.493,425.058 L 392.69,425.046 L 394.887,424.975 L 397.072,424.88 L 399.246,424.749 L 401.383,424.583 L 403.509,424.381 L 405.6,424.144 L 407.631,423.859 L 409.638,423.538 L 411.597,423.194 L 413.486,422.802 L 415.339,422.386 L 417.108,421.946 L 418.818,421.471 L 420.446,420.973 L 422.013,420.438 L 423.486,419.88 L 424.876,419.298 L 426.194,418.692 L 427.393,418.051 L 428.51,417.398 L 429.531,416.733 L 430.458,416.056 L 431.277,415.355 L 431.99,414.642 L 432.595,413.918 L 433.082,413.181 L 433.474,412.445 L 433.759,411.685 L 433.926,410.949 L 433.985,410.189z"/>
    <path style="fill: none; fill-opacity:0; stroke-width: 0.02; stroke: #494936" d="M 433.474 409.951 L 433.415,409.191 L 433.261,408.466 L 432.987,407.73 L 432.607,407.006 L 432.097,406.269 L 431.479,405.568 L 430.802,404.856 L 429.971,404.191 L 429.056,403.514 L 428.047,402.849 L 426.93,402.219 L 425.731,401.59 L 424.436,400.996 L 423.07,400.402 L 421.574,399.868 L 420.018,399.345 L 418.391,398.846 L 416.704,398.383 L 414.947,397.956 L 413.118,397.54 L 411.217,397.172 L 409.281,396.827 L 407.286,396.507 L 405.267,396.233 L 403.201,395.996 L 401.075,395.806 L 398.949,395.616 L 396.787,395.509 L 394.626,395.414 L 392.417,395.355 L 390.231,395.319 L 390.231,395.319 L 388.046,395.355 L 385.861,395.414 L 383.675,395.509 L 381.537,395.616 L 379.4,395.806 L 377.286,395.996 L 375.207,396.233 L 373.176,396.507 L 371.193,396.827 L 369.257,397.172 L 367.357,397.54 L 365.528,397.956 L 363.782,398.383 L 362.072,398.846 L 360.433,399.345 L 358.889,399.868 L 357.416,400.402 L 356.05,400.996 L 354.744,401.59 L 353.532,402.219 L 352.44,402.849 L 351.43,403.514 L 350.492,404.191 L 349.684,404.856 L 348.983,405.568 L 348.378,406.269 L 347.879,407.006 L 347.487,407.73 L 347.214,408.466 L 347.059,409.191 L 347,409.951 L 347,409.951 L 347.059,410.687 L 347.214,411.412 L 347.487,412.16 L 347.879,412.885 L 348.378,413.609 L 348.983,414.322 L 349.684,415.022 L 350.492,415.699 L 351.43,416.364 L 352.44,417.041 L 353.532,417.683 L 354.744,418.288 L 356.05,418.894 L 357.416,419.476 L 358.889,420.022 L 360.433,420.545 L 362.072,421.032 L 363.782,421.507 L 365.528,421.935 L 367.357,422.35 L 369.257,422.73 L 371.193,423.063 L 373.176,423.372 L 375.207,423.645 L 377.286,423.882 L 379.4,424.084 L 381.537,424.262 L 383.675,424.381 L 385.861,424.476 L 388.046,424.536 L 390.231,424.559 L 390.231,424.559 L 392.417,424.536 L 394.626,424.476 L 396.787,424.381 L 398.949,424.262 L 401.075,424.084 L 403.201,423.882 L 405.267,423.645 L 407.286,423.372 L 409.281,423.063 L 411.217,422.73 L 413.118,422.35 L 414.947,421.935 L 416.704,421.507 L 418.391,421.032 L 420.018,420.545 L 421.574,420.022 L 423.07,419.476 L 424.436,418.894 L 425.731,418.288 L 426.93,417.683 L 428.047,417.041 L 429.056,416.364 L 429.971,415.699 L 430.802,415.022 L 431.479,414.322 L 432.097,413.609 L 432.607,412.885 L 432.987,412.16 L 433.261,411.412 L 433.415,410.687 L 433.474,409.951"/>
    <path style="fill: #a5a585" d="M 347 379.131 L 347,410.45 L 433.474,410.45 L 433.474,379.131 L 347,379.131z"/>
    <path style="fill: #c9c9b6" d="M 433.985 378.87 L 433.926,378.098 L 433.759,377.349 L 433.474,376.613 L 433.082,375.877 L 432.595,375.128 L 431.99,374.404 L 431.277,373.68 L 430.458,373.003 L 429.531,372.326 L 428.51,371.637 L 427.393,371.007 L 426.194,370.366 L 424.876,369.748 L 423.486,369.178 L 422.013,368.62 L 420.446,368.074 L 418.818,367.575 L 417.108,367.112 L 415.339,366.66 L 413.486,366.245 L 411.597,365.865 L 409.638,365.52 L 407.631,365.2 L 405.6,364.915 L 403.509,364.677 L 401.383,364.475 L 399.246,364.309 L 397.072,364.178 L 394.887,364.071 L 392.69,364.012 L 390.493,364 L 390.493,364 L 388.283,364.012 L 386.086,364.071 L 383.901,364.178 L 381.727,364.309 L 379.59,364.475 L 377.464,364.677 L 375.385,364.915 L 373.343,365.2 L 371.335,365.52 L 369.376,365.865 L 367.487,366.245 L 365.646,366.66 L 363.877,367.112 L 362.167,367.575 L 360.528,368.074 L 358.96,368.62 L 357.499,369.178 L 356.098,369.748 L 354.791,370.366 L 353.58,371.007 L 352.463,371.637 L 351.442,372.326 L 350.516,373.003 L 349.696,373.68 L 348.983,374.404 L 348.378,375.128 L 347.891,375.877 L 347.499,376.613 L 347.214,377.349 L 347.059,378.098 L 347,378.87 L 347,378.87 L 347.059,379.618 L 347.214,380.378 L 347.499,381.102 L 347.891,381.863 L 348.378,382.587 L 348.983,383.323 L 349.696,384.036 L 350.516,384.725 L 351.442,385.414 L 352.463,386.079 L 353.58,386.732 L 354.791,387.361 L 356.098,387.967 L 357.499,388.549 L 358.96,389.119 L 360.528,389.642 L 362.167,390.153 L 363.877,390.628 L 365.646,391.067 L 367.487,391.483 L 369.376,391.875 L 371.335,392.207 L 373.343,392.54 L 375.385,392.813 L 377.464,393.05 L 379.59,393.264 L 381.727,393.419 L 383.901,393.561 L 386.086,393.656 L 388.283,393.716 L 390.493,393.739 L 390.493,393.739 L 392.69,393.716 L 394.887,393.656 L 397.072,393.561 L 399.246,393.419 L 401.383,393.264 L 403.509,393.05 L 405.6,392.813 L 407.631,392.54 L 409.638,392.207 L 411.597,391.875 L 413.486,391.483 L 415.339,391.067 L 417.108,390.628 L 418.818,390.153 L 420.446,389.642 L 422.013,389.119 L 423.486,388.549 L 424.876,387.967 L 426.194,387.361 L 427.393,386.732 L 428.51,386.079 L 429.531,385.414 L 430.458,384.725 L 431.277,384.036 L 431.99,383.323 L 432.595,382.587 L 433.082,381.863 L 433.474,381.102 L 433.759,380.378 L 433.926,379.618 L 433.985,378.87z"/>
    <path style="fill: none; fill-opacity:0; stroke-width: 0.02; stroke: #494936" d="M 433.474 378.632 L 433.415,377.872 L 433.261,377.148 L 432.987,376.423 L 432.607,375.687 L 432.097,374.938 L 431.479,374.238 L 430.802,373.561 L 429.971,372.86 L 429.056,372.195 L 428.047,371.518 L 426.93,370.9 L 425.731,370.271 L 424.436,369.665 L 423.07,369.107 L 421.574,368.549 L 420.018,368.038 L 418.391,367.539 L 416.704,367.064 L 414.947,366.625 L 413.118,366.221 L 411.217,365.853 L 409.281,365.508 L 407.286,365.2 L 405.267,364.915 L 403.201,364.677 L 401.075,364.475 L 398.949,364.309 L 396.787,364.178 L 396.063,364.143 L 384.4,364.143 L 383.675,364.178 L 381.537,364.309 L 379.4,364.475 L 377.286,364.677 L 375.207,364.915 L 373.176,365.2 L 371.193,365.508 L 369.257,365.853 L 367.357,366.221 L 365.528,366.625 L 363.782,367.064 L 362.072,367.539 L 360.433,368.038 L 358.889,368.549 L 357.416,369.107 L 356.05,369.665 L 354.744,370.271 L 353.532,370.9 L 352.44,371.518 L 351.43,372.195 L 350.492,372.86 L 349.684,373.561 L 348.983,374.238 L 348.378,374.938 L 347.879,375.687 L 347.487,376.423 L 347.214,377.148 L 347.059,377.872 L 347,378.632 L 347,378.632 L 347.059,379.357 L 347.214,380.105 L 347.487,380.841 L 347.879,381.566 L 348.378,382.29 L 348.983,383.003 L 349.684,383.692 L 350.492,384.392 L 351.43,385.057 L 352.44,385.723 L 353.532,386.364 L 354.744,386.97 L 356.05,387.563 L 357.416,388.157 L 358.889,388.704 L 360.433,389.214 L 362.072,389.701 L 363.782,390.176 L 365.528,390.604 L 367.357,391.02 L 369.257,391.411 L 371.193,391.72 L 373.176,392.053 L 375.207,392.314 L 377.286,392.563 L 379.4,392.777 L 381.537,392.944 L 383.675,393.074 L 385.861,393.157 L 388.046,393.205 L 390.231,393.24 L 390.231,393.24 L 392.417,393.205 L 394.626,393.157 L 396.787,393.074 L 398.949,392.944 L 401.075,392.777 L 403.201,392.563 L 405.267,392.314 L 407.286,392.053 L 409.281,391.72 L 411.217,391.411 L 413.118,391.02 L 414.947,390.604 L 416.704,390.176 L 418.391,389.701 L 420.018,389.214 L 421.574,388.704 L 423.07,388.157 L 424.436,387.563 L 425.731,386.97 L 426.93,386.364 L 428.047,385.723 L 429.056,385.057 L 429.971,384.392 L 430.802,383.692 L 431.479,383.003 L 432.097,382.29 L 432.607,381.566 L 432.987,380.841 L 433.261,380.105 L 433.415,379.357 L 433.474,378.632"/>
    <path style="fill: none; fill-opacity:0; stroke-width: 0.02; stroke: #000000" d="M 347 378.632 L 347,409.927"/>
    <path style="fill: none; fill-opacity:0; stroke-width: 0.02; stroke: #000000" d="M 433.474 378.632 L 433.474,409.927"/>
  </g>
  <g>
    <path style="fill: #a5a585" d="M 286.985 166.189 L 286.926,165.428 L 286.759,164.68 L 286.474,163.932 L 286.082,163.196 L 285.595,162.459 L 284.99,161.735 L 284.277,161.022 L 283.458,160.321 L 282.531,159.633 L 281.51,158.979 L 280.393,158.326 L 279.194,157.685 L 277.876,157.079 L 276.486,156.497 L 275.013,155.939 L 273.446,155.404 L 271.818,154.906 L 270.108,154.431 L 268.339,153.991 L 266.486,153.575 L 264.597,153.184 L 262.638,152.839 L 260.631,152.507 L 258.6,152.233 L 256.509,151.996 L 254.383,151.794 L 252.246,151.616 L 250.072,151.497 L 247.887,151.39 L 245.69,151.319 L 243.493,151.319 L 243.493,151.319 L 241.283,151.319 L 239.086,151.39 L 236.901,151.497 L 234.727,151.616 L 232.59,151.794 L 230.464,151.996 L 228.385,152.233 L 226.343,152.507 L 224.335,152.839 L 222.376,153.184 L 220.487,153.575 L 218.646,153.991 L 216.877,154.431 L 215.167,154.906 L 213.528,155.404 L 211.96,155.939 L 210.499,156.497 L 209.098,157.079 L 207.791,157.685 L 206.58,158.326 L 205.463,158.979 L 204.442,159.633 L 203.516,160.321 L 202.696,161.022 L 201.983,161.735 L 201.378,162.459 L 200.891,163.196 L 200.499,163.932 L 200.214,164.68 L 200.059,165.428 L 200,166.189 L 200,166.189 L 200.059,166.949 L 200.214,167.685 L 200.499,168.445 L 200.891,169.181 L 201.378,169.918 L 201.983,170.642 L 202.696,171.355 L 203.516,172.056 L 204.442,172.733 L 205.463,173.398 L 206.58,174.051 L 207.791,174.692 L 209.098,175.298 L 210.499,175.88 L 211.96,176.438 L 213.528,176.973 L 215.167,177.471 L 216.877,177.946 L 218.646,178.386 L 220.487,178.802 L 222.376,179.194 L 224.335,179.538 L 226.343,179.859 L 228.385,180.144 L 230.464,180.381 L 232.59,180.583 L 234.727,180.749 L 236.901,180.88 L 239.086,180.975 L 241.283,181.046 L 243.493,181.058 L 243.493,181.058 L 245.69,181.046 L 247.887,180.975 L 250.072,180.88 L 252.246,180.749 L 254.383,180.583 L 256.509,180.381 L 258.6,180.144 L 260.631,179.859 L 262.638,179.538 L 264.597,179.194 L 266.486,178.802 L 268.339,178.386 L 270.108,177.946 L 271.818,177.471 L 273.446,176.973 L 275.013,176.438 L 276.486,175.88 L 277.876,175.298 L 279.194,174.692 L 280.393,174.051 L 281.51,173.398 L 282.531,172.733 L 283.458,172.056 L 284.277,171.355 L 284.99,170.642 L 285.595,169.918 L 286.082,169.181 L 286.474,168.445 L 286.759,167.685 L 286.926,166.949 L 286.985,166.189z"/>
    <path style="fill: none; fill-opacity:0; stroke-width: 0.02; stroke: #494936" d="M 286.474 165.951 L 286.415,165.191 L 286.261,164.466 L 285.987,163.73 L 285.607,163.006 L 285.097,162.269 L 284.479,161.568 L 283.802,160.856 L 282.971,160.191 L 282.056,159.514 L 281.047,158.849 L 279.93,158.219 L 278.731,157.59 L 277.436,156.996 L 276.07,156.402 L 274.574,155.868 L 273.018,155.345 L 271.391,154.846 L 269.704,154.383 L 267.947,153.956 L 266.118,153.54 L 264.217,153.172 L 262.281,152.827 L 260.286,152.507 L 258.267,152.233 L 256.201,151.996 L 254.075,151.806 L 251.949,151.616 L 249.787,151.509 L 247.626,151.414 L 245.417,151.355 L 243.231,151.319 L 243.231,151.319 L 241.046,151.355 L 238.861,151.414 L 236.675,151.509 L 234.537,151.616 L 232.4,151.806 L 230.286,151.996 L 228.207,152.233 L 226.176,152.507 L 224.193,152.827 L 222.257,153.172 L 220.357,153.54 L 218.528,153.956 L 216.782,154.383 L 215.072,154.846 L 213.433,155.345 L 211.889,155.868 L 210.416,156.402 L 209.05,156.996 L 207.744,157.59 L 206.532,158.219 L 205.44,158.849 L 204.43,159.514 L 203.492,160.191 L 202.684,160.856 L 201.983,161.568 L 201.378,162.269 L 200.879,163.006 L 200.487,163.73 L 200.214,164.466 L 200.059,165.191 L 200,165.951 L 200,165.951 L 200.059,166.687 L 200.214,167.412 L 200.487,168.16 L 200.879,168.885 L 201.378,169.609 L 201.983,170.322 L 202.684,171.022 L 203.492,171.699 L 204.43,172.364 L 205.44,173.041 L 206.532,173.683 L 207.744,174.288 L 209.05,174.894 L 210.416,175.476 L 211.889,176.022 L 213.433,176.545 L 215.072,177.032 L 216.782,177.507 L 218.528,177.935 L 220.357,178.35 L 222.257,178.73 L 224.193,179.063 L 226.176,179.372 L 228.207,179.645 L 230.286,179.882 L 232.4,180.084 L 234.537,180.262 L 236.675,180.381 L 238.861,180.476 L 241.046,180.536 L 243.231,180.559 L 243.231,180.559 L 245.417,180.536 L 247.626,180.476 L 249.787,180.381 L 251.949,180.262 L 254.075,180.084 L 256.201,179.882 L 258.267,179.645 L 260.286,179.372 L 262.281,179.063 L 264.217,178.73 L 266.118,178.35 L 267.947,177.935 L 269.704,177.507 L 271.391,177.032 L 273.018,176.545 L 274.574,176.022 L 276.07,175.476 L 277.436,174.894 L 278.731,174.288 L 279.93,173.683 L 281.047,173.041 L 282.056,172.364 L 282.971,171.699 L 283.802,171.022 L 284.479,170.322 L 285.097,169.609 L 285.607,168.885 L 285.987,168.16 L 286.261,167.412 L 286.415,166.687 L 286.474,165.951"/>
    <path style="fill: #a5a585" d="M 200 135.131 L 200,166.45 L 286.474,166.45 L 286.474,135.131 L 200,135.131z"/>
    <path style="fill: #c9c9b6" d="M 286.985 134.87 L 286.926,134.098 L 286.759,133.349 L 286.474,132.613 L 286.082,131.877 L 285.595,131.128 L 284.99,130.404 L 284.277,129.68 L 283.458,129.003 L 282.531,128.326 L 281.51,127.637 L 280.393,127.007 L 279.194,126.366 L 277.876,125.748 L 276.486,125.178 L 275.013,124.62 L 273.446,124.074 L 271.818,123.575 L 270.108,123.112 L 268.339,122.66 L 266.486,122.245 L 264.597,121.865 L 262.638,121.52 L 260.631,121.2 L 258.6,120.915 L 256.509,120.677 L 254.383,120.475 L 252.246,120.309 L 250.072,120.178 L 247.887,120.071 L 245.69,120.012 L 243.493,120 L 243.493,120 L 241.283,120.012 L 239.086,120.071 L 236.901,120.178 L 234.727,120.309 L 232.59,120.475 L 230.464,120.677 L 228.385,120.915 L 226.343,121.2 L 224.335,121.52 L 222.376,121.865 L 220.487,122.245 L 218.646,122.66 L 216.877,123.112 L 215.167,123.575 L 213.528,124.074 L 211.96,124.62 L 210.499,125.178 L 209.098,125.748 L 207.791,126.366 L 206.58,127.007 L 205.463,127.637 L 204.442,128.326 L 203.516,129.003 L 202.696,129.68 L 201.983,130.404 L 201.378,131.128 L 200.891,131.877 L 200.499,132.613 L 200.214,133.349 L 200.059,134.098 L 200,134.87 L 200,134.87 L 200.059,135.618 L 200.214,136.378 L 200.499,137.102 L 200.891,137.863 L 201.378,138.587 L 201.983,139.323 L 202.696,140.036 L 203.516,140.725 L 204.442,141.414 L 205.463,142.079 L 206.58,142.732 L 207.791,143.361 L 209.098,143.967 L 210.499,144.549 L 211.96,145.119 L 213.528,145.642 L 215.167,146.153 L 216.877,146.628 L 218.646,147.067 L 220.487,147.483 L 222.376,147.875 L 224.335,148.207 L 226.343,148.54 L 228.385,148.813 L 230.464,149.05 L 232.59,149.264 L 234.727,149.419 L 236.901,149.561 L 239.086,149.656 L 241.283,149.716 L 243.493,149.739 L 243.493,149.739 L 245.69,149.716 L 247.887,149.656 L 250.072,149.561 L 252.246,149.419 L 254.383,149.264 L 256.509,149.05 L 258.6,148.813 L 260.631,148.54 L 262.638,148.207 L 264.597,147.875 L 266.486,147.483 L 268.339,147.067 L 270.108,146.628 L 271.818,146.153 L 273.446,145.642 L 275.013,145.119 L 276.486,144.549 L 277.876,143.967 L 279.194,143.361 L 280.393,142.732 L 281.51,142.079 L 282.531,141.414 L 283.458,140.725 L 284.277,140.036 L 284.99,139.323 L 285.595,138.587 L 286.082,137.863 L 286.474,137.102 L 286.759,136.378 L 286.926,135.618 L 286.985,134.87z"/>
    <path style="fill: none; fill-opacity:0; stroke-width: 0.02; stroke: #494936" d="M 286.474 134.632 L 286.415,133.872 L 286.261,133.148 L 285.987,132.423 L 285.607,131.687 L 285.097,130.938 L 284.479,130.238 L 283.802,129.561 L 282.971,128.86 L 282.056,128.195 L 281.047,127.518 L 279.93,126.9 L 278.731,126.271 L 277.436,125.665 L 276.07,125.107 L 274.574,124.549 L 273.018,124.038 L 271.391,123.539 L 269.704,123.064 L 267.947,122.625 L 266.118,122.221 L 264.217,121.853 L 262.281,121.508 L 260.286,121.2 L 258.267,120.915 L 256.201,120.677 L 254.075,120.475 L 251.949,120.309 L 249.787,120.178 L 249.063,120.143 L 237.4,120.143 L 236.675,120.178 L 234.537,120.309 L 232.4,120.475 L 230.286,120.677 L 228.207,120.915 L 226.176,121.2 L 224.193,121.508 L 222.257,121.853 L 220.357,122.221 L 218.528,122.625 L 216.782,123.064 L 215.072,123.539 L 213.433,124.038 L 211.889,124.549 L 210.416,125.107 L 209.05,125.665 L 207.744,126.271 L 206.532,126.9 L 205.44,127.518 L 204.43,128.195 L 203.492,128.86 L 202.684,129.561 L 201.983,130.238 L 201.378,130.938 L 200.879,131.687 L 200.487,132.423 L 200.214,133.148 L 200.059,133.872 L 200,134.632 L 200,134.632 L 200.059,135.357 L 200.214,136.105 L 200.487,136.841 L 200.879,137.566 L 201.378,138.29 L 201.983,139.003 L 202.684,139.692 L 203.492,140.392 L 204.43,141.057 L 205.44,141.723 L 206.532,142.364 L 207.744,142.97 L 209.05,143.563 L 210.416,144.157 L 211.889,144.704 L 213.433,145.214 L 215.072,145.701 L 216.782,146.176 L 218.528,146.604 L 220.357,147.02 L 222.257,147.411 L 224.193,147.72 L 226.176,148.053 L 228.207,148.314 L 230.286,148.563 L 232.4,148.777 L 234.537,148.944 L 236.675,149.074 L 238.861,149.157 L 241.046,149.205 L 243.231,149.24 L 243.231,149.24 L 245.417,149.205 L 247.626,149.157 L 249.787,149.074 L 251.949,148.944 L 254.075,148.777 L 256.201,148.563 L 258.267,148.314 L 260.286,148.053 L 262.281,147.72 L 264.217,147.411 L 266.118,147.02 L 267.947,146.604 L 269.704,146.176 L 271.391,145.701 L 273.018,145.214 L 274.574,144.704 L 276.07,144.157 L 277.436,143.563 L 278.731,142.97 L 279.93,142.364 L 281.047,141.723 L 282.056,141.057 L 282.971,140.392 L 283.802,139.692 L 284.479,139.003 L 285.097,138.29 L 285.607,137.566 L 285.987,136.841 L 286.261,136.105 L 286.415,135.357 L 286.474,134.632"/>
    <path style="fill: none; fill-opacity:0; stroke-width: 0.02; stroke: #000000" d="M 200 134.632 L 200,165.927"/>
    <path style="fill: none; fill-opacity:0; stroke-width: 0.02; stroke: #000000" d="M 286.474 134.632 L 286.474,165.927"/>
  </g>
  <g>
    <path style="fill: #b7b796" d="M 501 456.974 L 557.464,456.974 L 557.464,367.035 L 501,367.035 L 501,456.974z"/>
    <path style="fill: none; fill-opacity:0; stroke-width: 0.02; stroke: #494936" d="M 501 456.974 L 557.464,456.974 L 557.464,367.035 L 501,367.035 L 501,456.974"/>
    <path style="fill: #7a7a5a" d="M 557.464 367.031 L 557.464,456.974 L 575.495,438.943 L 575.495,349 L 557.464,367.031z"/>
    <path style="fill: none; fill-opacity:0; stroke-width: 0.02; stroke: #494936" d="M 557.464 367.031 L 557.464,456.974 L 575.495,438.943 L 575.495,349 L 557.464,367.031"/>
    <path style="fill: #c9c9b6" d="M 575.498 349 L 519.035,349 L 501.004,367.031 L 557.467,367.031 L 575.498,349z"/>
    <path style="fill: none; fill-opacity:0; stroke-width: 0.02; stroke: #494936" d="M 575.498 349 L 519.035,349 L 501.004,367.031 L 557.467,367.031 L 575.498,349"/>
    <path style="fill: #ffffff" d="M 527.786 435.24 C 527.786,437.464 522.994,439.273 517.086,439.273 C 511.175,439.273 506.379,437.468 506.379,435.24 C 506.379,433.009 511.175,431.2 517.086,431.2 C 522.994,431.2 527.786,433.006 527.786,435.24z"/>
    <path style="fill: none; fill-opacity:0; stroke-width: 0.02; stroke: #ffffff" d="M 527.786 435.24 C 527.786,437.464 522.994,439.273 517.086,439.273 C 511.175,439.273 506.379,437.468 506.379,435.24 C 506.379,433.009 511.175,431.2 517.086,431.2 C 522.994,431.2 527.786,433.006 527.786,435.24"/>
    <path style="fill: none; fill-opacity:0; stroke-width: 0.6; stroke-linecap: round; stroke-linejoin: round; stroke: #000000" d="M 527.786 435.24 C 527.786,437.464 522.994,439.273 517.086,439.273 C 511.175,439.273 506.379,437.468 506.379,435.24 C 506.379,433.009 511.175,431.2 517.086,431.2 C 522.994,431.2 527.786,433.006 527.786,435.24"/>
    <path style="fill: #000000" d="M 520.249 435.02 C 520.249,435.688 518.807,436.227 517.039,436.227 C 515.263,436.227 513.828,435.684 513.828,435.02 C 513.828,434.345 515.263,433.806 517.039,433.806 C 518.807,433.806 520.249,434.349 520.249,435.02z"/>
    <path style="fill: none; fill-opacity:0; stroke-width: 0.02; stroke: #000000" d="M 520.249 435.02 C 520.249,435.688 518.807,436.227 517.039,436.227 C 515.263,436.227 513.828,435.684 513.828,435.02 C 513.828,434.345 515.263,433.806 517.039,433.806 C 518.807,433.806 520.249,434.349 520.249,435.02"/>
    <path style="fill: #000000" d="M 520.249 432.819 C 520.249,433.486 518.807,434.026 517.039,434.026 C 515.263,434.026 513.828,433.483 513.828,432.819 C 513.828,432.147 515.263,431.608 517.039,431.608 C 518.807,431.608 520.249,432.151 520.249,432.819z"/>
    <path style="fill: none; fill-opacity:0; stroke-width: 0.02; stroke: #000000" d="M 520.249 432.819 C 520.249,433.486 518.807,434.026 517.039,434.026 C 515.263,434.026 513.828,433.483 513.828,432.819 C 513.828,432.147 515.263,431.608 517.039,431.608 C 518.807,431.608 520.249,432.151 520.249,432.819"/>
    <path style="fill: #ffffff" d="M 527.786 430.837 C 527.786,433.064 522.994,434.873 517.086,434.873 C 511.175,434.873 506.379,433.068 506.379,430.837 C 506.379,428.606 511.175,426.797 517.086,426.797 C 522.994,426.797 527.786,428.602 527.786,430.837z"/>
    <path style="fill: none; fill-opacity:0; stroke-width: 0.02; stroke: #ffffff" d="M 527.786 430.837 C 527.786,433.064 522.994,434.873 517.086,434.873 C 511.175,434.873 506.379,433.068 506.379,430.837 C 506.379,428.606 511.175,426.797 517.086,426.797 C 522.994,426.797 527.786,428.602 527.786,430.837"/>
    <path style="fill: none; fill-opacity:0; stroke-width: 0.6; stroke-linecap: round; stroke-linejoin: round; stroke: #000000" d="M 527.786 430.837 C 527.786,433.064 522.994,434.873 517.086,434.873 C 511.175,434.873 506.379,433.068 506.379,430.837 C 506.379,428.606 511.175,426.797 517.086,426.797 C 522.994,426.797 527.786,428.602 527.786,430.837"/>
    <path style="fill: #000000" d="M 520.249 430.617 C 520.249,431.285 518.807,431.824 517.039,431.824 C 515.263,431.824 513.828,431.281 513.828,430.617 C 513.828,429.945 515.263,429.402 517.039,429.402 C 518.807,429.402 520.249,429.945 520.249,430.617z"/>
    <path style="fill: none; fill-opacity:0; stroke-width: 0.02; stroke: #000000" d="M 520.249 430.617 C 520.249,431.285 518.807,431.824 517.039,431.824 C 515.263,431.824 513.828,431.281 513.828,430.617 C 513.828,429.945 515.263,429.402 517.039,429.402 C 518.807,429.402 520.249,429.945 520.249,430.617"/>
    <path style="fill: #000000" d="M 520.249 428.412 C 520.249,429.079 518.807,429.623 517.039,429.623 C 515.263,429.623 513.828,429.079 513.828,428.412 C 513.828,427.74 515.263,427.201 517.039,427.201 C 518.807,427.201 520.249,427.744 520.249,428.412z"/>
    <path style="fill: none; fill-opacity:0; stroke-width: 0.02; stroke: #000000" d="M 520.249 428.412 C 520.249,429.079 518.807,429.623 517.039,429.623 C 515.263,429.623 513.828,429.079 513.828,428.412 C 513.828,427.74 515.263,427.201 517.039,427.201 C 518.807,427.201 520.249,427.744 520.249,428.412"/>
    <path style="fill: #ffffff" d="M 527.786 426.43 C 527.786,428.657 522.994,430.466 517.086,430.466 C 511.175,430.466 506.379,428.661 506.379,426.43 C 506.379,424.199 511.175,422.39 517.086,422.39 C 522.994,422.39 527.786,424.196 527.786,426.43z"/>
    <path style="fill: none; fill-opacity:0; stroke-width: 0.02; stroke: #ffffff" d="M 527.786 426.43 C 527.786,428.657 522.994,430.466 517.086,430.466 C 511.175,430.466 506.379,428.661 506.379,426.43 C 506.379,424.199 511.175,422.39 517.086,422.39 C 522.994,422.39 527.786,424.196 527.786,426.43"/>
    <path style="fill: none; fill-opacity:0; stroke-width: 0.6; stroke-linecap: round; stroke-linejoin: round; stroke: #000000" d="M 527.786 426.43 C 527.786,428.657 522.994,430.466 517.086,430.466 C 511.175,430.466 506.379,428.661 506.379,426.43 C 506.379,424.199 511.175,422.39 517.086,422.39 C 522.994,422.39 527.786,424.196 527.786,426.43"/>
    <path style="fill: #000000" d="M 520.249 426.214 C 520.249,426.882 518.807,427.421 517.039,427.421 C 515.263,427.421 513.828,426.878 513.828,426.214 C 513.828,425.542 515.263,425.003 517.039,425.003 C 518.807,425.003 520.249,425.542 520.249,426.214z"/>
    <path style="fill: none; fill-opacity:0; stroke-width: 0.02; stroke: #000000" d="M 520.249 426.214 C 520.249,426.882 518.807,427.421 517.039,427.421 C 515.263,427.421 513.828,426.878 513.828,426.214 C 513.828,425.542 515.263,425.003 517.039,425.003 C 518.807,425.003 520.249,425.542 520.249,426.214"/>
    <path style="fill: #ffffff" d="M 527.786 417.627 C 527.786,419.851 522.994,421.66 517.086,421.66 C 511.175,421.66 506.379,419.855 506.379,417.627 C 506.379,415.397 511.175,413.588 517.086,413.588 C 522.994,413.588 527.786,415.393 527.786,417.627z"/>
    <path style="fill: none; fill-opacity:0; stroke-width: 0.02; stroke: #ffffff" d="M 527.786 417.627 C 527.786,419.851 522.994,421.66 517.086,421.66 C 511.175,421.66 506.379,419.855 506.379,417.627 C 506.379,415.397 511.175,413.588 517.086,413.588 C 522.994,413.588 527.786,415.393 527.786,417.627"/>
    <path style="fill: none; fill-opacity:0; stroke-width: 0.6; stroke-linecap: round; stroke-linejoin: round; stroke: #000000" d="M 527.786 417.627 C 527.786,419.851 522.994,421.66 517.086,421.66 C 511.175,421.66 506.379,419.855 506.379,417.627 C 506.379,415.397 511.175,413.588 517.086,413.588 C 522.994,413.588 527.786,415.393 527.786,417.627"/>
    <path style="fill: #000000" d="M 520.249 417.404 C 520.249,418.071 518.807,418.615 517.039,418.615 C 515.263,418.615 513.828,418.071 513.828,417.404 C 513.828,416.732 515.263,416.193 517.039,416.193 C 518.807,416.193 520.249,416.736 520.249,417.404z"/>
    <path style="fill: none; fill-opacity:0; stroke-width: 0.02; stroke: #000000" d="M 520.249 417.404 C 520.249,418.071 518.807,418.615 517.039,418.615 C 515.263,418.615 513.828,418.071 513.828,417.404 C 513.828,416.732 515.263,416.193 517.039,416.193 C 518.807,416.193 520.249,416.736 520.249,417.404"/>
    <path style="fill: #000000" d="M 520.249 415.206 C 520.249,415.874 518.807,416.413 517.039,416.413 C 515.263,416.413 513.828,415.87 513.828,415.206 C 513.828,414.534 515.263,413.995 517.039,413.995 C 518.807,413.995 520.249,414.534 520.249,415.206z"/>
    <path style="fill: none; fill-opacity:0; stroke-width: 0.02; stroke: #000000" d="M 520.249 415.206 C 520.249,415.874 518.807,416.413 517.039,416.413 C 515.263,416.413 513.828,415.87 513.828,415.206 C 513.828,414.534 515.263,413.995 517.039,413.995 C 518.807,413.995 520.249,414.534 520.249,415.206"/>
    <path style="fill: #ffffff" d="M 527.786 413.224 C 527.786,415.448 522.994,417.257 517.086,417.257 C 511.175,417.257 506.379,415.452 506.379,413.224 C 506.379,410.993 511.175,409.184 517.086,409.184 C 522.994,409.184 527.786,410.99 527.786,413.224z"/>
    <path style="fill: none; fill-opacity:0; stroke-width: 0.02; stroke: #ffffff" d="M 527.786 413.224 C 527.786,415.448 522.994,417.257 517.086,417.257 C 511.175,417.257 506.379,415.452 506.379,413.224 C 506.379,410.993 511.175,409.184 517.086,409.184 C 522.994,409.184 527.786,410.99 527.786,413.224"/>
    <path style="fill: none; fill-opacity:0; stroke-width: 0.6; stroke-linecap: round; stroke-linejoin: round; stroke: #000000" d="M 527.786 413.224 C 527.786,415.448 522.994,417.257 517.086,417.257 C 511.175,417.257 506.379,415.452 506.379,413.224 C 506.379,410.993 511.175,409.184 517.086,409.184 C 522.994,409.184 527.786,410.99 527.786,413.224"/>
    <path style="fill: #000000" d="M 520.249 413.004 C 520.249,413.672 518.807,414.211 517.039,414.211 C 515.263,414.211 513.828,413.668 513.828,413.004 C 513.828,412.329 515.263,411.79 517.039,411.79 C 518.807,411.79 520.249,412.333 520.249,413.004z"/>
    <path style="fill: none; fill-opacity:0; stroke-width: 0.02; stroke: #000000" d="M 520.249 413.004 C 520.249,413.672 518.807,414.211 517.039,414.211 C 515.263,414.211 513.828,413.668 513.828,413.004 C 513.828,412.329 515.263,411.79 517.039,411.79 C 518.807,411.79 520.249,412.333 520.249,413.004"/>
    <path style="fill: #000000" d="M 520.249 410.803 C 520.249,411.47 518.807,412.01 517.039,412.01 C 515.263,412.01 513.828,411.467 513.828,410.803 C 513.828,410.131 515.263,409.592 517.039,409.592 C 518.807,409.592 520.249,410.135 520.249,410.803z"/>
    <path style="fill: none; fill-opacity:0; stroke-width: 0.02; stroke: #000000" d="M 520.249 410.803 C 520.249,411.47 518.807,412.01 517.039,412.01 C 515.263,412.01 513.828,411.467 513.828,410.803 C 513.828,410.131 515.263,409.592 517.039,409.592 C 518.807,409.592 520.249,410.135 520.249,410.803"/>
    <path style="fill: #ffffff" d="M 527.786 408.821 C 527.786,411.048 522.994,412.857 517.086,412.857 C 511.175,412.857 506.379,411.052 506.379,408.821 C 506.379,406.59 511.175,404.781 517.086,404.781 C 522.994,404.781 527.786,406.586 527.786,408.821z"/>
    <path style="fill: none; fill-opacity:0; stroke-width: 0.02; stroke: #ffffff" d="M 527.786 408.821 C 527.786,411.048 522.994,412.857 517.086,412.857 C 511.175,412.857 506.379,411.052 506.379,408.821 C 506.379,406.59 511.175,404.781 517.086,404.781 C 522.994,404.781 527.786,406.586 527.786,408.821"/>
    <path style="fill: none; fill-opacity:0; stroke-width: 0.6; stroke-linecap: round; stroke-linejoin: round; stroke: #000000" d="M 527.786 408.821 C 527.786,411.048 522.994,412.857 517.086,412.857 C 511.175,412.857 506.379,411.052 506.379,408.821 C 506.379,406.59 511.175,404.781 517.086,404.781 C 522.994,404.781 527.786,406.586 527.786,408.821"/>
    <path style="fill: #000000" d="M 520.249 408.601 C 520.249,409.269 518.807,409.808 517.039,409.808 C 515.263,409.808 513.828,409.265 513.828,408.601 C 513.828,407.929 515.263,407.386 517.039,407.386 C 518.807,407.386 520.249,407.929 520.249,408.601z"/>
    <path style="fill: none; fill-opacity:0; stroke-width: 0.02; stroke: #000000" d="M 520.249 408.601 C 520.249,409.269 518.807,409.808 517.039,409.808 C 515.263,409.808 513.828,409.265 513.828,408.601 C 513.828,407.929 515.263,407.386 517.039,407.386 C 518.807,407.386 520.249,407.929 520.249,408.601"/>
    <path style="fill: #ffffff" d="M 527.786 400.011 C 527.786,402.238 522.994,404.047 517.086,404.047 C 511.175,404.047 506.379,402.242 506.379,400.011 C 506.379,397.784 511.175,395.975 517.086,395.975 C 522.994,395.975 527.786,397.78 527.786,400.011z"/>
    <path style="fill: none; fill-opacity:0; stroke-width: 0.02; stroke: #ffffff" d="M 527.786 400.011 C 527.786,402.238 522.994,404.047 517.086,404.047 C 511.175,404.047 506.379,402.242 506.379,400.011 C 506.379,397.784 511.175,395.975 517.086,395.975 C 522.994,395.975 527.786,397.78 527.786,400.011"/>
    <path style="fill: none; fill-opacity:0; stroke-width: 0.6; stroke-linecap: round; stroke-linejoin: round; stroke: #000000" d="M 527.786 400.011 C 527.786,402.238 522.994,404.047 517.086,404.047 C 511.175,404.047 506.379,402.242 506.379,400.011 C 506.379,397.784 511.175,395.975 517.086,395.975 C 522.994,395.975 527.786,397.78 527.786,400.011"/>
    <path style="fill: #000000" d="M 520.249 399.795 C 520.249,400.462 518.807,401.002 517.039,401.002 C 515.263,401.002 513.828,400.459 513.828,399.795 C 513.828,399.123 515.263,398.584 517.039,398.584 C 518.807,398.584 520.249,399.127 520.249,399.795z"/>
    <path style="fill: none; fill-opacity:0; stroke-width: 0.02; stroke: #000000" d="M 520.249 399.795 C 520.249,400.462 518.807,401.002 517.039,401.002 C 515.263,401.002 513.828,400.459 513.828,399.795 C 513.828,399.123 515.263,398.584 517.039,398.584 C 518.807,398.584 520.249,399.127 520.249,399.795"/>
    <path style="fill: #000000" d="M 520.249 397.593 C 520.249,398.261 518.807,398.8 517.039,398.8 C 515.263,398.8 513.828,398.257 513.828,397.593 C 513.828,396.921 515.263,396.378 517.039,396.378 C 518.807,396.378 520.249,396.921 520.249,397.593z"/>
    <path style="fill: none; fill-opacity:0; stroke-width: 0.02; stroke: #000000" d="M 520.249 397.593 C 520.249,398.261 518.807,398.8 517.039,398.8 C 515.263,398.8 513.828,398.257 513.828,397.593 C 513.828,396.921 515.263,396.378 517.039,396.378 C 518.807,396.378 520.249,396.921 520.249,397.593"/>
    <path style="fill: #ffffff" d="M 527.786 395.611 C 527.786,397.835 522.994,399.644 517.086,399.644 C 511.175,399.644 506.379,397.839 506.379,395.611 C 506.379,393.381 511.175,391.572 517.086,391.572 C 522.994,391.572 527.786,393.377 527.786,395.611z"/>
    <path style="fill: none; fill-opacity:0; stroke-width: 0.02; stroke: #ffffff" d="M 527.786 395.611 C 527.786,397.835 522.994,399.644 517.086,399.644 C 511.175,399.644 506.379,397.839 506.379,395.611 C 506.379,393.381 511.175,391.572 517.086,391.572 C 522.994,391.572 527.786,393.377 527.786,395.611"/>
    <path style="fill: none; fill-opacity:0; stroke-width: 0.6; stroke-linecap: round; stroke-linejoin: round; stroke: #000000" d="M 527.786 395.611 C 527.786,397.835 522.994,399.644 517.086,399.644 C 511.175,399.644 506.379,397.839 506.379,395.611 C 506.379,393.381 511.175,391.572 517.086,391.572 C 522.994,391.572 527.786,393.377 527.786,395.611"/>
    <path style="fill: #000000" d="M 520.249 395.388 C 520.249,396.055 518.807,396.599 517.039,396.599 C 515.263,396.599 513.828,396.055 513.828,395.388 C 513.828,394.716 515.263,394.177 517.039,394.177 C 518.807,394.177 520.249,394.72 520.249,395.388z"/>
    <path style="fill: none; fill-opacity:0; stroke-width: 0.02; stroke: #000000" d="M 520.249 395.388 C 520.249,396.055 518.807,396.599 517.039,396.599 C 515.263,396.599 513.828,396.055 513.828,395.388 C 513.828,394.716 515.263,394.177 517.039,394.177 C 518.807,394.177 520.249,394.72 520.249,395.388"/>
    <path style="fill: #000000" d="M 520.249 393.19 C 520.249,393.858 518.807,394.397 517.039,394.397 C 515.263,394.397 513.828,393.854 513.828,393.19 C 513.828,392.518 515.263,391.979 517.039,391.979 C 518.807,391.979 520.249,392.518 520.249,393.19z"/>
    <path style="fill: none; fill-opacity:0; stroke-width: 0.02; stroke: #000000" d="M 520.249 393.19 C 520.249,393.858 518.807,394.397 517.039,394.397 C 515.263,394.397 513.828,393.854 513.828,393.19 C 513.828,392.518 515.263,391.979 517.039,391.979 C 518.807,391.979 520.249,392.518 520.249,393.19"/>
    <path style="fill: #ffffff" d="M 527.786 391.208 C 527.786,393.432 522.994,395.241 517.086,395.241 C 511.175,395.241 506.379,393.436 506.379,391.208 C 506.379,388.977 511.175,387.168 517.086,387.168 C 522.994,387.168 527.786,388.974 527.786,391.208z"/>
    <path style="fill: none; fill-opacity:0; stroke-width: 0.02; stroke: #ffffff" d="M 527.786 391.208 C 527.786,393.432 522.994,395.241 517.086,395.241 C 511.175,395.241 506.379,393.436 506.379,391.208 C 506.379,388.977 511.175,387.168 517.086,387.168 C 522.994,387.168 527.786,388.974 527.786,391.208"/>
    <path style="fill: none; fill-opacity:0; stroke-width: 0.6; stroke-linecap: round; stroke-linejoin: round; stroke: #000000" d="M 527.786 391.208 C 527.786,393.432 522.994,395.241 517.086,395.241 C 511.175,395.241 506.379,393.436 506.379,391.208 C 506.379,388.977 511.175,387.168 517.086,387.168 C 522.994,387.168 527.786,388.974 527.786,391.208"/>
    <path style="fill: #000000" d="M 520.249 390.988 C 520.249,391.656 518.807,392.195 517.039,392.195 C 515.263,392.195 513.828,391.652 513.828,390.988 C 513.828,390.313 515.263,389.774 517.039,389.774 C 518.807,389.774 520.249,390.317 520.249,390.988z"/>
    <path style="fill: none; fill-opacity:0; stroke-width: 0.02; stroke: #000000" d="M 520.249 390.988 C 520.249,391.656 518.807,392.195 517.039,392.195 C 515.263,392.195 513.828,391.652 513.828,390.988 C 513.828,390.313 515.263,389.774 517.039,389.774 C 518.807,389.774 520.249,390.317 520.249,390.988"/>
    <path style="fill: #ffffff" d="M 551.64 435.24 C 551.64,437.464 546.845,439.273 540.941,439.273 C 535.029,439.273 530.234,437.468 530.234,435.24 C 530.234,433.009 535.029,431.2 540.941,431.2 C 546.848,431.2 551.64,433.006 551.64,435.24z"/>
    <path style="fill: none; fill-opacity:0; stroke-width: 0.02; stroke: #ffffff" d="M 551.64 435.24 C 551.64,437.464 546.845,439.273 540.941,439.273 C 535.029,439.273 530.234,437.468 530.234,435.24 C 530.234,433.009 535.029,431.2 540.941,431.2 C 546.848,431.2 551.64,433.006 551.64,435.24"/>
    <path style="fill: none; fill-opacity:0; stroke-width: 0.6; stroke-linecap: round; stroke-linejoin: round; stroke: #000000" d="M 551.64 435.24 C 551.64,437.464 546.845,439.273 540.941,439.273 C 535.029,439.273 530.234,437.468 530.234,435.24 C 530.234,433.009 535.029,431.2 540.941,431.2 C 546.848,431.2 551.64,433.006 551.64,435.24"/>
    <path style="fill: #000000" d="M 544.1 435.02 C 544.1,435.688 542.658,436.227 540.889,436.227 C 539.113,436.227 537.679,435.684 537.679,435.02 C 537.679,434.345 539.113,433.806 540.889,433.806 C 542.662,433.806 544.1,434.349 544.1,435.02z"/>
    <path style="fill: none; fill-opacity:0; stroke-width: 0.02; stroke: #000000" d="M 544.1 435.02 C 544.1,435.688 542.658,436.227 540.889,436.227 C 539.113,436.227 537.679,435.684 537.679,435.02 C 537.679,434.345 539.113,433.806 540.889,433.806 C 542.662,433.806 544.1,434.349 544.1,435.02"/>
    <path style="fill: #000000" d="M 544.1 432.819 C 544.1,433.486 542.658,434.026 540.889,434.026 C 539.113,434.026 537.679,433.483 537.679,432.819 C 537.679,432.147 539.113,431.608 540.889,431.608 C 542.662,431.608 544.1,432.151 544.1,432.819z"/>
    <path style="fill: none; fill-opacity:0; stroke-width: 0.02; stroke: #000000" d="M 544.1 432.819 C 544.1,433.486 542.658,434.026 540.889,434.026 C 539.113,434.026 537.679,433.483 537.679,432.819 C 537.679,432.147 539.113,431.608 540.889,431.608 C 542.662,431.608 544.1,432.151 544.1,432.819"/>
    <path style="fill: #ffffff" d="M 551.64 430.837 C 551.64,433.064 546.845,434.873 540.941,434.873 C 535.029,434.873 530.234,433.068 530.234,430.837 C 530.234,428.606 535.029,426.797 540.941,426.797 C 546.848,426.797 551.64,428.602 551.64,430.837z"/>
    <path style="fill: none; fill-opacity:0; stroke-width: 0.02; stroke: #ffffff" d="M 551.64 430.837 C 551.64,433.064 546.845,434.873 540.941,434.873 C 535.029,434.873 530.234,433.068 530.234,430.837 C 530.234,428.606 535.029,426.797 540.941,426.797 C 546.848,426.797 551.64,428.602 551.64,430.837"/>
    <path style="fill: none; fill-opacity:0; stroke-width: 0.6; stroke-linecap: round; stroke-linejoin: round; stroke: #000000" d="M 551.64 430.837 C 551.64,433.064 546.845,434.873 540.941,434.873 C 535.029,434.873 530.234,433.068 530.234,430.837 C 530.234,428.606 535.029,426.797 540.941,426.797 C 546.848,426.797 551.64,428.602 551.64,430.837"/>
    <path style="fill: #000000" d="M 544.1 430.617 C 544.1,431.285 542.658,431.824 540.889,431.824 C 539.113,431.824 537.679,431.281 537.679,430.617 C 537.679,429.945 539.113,429.402 540.889,429.402 C 542.662,429.402 544.1,429.945 544.1,430.617z"/>
    <path style="fill: none; fill-opacity:0; stroke-width: 0.02; stroke: #000000" d="M 544.1 430.617 C 544.1,431.285 542.658,431.824 540.889,431.824 C 539.113,431.824 537.679,431.281 537.679,430.617 C 537.679,429.945 539.113,429.402 540.889,429.402 C 542.662,429.402 544.1,429.945 544.1,430.617"/>
    <path style="fill: #000000" d="M 544.1 428.412 C 544.1,429.079 542.658,429.623 540.889,429.623 C 539.113,429.623 537.679,429.079 537.679,428.412 C 537.679,427.74 539.113,427.201 540.889,427.201 C 542.662,427.201 544.1,427.744 544.1,428.412z"/>
    <path style="fill: none; fill-opacity:0; stroke-width: 0.02; stroke: #000000" d="M 544.1 428.412 C 544.1,429.079 542.658,429.623 540.889,429.623 C 539.113,429.623 537.679,429.079 537.679,428.412 C 537.679,427.74 539.113,427.201 540.889,427.201 C 542.662,427.201 544.1,427.744 544.1,428.412"/>
    <path style="fill: #ffffff" d="M 551.64 426.43 C 551.64,428.657 546.845,430.466 540.941,430.466 C 535.029,430.466 530.234,428.661 530.234,426.43 C 530.234,424.199 535.029,422.39 540.941,422.39 C 546.848,422.39 551.64,424.196 551.64,426.43z"/>
    <path style="fill: none; fill-opacity:0; stroke-width: 0.02; stroke: #ffffff" d="M 551.64 426.43 C 551.64,428.657 546.845,430.466 540.941,430.466 C 535.029,430.466 530.234,428.661 530.234,426.43 C 530.234,424.199 535.029,422.39 540.941,422.39 C 546.848,422.39 551.64,424.196 551.64,426.43"/>
    <path style="fill: none; fill-opacity:0; stroke-width: 0.6; stroke-linecap: round; stroke-linejoin: round; stroke: #000000" d="M 551.64 426.43 C 551.64,428.657 546.845,430.466 540.941,430.466 C 535.029,430.466 530.234,428.661 530.234,426.43 C 530.234,424.199 535.029,422.39 540.941,422.39 C 546.848,422.39 551.64,424.196 551.64,426.43"/>
    <path style="fill: #000000" d="M 544.1 426.214 C 544.1,426.882 542.658,427.421 540.889,427.421 C 539.113,427.421 537.679,426.878 537.679,426.214 C 537.679,425.542 539.113,425.003 540.889,425.003 C 542.662,425.003 544.1,425.542 544.1,426.214z"/>
    <path style="fill: none; fill-opacity:0; stroke-width: 0.02; stroke: #000000" d="M 544.1 426.214 C 544.1,426.882 542.658,427.421 540.889,427.421 C 539.113,427.421 537.679,426.878 537.679,426.214 C 537.679,425.542 539.113,425.003 540.889,425.003 C 542.662,425.003 544.1,425.542 544.1,426.214"/>
    <path style="fill: #ffffff" d="M 551.64 417.627 C 551.64,419.851 546.845,421.66 540.941,421.66 C 535.029,421.66 530.234,419.855 530.234,417.627 C 530.234,415.397 535.029,413.588 540.941,413.588 C 546.848,413.588 551.64,415.393 551.64,417.627z"/>
    <path style="fill: none; fill-opacity:0; stroke-width: 0.02; stroke: #ffffff" d="M 551.64 417.627 C 551.64,419.851 546.845,421.66 540.941,421.66 C 535.029,421.66 530.234,419.855 530.234,417.627 C 530.234,415.397 535.029,413.588 540.941,413.588 C 546.848,413.588 551.64,415.393 551.64,417.627"/>
    <path style="fill: none; fill-opacity:0; stroke-width: 0.6; stroke-linecap: round; stroke-linejoin: round; stroke: #000000" d="M 551.64 417.627 C 551.64,419.851 546.845,421.66 540.941,421.66 C 535.029,421.66 530.234,419.855 530.234,417.627 C 530.234,415.397 535.029,413.588 540.941,413.588 C 546.848,413.588 551.64,415.393 551.64,417.627"/>
    <path style="fill: #000000" d="M 544.1 417.404 C 544.1,418.071 542.658,418.615 540.889,418.615 C 539.113,418.615 537.679,418.071 537.679,417.404 C 537.679,416.732 539.113,416.193 540.889,416.193 C 542.662,416.193 544.1,416.736 544.1,417.404z"/>
    <path style="fill: none; fill-opacity:0; stroke-width: 0.02; stroke: #000000" d="M 544.1 417.404 C 544.1,418.071 542.658,418.615 540.889,418.615 C 539.113,418.615 537.679,418.071 537.679,417.404 C 537.679,416.732 539.113,416.193 540.889,416.193 C 542.662,416.193 544.1,416.736 544.1,417.404"/>
    <path style="fill: #000000" d="M 544.1 415.206 C 544.1,415.874 542.658,416.413 540.889,416.413 C 539.113,416.413 537.679,415.87 537.679,415.206 C 537.679,414.534 539.113,413.995 540.889,413.995 C 542.662,413.995 544.1,414.534 544.1,415.206z"/>
    <path style="fill: none; fill-opacity:0; stroke-width: 0.02; stroke: #000000" d="M 544.1 415.206 C 544.1,415.874 542.658,416.413 540.889,416.413 C 539.113,416.413 537.679,415.87 537.679,415.206 C 537.679,414.534 539.113,413.995 540.889,413.995 C 542.662,413.995 544.1,414.534 544.1,415.206"/>
    <path style="fill: #ffffff" d="M 551.64 413.224 C 551.64,415.448 546.845,417.257 540.941,417.257 C 535.029,417.257 530.234,415.452 530.234,413.224 C 530.234,410.993 535.029,409.184 540.941,409.184 C 546.848,409.184 551.64,410.99 551.64,413.224z"/>
    <path style="fill: none; fill-opacity:0; stroke-width: 0.02; stroke: #ffffff" d="M 551.64 413.224 C 551.64,415.448 546.845,417.257 540.941,417.257 C 535.029,417.257 530.234,415.452 530.234,413.224 C 530.234,410.993 535.029,409.184 540.941,409.184 C 546.848,409.184 551.64,410.99 551.64,413.224"/>
    <path style="fill: none; fill-opacity:0; stroke-width: 0.6; stroke-linecap: round; stroke-linejoin: round; stroke: #000000" d="M 551.64 413.224 C 551.64,415.448 546.845,417.257 540.941,417.257 C 535.029,417.257 530.234,415.452 530.234,413.224 C 530.234,410.993 535.029,409.184 540.941,409.184 C 546.848,409.184 551.64,410.99 551.64,413.224"/>
    <path style="fill: #000000" d="M 544.1 413.004 C 544.1,413.672 542.658,414.211 540.889,414.211 C 539.113,414.211 537.679,413.668 537.679,413.004 C 537.679,412.329 539.113,411.79 540.889,411.79 C 542.662,411.79 544.1,412.333 544.1,413.004z"/>
    <path style="fill: none; fill-opacity:0; stroke-width: 0.02; stroke: #000000" d="M 544.1 413.004 C 544.1,413.672 542.658,414.211 540.889,414.211 C 539.113,414.211 537.679,413.668 537.679,413.004 C 537.679,412.329 539.113,411.79 540.889,411.79 C 542.662,411.79 544.1,412.333 544.1,413.004"/>
    <path style="fill: #000000" d="M 544.1 410.803 C 544.1,411.47 542.658,412.01 540.889,412.01 C 539.113,412.01 537.679,411.467 537.679,410.803 C 537.679,410.131 539.113,409.592 540.889,409.592 C 542.662,409.592 544.1,410.135 544.1,410.803z"/>
    <path style="fill: none; fill-opacity:0; stroke-width: 0.02; stroke: #000000" d="M 544.1 410.803 C 544.1,411.47 542.658,412.01 540.889,412.01 C 539.113,412.01 537.679,411.467 537.679,410.803 C 537.679,410.131 539.113,409.592 540.889,409.592 C 542.662,409.592 544.1,410.135 544.1,410.803"/>
    <path style="fill: #ffffff" d="M 551.64 408.821 C 551.64,411.048 546.845,412.857 540.941,412.857 C 535.029,412.857 530.234,411.052 530.234,408.821 C 530.234,406.59 535.029,404.781 540.941,404.781 C 546.848,404.781 551.64,406.586 551.64,408.821z"/>
    <path style="fill: none; fill-opacity:0; stroke-width: 0.02; stroke: #ffffff" d="M 551.64 408.821 C 551.64,411.048 546.845,412.857 540.941,412.857 C 535.029,412.857 530.234,411.052 530.234,408.821 C 530.234,406.59 535.029,404.781 540.941,404.781 C 546.848,404.781 551.64,406.586 551.64,408.821"/>
    <path style="fill: none; fill-opacity:0; stroke-width: 0.6; stroke-linecap: round; stroke-linejoin: round; stroke: #000000" d="M 551.64 408.821 C 551.64,411.048 546.845,412.857 540.941,412.857 C 535.029,412.857 530.234,411.052 530.234,408.821 C 530.234,406.59 535.029,404.781 540.941,404.781 C 546.848,404.781 551.64,406.586 551.64,408.821"/>
    <path style="fill: #000000" d="M 544.1 408.601 C 544.1,409.269 542.658,409.808 540.889,409.808 C 539.113,409.808 537.679,409.265 537.679,408.601 C 537.679,407.929 539.113,407.386 540.889,407.386 C 542.662,407.386 544.1,407.929 544.1,408.601z"/>
    <path style="fill: none; fill-opacity:0; stroke-width: 0.02; stroke: #000000" d="M 544.1 408.601 C 544.1,409.269 542.658,409.808 540.889,409.808 C 539.113,409.808 537.679,409.265 537.679,408.601 C 537.679,407.929 539.113,407.386 540.889,407.386 C 542.662,407.386 544.1,407.929 544.1,408.601"/>
    <path style="fill: #ffffff" d="M 551.64 400.011 C 551.64,402.238 546.845,404.047 540.941,404.047 C 535.029,404.047 530.234,402.242 530.234,400.011 C 530.234,397.784 535.029,395.975 540.941,395.975 C 546.848,395.975 551.64,397.78 551.64,400.011z"/>
    <path style="fill: none; fill-opacity:0; stroke-width: 0.02; stroke: #ffffff" d="M 551.64 400.011 C 551.64,402.238 546.845,404.047 540.941,404.047 C 535.029,404.047 530.234,402.242 530.234,400.011 C 530.234,397.784 535.029,395.975 540.941,395.975 C 546.848,395.975 551.64,397.78 551.64,400.011"/>
    <path style="fill: none; fill-opacity:0; stroke-width: 0.6; stroke-linecap: round; stroke-linejoin: round; stroke: #000000" d="M 551.64 400.011 C 551.64,402.238 546.845,404.047 540.941,404.047 C 535.029,404.047 530.234,402.242 530.234,400.011 C 530.234,397.784 535.029,395.975 540.941,395.975 C 546.848,395.975 551.64,397.78 551.64,400.011"/>
    <path style="fill: #000000" d="M 544.1 399.795 C 544.1,400.462 542.658,401.002 540.889,401.002 C 539.113,401.002 537.679,400.459 537.679,399.795 C 537.679,399.123 539.113,398.584 540.889,398.584 C 542.662,398.584 544.1,399.127 544.1,399.795z"/>
    <path style="fill: none; fill-opacity:0; stroke-width: 0.02; stroke: #000000" d="M 544.1 399.795 C 544.1,400.462 542.658,401.002 540.889,401.002 C 539.113,401.002 537.679,400.459 537.679,399.795 C 537.679,399.123 539.113,398.584 540.889,398.584 C 542.662,398.584 544.1,399.127 544.1,399.795"/>
    <path style="fill: #000000" d="M 544.1 397.593 C 544.1,398.261 542.658,398.8 540.889,398.8 C 539.113,398.8 537.679,398.257 537.679,397.593 C 537.679,396.921 539.113,396.378 540.889,396.378 C 542.662,396.378 544.1,396.921 544.1,397.593z"/>
    <path style="fill: none; fill-opacity:0; stroke-width: 0.02; stroke: #000000" d="M 544.1 397.593 C 544.1,398.261 542.658,398.8 540.889,398.8 C 539.113,398.8 537.679,398.257 537.679,397.593 C 537.679,396.921 539.113,396.378 540.889,396.378 C 542.662,396.378 544.1,396.921 544.1,397.593"/>
    <path style="fill: #ffffff" d="M 551.64 395.611 C 551.64,397.835 546.845,399.644 540.941,399.644 C 535.029,399.644 530.234,397.839 530.234,395.611 C 530.234,393.381 535.029,391.572 540.941,391.572 C 546.848,391.572 551.64,393.377 551.64,395.611z"/>
    <path style="fill: none; fill-opacity:0; stroke-width: 0.02; stroke: #ffffff" d="M 551.64 395.611 C 551.64,397.835 546.845,399.644 540.941,399.644 C 535.029,399.644 530.234,397.839 530.234,395.611 C 530.234,393.381 535.029,391.572 540.941,391.572 C 546.848,391.572 551.64,393.377 551.64,395.611"/>
    <path style="fill: none; fill-opacity:0; stroke-width: 0.6; stroke-linecap: round; stroke-linejoin: round; stroke: #000000" d="M 551.64 395.611 C 551.64,397.835 546.845,399.644 540.941,399.644 C 535.029,399.644 530.234,397.839 530.234,395.611 C 530.234,393.381 535.029,391.572 540.941,391.572 C 546.848,391.572 551.64,393.377 551.64,395.611"/>
    <path style="fill: #000000" d="M 544.1 395.388 C 544.1,396.055 542.658,396.599 540.889,396.599 C 539.113,396.599 537.679,396.055 537.679,395.388 C 537.679,394.716 539.113,394.177 540.889,394.177 C 542.662,394.177 544.1,394.72 544.1,395.388z"/>
    <path style="fill: none; fill-opacity:0; stroke-width: 0.02; stroke: #000000" d="M 544.1 395.388 C 544.1,396.055 542.658,396.599 540.889,396.599 C 539.113,396.599 537.679,396.055 537.679,395.388 C 537.679,394.716 539.113,394.177 540.889,394.177 C 542.662,394.177 544.1,394.72 544.1,395.388"/>
    <path style="fill: #000000" d="M 544.1 393.19 C 544.1,393.858 542.658,394.397 540.889,394.397 C 539.113,394.397 537.679,393.854 537.679,393.19 C 537.679,392.518 539.113,391.979 540.889,391.979 C 542.662,391.979 544.1,392.518 544.1,393.19z"/>
    <path style="fill: none; fill-opacity:0; stroke-width: 0.02; stroke: #000000" d="M 544.1 393.19 C 544.1,393.858 542.658,394.397 540.889,394.397 C 539.113,394.397 537.679,393.854 537.679,393.19 C 537.679,392.518 539.113,391.979 540.889,391.979 C 542.662,391.979 544.1,392.518 544.1,393.19"/>
    <path style="fill: #ffffff" d="M 551.64 391.208 C 551.64,393.432 546.845,395.241 540.941,395.241 C 535.029,395.241 530.234,393.436 530.234,391.208 C 530.234,388.977 535.029,387.168 540.941,387.168 C 546.848,387.168 551.64,388.974 551.64,391.208z"/>
    <path style="fill: none; fill-opacity:0; stroke-width: 0.02; stroke: #ffffff" d="M 551.64 391.208 C 551.64,393.432 546.845,395.241 540.941,395.241 C 535.029,395.241 530.234,393.436 530.234,391.208 C 530.234,388.977 535.029,387.168 540.941,387.168 C 546.848,387.168 551.64,388.974 551.64,391.208"/>
    <path style="fill: none; fill-opacity:0; stroke-width: 0.6; stroke-linecap: round; stroke-linejoin: round; stroke: #000000" d="M 551.64 391.208 C 551.64,393.432 546.845,395.241 540.941,395.241 C 535.029,395.241 530.234,393.436 530.234,391.208 C 530.234,388.977 535.029,387.168 540.941,387.168 C 546.848,387.168 551.64,388.974 551.64,391.208"/>
    <path style="fill: #000000" d="M 544.1 390.988 C 544.1,391.656 542.658,392.195 540.889,392.195 C 539.113,392.195 537.679,391.652 537.679,390.988 C 537.679,390.313 539.113,389.774 540.889,389.774 C 542.662,389.774 544.1,390.317 544.1,390.988z"/>
    <path style="fill: none; fill-opacity:0; stroke-width: 0.02; stroke: #000000" d="M 544.1 390.988 C 544.1,391.656 542.658,392.195 540.889,392.195 C 539.113,392.195 537.679,391.652 537.679,390.988 C 537.679,390.313 539.113,389.774 540.889,389.774 C 542.662,389.774 544.1,390.317 544.1,390.988"/>
  </g>
  <g>
    <line style="fill: none; fill-opacity:0; stroke-width: 2; stroke-dasharray: 4; stroke: #000000" x1="411.811" y1="356.65" x2="497.585" y2="206.77"/>
    <polygon style="fill: #000000" points="408.086,363.159 408.713,351.997 411.811,356.65 417.392,356.964 "/>
    <polygon style="fill: none; fill-opacity:0; stroke-width: 2; stroke: #000000" points="408.086,363.159 408.713,351.997 411.811,356.65 417.392,356.964 "/>
    <polygon style="fill: #000000" points="501.31,200.26 500.683,211.423 497.585,206.77 492.004,206.456 "/>
    <polygon style="fill: none; fill-opacity:0; stroke-width: 2; stroke: #000000" points="501.31,200.26 500.683,211.423 497.585,206.77 492.004,206.456 "/>
  </g>
  <g>
    <line style="fill: none; fill-opacity:0; stroke-width: 2; stroke: #000000" x1="584.033" y1="361.089" x2="651.471" y2="323.983"/>
    <polygon style="fill: #000000" points="577.462,364.704 583.813,355.503 584.033,361.089 588.633,364.264 "/>
    <polygon style="fill: none; fill-opacity:0; stroke-width: 2; stroke: #000000" points="577.462,364.704 583.813,355.503 584.033,361.089 588.633,364.264 "/>
    <polygon style="fill: #000000" points="658.042,320.367 651.691,329.569 651.471,323.983 646.87,320.807 "/>
    <polygon style="fill: none; fill-opacity:0; stroke-width: 2; stroke: #000000" points="658.042,320.367 651.691,329.569 651.471,323.983 646.87,320.807 "/>
  </g>
  <g>
    <line style="fill: none; fill-opacity:0; stroke-width: 2; stroke-dasharray: 20 8 4 8; stroke: #000000" x1="567.991" y1="186.218" x2="653.06" y2="270.256"/>
    <polygon style="fill: #000000" points="562.656,180.947 573.284,184.418 567.991,186.218 566.256,191.532 "/>
    <polygon style="fill: none; fill-opacity:0; stroke-width: 2; stroke: #000000" points="562.656,180.947 573.284,184.418 567.991,186.218 566.256,191.532 "/>
    <polygon style="fill: #000000" points="658.395,275.527 647.767,272.056 653.06,270.256 654.795,264.942 "/>
    <polygon style="fill: none; fill-opacity:0; stroke-width: 2; stroke: #000000" points="658.395,275.527 647.767,272.056 653.06,270.256 654.795,264.942 "/>
  </g>
  <g>
    <line style="fill: none; fill-opacity:0; stroke-width: 2; stroke: #000000" x1="491.39" y1="392.245" x2="443.209" y2="393.296"/>
    <polygon style="fill: #000000" points="498.889,392.081 489,397.298 491.39,392.245 488.782,387.301 "/>
    <polygon style="fill: none; fill-opacity:0; stroke-width: 2; stroke: #000000" points="498.889,392.081 489,397.298 491.39,392.245 488.782,387.301 "/>
    <polygon style="fill: #000000" points="435.711,393.46 445.599,388.243 443.209,393.296 445.817,398.241 "/>
    <polygon style="fill: none; fill-opacity:0; stroke-width: 2; stroke: #000000" points="435.711,393.46 445.599,388.243 443.209,393.296 445.817,398.241 "/>
  </g>
  <text font-size="12.8" style="fill: #000000;text-anchor:start;font-family:sans-serif;font-style:normal;font-weight:normal" x="600" y="400">
    <tspan x="600" y="400">NFS share</tspan>
    <tspan x="600" y="416">  - web data</tspan>
    <tspan x="600" y="432">  - software</tspan>
    <tspan x="600" y="448">  - computation</tspan>
    <tspan x="600" y="464">     results</tspan>
  </text>
  <line style="fill: none; fill-opacity:0; stroke-width: 2; stroke-dasharray: 20; stroke: #000000" x1="300" y1="220" x2="760" y2="220"/>
  <text font-size="20.32" style="fill: #000000;text-anchor:start;font-family:sans-serif;font-style:normal;font-weight:700" x="180" y="55.2078">
    <tspan x="180" y="55.2078">ifb-prabi-girofle</tspan>
  </text>
  <text font-size="16.9333" style="fill: #000000;text-anchor:start;font-family:sans-serif;font-style:normal;font-weight:700" x="300" y="234.84">
    <tspan x="300" y="234.84">private</tspan>
    <tspan x="300" y="256.006">network</tspan>
  </text>
  <text font-size="16.9333" style="fill: #000000;text-anchor:start;font-family:sans-serif;font-style:normal;font-weight:700" x="300" y="94.8398">
    <tspan x="300" y="94.8398">public</tspan>
    <tspan x="300" y="116.006">network</tspan>
  </text>
  <rect style="fill: none; fill-opacity:0; stroke-width: 2; stroke: #000000" x="800" y="60" width="180" height="160"/>
  <text font-size="20.32" style="fill: #000000;text-anchor:start;font-family:sans-serif;font-style:normal;font-weight:700" x="800" y="55.2078">
    <tspan x="800" y="55.2078">genoscope</tspan>
  </text>
  <g>
    <polyline style="fill: none; fill-opacity:0; stroke-width: 2; stroke-dasharray: 4; stroke: #000000" points="233.756,181.058 240,181.058 240,394.454 337.287,394.454 "/>
    <polygon style="fill: #000000" points="241.256,181.058 231.256,186.058 233.756,181.058 231.256,176.058 "/>
    <polygon style="fill: none; fill-opacity:0; stroke-width: 2; stroke: #000000" points="241.256,181.058 231.256,186.058 233.756,181.058 231.256,176.058 "/>
    <polygon style="fill: #000000" points="344.787,394.454 334.787,399.454 337.287,394.454 334.787,389.454 "/>
    <polygon style="fill: none; fill-opacity:0; stroke-width: 2; stroke: #000000" points="344.787,394.454 334.787,399.454 337.287,394.454 334.787,389.454 "/>
  </g>
  <g>
    <path style="fill: #0078aa" d="M 907.964 196.239 L 907.907,195.641 L 907.774,195.053 L 907.556,194.455 L 907.262,193.866 L 906.882,193.297 L 906.407,192.718 L 905.847,192.158 L 905.211,191.607 L 904.49,191.066 L 903.692,190.544 L 902.8,190.022 L 901.86,189.519 L 900.845,189.044 L 899.772,188.589 L 898.605,188.142 L 897.399,187.715 L 896.118,187.317 L 894.779,186.946 L 893.384,186.595 L 891.96,186.263 L 890.46,185.959 L 888.951,185.693 L 887.366,185.437 L 885.79,185.2 L 884.139,185.019 L 882.487,184.849 L 880.816,184.725 L 879.127,184.63 L 877.409,184.545 L 875.7,184.488 L 873.972,184.488 L 873.972,184.488 L 872.264,184.488 L 870.536,184.545 L 868.828,184.63 L 867.138,184.725 L 865.467,184.849 L 863.816,185.019 L 862.174,185.2 L 860.57,185.437 L 859.003,185.693 L 857.485,185.959 L 856.004,186.263 L 854.57,186.595 L 853.166,186.946 L 851.846,187.317 L 850.555,187.715 L 849.359,188.142 L 848.182,188.589 L 847.11,189.044 L 846.084,189.519 L 845.145,190.022 L 844.262,190.544 L 843.465,191.066 L 842.743,191.607 L 842.117,192.158 L 841.547,192.718 L 841.073,193.297 L 840.702,193.866 L 840.389,194.455 L 840.18,195.053 L 840.038,195.641 L 840,196.239 L 840,196.239 L 840.038,196.828 L 840.18,197.426 L 840.389,198.014 L 840.702,198.612 L 841.073,199.191 L 841.547,199.77 L 842.117,200.33 L 842.743,200.881 L 843.465,201.422 L 844.262,201.935 L 845.145,202.466 L 846.084,202.969 L 847.11,203.444 L 848.182,203.89 L 849.359,204.346 L 850.555,204.773 L 851.846,205.171 L 853.166,205.542 L 854.57,205.893 L 856.004,206.225 L 857.485,206.529 L 859.003,206.794 L 860.57,207.051 L 862.174,207.279 L 863.816,207.468 L 865.467,207.63 L 867.138,207.753 L 868.828,207.867 L 870.536,207.943 L 872.264,207.991 L 873.972,208 L 873.972,208 L 875.7,207.991 L 877.409,207.943 L 879.127,207.867 L 880.816,207.753 L 882.487,207.63 L 884.139,207.468 L 885.79,207.279 L 887.366,207.051 L 888.951,206.794 L 890.46,206.529 L 891.96,206.225 L 893.384,205.893 L 894.779,205.542 L 896.118,205.171 L 897.399,204.773 L 898.605,204.346 L 899.772,203.89 L 900.845,203.444 L 901.86,202.969 L 902.8,202.466 L 903.692,201.935 L 904.49,201.422 L 905.211,200.881 L 905.847,200.33 L 906.407,199.77 L 906.882,199.191 L 907.262,198.612 L 907.556,198.014 L 907.774,197.426 L 907.907,196.828 L 907.964,196.239z"/>
    <path style="fill: none; fill-opacity:0; stroke-width: 0.02; stroke: #aae6ff" d="M 907.556 196.059 L 907.518,195.461 L 907.394,194.872 L 907.176,194.312 L 906.891,193.743 L 906.474,193.154 L 905.999,192.594 L 905.477,192.053 L 904.822,191.493 L 904.101,190.971 L 903.322,190.449 L 902.439,189.946 L 901.5,189.462 L 900.503,188.987 L 899.43,188.522 L 898.263,188.095 L 897.057,187.687 L 895.776,187.298 L 894.466,186.918 L 893.08,186.567 L 891.647,186.253 L 890.166,185.95 L 888.657,185.693 L 887.11,185.437 L 885.524,185.228 L 883.892,185.038 L 882.25,184.877 L 880.589,184.725 L 878.908,184.64 L 877.209,184.564 L 875.482,184.516 L 873.783,184.488 L 873.783,184.488 L 872.065,184.516 L 870.356,184.564 L 868.657,184.64 L 866.967,184.725 L 865.306,184.877 L 863.673,185.038 L 862.05,185.228 L 860.446,185.437 L 858.889,185.693 L 857.399,185.95 L 855.899,186.253 L 854.476,186.567 L 853.109,186.918 L 851.78,187.298 L 850.508,187.687 L 849.293,188.095 L 848.135,188.522 L 847.072,188.987 L 846.047,189.462 L 845.107,189.946 L 844.243,190.449 L 843.446,190.971 L 842.734,191.493 L 842.098,192.053 L 841.547,192.594 L 841.073,193.154 L 840.683,193.743 L 840.38,194.312 L 840.152,194.872 L 840.038,195.461 L 840,196.059 L 840,196.059 L 840.038,196.647 L 840.152,197.226 L 840.38,197.805 L 840.683,198.375 L 841.073,198.963 L 841.547,199.514 L 842.098,200.065 L 842.734,200.615 L 843.446,201.137 L 844.243,201.669 L 845.107,202.172 L 846.047,202.646 L 847.072,203.121 L 848.135,203.586 L 849.293,204.023 L 850.508,204.421 L 851.78,204.82 L 853.109,205.19 L 854.476,205.532 L 855.899,205.864 L 857.399,206.168 L 858.889,206.424 L 860.446,206.681 L 862.05,206.889 L 863.673,207.079 L 865.306,207.231 L 866.967,207.374 L 868.657,207.468 L 870.356,207.544 L 872.065,207.592 L 873.783,207.601 L 873.783,207.601 L 875.482,207.592 L 877.209,207.544 L 878.908,207.468 L 880.589,207.374 L 882.25,207.231 L 883.892,207.079 L 885.524,206.889 L 887.11,206.681 L 888.657,206.424 L 890.166,206.168 L 891.647,205.864 L 893.08,205.532 L 894.466,205.19 L 895.776,204.82 L 897.057,204.421 L 898.263,204.023 L 899.43,203.586 L 900.503,203.121 L 901.5,202.646 L 902.439,202.172 L 903.322,201.669 L 904.101,201.137 L 904.822,200.615 L 905.477,200.065 L 905.999,199.514 L 906.474,198.963 L 906.891,198.375 L 907.176,197.805 L 907.394,197.226 L 907.518,196.647 L 907.556,196.059"/>
    <path style="fill: #0078aa" d="M 840 179.97 L 840,196.467 L 907.556,196.467 L 907.556,179.97 L 840,179.97z"/>
    <path style="fill: #00b4ff" d="M 907.964 179.742 L 907.907,179.144 L 907.774,178.555 L 907.556,177.967 L 907.262,177.369 L 906.882,176.799 L 906.407,176.23 L 905.847,175.67 L 905.211,175.1 L 904.49,174.569 L 903.692,174.037 L 902.8,173.515 L 901.86,173.031 L 900.845,172.556 L 899.772,172.091 L 898.605,171.645 L 897.399,171.227 L 896.118,170.829 L 894.779,170.458 L 893.384,170.107 L 891.96,169.775 L 890.46,169.471 L 888.951,169.206 L 887.366,168.94 L 885.79,168.712 L 884.139,168.532 L 882.487,168.37 L 880.816,168.237 L 879.127,168.133 L 877.409,168.057 L 875.7,168 L 873.972,168 L 873.972,168 L 872.264,168 L 870.536,168.057 L 868.828,168.133 L 867.138,168.237 L 865.467,168.37 L 863.816,168.532 L 862.174,168.712 L 860.57,168.94 L 859.003,169.206 L 857.485,169.471 L 856.004,169.775 L 854.57,170.107 L 853.166,170.458 L 851.846,170.829 L 850.555,171.227 L 849.359,171.645 L 848.182,172.091 L 847.11,172.556 L 846.084,173.031 L 845.145,173.515 L 844.262,174.037 L 843.465,174.569 L 842.743,175.1 L 842.117,175.67 L 841.547,176.23 L 841.073,176.799 L 840.702,177.369 L 840.389,177.967 L 840.18,178.555 L 840.038,179.144 L 840,179.742 L 840,179.742 L 840.038,180.34 L 840.18,180.928 L 840.389,181.526 L 840.702,182.105 L 841.073,182.684 L 841.547,183.244 L 842.117,183.814 L 842.743,184.374 L 843.465,184.906 L 844.262,185.437 L 845.145,185.959 L 846.084,186.443 L 847.11,186.937 L 848.182,187.393 L 849.359,187.839 L 850.555,188.256 L 851.846,188.645 L 853.166,189.035 L 854.57,189.386 L 856.004,189.709 L 857.485,190.012 L 859.003,190.288 L 860.57,190.544 L 862.174,190.762 L 863.816,190.952 L 865.467,191.113 L 867.138,191.246 L 868.828,191.351 L 870.536,191.427 L 872.264,191.474 L 873.972,191.493 L 873.972,191.493 L 875.7,191.474 L 877.409,191.427 L 879.127,191.351 L 880.816,191.246 L 882.487,191.113 L 884.139,190.952 L 885.79,190.762 L 887.366,190.544 L 888.951,190.288 L 890.46,190.012 L 891.96,189.709 L 893.384,189.386 L 894.779,189.035 L 896.118,188.645 L 897.399,188.256 L 898.605,187.839 L 899.772,187.393 L 900.845,186.937 L 901.86,186.443 L 902.8,185.959 L 903.692,185.437 L 904.49,184.906 L 905.211,184.374 L 905.847,183.814 L 906.407,183.244 L 906.882,182.684 L 907.262,182.105 L 907.556,181.526 L 907.774,180.928 L 907.907,180.34 L 907.964,179.742z"/>
    <path style="fill: none; fill-opacity:0; stroke-width: 0.02; stroke: #aae6ff" d="M 907.556 179.542 L 907.518,178.954 L 907.394,178.375 L 907.176,177.786 L 906.891,177.226 L 906.474,176.638 L 905.999,176.087 L 905.477,175.527 L 904.822,174.986 L 904.101,174.464 L 903.322,173.933 L 902.439,173.43 L 901.5,172.945 L 900.503,172.471 L 899.43,172.015 L 898.263,171.579 L 897.057,171.17 L 895.776,170.781 L 894.466,170.411 L 893.08,170.069 L 891.647,169.737 L 890.166,169.424 L 888.657,169.177 L 887.11,168.921 L 885.524,168.712 L 883.892,168.522 L 882.25,168.37 L 880.589,168.228 L 878.908,168.133 L 877.209,168.057 L 875.482,168 L 873.783,168 L 873.783,168 L 872.065,168 L 870.356,168.057 L 868.657,168.133 L 866.967,168.228 L 865.306,168.37 L 863.673,168.522 L 862.05,168.712 L 860.446,168.921 L 858.889,169.177 L 857.399,169.424 L 855.899,169.737 L 854.476,170.069 L 853.109,170.411 L 851.78,170.781 L 850.508,171.17 L 849.293,171.579 L 848.135,172.015 L 847.072,172.471 L 846.047,172.945 L 845.107,173.43 L 844.243,173.933 L 843.446,174.464 L 842.734,174.986 L 842.098,175.527 L 841.547,176.087 L 841.073,176.638 L 840.683,177.226 L 840.38,177.786 L 840.152,178.375 L 840.038,178.954 L 840,179.542 L 840,179.542 L 840.038,180.14 L 840.152,180.71 L 840.38,181.289 L 840.683,181.859 L 841.073,182.447 L 841.547,183.007 L 842.098,183.539 L 842.734,184.099 L 843.446,184.63 L 844.243,185.143 L 845.107,185.655 L 846.047,186.14 L 847.072,186.614 L 848.135,187.07 L 849.293,187.506 L 850.508,187.915 L 851.78,188.304 L 853.109,188.674 L 854.476,189.035 L 855.899,189.348 L 857.399,189.652 L 858.889,189.908 L 860.446,190.164 L 862.05,190.364 L 863.673,190.563 L 865.306,190.724 L 866.967,190.867 L 868.657,190.962 L 870.356,191.037 L 872.065,191.075 L 873.783,191.104 L 873.783,191.104 L 875.482,191.075 L 877.209,191.037 L 878.908,190.962 L 880.589,190.867 L 882.25,190.724 L 883.892,190.563 L 885.524,190.364 L 887.11,190.164 L 888.657,189.908 L 890.166,189.652 L 891.647,189.348 L 893.08,189.035 L 894.466,188.674 L 895.776,188.304 L 897.057,187.915 L 898.263,187.506 L 899.43,187.07 L 900.503,186.614 L 901.5,186.14 L 902.439,185.655 L 903.322,185.143 L 904.101,184.63 L 904.822,184.099 L 905.477,183.539 L 905.999,183.007 L 906.474,182.447 L 906.891,181.859 L 907.176,181.289 L 907.394,180.71 L 907.518,180.14 L 907.556,179.542"/>
    <path style="fill: none; fill-opacity:0; stroke-width: 0.02; stroke: #aae6ff" d="M 840 179.542 L 840,196.021"/>
    <path style="fill: none; fill-opacity:0; stroke-width: 0.02; stroke: #aae6ff" d="M 907.556 179.542 L 907.556,196.021"/>
    <path style="fill: #ffffff" d="M 861.433 175.831 L 863.056,182.846 L 863.892,182.846 L 865.126,178.726 L 866.36,182.846 L 867.186,182.846 L 868.837,175.831 L 867.613,175.831 L 866.777,179.97 L 865.543,175.831 L 864.708,175.831 L 863.493,179.97 L 862.231,175.831 L 861.433,175.831z"/>
    <path style="fill: none; fill-opacity:0; stroke-width: 0.02; stroke: #000000" d="M 861.433 175.831 L 863.056,182.846 L 863.892,182.846 L 865.126,178.726 L 866.36,182.846 L 867.186,182.846 L 868.837,175.831 L 867.613,175.831 L 866.777,179.97 L 865.543,175.831 L 864.708,175.831 L 863.493,179.97 L 862.231,175.831 L 861.433,175.831"/>
    <path style="fill: #ffffff" d="M 869.654 175.831 L 871.742,182.846 L 872.539,182.846 L 873.783,178.726 L 875.007,182.846 L 875.833,182.846 L 877.494,175.831 L 876.26,175.831 L 875.434,179.97 L 874.181,175.831 L 873.365,175.831 L 872.131,179.97 L 870.888,175.831 L 869.654,175.831z"/>
    <path style="fill: none; fill-opacity:0; stroke-width: 0.02; stroke: #000000" d="M 869.654 175.831 L 871.742,182.846 L 872.539,182.846 L 873.783,178.726 L 875.007,182.846 L 875.833,182.846 L 877.494,175.831 L 876.26,175.831 L 875.434,179.97 L 874.181,175.831 L 873.365,175.831 L 872.131,179.97 L 870.888,175.831 L 869.654,175.831"/>
    <path style="fill: #ffffff" d="M 878.32 175.831 L 879.962,182.846 L 881.187,182.846 L 882.439,178.726 L 883.664,182.846 L 884.499,182.846 L 886.151,175.831 L 884.907,175.831 L 884.082,179.97 L 882.838,175.831 L 882.012,175.831 L 880.788,179.97 L 879.525,175.831 L 878.32,175.831z"/>
    <path style="fill: none; fill-opacity:0; stroke-width: 0.02; stroke: #000000" d="M 878.32 175.831 L 879.962,182.846 L 881.187,182.846 L 882.439,178.726 L 883.664,182.846 L 884.499,182.846 L 886.151,175.831 L 884.907,175.831 L 884.082,179.97 L 882.838,175.831 L 882.012,175.831 L 880.788,179.97 L 879.525,175.831 L 878.32,175.831"/>
    <path style="fill: #ffffff" d="M 858.529 170.886 L 851.533,173.363 L 858.529,176.239 L 858.529,174.597 L 896.013,174.597 L 896.013,172.12 L 858.529,172.12 L 858.529,170.886z"/>
    <path style="fill: #000000" d="M 858.529 171.294 L 896.013,171.294 L 896.013,172.12 L 858.529,172.12 L 858.529,171.294z"/>
    <path style="fill: #ffffff" d="M 889.426 183.681 L 896.44,186.149 L 889.426,188.617 L 889.426,186.984 L 850.308,186.984 L 850.308,184.906 L 889.426,184.906 L 889.426,183.681z"/>
    <path style="fill: #000000" d="M 889.426 183.681 L 896.44,186.149 L 897.257,185.731 L 889.426,182.846 L 889.426,183.681z"/>
    <path style="fill: #000000" d="M 889.426 184.07 L 850.308,184.07 L 850.308,184.906 L 889.426,184.906 L 889.426,184.07z"/>
    <path style="fill: #000000" d="M 858.529 170.886 L 851.533,173.363 L 850.698,172.945 L 858.529,170.468 L 858.529,170.886z"/>
  </g>
  <text font-size="12.8" style="fill: #000000;text-anchor:start;font-family:sans-serif;font-style:normal;font-weight:normal" x="820" y="80">
    <tspan x="820" y="80">Genoscope web server</tspan>
    <tspan x="820" y="96">  - MicroScope code</tspan>
    <tspan x="820" y="112">    and data</tspan>
    <tspan x="820" y="128">  - jbpmmicroscope</tspan>
    <tspan x="820" y="144">    code</tspan>
    <tspan x="820" y="160">  - modules</tspan>
  </text>
  <g>
    <g>
      <line style="fill: none; fill-opacity:0; stroke-width: 2; stroke-dasharray: 4; stroke: #000000" x1="189.736" y1="520" x2="270.264" y2="520"/>
      <polygon style="fill: #000000" points="182.236,520 192.236,515 189.736,520 192.236,525 "/>
      <polygon style="fill: none; fill-opacity:0; stroke-width: 2; stroke: #000000" points="182.236,520 192.236,515 189.736,520 192.236,525 "/>
      <polygon style="fill: #000000" points="277.764,520 267.764,525 270.264,520 267.764,515 "/>
      <polygon style="fill: none; fill-opacity:0; stroke-width: 2; stroke: #000000" points="277.764,520 267.764,525 270.264,520 267.764,515 "/>
    </g>
    <g>
      <line style="fill: none; fill-opacity:0; stroke-width: 2; stroke: #000000" x1="270.264" y1="560" x2="189.736" y2="560"/>
      <polygon style="fill: #000000" points="277.764,560 267.764,565 270.264,560 267.764,555 "/>
      <polygon style="fill: none; fill-opacity:0; stroke-width: 2; stroke: #000000" points="277.764,560 267.764,565 270.264,560 267.764,555 "/>
      <polygon style="fill: #000000" points="182.236,560 192.236,555 189.736,560 192.236,565 "/>
      <polygon style="fill: none; fill-opacity:0; stroke-width: 2; stroke: #000000" points="182.236,560 192.236,555 189.736,560 192.236,565 "/>
    </g>
    <g>
      <line style="fill: none; fill-opacity:0; stroke-width: 2; stroke-dasharray: 20 8 4 8; stroke: #000000" x1="189.736" y1="600" x2="270.264" y2="600"/>
      <polygon style="fill: #000000" points="182.236,600 192.236,595 189.736,600 192.236,605 "/>
      <polygon style="fill: none; fill-opacity:0; stroke-width: 2; stroke: #000000" points="182.236,600 192.236,595 189.736,600 192.236,605 "/>
      <polygon style="fill: #000000" points="277.764,600 267.764,605 270.264,600 267.764,595 "/>
      <polygon style="fill: none; fill-opacity:0; stroke-width: 2; stroke: #000000" points="277.764,600 267.764,605 270.264,600 267.764,595 "/>
    </g>
    <text font-size="12.8" style="fill: #000000;text-anchor:start;font-family:sans-serif;font-style:normal;font-weight:normal" x="300" y="520">
      <tspan x="300" y="520">MySQL queries</tspan>
    </text>
    <text font-size="12.8" style="fill: #000000;text-anchor:start;font-family:sans-serif;font-style:normal;font-weight:normal" x="300" y="560">
      <tspan x="300" y="560">NFS mount (/env)</tspan>
    </text>
    <text font-size="12.8" style="fill: #000000;text-anchor:start;font-family:sans-serif;font-style:normal;font-weight:normal" x="300" y="600">
      <tspan x="300" y="600">SLURM</tspan>
    </text>
  </g>
  <g>
    <path style="fill: none; fill-opacity:0; stroke-width: 2; stroke: #000000" d="M 839.998 188 C 806.026,188.034 610.525,166.659 570.564,157.941"/>
    <polygon style="fill: #000000" points="563.236,156.343 574.072,153.589 570.564,157.941 571.94,163.359 "/>
    <polygon style="fill: none; fill-opacity:0; stroke-width: 2; stroke: #000000" points="563.236,156.343 574.072,153.589 570.564,157.941 571.94,163.359 "/>
  </g>
  <g>
    <path style="fill: none; fill-opacity:0; stroke-width: 2; stroke: #000000" d="M 840.044 188 C 806.072,188.034 670.11,173.665 430.286,152.436"/>
    <polygon style="fill: #000000" points="422.816,151.774 433.218,147.676 430.286,152.436 432.336,157.637 "/>
    <polygon style="fill: none; fill-opacity:0; stroke-width: 2; stroke: #000000" points="422.816,151.774 433.218,147.676 430.286,152.436 432.336,157.637 "/>
  </g>
  <g>
    <rect style="fill: none; fill-opacity:0; stroke-width: 2; stroke: #00ff00" x="460" y="520" width="100" height="20"/>
    <text font-size="12.8" style="fill: #000000;text-anchor:start;font-family:sans-serif;font-style:normal;font-weight:normal" x="580" y="520">
      <tspan x="580" y="520">A deployment</tspan>
      <tspan x="580" y="536">(temporary VMs)</tspan>
    </text>
    <g>
      <path style="fill: none; fill-opacity:0; stroke-width: 2; stroke: #000000" d="M 460 600 C 426.028,600.034 520,600 550.264,600"/>
      <polygon style="fill: #000000" points="557.764,600 547.764,605 550.264,600 547.764,595 "/>
      <polygon style="fill: none; fill-opacity:0; stroke-width: 2; stroke: #000000" points="557.764,600 547.764,605 550.264,600 547.764,595 "/>
    </g>
    <text font-size="12.8" style="fill: #000000;text-anchor:start;font-family:sans-serif;font-style:normal;font-weight:normal" x="580" y="600">
      <tspan x="580" y="600">HTTP download</tspan>
    </text>
  </g>
</svg>
