<?xml version="1.0" encoding="UTF-8" standalone="no"?>
<!DOCTYPE svg PUBLIC "-//W3C//DTD SVG 1.0//EN" "http://www.w3.org/TR/2001/PR-SVG-20010719/DTD/svg10.dtd">
<svg width="42cm" height="30cm" viewBox="178 36 823 591" xmlns="http://www.w3.org/2000/svg" xmlns:xlink="http://www.w3.org/1999/xlink">
  <rect style="fill: none; fill-opacity:0; stroke-width: 2; stroke: #000000" x="180" y="60" width="600" height="440"/>
  <rect style="fill: none; fill-opacity:0; stroke-width: 2; stroke: #00ff00" x="300" y="80" width="460" height="400"/>
  <text font-size="12.8" style="fill: #000000;text-anchor:start;font-family:sans-serif;font-style:normal;font-weight:normal" x="315" y="151">
    <tspan x="315" y="151"></tspan>
  </text>
  <text font-size="12.8" style="fill: #000000;text-anchor:start;font-family:sans-serif;font-style:normal;font-weight:normal" x="440" y="120">
    <tspan x="440" y="120">frontend</tspan>
    <tspan x="440" y="136">  - Apache</tspan>
    <tspan x="440" y="152">  - PHP</tspan>
  </text>
  <text font-size="12.8" style="fill: #000000;text-anchor:start;font-family:sans-serif;font-style:normal;font-weight:normal" x="175" y="422">
    <tspan x="175" y="422"></tspan>
  </text>
  <text font-size="12.8" style="fill: #000000;text-anchor:start;font-family:sans-serif;font-style:normal;font-weight:normal" x="360" y="440">
    <tspan x="360" y="440">MySQL server</tspan>
  </text>
  <text font-size="12.8" style="fill: #000000;text-anchor:start;font-family:sans-serif;font-style:normal;font-weight:normal" x="240" y="371">
    <tspan x="240" y="371"></tspan>
  </text>
  <text font-size="12.8" style="fill: #000000;text-anchor:start;font-family:sans-serif;font-style:normal;font-weight:normal" x="240" y="391">
    <tspan x="240" y="391"></tspan>
  </text>
  <g>
    <line style="fill: none; fill-opacity:0; stroke-width: 2; stroke-dasharray: 4; stroke: #000000" x1="410.228" y1="354.269" x2="410.443" y2="185.622"/>
    <polygon style="fill: #000000" points="410.218,361.769 405.231,351.763 410.228,354.269 415.231,351.776 "/>
    <polygon style="fill: none; fill-opacity:0; stroke-width: 2; stroke: #000000" points="410.218,361.769 405.231,351.763 410.228,354.269 415.231,351.776 "/>
    <polygon style="fill: #000000" points="410.452,178.122 415.439,188.129 410.443,185.622 405.439,188.116 "/>
    <polygon style="fill: none; fill-opacity:0; stroke-width: 2; stroke: #000000" points="410.452,178.122 415.439,188.129 410.443,185.622 405.439,188.116 "/>
  </g>
  <text font-size="12.8" style="fill: #000000;text-anchor:start;font-family:sans-serif;font-style:normal;font-weight:normal" x="200" y="200">
    <tspan x="200" y="200">Permanent</tspan>
    <tspan x="200" y="216">MySQL server</tspan>
  </text>
  <text font-size="12.8" style="fill: #000000;text-anchor:end;font-family:sans-serif;font-style:normal;font-weight:normal" x="280" y="291.881">
    <tspan x="280" y="291.881">MySQL</tspan>
    <tspan x="280" y="307.881">federation</tspan>
  </text>
  <text font-size="12.8" style="fill: #000000;text-anchor:start;font-family:sans-serif;font-style:normal;font-weight:normal" x="240" y="371">
    <tspan x="240" y="371"></tspan>
  </text>
  <g>
    <line style="fill: none; fill-opacity:0; stroke-width: 2; stroke: #000000" x1="544.574" y1="358.963" x2="427.36" y2="183.224"/>
    <polygon style="fill: #000000" points="548.735,365.203 539.027,359.658 544.574,358.963 547.346,354.109 "/>
    <polygon style="fill: none; fill-opacity:0; stroke-width: 2; stroke: #000000" points="548.735,365.203 539.027,359.658 544.574,358.963 547.346,354.109 "/>
    <polygon style="fill: #000000" points="423.199,176.984 432.907,182.529 427.36,183.224 424.588,188.078 "/>
    <polygon style="fill: none; fill-opacity:0; stroke-width: 2; stroke: #000000" points="423.199,176.984 432.907,182.529 427.36,183.224 424.588,188.078 "/>
  </g>
  <g>
    <path style="fill: #b7b79d" d="M 540 107.32 L 540,198.308 L 593.779,198.308 L 593.779,107.32 L 540,107.32z"/>
    <path style="fill: none; fill-opacity:0; stroke-width: 0.02; stroke: #494936" d="M 540 107.32 L 540,198.308 L 593.779,198.308 L 593.779,107.32 L 540,107.32"/>
    <path style="fill: #c9c9b6" d="M 540 107.32 L 547.287,100 L 601.051,100 L 593.779,107.32 L 540,107.32z"/>
    <path style="fill: none; fill-opacity:0; stroke-width: 0.02; stroke: #494936" d="M 540 107.32 L 547.287,100 L 600.697,100"/>
    <path style="fill: none; fill-opacity:0; stroke-width: 0.02; stroke: #494936" d="M 600.697 100.37 L 593.779,107.32 L 540,107.32"/>
    <path style="fill: #c9c9b6" d="M 543.314 112.612 L 567.879,112.612 L 567.879,124.549 L 543.314,124.549 L 543.314,112.612z"/>
    <path style="fill: none; fill-opacity:0; stroke-width: 0.02; stroke: #626248" d="M 543.314 112.612 L 567.863,112.612 L 567.863,124.533 L 543.314,124.533 L 543.314,112.612"/>
    <path style="fill: none; fill-opacity:0; stroke-width: 0.6; stroke: #ecece7" d="M 546.628 118.597 L 563.857,118.597"/>
    <path style="fill: #7a7a5a" d="M 593.779 198.308 L 601.051,190.973 L 601.051,100 L 593.779,107.32 L 593.779,198.308z"/>
    <path style="fill: none; fill-opacity:0; stroke-width: 0.02; stroke: #494936" d="M 593.779 198.308 L 600.697,191.343"/>
    <path style="fill: none; fill-opacity:0; stroke-width: 0.02; stroke: #494936" d="M 600.697 100.37 L 593.779,107.32 L 593.779,198.308"/>
    <path style="fill: none; fill-opacity:0; stroke-width: 0.6; stroke: #ecece7" d="M 540.676 192.308 L 593.763,192.308"/>
    <path style="fill: none; fill-opacity:0; stroke-width: 0.6; stroke: #000000" d="M 540.676 143.837 L 593.763,143.837"/>
    <path style="fill: none; fill-opacity:0; stroke-width: 0.6; stroke: #494936" d="M 540 191.648 L 593.715,191.648"/>
    <path style="fill: none; fill-opacity:0; stroke-width: 0.6; stroke: #000000" d="M 540 143.162 L 593.715,143.162"/>
    <path style="fill: none; fill-opacity:0; stroke-width: 0.02; stroke: #ecece7" d="M 543.314 123.905 L 543.314,112.612 L 567.203,112.612"/>
  </g>
  <text font-size="12.8" style="fill: #000000;text-anchor:start;font-family:sans-serif;font-style:normal;font-weight:normal" x="620" y="100">
    <tspan x="620" y="100">master</tspan>
    <tspan x="620" y="116">  - SLURM</tspan>
    <tspan x="620" y="132">  - jbpmmicroscope</tspan>
  </text>
  <g>
    <line style="fill: none; fill-opacity:0; stroke-width: 2; stroke: #000000" x1="570.818" y1="346.267" x2="570.614" y2="208.052"/>
    <polygon style="fill: #000000" points="570.829,353.767 565.814,343.774 570.818,346.267 575.814,343.759 "/>
    <polygon style="fill: none; fill-opacity:0; stroke-width: 2; stroke: #000000" points="570.829,353.767 565.814,343.774 570.818,346.267 575.814,343.759 "/>
    <polygon style="fill: #000000" points="570.603,200.552 575.617,210.545 570.614,208.052 565.617,210.56 "/>
    <polygon style="fill: none; fill-opacity:0; stroke-width: 2; stroke: #000000" points="570.603,200.552 575.617,210.545 570.614,208.052 565.617,210.56 "/>
  </g>
  <g>
    <path style="fill: #b7b79d" d="M 680 246.121 L 680,322.206 L 724.97,322.206 L 724.97,246.121 L 680,246.121z"/>
    <path style="fill: none; fill-opacity:0; stroke-width: 0.02; stroke: #494936" d="M 680 246.121 L 680,322.206 L 724.97,322.206 L 724.97,246.121 L 680,246.121"/>
    <path style="fill: #c9c9b6" d="M 680 246.121 L 686.094,240 L 731.051,240 L 724.97,246.121 L 680,246.121z"/>
    <path style="fill: none; fill-opacity:0; stroke-width: 0.02; stroke: #494936" d="M 680 246.121 L 686.094,240 L 730.755,240"/>
    <path style="fill: none; fill-opacity:0; stroke-width: 0.02; stroke: #494936" d="M 730.755 240.309 L 724.97,246.121 L 680,246.121"/>
    <path style="fill: #c9c9b6" d="M 682.771 250.546 L 703.312,250.546 L 703.312,260.528 L 682.771,260.528 L 682.771,250.546z"/>
    <path style="fill: none; fill-opacity:0; stroke-width: 0.02; stroke: #626248" d="M 682.771 250.546 L 703.299,250.546 L 703.299,260.514 L 682.771,260.514 L 682.771,250.546"/>
    <path style="fill: none; fill-opacity:0; stroke-width: 0.6; stroke: #ecece7" d="M 685.542 255.551 L 699.949,255.551"/>
    <path style="fill: #7a7a5a" d="M 724.97 322.206 L 731.051,316.071 L 731.051,240 L 724.97,246.121 L 724.97,322.206z"/>
    <path style="fill: none; fill-opacity:0; stroke-width: 0.02; stroke: #494936" d="M 724.97 322.206 L 730.755,316.381"/>
    <path style="fill: none; fill-opacity:0; stroke-width: 0.02; stroke: #494936" d="M 730.755 240.309 L 724.97,246.121 L 724.97,322.206"/>
    <path style="fill: none; fill-opacity:0; stroke-width: 0.6; stroke: #ecece7" d="M 680.565 317.188 L 724.957,317.188"/>
    <path style="fill: none; fill-opacity:0; stroke-width: 0.6; stroke: #000000" d="M 680.565 276.657 L 724.957,276.657"/>
    <path style="fill: none; fill-opacity:0; stroke-width: 0.6; stroke: #494936" d="M 680 316.636 L 724.916,316.636"/>
    <path style="fill: none; fill-opacity:0; stroke-width: 0.6; stroke: #000000" d="M 680 276.092 L 724.916,276.092"/>
    <path style="fill: none; fill-opacity:0; stroke-width: 0.02; stroke: #ecece7" d="M 682.771 259.99 L 682.771,250.546 L 702.747,250.546"/>
  </g>
  <g>
    <path style="fill: #b7b79d" d="M 660 266.575 L 660,348.308 L 708.309,348.308 L 708.309,266.575 L 660,266.575z"/>
    <path style="fill: none; fill-opacity:0; stroke-width: 0.02; stroke: #494936" d="M 660 266.575 L 660,348.308 L 708.309,348.308 L 708.309,266.575 L 660,266.575"/>
    <path style="fill: #c9c9b6" d="M 660 266.575 L 666.546,260 L 714.84,260 L 708.309,266.575 L 660,266.575z"/>
    <path style="fill: none; fill-opacity:0; stroke-width: 0.02; stroke: #494936" d="M 660 266.575 L 666.546,260 L 714.523,260"/>
    <path style="fill: none; fill-opacity:0; stroke-width: 0.02; stroke: #494936" d="M 714.523 260.332 L 708.309,266.575 L 660,266.575"/>
    <path style="fill: #c9c9b6" d="M 662.977 271.329 L 685.043,271.329 L 685.043,282.052 L 662.977,282.052 L 662.977,271.329z"/>
    <path style="fill: none; fill-opacity:0; stroke-width: 0.02; stroke: #626248" d="M 662.977 271.329 L 685.029,271.329 L 685.029,282.037 L 662.977,282.037 L 662.977,271.329"/>
    <path style="fill: none; fill-opacity:0; stroke-width: 0.6; stroke: #ecece7" d="M 665.954 276.705 L 681.43,276.705"/>
    <path style="fill: #7a7a5a" d="M 708.309 348.308 L 714.84,341.719 L 714.84,260 L 708.309,266.575 L 708.309,348.308z"/>
    <path style="fill: none; fill-opacity:0; stroke-width: 0.02; stroke: #494936" d="M 708.309 348.308 L 714.523,342.051"/>
    <path style="fill: none; fill-opacity:0; stroke-width: 0.02; stroke: #494936" d="M 714.523 260.332 L 708.309,266.575 L 708.309,348.308"/>
    <path style="fill: none; fill-opacity:0; stroke-width: 0.6; stroke: #ecece7" d="M 660.607 342.918 L 708.294,342.918"/>
    <path style="fill: none; fill-opacity:0; stroke-width: 0.6; stroke: #000000" d="M 660.607 299.378 L 708.294,299.378"/>
    <path style="fill: none; fill-opacity:0; stroke-width: 0.6; stroke: #494936" d="M 660 342.326 L 708.251,342.326"/>
    <path style="fill: none; fill-opacity:0; stroke-width: 0.6; stroke: #000000" d="M 660 298.771 L 708.251,298.771"/>
    <path style="fill: none; fill-opacity:0; stroke-width: 0.02; stroke: #ecece7" d="M 662.977 281.474 L 662.977,271.329 L 684.436,271.329"/>
  </g>
  <text font-size="12.8" style="fill: #000000;text-anchor:start;font-family:sans-serif;font-style:normal;font-weight:normal" x="660" y="360">
    <tspan x="660" y="360">slave</tspan>
  </text>
  <g>
    <path style="fill: #0078aa" d="M 440.973 165.334 L 440.922,164.798 L 440.803,164.27 L 440.607,163.733 L 440.343,163.205 L 440.002,162.695 L 439.576,162.175 L 439.074,161.673 L 438.503,161.179 L 437.856,160.693 L 437.141,160.225 L 436.34,159.757 L 435.497,159.305 L 434.586,158.879 L 433.624,158.471 L 432.576,158.07 L 431.495,157.687 L 430.345,157.33 L 429.145,156.997 L 427.893,156.682 L 426.615,156.384 L 425.27,156.112 L 423.916,155.873 L 422.494,155.643 L 421.08,155.431 L 419.598,155.269 L 418.117,155.116 L 416.618,155.005 L 415.102,154.92 L 413.561,154.843 L 412.028,154.792 L 410.478,154.792 L 410.478,154.792 L 408.945,154.792 L 407.395,154.843 L 405.862,154.92 L 404.347,155.005 L 402.848,155.116 L 401.366,155.269 L 399.893,155.431 L 398.454,155.643 L 397.049,155.873 L 395.686,156.112 L 394.358,156.384 L 393.072,156.682 L 391.811,156.997 L 390.628,157.33 L 389.47,157.687 L 388.397,158.07 L 387.341,158.471 L 386.378,158.879 L 385.459,159.305 L 384.616,159.757 L 383.824,160.225 L 383.108,160.693 L 382.461,161.179 L 381.899,161.673 L 381.388,162.175 L 380.962,162.695 L 380.63,163.205 L 380.349,163.733 L 380.162,164.27 L 380.034,164.798 L 380,165.334 L 380,165.334 L 380.034,165.862 L 380.162,166.399 L 380.349,166.927 L 380.63,167.463 L 380.962,167.983 L 381.388,168.502 L 381.899,169.005 L 382.461,169.499 L 383.108,169.984 L 383.824,170.444 L 384.616,170.921 L 385.459,171.372 L 386.378,171.798 L 387.341,172.198 L 388.397,172.607 L 389.47,172.99 L 390.628,173.348 L 391.811,173.68 L 393.072,173.995 L 394.358,174.293 L 395.686,174.566 L 397.049,174.804 L 398.454,175.034 L 399.893,175.238 L 401.366,175.409 L 402.848,175.553 L 404.347,175.664 L 405.862,175.766 L 407.395,175.834 L 408.945,175.877 L 410.478,175.885 L 410.478,175.885 L 412.028,175.877 L 413.561,175.834 L 415.102,175.766 L 416.618,175.664 L 418.117,175.553 L 419.598,175.409 L 421.08,175.238 L 422.494,175.034 L 423.916,174.804 L 425.27,174.566 L 426.615,174.293 L 427.893,173.995 L 429.145,173.68 L 430.345,173.348 L 431.495,172.99 L 432.576,172.607 L 433.624,172.198 L 434.586,171.798 L 435.497,171.372 L 436.34,170.921 L 437.141,170.444 L 437.856,169.984 L 438.503,169.499 L 439.074,169.005 L 439.576,168.502 L 440.002,167.983 L 440.343,167.463 L 440.607,166.927 L 440.803,166.399 L 440.922,165.862 L 440.973,165.334z"/>
    <path style="fill: none; fill-opacity:0; stroke-width: 0.02; stroke: #aae6ff" d="M 440.607 165.173 L 440.573,164.636 L 440.462,164.108 L 440.266,163.606 L 440.011,163.095 L 439.636,162.567 L 439.21,162.064 L 438.742,161.579 L 438.154,161.077 L 437.507,160.608 L 436.809,160.14 L 436.017,159.688 L 435.174,159.254 L 434.28,158.828 L 433.317,158.411 L 432.27,158.028 L 431.188,157.662 L 430.039,157.313 L 428.864,156.972 L 427.62,156.657 L 426.334,156.376 L 425.006,156.103 L 423.652,155.873 L 422.264,155.643 L 420.842,155.456 L 419.377,155.286 L 417.904,155.141 L 416.413,155.005 L 414.906,154.928 L 413.382,154.86 L 411.832,154.817 L 410.308,154.792 L 410.308,154.792 L 408.766,154.817 L 407.233,154.86 L 405.709,154.928 L 404.193,155.005 L 402.703,155.141 L 401.238,155.286 L 399.782,155.456 L 398.343,155.643 L 396.946,155.873 L 395.609,156.103 L 394.264,156.376 L 392.987,156.657 L 391.76,156.972 L 390.568,157.313 L 389.427,157.662 L 388.337,158.028 L 387.298,158.411 L 386.344,158.828 L 385.425,159.254 L 384.581,159.688 L 383.807,160.14 L 383.091,160.608 L 382.453,161.077 L 381.882,161.579 L 381.388,162.064 L 380.962,162.567 L 380.613,163.095 L 380.341,163.606 L 380.136,164.108 L 380.034,164.636 L 380,165.173 L 380,165.173 L 380.034,165.701 L 380.136,166.22 L 380.341,166.74 L 380.613,167.25 L 380.962,167.778 L 381.388,168.272 L 381.882,168.766 L 382.453,169.26 L 383.091,169.729 L 383.807,170.205 L 384.581,170.657 L 385.425,171.083 L 386.344,171.508 L 387.298,171.926 L 388.337,172.317 L 389.427,172.675 L 390.568,173.033 L 391.76,173.365 L 392.987,173.671 L 394.264,173.969 L 395.609,174.242 L 396.946,174.472 L 398.343,174.702 L 399.782,174.889 L 401.238,175.059 L 402.703,175.196 L 404.193,175.323 L 405.709,175.409 L 407.233,175.477 L 408.766,175.519 L 410.308,175.528 L 410.308,175.528 L 411.832,175.519 L 413.382,175.477 L 414.906,175.409 L 416.413,175.323 L 417.904,175.196 L 419.377,175.059 L 420.842,174.889 L 422.264,174.702 L 423.652,174.472 L 425.006,174.242 L 426.334,173.969 L 427.62,173.671 L 428.864,173.365 L 430.039,173.033 L 431.188,172.675 L 432.27,172.317 L 433.317,171.926 L 434.28,171.508 L 435.174,171.083 L 436.017,170.657 L 436.809,170.205 L 437.507,169.729 L 438.154,169.26 L 438.742,168.766 L 439.21,168.272 L 439.636,167.778 L 440.011,167.25 L 440.266,166.74 L 440.462,166.22 L 440.573,165.701 L 440.607,165.173"/>
    <path style="fill: #0078aa" d="M 380 150.738 L 380,165.539 L 440.607,165.539 L 440.607,150.738 L 380,150.738z"/>
    <path style="fill: #00b4ff" d="M 440.973 150.534 L 440.922,149.998 L 440.803,149.47 L 440.607,148.942 L 440.343,148.405 L 440.002,147.894 L 439.576,147.383 L 439.074,146.881 L 438.503,146.37 L 437.856,145.893 L 437.141,145.416 L 436.34,144.948 L 435.497,144.513 L 434.586,144.088 L 433.624,143.67 L 432.576,143.27 L 431.495,142.895 L 430.345,142.538 L 429.145,142.206 L 427.893,141.891 L 426.615,141.592 L 425.27,141.32 L 423.916,141.082 L 422.494,140.843 L 421.08,140.639 L 419.598,140.477 L 418.117,140.332 L 416.618,140.213 L 415.102,140.119 L 413.561,140.051 L 412.028,140 L 410.478,140 L 410.478,140 L 408.945,140 L 407.395,140.051 L 405.862,140.119 L 404.347,140.213 L 402.848,140.332 L 401.366,140.477 L 399.893,140.639 L 398.454,140.843 L 397.049,141.082 L 395.686,141.32 L 394.358,141.592 L 393.072,141.891 L 391.811,142.206 L 390.628,142.538 L 389.47,142.895 L 388.397,143.27 L 387.341,143.67 L 386.378,144.088 L 385.459,144.513 L 384.616,144.948 L 383.824,145.416 L 383.108,145.893 L 382.461,146.37 L 381.899,146.881 L 381.388,147.383 L 380.962,147.894 L 380.63,148.405 L 380.349,148.942 L 380.162,149.47 L 380.034,149.998 L 380,150.534 L 380,150.534 L 380.034,151.071 L 380.162,151.598 L 380.349,152.135 L 380.63,152.654 L 380.962,153.174 L 381.388,153.676 L 381.899,154.187 L 382.461,154.69 L 383.108,155.167 L 383.824,155.643 L 384.616,156.112 L 385.459,156.546 L 386.378,156.989 L 387.341,157.398 L 388.397,157.798 L 389.47,158.173 L 390.628,158.522 L 391.811,158.871 L 393.072,159.186 L 394.358,159.476 L 395.686,159.748 L 397.049,159.995 L 398.454,160.225 L 399.893,160.421 L 401.366,160.591 L 402.848,160.736 L 404.347,160.855 L 405.862,160.949 L 407.395,161.017 L 408.945,161.06 L 410.478,161.077 L 410.478,161.077 L 412.028,161.06 L 413.561,161.017 L 415.102,160.949 L 416.618,160.855 L 418.117,160.736 L 419.598,160.591 L 421.08,160.421 L 422.494,160.225 L 423.916,159.995 L 425.27,159.748 L 426.615,159.476 L 427.893,159.186 L 429.145,158.871 L 430.345,158.522 L 431.495,158.173 L 432.576,157.798 L 433.624,157.398 L 434.586,156.989 L 435.497,156.546 L 436.34,156.112 L 437.141,155.643 L 437.856,155.167 L 438.503,154.69 L 439.074,154.187 L 439.576,153.676 L 440.002,153.174 L 440.343,152.654 L 440.607,152.135 L 440.803,151.598 L 440.922,151.071 L 440.973,150.534z"/>
    <path style="fill: none; fill-opacity:0; stroke-width: 0.02; stroke: #aae6ff" d="M 440.607 150.355 L 440.573,149.827 L 440.462,149.308 L 440.266,148.78 L 440.011,148.277 L 439.636,147.749 L 439.21,147.255 L 438.742,146.753 L 438.154,146.268 L 437.507,145.799 L 436.809,145.322 L 436.017,144.871 L 435.174,144.437 L 434.28,144.011 L 433.317,143.602 L 432.27,143.21 L 431.188,142.844 L 430.039,142.495 L 428.864,142.163 L 427.62,141.856 L 426.334,141.558 L 425.006,141.277 L 423.652,141.056 L 422.264,140.826 L 420.842,140.639 L 419.377,140.468 L 417.904,140.332 L 416.413,140.204 L 414.906,140.119 L 413.382,140.051 L 411.832,140 L 410.308,140 L 410.308,140 L 408.766,140 L 407.233,140.051 L 405.709,140.119 L 404.193,140.204 L 402.703,140.332 L 401.238,140.468 L 399.782,140.639 L 398.343,140.826 L 396.946,141.056 L 395.609,141.277 L 394.264,141.558 L 392.987,141.856 L 391.76,142.163 L 390.568,142.495 L 389.427,142.844 L 388.337,143.21 L 387.298,143.602 L 386.344,144.011 L 385.425,144.437 L 384.581,144.871 L 383.807,145.322 L 383.091,145.799 L 382.453,146.268 L 381.882,146.753 L 381.388,147.255 L 380.962,147.749 L 380.613,148.277 L 380.341,148.78 L 380.136,149.308 L 380.034,149.827 L 380,150.355 L 380,150.355 L 380.034,150.892 L 380.136,151.403 L 380.341,151.922 L 380.613,152.433 L 380.962,152.961 L 381.388,153.463 L 381.882,153.94 L 382.453,154.443 L 383.091,154.92 L 383.807,155.379 L 384.581,155.839 L 385.425,156.274 L 386.344,156.699 L 387.298,157.108 L 388.337,157.5 L 389.427,157.866 L 390.568,158.215 L 391.76,158.547 L 392.987,158.871 L 394.264,159.152 L 395.609,159.424 L 396.946,159.654 L 398.343,159.884 L 399.782,160.063 L 401.238,160.242 L 402.703,160.387 L 404.193,160.515 L 405.709,160.6 L 407.233,160.668 L 408.766,160.702 L 410.308,160.727 L 410.308,160.727 L 411.832,160.702 L 413.382,160.668 L 414.906,160.6 L 416.413,160.515 L 417.904,160.387 L 419.377,160.242 L 420.842,160.063 L 422.264,159.884 L 423.652,159.654 L 425.006,159.424 L 426.334,159.152 L 427.62,158.871 L 428.864,158.547 L 430.039,158.215 L 431.188,157.866 L 432.27,157.5 L 433.317,157.108 L 434.28,156.699 L 435.174,156.274 L 436.017,155.839 L 436.809,155.379 L 437.507,154.92 L 438.154,154.443 L 438.742,153.94 L 439.21,153.463 L 439.636,152.961 L 440.011,152.433 L 440.266,151.922 L 440.462,151.403 L 440.573,150.892 L 440.607,150.355"/>
    <path style="fill: none; fill-opacity:0; stroke-width: 0.02; stroke: #aae6ff" d="M 380 150.355 L 380,165.139"/>
    <path style="fill: none; fill-opacity:0; stroke-width: 0.02; stroke: #aae6ff" d="M 440.607 150.355 L 440.607,165.139"/>
    <path style="fill: #ffffff" d="M 399.229 147.026 L 400.685,153.319 L 401.434,153.319 L 402.541,149.623 L 403.648,153.319 L 404.389,153.319 L 405.871,147.026 L 404.772,147.026 L 404.023,150.738 L 402.916,147.026 L 402.167,147.026 L 401.077,150.738 L 399.944,147.026 L 399.229,147.026z"/>
    <path style="fill: none; fill-opacity:0; stroke-width: 0.02; stroke: #000000" d="M 399.229 147.026 L 400.685,153.319 L 401.434,153.319 L 402.541,149.623 L 403.648,153.319 L 404.389,153.319 L 405.871,147.026 L 404.772,147.026 L 404.023,150.738 L 402.916,147.026 L 402.167,147.026 L 401.077,150.738 L 399.944,147.026 L 399.229,147.026"/>
    <path style="fill: #ffffff" d="M 406.603 147.026 L 408.477,153.319 L 409.192,153.319 L 410.308,149.623 L 411.406,153.319 L 412.147,153.319 L 413.637,147.026 L 412.53,147.026 L 411.789,150.738 L 410.665,147.026 L 409.933,147.026 L 408.826,150.738 L 407.71,147.026 L 406.603,147.026z"/>
    <path style="fill: none; fill-opacity:0; stroke-width: 0.02; stroke: #000000" d="M 406.603 147.026 L 408.477,153.319 L 409.192,153.319 L 410.308,149.623 L 411.406,153.319 L 412.147,153.319 L 413.637,147.026 L 412.53,147.026 L 411.789,150.738 L 410.665,147.026 L 409.933,147.026 L 408.826,150.738 L 407.71,147.026 L 406.603,147.026"/>
    <path style="fill: #ffffff" d="M 414.378 147.026 L 415.851,153.319 L 416.95,153.319 L 418.074,149.623 L 419.173,153.319 L 419.922,153.319 L 421.404,147.026 L 420.288,147.026 L 419.547,150.738 L 418.432,147.026 L 417.691,147.026 L 416.592,150.738 L 415.46,147.026 L 414.378,147.026z"/>
    <path style="fill: none; fill-opacity:0; stroke-width: 0.02; stroke: #000000" d="M 414.378 147.026 L 415.851,153.319 L 416.95,153.319 L 418.074,149.623 L 419.173,153.319 L 419.922,153.319 L 421.404,147.026 L 420.288,147.026 L 419.547,150.738 L 418.432,147.026 L 417.691,147.026 L 416.592,150.738 L 415.46,147.026 L 414.378,147.026"/>
    <path style="fill: #ffffff" d="M 396.623 142.589 L 390.347,144.811 L 396.623,147.392 L 396.623,145.918 L 430.252,145.918 L 430.252,143.696 L 396.623,143.696 L 396.623,142.589z"/>
    <path style="fill: #000000" d="M 396.623 142.955 L 430.252,142.955 L 430.252,143.696 L 396.623,143.696 L 396.623,142.955z"/>
    <path style="fill: #ffffff" d="M 424.342 154.068 L 430.635,156.282 L 424.342,158.496 L 424.342,157.032 L 389.248,157.032 L 389.248,155.167 L 424.342,155.167 L 424.342,154.068z"/>
    <path style="fill: #000000" d="M 424.342 154.068 L 430.635,156.282 L 431.367,155.907 L 424.342,153.319 L 424.342,154.068z"/>
    <path style="fill: #000000" d="M 424.342 154.417 L 389.248,154.417 L 389.248,155.167 L 424.342,155.167 L 424.342,154.417z"/>
    <path style="fill: #000000" d="M 396.623 142.589 L 390.347,144.811 L 389.597,144.437 L 396.623,142.214 L 396.623,142.589z"/>
  </g>
  <g>
    <path style="fill: #a5a585" d="M 453.985 410.189 L 453.926,409.428 L 453.759,408.68 L 453.474,407.932 L 453.082,407.196 L 452.595,406.459 L 451.99,405.735 L 451.277,405.022 L 450.458,404.321 L 449.531,403.633 L 448.51,402.979 L 447.393,402.326 L 446.194,401.685 L 444.876,401.079 L 443.486,400.497 L 442.013,399.939 L 440.446,399.404 L 438.818,398.906 L 437.108,398.431 L 435.339,397.991 L 433.486,397.575 L 431.597,397.184 L 429.638,396.839 L 427.631,396.507 L 425.6,396.233 L 423.509,395.996 L 421.383,395.794 L 419.246,395.616 L 417.072,395.497 L 414.887,395.39 L 412.69,395.319 L 410.493,395.319 L 410.493,395.319 L 408.283,395.319 L 406.086,395.39 L 403.901,395.497 L 401.727,395.616 L 399.59,395.794 L 397.464,395.996 L 395.385,396.233 L 393.343,396.507 L 391.335,396.839 L 389.376,397.184 L 387.487,397.575 L 385.646,397.991 L 383.877,398.431 L 382.167,398.906 L 380.528,399.404 L 378.96,399.939 L 377.499,400.497 L 376.098,401.079 L 374.791,401.685 L 373.58,402.326 L 372.463,402.979 L 371.442,403.633 L 370.516,404.321 L 369.696,405.022 L 368.983,405.735 L 368.378,406.459 L 367.891,407.196 L 367.499,407.932 L 367.214,408.68 L 367.059,409.428 L 367,410.189 L 367,410.189 L 367.059,410.949 L 367.214,411.685 L 367.499,412.445 L 367.891,413.181 L 368.378,413.918 L 368.983,414.642 L 369.696,415.355 L 370.516,416.056 L 371.442,416.733 L 372.463,417.398 L 373.58,418.051 L 374.791,418.692 L 376.098,419.298 L 377.499,419.88 L 378.96,420.438 L 380.528,420.973 L 382.167,421.471 L 383.877,421.946 L 385.646,422.386 L 387.487,422.802 L 389.376,423.194 L 391.335,423.538 L 393.343,423.859 L 395.385,424.144 L 397.464,424.381 L 399.59,424.583 L 401.727,424.749 L 403.901,424.88 L 406.086,424.975 L 408.283,425.046 L 410.493,425.058 L 410.493,425.058 L 412.69,425.046 L 414.887,424.975 L 417.072,424.88 L 419.246,424.749 L 421.383,424.583 L 423.509,424.381 L 425.6,424.144 L 427.631,423.859 L 429.638,423.538 L 431.597,423.194 L 433.486,422.802 L 435.339,422.386 L 437.108,421.946 L 438.818,421.471 L 440.446,420.973 L 442.013,420.438 L 443.486,419.88 L 444.876,419.298 L 446.194,418.692 L 447.393,418.051 L 448.51,417.398 L 449.531,416.733 L 450.458,416.056 L 451.277,415.355 L 451.99,414.642 L 452.595,413.918 L 453.082,413.181 L 453.474,412.445 L 453.759,411.685 L 453.926,410.949 L 453.985,410.189z"/>
    <path style="fill: none; fill-opacity:0; stroke-width: 0.02; stroke: #494936" d="M 453.474 409.951 L 453.415,409.191 L 453.261,408.466 L 452.987,407.73 L 452.607,407.006 L 452.097,406.269 L 451.479,405.568 L 450.802,404.856 L 449.971,404.191 L 449.056,403.514 L 448.047,402.849 L 446.93,402.219 L 445.731,401.59 L 444.436,400.996 L 443.07,400.402 L 441.574,399.868 L 440.018,399.345 L 438.391,398.846 L 436.704,398.383 L 434.947,397.956 L 433.118,397.54 L 431.217,397.172 L 429.281,396.827 L 427.286,396.507 L 425.267,396.233 L 423.201,395.996 L 421.075,395.806 L 418.949,395.616 L 416.787,395.509 L 414.626,395.414 L 412.417,395.355 L 410.231,395.319 L 410.231,395.319 L 408.046,395.355 L 405.861,395.414 L 403.675,395.509 L 401.537,395.616 L 399.4,395.806 L 397.286,395.996 L 395.207,396.233 L 393.176,396.507 L 391.193,396.827 L 389.257,397.172 L 387.357,397.54 L 385.528,397.956 L 383.782,398.383 L 382.072,398.846 L 380.433,399.345 L 378.889,399.868 L 377.416,400.402 L 376.05,400.996 L 374.744,401.59 L 373.532,402.219 L 372.44,402.849 L 371.43,403.514 L 370.492,404.191 L 369.684,404.856 L 368.983,405.568 L 368.378,406.269 L 367.879,407.006 L 367.487,407.73 L 367.214,408.466 L 367.059,409.191 L 367,409.951 L 367,409.951 L 367.059,410.687 L 367.214,411.412 L 367.487,412.16 L 367.879,412.885 L 368.378,413.609 L 368.983,414.322 L 369.684,415.022 L 370.492,415.699 L 371.43,416.364 L 372.44,417.041 L 373.532,417.683 L 374.744,418.288 L 376.05,418.894 L 377.416,419.476 L 378.889,420.022 L 380.433,420.545 L 382.072,421.032 L 383.782,421.507 L 385.528,421.935 L 387.357,422.35 L 389.257,422.73 L 391.193,423.063 L 393.176,423.372 L 395.207,423.645 L 397.286,423.882 L 399.4,424.084 L 401.537,424.262 L 403.675,424.381 L 405.861,424.476 L 408.046,424.536 L 410.231,424.559 L 410.231,424.559 L 412.417,424.536 L 414.626,424.476 L 416.787,424.381 L 418.949,424.262 L 421.075,424.084 L 423.201,423.882 L 425.267,423.645 L 427.286,423.372 L 429.281,423.063 L 431.217,422.73 L 433.118,422.35 L 434.947,421.935 L 436.704,421.507 L 438.391,421.032 L 440.018,420.545 L 441.574,420.022 L 443.07,419.476 L 444.436,418.894 L 445.731,418.288 L 446.93,417.683 L 448.047,417.041 L 449.056,416.364 L 449.971,415.699 L 450.802,415.022 L 451.479,414.322 L 452.097,413.609 L 452.607,412.885 L 452.987,412.16 L 453.261,411.412 L 453.415,410.687 L 453.474,409.951"/>
    <path style="fill: #a5a585" d="M 367 379.131 L 367,410.45 L 453.474,410.45 L 453.474,379.131 L 367,379.131z"/>
    <path style="fill: #c9c9b6" d="M 453.985 378.87 L 453.926,378.098 L 453.759,377.349 L 453.474,376.613 L 453.082,375.877 L 452.595,375.128 L 451.99,374.404 L 451.277,373.68 L 450.458,373.003 L 449.531,372.326 L 448.51,371.637 L 447.393,371.007 L 446.194,370.366 L 444.876,369.748 L 443.486,369.178 L 442.013,368.62 L 440.446,368.074 L 438.818,367.575 L 437.108,367.112 L 435.339,366.66 L 433.486,366.245 L 431.597,365.865 L 429.638,365.52 L 427.631,365.2 L 425.6,364.915 L 423.509,364.677 L 421.383,364.475 L 419.246,364.309 L 417.072,364.178 L 414.887,364.071 L 412.69,364.012 L 410.493,364 L 410.493,364 L 408.283,364.012 L 406.086,364.071 L 403.901,364.178 L 401.727,364.309 L 399.59,364.475 L 397.464,364.677 L 395.385,364.915 L 393.343,365.2 L 391.335,365.52 L 389.376,365.865 L 387.487,366.245 L 385.646,366.66 L 383.877,367.112 L 382.167,367.575 L 380.528,368.074 L 378.96,368.62 L 377.499,369.178 L 376.098,369.748 L 374.791,370.366 L 373.58,371.007 L 372.463,371.637 L 371.442,372.326 L 370.516,373.003 L 369.696,373.68 L 368.983,374.404 L 368.378,375.128 L 367.891,375.877 L 367.499,376.613 L 367.214,377.349 L 367.059,378.098 L 367,378.87 L 367,378.87 L 367.059,379.618 L 367.214,380.378 L 367.499,381.102 L 367.891,381.863 L 368.378,382.587 L 368.983,383.323 L 369.696,384.036 L 370.516,384.725 L 371.442,385.414 L 372.463,386.079 L 373.58,386.732 L 374.791,387.361 L 376.098,387.967 L 377.499,388.549 L 378.96,389.119 L 380.528,389.642 L 382.167,390.153 L 383.877,390.628 L 385.646,391.067 L 387.487,391.483 L 389.376,391.875 L 391.335,392.207 L 393.343,392.54 L 395.385,392.813 L 397.464,393.05 L 399.59,393.264 L 401.727,393.419 L 403.901,393.561 L 406.086,393.656 L 408.283,393.716 L 410.493,393.739 L 410.493,393.739 L 412.69,393.716 L 414.887,393.656 L 417.072,393.561 L 419.246,393.419 L 421.383,393.264 L 423.509,393.05 L 425.6,392.813 L 427.631,392.54 L 429.638,392.207 L 431.597,391.875 L 433.486,391.483 L 435.339,391.067 L 437.108,390.628 L 438.818,390.153 L 440.446,389.642 L 442.013,389.119 L 443.486,388.549 L 444.876,387.967 L 446.194,387.361 L 447.393,386.732 L 448.51,386.079 L 449.531,385.414 L 450.458,384.725 L 451.277,384.036 L 451.99,383.323 L 452.595,382.587 L 453.082,381.863 L 453.474,381.102 L 453.759,380.378 L 453.926,379.618 L 453.985,378.87z"/>
    <path style="fill: none; fill-opacity:0; stroke-width: 0.02; stroke: #494936" d="M 453.474 378.632 L 453.415,377.872 L 453.261,377.148 L 452.987,376.423 L 452.607,375.687 L 452.097,374.938 L 451.479,374.238 L 450.802,373.561 L 449.971,372.86 L 449.056,372.195 L 448.047,371.518 L 446.93,370.9 L 445.731,370.271 L 444.436,369.665 L 443.07,369.107 L 441.574,368.549 L 440.018,368.038 L 438.391,367.539 L 436.704,367.064 L 434.947,366.625 L 433.118,366.221 L 431.217,365.853 L 429.281,365.508 L 427.286,365.2 L 425.267,364.915 L 423.201,364.677 L 421.075,364.475 L 418.949,364.309 L 416.787,364.178 L 416.063,364.143 L 404.4,364.143 L 403.675,364.178 L 401.537,364.309 L 399.4,364.475 L 397.286,364.677 L 395.207,364.915 L 393.176,365.2 L 391.193,365.508 L 389.257,365.853 L 387.357,366.221 L 385.528,366.625 L 383.782,367.064 L 382.072,367.539 L 380.433,368.038 L 378.889,368.549 L 377.416,369.107 L 376.05,369.665 L 374.744,370.271 L 373.532,370.9 L 372.44,371.518 L 371.43,372.195 L 370.492,372.86 L 369.684,373.561 L 368.983,374.238 L 368.378,374.938 L 367.879,375.687 L 367.487,376.423 L 367.214,377.148 L 367.059,377.872 L 367,378.632 L 367,378.632 L 367.059,379.357 L 367.214,380.105 L 367.487,380.841 L 367.879,381.566 L 368.378,382.29 L 368.983,383.003 L 369.684,383.692 L 370.492,384.392 L 371.43,385.057 L 372.44,385.723 L 373.532,386.364 L 374.744,386.97 L 376.05,387.563 L 377.416,388.157 L 378.889,388.704 L 380.433,389.214 L 382.072,389.701 L 383.782,390.176 L 385.528,390.604 L 387.357,391.02 L 389.257,391.411 L 391.193,391.72 L 393.176,392.053 L 395.207,392.314 L 397.286,392.563 L 399.4,392.777 L 401.537,392.944 L 403.675,393.074 L 405.861,393.157 L 408.046,393.205 L 410.231,393.24 L 410.231,393.24 L 412.417,393.205 L 414.626,393.157 L 416.787,393.074 L 418.949,392.944 L 421.075,392.777 L 423.201,392.563 L 425.267,392.314 L 427.286,392.053 L 429.281,391.72 L 431.217,391.411 L 433.118,391.02 L 434.947,390.604 L 436.704,390.176 L 438.391,389.701 L 440.018,389.214 L 441.574,388.704 L 443.07,388.157 L 444.436,387.563 L 445.731,386.97 L 446.93,386.364 L 448.047,385.723 L 449.056,385.057 L 449.971,384.392 L 450.802,383.692 L 451.479,383.003 L 452.097,382.29 L 452.607,381.566 L 452.987,380.841 L 453.261,380.105 L 453.415,379.357 L 453.474,378.632"/>
    <path style="fill: none; fill-opacity:0; stroke-width: 0.02; stroke: #000000" d="M 367 378.632 L 367,409.927"/>
    <path style="fill: none; fill-opacity:0; stroke-width: 0.02; stroke: #000000" d="M 453.474 378.632 L 453.474,409.927"/>
  </g>
  <g>
    <path style="fill: #a5a585" d="M 286.985 166.189 L 286.926,165.428 L 286.759,164.68 L 286.474,163.932 L 286.082,163.196 L 285.595,162.459 L 284.99,161.735 L 284.277,161.022 L 283.458,160.321 L 282.531,159.633 L 281.51,158.979 L 280.393,158.326 L 279.194,157.685 L 277.876,157.079 L 276.486,156.497 L 275.013,155.939 L 273.446,155.404 L 271.818,154.906 L 270.108,154.431 L 268.339,153.991 L 266.486,153.575 L 264.597,153.184 L 262.638,152.839 L 260.631,152.507 L 258.6,152.233 L 256.509,151.996 L 254.383,151.794 L 252.246,151.616 L 250.072,151.497 L 247.887,151.39 L 245.69,151.319 L 243.493,151.319 L 243.493,151.319 L 241.283,151.319 L 239.086,151.39 L 236.901,151.497 L 234.727,151.616 L 232.59,151.794 L 230.464,151.996 L 228.385,152.233 L 226.343,152.507 L 224.335,152.839 L 222.376,153.184 L 220.487,153.575 L 218.646,153.991 L 216.877,154.431 L 215.167,154.906 L 213.528,155.404 L 211.96,155.939 L 210.499,156.497 L 209.098,157.079 L 207.791,157.685 L 206.58,158.326 L 205.463,158.979 L 204.442,159.633 L 203.516,160.321 L 202.696,161.022 L 201.983,161.735 L 201.378,162.459 L 200.891,163.196 L 200.499,163.932 L 200.214,164.68 L 200.059,165.428 L 200,166.189 L 200,166.189 L 200.059,166.949 L 200.214,167.685 L 200.499,168.445 L 200.891,169.181 L 201.378,169.918 L 201.983,170.642 L 202.696,171.355 L 203.516,172.056 L 204.442,172.733 L 205.463,173.398 L 206.58,174.051 L 207.791,174.692 L 209.098,175.298 L 210.499,175.88 L 211.96,176.438 L 213.528,176.973 L 215.167,177.471 L 216.877,177.946 L 218.646,178.386 L 220.487,178.802 L 222.376,179.194 L 224.335,179.538 L 226.343,179.859 L 228.385,180.144 L 230.464,180.381 L 232.59,180.583 L 234.727,180.749 L 236.901,180.88 L 239.086,180.975 L 241.283,181.046 L 243.493,181.058 L 243.493,181.058 L 245.69,181.046 L 247.887,180.975 L 250.072,180.88 L 252.246,180.749 L 254.383,180.583 L 256.509,180.381 L 258.6,180.144 L 260.631,179.859 L 262.638,179.538 L 264.597,179.194 L 266.486,178.802 L 268.339,178.386 L 270.108,177.946 L 271.818,177.471 L 273.446,176.973 L 275.013,176.438 L 276.486,175.88 L 277.876,175.298 L 279.194,174.692 L 280.393,174.051 L 281.51,173.398 L 282.531,172.733 L 283.458,172.056 L 284.277,171.355 L 284.99,170.642 L 285.595,169.918 L 286.082,169.181 L 286.474,168.445 L 286.759,167.685 L 286.926,166.949 L 286.985,166.189z"/>
    <path style="fill: none; fill-opacity:0; stroke-width: 0.02; stroke: #494936" d="M 286.474 165.951 L 286.415,165.191 L 286.261,164.466 L 285.987,163.73 L 285.607,163.006 L 285.097,162.269 L 284.479,161.568 L 283.802,160.856 L 282.971,160.191 L 282.056,159.514 L 281.047,158.849 L 279.93,158.219 L 278.731,157.59 L 277.436,156.996 L 276.07,156.402 L 274.574,155.868 L 273.018,155.345 L 271.391,154.846 L 269.704,154.383 L 267.947,153.956 L 266.118,153.54 L 264.217,153.172 L 262.281,152.827 L 260.286,152.507 L 258.267,152.233 L 256.201,151.996 L 254.075,151.806 L 251.949,151.616 L 249.787,151.509 L 247.626,151.414 L 245.417,151.355 L 243.231,151.319 L 243.231,151.319 L 241.046,151.355 L 238.861,151.414 L 236.675,151.509 L 234.537,151.616 L 232.4,151.806 L 230.286,151.996 L 228.207,152.233 L 226.176,152.507 L 224.193,152.827 L 222.257,153.172 L 220.357,153.54 L 218.528,153.956 L 216.782,154.383 L 215.072,154.846 L 213.433,155.345 L 211.889,155.868 L 210.416,156.402 L 209.05,156.996 L 207.744,157.59 L 206.532,158.219 L 205.44,158.849 L 204.43,159.514 L 203.492,160.191 L 202.684,160.856 L 201.983,161.568 L 201.378,162.269 L 200.879,163.006 L 200.487,163.73 L 200.214,164.466 L 200.059,165.191 L 200,165.951 L 200,165.951 L 200.059,166.687 L 200.214,167.412 L 200.487,168.16 L 200.879,168.885 L 201.378,169.609 L 201.983,170.322 L 202.684,171.022 L 203.492,171.699 L 204.43,172.364 L 205.44,173.041 L 206.532,173.683 L 207.744,174.288 L 209.05,174.894 L 210.416,175.476 L 211.889,176.022 L 213.433,176.545 L 215.072,177.032 L 216.782,177.507 L 218.528,177.935 L 220.357,178.35 L 222.257,178.73 L 224.193,179.063 L 226.176,179.372 L 228.207,179.645 L 230.286,179.882 L 232.4,180.084 L 234.537,180.262 L 236.675,180.381 L 238.861,180.476 L 241.046,180.536 L 243.231,180.559 L 243.231,180.559 L 245.417,180.536 L 247.626,180.476 L 249.787,180.381 L 251.949,180.262 L 254.075,180.084 L 256.201,179.882 L 258.267,179.645 L 260.286,179.372 L 262.281,179.063 L 264.217,178.73 L 266.118,178.35 L 267.947,177.935 L 269.704,177.507 L 271.391,177.032 L 273.018,176.545 L 274.574,176.022 L 276.07,175.476 L 277.436,174.894 L 278.731,174.288 L 279.93,173.683 L 281.047,173.041 L 282.056,172.364 L 282.971,171.699 L 283.802,171.022 L 284.479,170.322 L 285.097,169.609 L 285.607,168.885 L 285.987,168.16 L 286.261,167.412 L 286.415,166.687 L 286.474,165.951"/>
    <path style="fill: #a5a585" d="M 200 135.131 L 200,166.45 L 286.474,166.45 L 286.474,135.131 L 200,135.131z"/>
    <path style="fill: #c9c9b6" d="M 286.985 134.87 L 286.926,134.098 L 286.759,133.349 L 286.474,132.613 L 286.082,131.877 L 285.595,131.128 L 284.99,130.404 L 284.277,129.68 L 283.458,129.003 L 282.531,128.326 L 281.51,127.637 L 280.393,127.007 L 279.194,126.366 L 277.876,125.748 L 276.486,125.178 L 275.013,124.62 L 273.446,124.074 L 271.818,123.575 L 270.108,123.112 L 268.339,122.66 L 266.486,122.245 L 264.597,121.865 L 262.638,121.52 L 260.631,121.2 L 258.6,120.915 L 256.509,120.677 L 254.383,120.475 L 252.246,120.309 L 250.072,120.178 L 247.887,120.071 L 245.69,120.012 L 243.493,120 L 243.493,120 L 241.283,120.012 L 239.086,120.071 L 236.901,120.178 L 234.727,120.309 L 232.59,120.475 L 230.464,120.677 L 228.385,120.915 L 226.343,121.2 L 224.335,121.52 L 222.376,121.865 L 220.487,122.245 L 218.646,122.66 L 216.877,123.112 L 215.167,123.575 L 213.528,124.074 L 211.96,124.62 L 210.499,125.178 L 209.098,125.748 L 207.791,126.366 L 206.58,127.007 L 205.463,127.637 L 204.442,128.326 L 203.516,129.003 L 202.696,129.68 L 201.983,130.404 L 201.378,131.128 L 200.891,131.877 L 200.499,132.613 L 200.214,133.349 L 200.059,134.098 L 200,134.87 L 200,134.87 L 200.059,135.618 L 200.214,136.378 L 200.499,137.102 L 200.891,137.863 L 201.378,138.587 L 201.983,139.323 L 202.696,140.036 L 203.516,140.725 L 204.442,141.414 L 205.463,142.079 L 206.58,142.732 L 207.791,143.361 L 209.098,143.967 L 210.499,144.549 L 211.96,145.119 L 213.528,145.642 L 215.167,146.153 L 216.877,146.628 L 218.646,147.067 L 220.487,147.483 L 222.376,147.875 L 224.335,148.207 L 226.343,148.54 L 228.385,148.813 L 230.464,149.05 L 232.59,149.264 L 234.727,149.419 L 236.901,149.561 L 239.086,149.656 L 241.283,149.716 L 243.493,149.739 L 243.493,149.739 L 245.69,149.716 L 247.887,149.656 L 250.072,149.561 L 252.246,149.419 L 254.383,149.264 L 256.509,149.05 L 258.6,148.813 L 260.631,148.54 L 262.638,148.207 L 264.597,147.875 L 266.486,147.483 L 268.339,147.067 L 270.108,146.628 L 271.818,146.153 L 273.446,145.642 L 275.013,145.119 L 276.486,144.549 L 277.876,143.967 L 279.194,143.361 L 280.393,142.732 L 281.51,142.079 L 282.531,141.414 L 283.458,140.725 L 284.277,140.036 L 284.99,139.323 L 285.595,138.587 L 286.082,137.863 L 286.474,137.102 L 286.759,136.378 L 286.926,135.618 L 286.985,134.87z"/>
    <path style="fill: none; fill-opacity:0; stroke-width: 0.02; stroke: #494936" d="M 286.474 134.632 L 286.415,133.872 L 286.261,133.148 L 285.987,132.423 L 285.607,131.687 L 285.097,130.938 L 284.479,130.238 L 283.802,129.561 L 282.971,128.86 L 282.056,128.195 L 281.047,127.518 L 279.93,126.9 L 278.731,126.271 L 277.436,125.665 L 276.07,125.107 L 274.574,124.549 L 273.018,124.038 L 271.391,123.539 L 269.704,123.064 L 267.947,122.625 L 266.118,122.221 L 264.217,121.853 L 262.281,121.508 L 260.286,121.2 L 258.267,120.915 L 256.201,120.677 L 254.075,120.475 L 251.949,120.309 L 249.787,120.178 L 249.063,120.143 L 237.4,120.143 L 236.675,120.178 L 234.537,120.309 L 232.4,120.475 L 230.286,120.677 L 228.207,120.915 L 226.176,121.2 L 224.193,121.508 L 222.257,121.853 L 220.357,122.221 L 218.528,122.625 L 216.782,123.064 L 215.072,123.539 L 213.433,124.038 L 211.889,124.549 L 210.416,125.107 L 209.05,125.665 L 207.744,126.271 L 206.532,126.9 L 205.44,127.518 L 204.43,128.195 L 203.492,128.86 L 202.684,129.561 L 201.983,130.238 L 201.378,130.938 L 200.879,131.687 L 200.487,132.423 L 200.214,133.148 L 200.059,133.872 L 200,134.632 L 200,134.632 L 200.059,135.357 L 200.214,136.105 L 200.487,136.841 L 200.879,137.566 L 201.378,138.29 L 201.983,139.003 L 202.684,139.692 L 203.492,140.392 L 204.43,141.057 L 205.44,141.723 L 206.532,142.364 L 207.744,142.97 L 209.05,143.563 L 210.416,144.157 L 211.889,144.704 L 213.433,145.214 L 215.072,145.701 L 216.782,146.176 L 218.528,146.604 L 220.357,147.02 L 222.257,147.411 L 224.193,147.72 L 226.176,148.053 L 228.207,148.314 L 230.286,148.563 L 232.4,148.777 L 234.537,148.944 L 236.675,149.074 L 238.861,149.157 L 241.046,149.205 L 243.231,149.24 L 243.231,149.24 L 245.417,149.205 L 247.626,149.157 L 249.787,149.074 L 251.949,148.944 L 254.075,148.777 L 256.201,148.563 L 258.267,148.314 L 260.286,148.053 L 262.281,147.72 L 264.217,147.411 L 266.118,147.02 L 267.947,146.604 L 269.704,146.176 L 271.391,145.701 L 273.018,145.214 L 274.574,144.704 L 276.07,144.157 L 277.436,143.563 L 278.731,142.97 L 279.93,142.364 L 281.047,141.723 L 282.056,141.057 L 282.971,140.392 L 283.802,139.692 L 284.479,139.003 L 285.097,138.29 L 285.607,137.566 L 285.987,136.841 L 286.261,136.105 L 286.415,135.357 L 286.474,134.632"/>
    <path style="fill: none; fill-opacity:0; stroke-width: 0.02; stroke: #000000" d="M 200 134.632 L 200,165.927"/>
    <path style="fill: none; fill-opacity:0; stroke-width: 0.02; stroke: #000000" d="M 286.474 134.632 L 286.474,165.927"/>
  </g>
  <g>
    <path style="fill: #b7b796" d="M 543 463.974 L 599.464,463.974 L 599.464,374.035 L 543,374.035 L 543,463.974z"/>
    <path style="fill: none; fill-opacity:0; stroke-width: 0.02; stroke: #494936" d="M 543 463.974 L 599.464,463.974 L 599.464,374.035 L 543,374.035 L 543,463.974"/>
    <path style="fill: #7a7a5a" d="M 599.464 374.031 L 599.464,463.974 L 617.495,445.943 L 617.495,356 L 599.464,374.031z"/>
    <path style="fill: none; fill-opacity:0; stroke-width: 0.02; stroke: #494936" d="M 599.464 374.031 L 599.464,463.974 L 617.495,445.943 L 617.495,356 L 599.464,374.031"/>
    <path style="fill: #c9c9b6" d="M 617.498 356 L 561.035,356 L 543.004,374.031 L 599.467,374.031 L 617.498,356z"/>
    <path style="fill: none; fill-opacity:0; stroke-width: 0.02; stroke: #494936" d="M 617.498 356 L 561.035,356 L 543.004,374.031 L 599.467,374.031 L 617.498,356"/>
    <path style="fill: #ffffff" d="M 569.786 442.24 C 569.786,444.464 564.994,446.273 559.086,446.273 C 553.175,446.273 548.379,444.468 548.379,442.24 C 548.379,440.009 553.175,438.2 559.086,438.2 C 564.994,438.2 569.786,440.006 569.786,442.24z"/>
    <path style="fill: none; fill-opacity:0; stroke-width: 0.02; stroke: #ffffff" d="M 569.786 442.24 C 569.786,444.464 564.994,446.273 559.086,446.273 C 553.175,446.273 548.379,444.468 548.379,442.24 C 548.379,440.009 553.175,438.2 559.086,438.2 C 564.994,438.2 569.786,440.006 569.786,442.24"/>
    <path style="fill: none; fill-opacity:0; stroke-width: 0.6; stroke-linecap: round; stroke-linejoin: round; stroke: #000000" d="M 569.786 442.24 C 569.786,444.464 564.994,446.273 559.086,446.273 C 553.175,446.273 548.379,444.468 548.379,442.24 C 548.379,440.009 553.175,438.2 559.086,438.2 C 564.994,438.2 569.786,440.006 569.786,442.24"/>
    <path style="fill: #000000" d="M 562.249 442.02 C 562.249,442.688 560.807,443.227 559.039,443.227 C 557.263,443.227 555.828,442.684 555.828,442.02 C 555.828,441.345 557.263,440.806 559.039,440.806 C 560.807,440.806 562.249,441.349 562.249,442.02z"/>
    <path style="fill: none; fill-opacity:0; stroke-width: 0.02; stroke: #000000" d="M 562.249 442.02 C 562.249,442.688 560.807,443.227 559.039,443.227 C 557.263,443.227 555.828,442.684 555.828,442.02 C 555.828,441.345 557.263,440.806 559.039,440.806 C 560.807,440.806 562.249,441.349 562.249,442.02"/>
    <path style="fill: #000000" d="M 562.249 439.819 C 562.249,440.486 560.807,441.026 559.039,441.026 C 557.263,441.026 555.828,440.483 555.828,439.819 C 555.828,439.147 557.263,438.608 559.039,438.608 C 560.807,438.608 562.249,439.151 562.249,439.819z"/>
    <path style="fill: none; fill-opacity:0; stroke-width: 0.02; stroke: #000000" d="M 562.249 439.819 C 562.249,440.486 560.807,441.026 559.039,441.026 C 557.263,441.026 555.828,440.483 555.828,439.819 C 555.828,439.147 557.263,438.608 559.039,438.608 C 560.807,438.608 562.249,439.151 562.249,439.819"/>
    <path style="fill: #ffffff" d="M 569.786 437.837 C 569.786,440.064 564.994,441.873 559.086,441.873 C 553.175,441.873 548.379,440.068 548.379,437.837 C 548.379,435.606 553.175,433.797 559.086,433.797 C 564.994,433.797 569.786,435.602 569.786,437.837z"/>
    <path style="fill: none; fill-opacity:0; stroke-width: 0.02; stroke: #ffffff" d="M 569.786 437.837 C 569.786,440.064 564.994,441.873 559.086,441.873 C 553.175,441.873 548.379,440.068 548.379,437.837 C 548.379,435.606 553.175,433.797 559.086,433.797 C 564.994,433.797 569.786,435.602 569.786,437.837"/>
    <path style="fill: none; fill-opacity:0; stroke-width: 0.6; stroke-linecap: round; stroke-linejoin: round; stroke: #000000" d="M 569.786 437.837 C 569.786,440.064 564.994,441.873 559.086,441.873 C 553.175,441.873 548.379,440.068 548.379,437.837 C 548.379,435.606 553.175,433.797 559.086,433.797 C 564.994,433.797 569.786,435.602 569.786,437.837"/>
    <path style="fill: #000000" d="M 562.249 437.617 C 562.249,438.285 560.807,438.824 559.039,438.824 C 557.263,438.824 555.828,438.281 555.828,437.617 C 555.828,436.945 557.263,436.402 559.039,436.402 C 560.807,436.402 562.249,436.945 562.249,437.617z"/>
    <path style="fill: none; fill-opacity:0; stroke-width: 0.02; stroke: #000000" d="M 562.249 437.617 C 562.249,438.285 560.807,438.824 559.039,438.824 C 557.263,438.824 555.828,438.281 555.828,437.617 C 555.828,436.945 557.263,436.402 559.039,436.402 C 560.807,436.402 562.249,436.945 562.249,437.617"/>
    <path style="fill: #000000" d="M 562.249 435.412 C 562.249,436.079 560.807,436.623 559.039,436.623 C 557.263,436.623 555.828,436.079 555.828,435.412 C 555.828,434.74 557.263,434.201 559.039,434.201 C 560.807,434.201 562.249,434.744 562.249,435.412z"/>
    <path style="fill: none; fill-opacity:0; stroke-width: 0.02; stroke: #000000" d="M 562.249 435.412 C 562.249,436.079 560.807,436.623 559.039,436.623 C 557.263,436.623 555.828,436.079 555.828,435.412 C 555.828,434.74 557.263,434.201 559.039,434.201 C 560.807,434.201 562.249,434.744 562.249,435.412"/>
    <path style="fill: #ffffff" d="M 569.786 433.43 C 569.786,435.657 564.994,437.466 559.086,437.466 C 553.175,437.466 548.379,435.661 548.379,433.43 C 548.379,431.199 553.175,429.39 559.086,429.39 C 564.994,429.39 569.786,431.196 569.786,433.43z"/>
    <path style="fill: none; fill-opacity:0; stroke-width: 0.02; stroke: #ffffff" d="M 569.786 433.43 C 569.786,435.657 564.994,437.466 559.086,437.466 C 553.175,437.466 548.379,435.661 548.379,433.43 C 548.379,431.199 553.175,429.39 559.086,429.39 C 564.994,429.39 569.786,431.196 569.786,433.43"/>
    <path style="fill: none; fill-opacity:0; stroke-width: 0.6; stroke-linecap: round; stroke-linejoin: round; stroke: #000000" d="M 569.786 433.43 C 569.786,435.657 564.994,437.466 559.086,437.466 C 553.175,437.466 548.379,435.661 548.379,433.43 C 548.379,431.199 553.175,429.39 559.086,429.39 C 564.994,429.39 569.786,431.196 569.786,433.43"/>
    <path style="fill: #000000" d="M 562.249 433.214 C 562.249,433.882 560.807,434.421 559.039,434.421 C 557.263,434.421 555.828,433.878 555.828,433.214 C 555.828,432.542 557.263,432.003 559.039,432.003 C 560.807,432.003 562.249,432.542 562.249,433.214z"/>
    <path style="fill: none; fill-opacity:0; stroke-width: 0.02; stroke: #000000" d="M 562.249 433.214 C 562.249,433.882 560.807,434.421 559.039,434.421 C 557.263,434.421 555.828,433.878 555.828,433.214 C 555.828,432.542 557.263,432.003 559.039,432.003 C 560.807,432.003 562.249,432.542 562.249,433.214"/>
    <path style="fill: #ffffff" d="M 569.786 424.627 C 569.786,426.851 564.994,428.66 559.086,428.66 C 553.175,428.66 548.379,426.855 548.379,424.627 C 548.379,422.397 553.175,420.588 559.086,420.588 C 564.994,420.588 569.786,422.393 569.786,424.627z"/>
    <path style="fill: none; fill-opacity:0; stroke-width: 0.02; stroke: #ffffff" d="M 569.786 424.627 C 569.786,426.851 564.994,428.66 559.086,428.66 C 553.175,428.66 548.379,426.855 548.379,424.627 C 548.379,422.397 553.175,420.588 559.086,420.588 C 564.994,420.588 569.786,422.393 569.786,424.627"/>
    <path style="fill: none; fill-opacity:0; stroke-width: 0.6; stroke-linecap: round; stroke-linejoin: round; stroke: #000000" d="M 569.786 424.627 C 569.786,426.851 564.994,428.66 559.086,428.66 C 553.175,428.66 548.379,426.855 548.379,424.627 C 548.379,422.397 553.175,420.588 559.086,420.588 C 564.994,420.588 569.786,422.393 569.786,424.627"/>
    <path style="fill: #000000" d="M 562.249 424.404 C 562.249,425.071 560.807,425.615 559.039,425.615 C 557.263,425.615 555.828,425.071 555.828,424.404 C 555.828,423.732 557.263,423.193 559.039,423.193 C 560.807,423.193 562.249,423.736 562.249,424.404z"/>
    <path style="fill: none; fill-opacity:0; stroke-width: 0.02; stroke: #000000" d="M 562.249 424.404 C 562.249,425.071 560.807,425.615 559.039,425.615 C 557.263,425.615 555.828,425.071 555.828,424.404 C 555.828,423.732 557.263,423.193 559.039,423.193 C 560.807,423.193 562.249,423.736 562.249,424.404"/>
    <path style="fill: #000000" d="M 562.249 422.206 C 562.249,422.874 560.807,423.413 559.039,423.413 C 557.263,423.413 555.828,422.87 555.828,422.206 C 555.828,421.534 557.263,420.995 559.039,420.995 C 560.807,420.995 562.249,421.534 562.249,422.206z"/>
    <path style="fill: none; fill-opacity:0; stroke-width: 0.02; stroke: #000000" d="M 562.249 422.206 C 562.249,422.874 560.807,423.413 559.039,423.413 C 557.263,423.413 555.828,422.87 555.828,422.206 C 555.828,421.534 557.263,420.995 559.039,420.995 C 560.807,420.995 562.249,421.534 562.249,422.206"/>
    <path style="fill: #ffffff" d="M 569.786 420.224 C 569.786,422.448 564.994,424.257 559.086,424.257 C 553.175,424.257 548.379,422.452 548.379,420.224 C 548.379,417.993 553.175,416.184 559.086,416.184 C 564.994,416.184 569.786,417.99 569.786,420.224z"/>
    <path style="fill: none; fill-opacity:0; stroke-width: 0.02; stroke: #ffffff" d="M 569.786 420.224 C 569.786,422.448 564.994,424.257 559.086,424.257 C 553.175,424.257 548.379,422.452 548.379,420.224 C 548.379,417.993 553.175,416.184 559.086,416.184 C 564.994,416.184 569.786,417.99 569.786,420.224"/>
    <path style="fill: none; fill-opacity:0; stroke-width: 0.6; stroke-linecap: round; stroke-linejoin: round; stroke: #000000" d="M 569.786 420.224 C 569.786,422.448 564.994,424.257 559.086,424.257 C 553.175,424.257 548.379,422.452 548.379,420.224 C 548.379,417.993 553.175,416.184 559.086,416.184 C 564.994,416.184 569.786,417.99 569.786,420.224"/>
    <path style="fill: #000000" d="M 562.249 420.004 C 562.249,420.672 560.807,421.211 559.039,421.211 C 557.263,421.211 555.828,420.668 555.828,420.004 C 555.828,419.329 557.263,418.79 559.039,418.79 C 560.807,418.79 562.249,419.333 562.249,420.004z"/>
    <path style="fill: none; fill-opacity:0; stroke-width: 0.02; stroke: #000000" d="M 562.249 420.004 C 562.249,420.672 560.807,421.211 559.039,421.211 C 557.263,421.211 555.828,420.668 555.828,420.004 C 555.828,419.329 557.263,418.79 559.039,418.79 C 560.807,418.79 562.249,419.333 562.249,420.004"/>
    <path style="fill: #000000" d="M 562.249 417.803 C 562.249,418.47 560.807,419.01 559.039,419.01 C 557.263,419.01 555.828,418.467 555.828,417.803 C 555.828,417.131 557.263,416.592 559.039,416.592 C 560.807,416.592 562.249,417.135 562.249,417.803z"/>
    <path style="fill: none; fill-opacity:0; stroke-width: 0.02; stroke: #000000" d="M 562.249 417.803 C 562.249,418.47 560.807,419.01 559.039,419.01 C 557.263,419.01 555.828,418.467 555.828,417.803 C 555.828,417.131 557.263,416.592 559.039,416.592 C 560.807,416.592 562.249,417.135 562.249,417.803"/>
    <path style="fill: #ffffff" d="M 569.786 415.821 C 569.786,418.048 564.994,419.857 559.086,419.857 C 553.175,419.857 548.379,418.052 548.379,415.821 C 548.379,413.59 553.175,411.781 559.086,411.781 C 564.994,411.781 569.786,413.586 569.786,415.821z"/>
    <path style="fill: none; fill-opacity:0; stroke-width: 0.02; stroke: #ffffff" d="M 569.786 415.821 C 569.786,418.048 564.994,419.857 559.086,419.857 C 553.175,419.857 548.379,418.052 548.379,415.821 C 548.379,413.59 553.175,411.781 559.086,411.781 C 564.994,411.781 569.786,413.586 569.786,415.821"/>
    <path style="fill: none; fill-opacity:0; stroke-width: 0.6; stroke-linecap: round; stroke-linejoin: round; stroke: #000000" d="M 569.786 415.821 C 569.786,418.048 564.994,419.857 559.086,419.857 C 553.175,419.857 548.379,418.052 548.379,415.821 C 548.379,413.59 553.175,411.781 559.086,411.781 C 564.994,411.781 569.786,413.586 569.786,415.821"/>
    <path style="fill: #000000" d="M 562.249 415.601 C 562.249,416.269 560.807,416.808 559.039,416.808 C 557.263,416.808 555.828,416.265 555.828,415.601 C 555.828,414.929 557.263,414.386 559.039,414.386 C 560.807,414.386 562.249,414.929 562.249,415.601z"/>
    <path style="fill: none; fill-opacity:0; stroke-width: 0.02; stroke: #000000" d="M 562.249 415.601 C 562.249,416.269 560.807,416.808 559.039,416.808 C 557.263,416.808 555.828,416.265 555.828,415.601 C 555.828,414.929 557.263,414.386 559.039,414.386 C 560.807,414.386 562.249,414.929 562.249,415.601"/>
    <path style="fill: #ffffff" d="M 569.786 407.011 C 569.786,409.238 564.994,411.047 559.086,411.047 C 553.175,411.047 548.379,409.242 548.379,407.011 C 548.379,404.784 553.175,402.975 559.086,402.975 C 564.994,402.975 569.786,404.78 569.786,407.011z"/>
    <path style="fill: none; fill-opacity:0; stroke-width: 0.02; stroke: #ffffff" d="M 569.786 407.011 C 569.786,409.238 564.994,411.047 559.086,411.047 C 553.175,411.047 548.379,409.242 548.379,407.011 C 548.379,404.784 553.175,402.975 559.086,402.975 C 564.994,402.975 569.786,404.78 569.786,407.011"/>
    <path style="fill: none; fill-opacity:0; stroke-width: 0.6; stroke-linecap: round; stroke-linejoin: round; stroke: #000000" d="M 569.786 407.011 C 569.786,409.238 564.994,411.047 559.086,411.047 C 553.175,411.047 548.379,409.242 548.379,407.011 C 548.379,404.784 553.175,402.975 559.086,402.975 C 564.994,402.975 569.786,404.78 569.786,407.011"/>
    <path style="fill: #000000" d="M 562.249 406.795 C 562.249,407.462 560.807,408.002 559.039,408.002 C 557.263,408.002 555.828,407.459 555.828,406.795 C 555.828,406.123 557.263,405.584 559.039,405.584 C 560.807,405.584 562.249,406.127 562.249,406.795z"/>
    <path style="fill: none; fill-opacity:0; stroke-width: 0.02; stroke: #000000" d="M 562.249 406.795 C 562.249,407.462 560.807,408.002 559.039,408.002 C 557.263,408.002 555.828,407.459 555.828,406.795 C 555.828,406.123 557.263,405.584 559.039,405.584 C 560.807,405.584 562.249,406.127 562.249,406.795"/>
    <path style="fill: #000000" d="M 562.249 404.593 C 562.249,405.261 560.807,405.8 559.039,405.8 C 557.263,405.8 555.828,405.257 555.828,404.593 C 555.828,403.921 557.263,403.378 559.039,403.378 C 560.807,403.378 562.249,403.921 562.249,404.593z"/>
    <path style="fill: none; fill-opacity:0; stroke-width: 0.02; stroke: #000000" d="M 562.249 404.593 C 562.249,405.261 560.807,405.8 559.039,405.8 C 557.263,405.8 555.828,405.257 555.828,404.593 C 555.828,403.921 557.263,403.378 559.039,403.378 C 560.807,403.378 562.249,403.921 562.249,404.593"/>
    <path style="fill: #ffffff" d="M 569.786 402.611 C 569.786,404.835 564.994,406.644 559.086,406.644 C 553.175,406.644 548.379,404.839 548.379,402.611 C 548.379,400.381 553.175,398.572 559.086,398.572 C 564.994,398.572 569.786,400.377 569.786,402.611z"/>
    <path style="fill: none; fill-opacity:0; stroke-width: 0.02; stroke: #ffffff" d="M 569.786 402.611 C 569.786,404.835 564.994,406.644 559.086,406.644 C 553.175,406.644 548.379,404.839 548.379,402.611 C 548.379,400.381 553.175,398.572 559.086,398.572 C 564.994,398.572 569.786,400.377 569.786,402.611"/>
    <path style="fill: none; fill-opacity:0; stroke-width: 0.6; stroke-linecap: round; stroke-linejoin: round; stroke: #000000" d="M 569.786 402.611 C 569.786,404.835 564.994,406.644 559.086,406.644 C 553.175,406.644 548.379,404.839 548.379,402.611 C 548.379,400.381 553.175,398.572 559.086,398.572 C 564.994,398.572 569.786,400.377 569.786,402.611"/>
    <path style="fill: #000000" d="M 562.249 402.388 C 562.249,403.055 560.807,403.599 559.039,403.599 C 557.263,403.599 555.828,403.055 555.828,402.388 C 555.828,401.716 557.263,401.177 559.039,401.177 C 560.807,401.177 562.249,401.72 562.249,402.388z"/>
    <path style="fill: none; fill-opacity:0; stroke-width: 0.02; stroke: #000000" d="M 562.249 402.388 C 562.249,403.055 560.807,403.599 559.039,403.599 C 557.263,403.599 555.828,403.055 555.828,402.388 C 555.828,401.716 557.263,401.177 559.039,401.177 C 560.807,401.177 562.249,401.72 562.249,402.388"/>
    <path style="fill: #000000" d="M 562.249 400.19 C 562.249,400.858 560.807,401.397 559.039,401.397 C 557.263,401.397 555.828,400.854 555.828,400.19 C 555.828,399.518 557.263,398.979 559.039,398.979 C 560.807,398.979 562.249,399.518 562.249,400.19z"/>
    <path style="fill: none; fill-opacity:0; stroke-width: 0.02; stroke: #000000" d="M 562.249 400.19 C 562.249,400.858 560.807,401.397 559.039,401.397 C 557.263,401.397 555.828,400.854 555.828,400.19 C 555.828,399.518 557.263,398.979 559.039,398.979 C 560.807,398.979 562.249,399.518 562.249,400.19"/>
    <path style="fill: #ffffff" d="M 569.786 398.208 C 569.786,400.432 564.994,402.241 559.086,402.241 C 553.175,402.241 548.379,400.436 548.379,398.208 C 548.379,395.977 553.175,394.168 559.086,394.168 C 564.994,394.168 569.786,395.974 569.786,398.208z"/>
    <path style="fill: none; fill-opacity:0; stroke-width: 0.02; stroke: #ffffff" d="M 569.786 398.208 C 569.786,400.432 564.994,402.241 559.086,402.241 C 553.175,402.241 548.379,400.436 548.379,398.208 C 548.379,395.977 553.175,394.168 559.086,394.168 C 564.994,394.168 569.786,395.974 569.786,398.208"/>
    <path style="fill: none; fill-opacity:0; stroke-width: 0.6; stroke-linecap: round; stroke-linejoin: round; stroke: #000000" d="M 569.786 398.208 C 569.786,400.432 564.994,402.241 559.086,402.241 C 553.175,402.241 548.379,400.436 548.379,398.208 C 548.379,395.977 553.175,394.168 559.086,394.168 C 564.994,394.168 569.786,395.974 569.786,398.208"/>
    <path style="fill: #000000" d="M 562.249 397.988 C 562.249,398.656 560.807,399.195 559.039,399.195 C 557.263,399.195 555.828,398.652 555.828,397.988 C 555.828,397.313 557.263,396.774 559.039,396.774 C 560.807,396.774 562.249,397.317 562.249,397.988z"/>
    <path style="fill: none; fill-opacity:0; stroke-width: 0.02; stroke: #000000" d="M 562.249 397.988 C 562.249,398.656 560.807,399.195 559.039,399.195 C 557.263,399.195 555.828,398.652 555.828,397.988 C 555.828,397.313 557.263,396.774 559.039,396.774 C 560.807,396.774 562.249,397.317 562.249,397.988"/>
    <path style="fill: #ffffff" d="M 593.64 442.24 C 593.64,444.464 588.845,446.273 582.941,446.273 C 577.029,446.273 572.234,444.468 572.234,442.24 C 572.234,440.009 577.029,438.2 582.941,438.2 C 588.848,438.2 593.64,440.006 593.64,442.24z"/>
    <path style="fill: none; fill-opacity:0; stroke-width: 0.02; stroke: #ffffff" d="M 593.64 442.24 C 593.64,444.464 588.845,446.273 582.941,446.273 C 577.029,446.273 572.234,444.468 572.234,442.24 C 572.234,440.009 577.029,438.2 582.941,438.2 C 588.848,438.2 593.64,440.006 593.64,442.24"/>
    <path style="fill: none; fill-opacity:0; stroke-width: 0.6; stroke-linecap: round; stroke-linejoin: round; stroke: #000000" d="M 593.64 442.24 C 593.64,444.464 588.845,446.273 582.941,446.273 C 577.029,446.273 572.234,444.468 572.234,442.24 C 572.234,440.009 577.029,438.2 582.941,438.2 C 588.848,438.2 593.64,440.006 593.64,442.24"/>
    <path style="fill: #000000" d="M 586.1 442.02 C 586.1,442.688 584.658,443.227 582.889,443.227 C 581.113,443.227 579.679,442.684 579.679,442.02 C 579.679,441.345 581.113,440.806 582.889,440.806 C 584.662,440.806 586.1,441.349 586.1,442.02z"/>
    <path style="fill: none; fill-opacity:0; stroke-width: 0.02; stroke: #000000" d="M 586.1 442.02 C 586.1,442.688 584.658,443.227 582.889,443.227 C 581.113,443.227 579.679,442.684 579.679,442.02 C 579.679,441.345 581.113,440.806 582.889,440.806 C 584.662,440.806 586.1,441.349 586.1,442.02"/>
    <path style="fill: #000000" d="M 586.1 439.819 C 586.1,440.486 584.658,441.026 582.889,441.026 C 581.113,441.026 579.679,440.483 579.679,439.819 C 579.679,439.147 581.113,438.608 582.889,438.608 C 584.662,438.608 586.1,439.151 586.1,439.819z"/>
    <path style="fill: none; fill-opacity:0; stroke-width: 0.02; stroke: #000000" d="M 586.1 439.819 C 586.1,440.486 584.658,441.026 582.889,441.026 C 581.113,441.026 579.679,440.483 579.679,439.819 C 579.679,439.147 581.113,438.608 582.889,438.608 C 584.662,438.608 586.1,439.151 586.1,439.819"/>
    <path style="fill: #ffffff" d="M 593.64 437.837 C 593.64,440.064 588.845,441.873 582.941,441.873 C 577.029,441.873 572.234,440.068 572.234,437.837 C 572.234,435.606 577.029,433.797 582.941,433.797 C 588.848,433.797 593.64,435.602 593.64,437.837z"/>
    <path style="fill: none; fill-opacity:0; stroke-width: 0.02; stroke: #ffffff" d="M 593.64 437.837 C 593.64,440.064 588.845,441.873 582.941,441.873 C 577.029,441.873 572.234,440.068 572.234,437.837 C 572.234,435.606 577.029,433.797 582.941,433.797 C 588.848,433.797 593.64,435.602 593.64,437.837"/>
    <path style="fill: none; fill-opacity:0; stroke-width: 0.6; stroke-linecap: round; stroke-linejoin: round; stroke: #000000" d="M 593.64 437.837 C 593.64,440.064 588.845,441.873 582.941,441.873 C 577.029,441.873 572.234,440.068 572.234,437.837 C 572.234,435.606 577.029,433.797 582.941,433.797 C 588.848,433.797 593.64,435.602 593.64,437.837"/>
    <path style="fill: #000000" d="M 586.1 437.617 C 586.1,438.285 584.658,438.824 582.889,438.824 C 581.113,438.824 579.679,438.281 579.679,437.617 C 579.679,436.945 581.113,436.402 582.889,436.402 C 584.662,436.402 586.1,436.945 586.1,437.617z"/>
    <path style="fill: none; fill-opacity:0; stroke-width: 0.02; stroke: #000000" d="M 586.1 437.617 C 586.1,438.285 584.658,438.824 582.889,438.824 C 581.113,438.824 579.679,438.281 579.679,437.617 C 579.679,436.945 581.113,436.402 582.889,436.402 C 584.662,436.402 586.1,436.945 586.1,437.617"/>
    <path style="fill: #000000" d="M 586.1 435.412 C 586.1,436.079 584.658,436.623 582.889,436.623 C 581.113,436.623 579.679,436.079 579.679,435.412 C 579.679,434.74 581.113,434.201 582.889,434.201 C 584.662,434.201 586.1,434.744 586.1,435.412z"/>
    <path style="fill: none; fill-opacity:0; stroke-width: 0.02; stroke: #000000" d="M 586.1 435.412 C 586.1,436.079 584.658,436.623 582.889,436.623 C 581.113,436.623 579.679,436.079 579.679,435.412 C 579.679,434.74 581.113,434.201 582.889,434.201 C 584.662,434.201 586.1,434.744 586.1,435.412"/>
    <path style="fill: #ffffff" d="M 593.64 433.43 C 593.64,435.657 588.845,437.466 582.941,437.466 C 577.029,437.466 572.234,435.661 572.234,433.43 C 572.234,431.199 577.029,429.39 582.941,429.39 C 588.848,429.39 593.64,431.196 593.64,433.43z"/>
    <path style="fill: none; fill-opacity:0; stroke-width: 0.02; stroke: #ffffff" d="M 593.64 433.43 C 593.64,435.657 588.845,437.466 582.941,437.466 C 577.029,437.466 572.234,435.661 572.234,433.43 C 572.234,431.199 577.029,429.39 582.941,429.39 C 588.848,429.39 593.64,431.196 593.64,433.43"/>
    <path style="fill: none; fill-opacity:0; stroke-width: 0.6; stroke-linecap: round; stroke-linejoin: round; stroke: #000000" d="M 593.64 433.43 C 593.64,435.657 588.845,437.466 582.941,437.466 C 577.029,437.466 572.234,435.661 572.234,433.43 C 572.234,431.199 577.029,429.39 582.941,429.39 C 588.848,429.39 593.64,431.196 593.64,433.43"/>
    <path style="fill: #000000" d="M 586.1 433.214 C 586.1,433.882 584.658,434.421 582.889,434.421 C 581.113,434.421 579.679,433.878 579.679,433.214 C 579.679,432.542 581.113,432.003 582.889,432.003 C 584.662,432.003 586.1,432.542 586.1,433.214z"/>
    <path style="fill: none; fill-opacity:0; stroke-width: 0.02; stroke: #000000" d="M 586.1 433.214 C 586.1,433.882 584.658,434.421 582.889,434.421 C 581.113,434.421 579.679,433.878 579.679,433.214 C 579.679,432.542 581.113,432.003 582.889,432.003 C 584.662,432.003 586.1,432.542 586.1,433.214"/>
    <path style="fill: #ffffff" d="M 593.64 424.627 C 593.64,426.851 588.845,428.66 582.941,428.66 C 577.029,428.66 572.234,426.855 572.234,424.627 C 572.234,422.397 577.029,420.588 582.941,420.588 C 588.848,420.588 593.64,422.393 593.64,424.627z"/>
    <path style="fill: none; fill-opacity:0; stroke-width: 0.02; stroke: #ffffff" d="M 593.64 424.627 C 593.64,426.851 588.845,428.66 582.941,428.66 C 577.029,428.66 572.234,426.855 572.234,424.627 C 572.234,422.397 577.029,420.588 582.941,420.588 C 588.848,420.588 593.64,422.393 593.64,424.627"/>
    <path style="fill: none; fill-opacity:0; stroke-width: 0.6; stroke-linecap: round; stroke-linejoin: round; stroke: #000000" d="M 593.64 424.627 C 593.64,426.851 588.845,428.66 582.941,428.66 C 577.029,428.66 572.234,426.855 572.234,424.627 C 572.234,422.397 577.029,420.588 582.941,420.588 C 588.848,420.588 593.64,422.393 593.64,424.627"/>
    <path style="fill: #000000" d="M 586.1 424.404 C 586.1,425.071 584.658,425.615 582.889,425.615 C 581.113,425.615 579.679,425.071 579.679,424.404 C 579.679,423.732 581.113,423.193 582.889,423.193 C 584.662,423.193 586.1,423.736 586.1,424.404z"/>
    <path style="fill: none; fill-opacity:0; stroke-width: 0.02; stroke: #000000" d="M 586.1 424.404 C 586.1,425.071 584.658,425.615 582.889,425.615 C 581.113,425.615 579.679,425.071 579.679,424.404 C 579.679,423.732 581.113,423.193 582.889,423.193 C 584.662,423.193 586.1,423.736 586.1,424.404"/>
    <path style="fill: #000000" d="M 586.1 422.206 C 586.1,422.874 584.658,423.413 582.889,423.413 C 581.113,423.413 579.679,422.87 579.679,422.206 C 579.679,421.534 581.113,420.995 582.889,420.995 C 584.662,420.995 586.1,421.534 586.1,422.206z"/>
    <path style="fill: none; fill-opacity:0; stroke-width: 0.02; stroke: #000000" d="M 586.1 422.206 C 586.1,422.874 584.658,423.413 582.889,423.413 C 581.113,423.413 579.679,422.87 579.679,422.206 C 579.679,421.534 581.113,420.995 582.889,420.995 C 584.662,420.995 586.1,421.534 586.1,422.206"/>
    <path style="fill: #ffffff" d="M 593.64 420.224 C 593.64,422.448 588.845,424.257 582.941,424.257 C 577.029,424.257 572.234,422.452 572.234,420.224 C 572.234,417.993 577.029,416.184 582.941,416.184 C 588.848,416.184 593.64,417.99 593.64,420.224z"/>
    <path style="fill: none; fill-opacity:0; stroke-width: 0.02; stroke: #ffffff" d="M 593.64 420.224 C 593.64,422.448 588.845,424.257 582.941,424.257 C 577.029,424.257 572.234,422.452 572.234,420.224 C 572.234,417.993 577.029,416.184 582.941,416.184 C 588.848,416.184 593.64,417.99 593.64,420.224"/>
    <path style="fill: none; fill-opacity:0; stroke-width: 0.6; stroke-linecap: round; stroke-linejoin: round; stroke: #000000" d="M 593.64 420.224 C 593.64,422.448 588.845,424.257 582.941,424.257 C 577.029,424.257 572.234,422.452 572.234,420.224 C 572.234,417.993 577.029,416.184 582.941,416.184 C 588.848,416.184 593.64,417.99 593.64,420.224"/>
    <path style="fill: #000000" d="M 586.1 420.004 C 586.1,420.672 584.658,421.211 582.889,421.211 C 581.113,421.211 579.679,420.668 579.679,420.004 C 579.679,419.329 581.113,418.79 582.889,418.79 C 584.662,418.79 586.1,419.333 586.1,420.004z"/>
    <path style="fill: none; fill-opacity:0; stroke-width: 0.02; stroke: #000000" d="M 586.1 420.004 C 586.1,420.672 584.658,421.211 582.889,421.211 C 581.113,421.211 579.679,420.668 579.679,420.004 C 579.679,419.329 581.113,418.79 582.889,418.79 C 584.662,418.79 586.1,419.333 586.1,420.004"/>
    <path style="fill: #000000" d="M 586.1 417.803 C 586.1,418.47 584.658,419.01 582.889,419.01 C 581.113,419.01 579.679,418.467 579.679,417.803 C 579.679,417.131 581.113,416.592 582.889,416.592 C 584.662,416.592 586.1,417.135 586.1,417.803z"/>
    <path style="fill: none; fill-opacity:0; stroke-width: 0.02; stroke: #000000" d="M 586.1 417.803 C 586.1,418.47 584.658,419.01 582.889,419.01 C 581.113,419.01 579.679,418.467 579.679,417.803 C 579.679,417.131 581.113,416.592 582.889,416.592 C 584.662,416.592 586.1,417.135 586.1,417.803"/>
    <path style="fill: #ffffff" d="M 593.64 415.821 C 593.64,418.048 588.845,419.857 582.941,419.857 C 577.029,419.857 572.234,418.052 572.234,415.821 C 572.234,413.59 577.029,411.781 582.941,411.781 C 588.848,411.781 593.64,413.586 593.64,415.821z"/>
    <path style="fill: none; fill-opacity:0; stroke-width: 0.02; stroke: #ffffff" d="M 593.64 415.821 C 593.64,418.048 588.845,419.857 582.941,419.857 C 577.029,419.857 572.234,418.052 572.234,415.821 C 572.234,413.59 577.029,411.781 582.941,411.781 C 588.848,411.781 593.64,413.586 593.64,415.821"/>
    <path style="fill: none; fill-opacity:0; stroke-width: 0.6; stroke-linecap: round; stroke-linejoin: round; stroke: #000000" d="M 593.64 415.821 C 593.64,418.048 588.845,419.857 582.941,419.857 C 577.029,419.857 572.234,418.052 572.234,415.821 C 572.234,413.59 577.029,411.781 582.941,411.781 C 588.848,411.781 593.64,413.586 593.64,415.821"/>
    <path style="fill: #000000" d="M 586.1 415.601 C 586.1,416.269 584.658,416.808 582.889,416.808 C 581.113,416.808 579.679,416.265 579.679,415.601 C 579.679,414.929 581.113,414.386 582.889,414.386 C 584.662,414.386 586.1,414.929 586.1,415.601z"/>
    <path style="fill: none; fill-opacity:0; stroke-width: 0.02; stroke: #000000" d="M 586.1 415.601 C 586.1,416.269 584.658,416.808 582.889,416.808 C 581.113,416.808 579.679,416.265 579.679,415.601 C 579.679,414.929 581.113,414.386 582.889,414.386 C 584.662,414.386 586.1,414.929 586.1,415.601"/>
    <path style="fill: #ffffff" d="M 593.64 407.011 C 593.64,409.238 588.845,411.047 582.941,411.047 C 577.029,411.047 572.234,409.242 572.234,407.011 C 572.234,404.784 577.029,402.975 582.941,402.975 C 588.848,402.975 593.64,404.78 593.64,407.011z"/>
    <path style="fill: none; fill-opacity:0; stroke-width: 0.02; stroke: #ffffff" d="M 593.64 407.011 C 593.64,409.238 588.845,411.047 582.941,411.047 C 577.029,411.047 572.234,409.242 572.234,407.011 C 572.234,404.784 577.029,402.975 582.941,402.975 C 588.848,402.975 593.64,404.78 593.64,407.011"/>
    <path style="fill: none; fill-opacity:0; stroke-width: 0.6; stroke-linecap: round; stroke-linejoin: round; stroke: #000000" d="M 593.64 407.011 C 593.64,409.238 588.845,411.047 582.941,411.047 C 577.029,411.047 572.234,409.242 572.234,407.011 C 572.234,404.784 577.029,402.975 582.941,402.975 C 588.848,402.975 593.64,404.78 593.64,407.011"/>
    <path style="fill: #000000" d="M 586.1 406.795 C 586.1,407.462 584.658,408.002 582.889,408.002 C 581.113,408.002 579.679,407.459 579.679,406.795 C 579.679,406.123 581.113,405.584 582.889,405.584 C 584.662,405.584 586.1,406.127 586.1,406.795z"/>
    <path style="fill: none; fill-opacity:0; stroke-width: 0.02; stroke: #000000" d="M 586.1 406.795 C 586.1,407.462 584.658,408.002 582.889,408.002 C 581.113,408.002 579.679,407.459 579.679,406.795 C 579.679,406.123 581.113,405.584 582.889,405.584 C 584.662,405.584 586.1,406.127 586.1,406.795"/>
    <path style="fill: #000000" d="M 586.1 404.593 C 586.1,405.261 584.658,405.8 582.889,405.8 C 581.113,405.8 579.679,405.257 579.679,404.593 C 579.679,403.921 581.113,403.378 582.889,403.378 C 584.662,403.378 586.1,403.921 586.1,404.593z"/>
    <path style="fill: none; fill-opacity:0; stroke-width: 0.02; stroke: #000000" d="M 586.1 404.593 C 586.1,405.261 584.658,405.8 582.889,405.8 C 581.113,405.8 579.679,405.257 579.679,404.593 C 579.679,403.921 581.113,403.378 582.889,403.378 C 584.662,403.378 586.1,403.921 586.1,404.593"/>
    <path style="fill: #ffffff" d="M 593.64 402.611 C 593.64,404.835 588.845,406.644 582.941,406.644 C 577.029,406.644 572.234,404.839 572.234,402.611 C 572.234,400.381 577.029,398.572 582.941,398.572 C 588.848,398.572 593.64,400.377 593.64,402.611z"/>
    <path style="fill: none; fill-opacity:0; stroke-width: 0.02; stroke: #ffffff" d="M 593.64 402.611 C 593.64,404.835 588.845,406.644 582.941,406.644 C 577.029,406.644 572.234,404.839 572.234,402.611 C 572.234,400.381 577.029,398.572 582.941,398.572 C 588.848,398.572 593.64,400.377 593.64,402.611"/>
    <path style="fill: none; fill-opacity:0; stroke-width: 0.6; stroke-linecap: round; stroke-linejoin: round; stroke: #000000" d="M 593.64 402.611 C 593.64,404.835 588.845,406.644 582.941,406.644 C 577.029,406.644 572.234,404.839 572.234,402.611 C 572.234,400.381 577.029,398.572 582.941,398.572 C 588.848,398.572 593.64,400.377 593.64,402.611"/>
    <path style="fill: #000000" d="M 586.1 402.388 C 586.1,403.055 584.658,403.599 582.889,403.599 C 581.113,403.599 579.679,403.055 579.679,402.388 C 579.679,401.716 581.113,401.177 582.889,401.177 C 584.662,401.177 586.1,401.72 586.1,402.388z"/>
    <path style="fill: none; fill-opacity:0; stroke-width: 0.02; stroke: #000000" d="M 586.1 402.388 C 586.1,403.055 584.658,403.599 582.889,403.599 C 581.113,403.599 579.679,403.055 579.679,402.388 C 579.679,401.716 581.113,401.177 582.889,401.177 C 584.662,401.177 586.1,401.72 586.1,402.388"/>
    <path style="fill: #000000" d="M 586.1 400.19 C 586.1,400.858 584.658,401.397 582.889,401.397 C 581.113,401.397 579.679,400.854 579.679,400.19 C 579.679,399.518 581.113,398.979 582.889,398.979 C 584.662,398.979 586.1,399.518 586.1,400.19z"/>
    <path style="fill: none; fill-opacity:0; stroke-width: 0.02; stroke: #000000" d="M 586.1 400.19 C 586.1,400.858 584.658,401.397 582.889,401.397 C 581.113,401.397 579.679,400.854 579.679,400.19 C 579.679,399.518 581.113,398.979 582.889,398.979 C 584.662,398.979 586.1,399.518 586.1,400.19"/>
    <path style="fill: #ffffff" d="M 593.64 398.208 C 593.64,400.432 588.845,402.241 582.941,402.241 C 577.029,402.241 572.234,400.436 572.234,398.208 C 572.234,395.977 577.029,394.168 582.941,394.168 C 588.848,394.168 593.64,395.974 593.64,398.208z"/>
    <path style="fill: none; fill-opacity:0; stroke-width: 0.02; stroke: #ffffff" d="M 593.64 398.208 C 593.64,400.432 588.845,402.241 582.941,402.241 C 577.029,402.241 572.234,400.436 572.234,398.208 C 572.234,395.977 577.029,394.168 582.941,394.168 C 588.848,394.168 593.64,395.974 593.64,398.208"/>
    <path style="fill: none; fill-opacity:0; stroke-width: 0.6; stroke-linecap: round; stroke-linejoin: round; stroke: #000000" d="M 593.64 398.208 C 593.64,400.432 588.845,402.241 582.941,402.241 C 577.029,402.241 572.234,400.436 572.234,398.208 C 572.234,395.977 577.029,394.168 582.941,394.168 C 588.848,394.168 593.64,395.974 593.64,398.208"/>
    <path style="fill: #000000" d="M 586.1 397.988 C 586.1,398.656 584.658,399.195 582.889,399.195 C 581.113,399.195 579.679,398.652 579.679,397.988 C 579.679,397.313 581.113,396.774 582.889,396.774 C 584.662,396.774 586.1,397.317 586.1,397.988z"/>
    <path style="fill: none; fill-opacity:0; stroke-width: 0.02; stroke: #000000" d="M 586.1 397.988 C 586.1,398.656 584.658,399.195 582.889,399.195 C 581.113,399.195 579.679,398.652 579.679,397.988 C 579.679,397.313 581.113,396.774 582.889,396.774 C 584.662,396.774 586.1,397.317 586.1,397.988"/>
  </g>
  <g>
    <line style="fill: none; fill-opacity:0; stroke-width: 2; stroke-dasharray: 4; stroke: #000000" x1="434.472" y1="357.296" x2="534.654" y2="204.073"/>
    <polygon style="fill: #000000" points="430.367,363.573 431.655,352.467 434.472,357.296 440.025,357.939 "/>
    <polygon style="fill: none; fill-opacity:0; stroke-width: 2; stroke: #000000" points="430.367,363.573 431.655,352.467 434.472,357.296 440.025,357.939 "/>
    <polygon style="fill: #000000" points="538.758,197.796 537.47,208.902 534.654,204.073 529.101,203.429 "/>
    <polygon style="fill: none; fill-opacity:0; stroke-width: 2; stroke: #000000" points="538.758,197.796 537.47,208.902 534.654,204.073 529.101,203.429 "/>
  </g>
  <g>
    <line style="fill: none; fill-opacity:0; stroke-width: 2; stroke: #000000" x1="625.072" y1="354.618" x2="652.419" y2="332.505"/>
    <polygon style="fill: #000000" points="619.24,359.334 623.872,349.159 625.072,354.618 630.16,356.934 "/>
    <polygon style="fill: none; fill-opacity:0; stroke-width: 2; stroke: #000000" points="619.24,359.334 623.872,349.159 625.072,354.618 630.16,356.934 "/>
    <polygon style="fill: #000000" points="658.251,327.79 653.619,337.965 652.419,332.505 647.331,330.189 "/>
    <polygon style="fill: none; fill-opacity:0; stroke-width: 2; stroke: #000000" points="658.251,327.79 653.619,337.965 652.419,332.505 647.331,330.189 "/>
  </g>
  <g>
    <line style="fill: none; fill-opacity:0; stroke-width: 2; stroke-dasharray: 20 8 4 8; stroke: #000000" x1="606.897" y1="197.432" x2="654.126" y2="260.054"/>
    <polygon style="fill: #000000" points="602.381,191.444 612.395,196.417 606.897,197.432 604.411,202.439 "/>
    <polygon style="fill: none; fill-opacity:0; stroke-width: 2; stroke: #000000" points="602.381,191.444 612.395,196.417 606.897,197.432 604.411,202.439 "/>
    <polygon style="fill: #000000" points="658.642,266.042 648.629,261.069 654.126,260.054 656.613,255.048 "/>
    <polygon style="fill: none; fill-opacity:0; stroke-width: 2; stroke: #000000" points="658.642,266.042 648.629,261.069 654.126,260.054 656.613,255.048 "/>
  </g>
  <g>
    <line style="fill: none; fill-opacity:0; stroke-width: 2; stroke: #000000" x1="533.283" y1="397.497" x2="462.914" y2="395.757"/>
    <polygon style="fill: #000000" points="540.781,397.682 530.66,402.434 533.283,397.497 530.908,392.437 "/>
    <polygon style="fill: none; fill-opacity:0; stroke-width: 2; stroke: #000000" points="540.781,397.682 530.66,402.434 533.283,397.497 530.908,392.437 "/>
    <polygon style="fill: #000000" points="455.417,395.572 465.537,390.821 462.914,395.757 465.29,400.818 "/>
    <polygon style="fill: none; fill-opacity:0; stroke-width: 2; stroke: #000000" points="455.417,395.572 465.537,390.821 462.914,395.757 465.29,400.818 "/>
  </g>
  <text font-size="12.8" style="fill: #000000;text-anchor:start;font-family:sans-serif;font-style:normal;font-weight:normal" x="640" y="400">
    <tspan x="640" y="400">NFS share</tspan>
    <tspan x="640" y="416">  - web data</tspan>
    <tspan x="640" y="432">  - software</tspan>
    <tspan x="640" y="448">  - computation</tspan>
    <tspan x="640" y="464">     results</tspan>
  </text>
  <line style="fill: none; fill-opacity:0; stroke-width: 2; stroke-dasharray: 20; stroke: #000000" x1="300" y1="220" x2="760" y2="220"/>
  <text font-size="20.32" style="fill: #000000;text-anchor:start;font-family:sans-serif;font-style:normal;font-weight:700" x="180" y="55.2078">
    <tspan x="180" y="55.2078">ifb-prabi-girofle</tspan>
  </text>
  <text font-size="16.9333" style="fill: #000000;text-anchor:start;font-family:sans-serif;font-style:normal;font-weight:700" x="320" y="234.84">
    <tspan x="320" y="234.84">private</tspan>
    <tspan x="320" y="256.006">network</tspan>
  </text>
  <text font-size="16.9333" style="fill: #000000;text-anchor:start;font-family:sans-serif;font-style:normal;font-weight:700" x="320" y="94.8398">
    <tspan x="320" y="94.8398">public</tspan>
    <tspan x="320" y="116.006">network</tspan>
  </text>
  <rect style="fill: none; fill-opacity:0; stroke-width: 2; stroke: #000000" x="820" y="60" width="180" height="160"/>
  <text font-size="20.32" style="fill: #000000;text-anchor:start;font-family:sans-serif;font-style:normal;font-weight:700" x="820" y="55.2078">
    <tspan x="820" y="55.2078">genoscope</tspan>
  </text>
  <g>
    <polyline style="fill: none; fill-opacity:0; stroke-width: 2; stroke-dasharray: 4; stroke: #000000" points="253.228,181.058 280,181.058 280,394.454 357.265,394.454 "/>
    <polygon style="fill: #000000" points="245.728,181.058 255.728,176.058 253.228,181.058 255.728,186.058 "/>
    <polygon style="fill: none; fill-opacity:0; stroke-width: 2; stroke: #000000" points="245.728,181.058 255.728,176.058 253.228,181.058 255.728,186.058 "/>
    <polygon style="fill: #000000" points="364.765,394.454 354.766,399.454 357.265,394.454 354.765,389.454 "/>
    <polygon style="fill: none; fill-opacity:0; stroke-width: 2; stroke: #000000" points="364.765,394.454 354.766,399.454 357.265,394.454 354.765,389.454 "/>
  </g>
  <g>
    <path style="fill: #0078aa" d="M 927.964 196.239 L 927.907,195.641 L 927.774,195.053 L 927.556,194.455 L 927.262,193.866 L 926.882,193.297 L 926.407,192.718 L 925.847,192.158 L 925.211,191.607 L 924.49,191.066 L 923.692,190.544 L 922.8,190.022 L 921.86,189.519 L 920.845,189.044 L 919.772,188.589 L 918.605,188.142 L 917.399,187.715 L 916.118,187.317 L 914.779,186.946 L 913.384,186.595 L 911.96,186.263 L 910.46,185.959 L 908.951,185.693 L 907.366,185.437 L 905.79,185.2 L 904.139,185.019 L 902.487,184.849 L 900.816,184.725 L 899.127,184.63 L 897.409,184.545 L 895.7,184.488 L 893.972,184.488 L 893.972,184.488 L 892.264,184.488 L 890.536,184.545 L 888.828,184.63 L 887.138,184.725 L 885.467,184.849 L 883.816,185.019 L 882.174,185.2 L 880.57,185.437 L 879.003,185.693 L 877.485,185.959 L 876.004,186.263 L 874.57,186.595 L 873.166,186.946 L 871.846,187.317 L 870.555,187.715 L 869.359,188.142 L 868.182,188.589 L 867.11,189.044 L 866.084,189.519 L 865.145,190.022 L 864.262,190.544 L 863.465,191.066 L 862.743,191.607 L 862.117,192.158 L 861.547,192.718 L 861.073,193.297 L 860.702,193.866 L 860.389,194.455 L 860.18,195.053 L 860.038,195.641 L 860,196.239 L 860,196.239 L 860.038,196.828 L 860.18,197.426 L 860.389,198.014 L 860.702,198.612 L 861.073,199.191 L 861.547,199.77 L 862.117,200.33 L 862.743,200.881 L 863.465,201.422 L 864.262,201.935 L 865.145,202.466 L 866.084,202.969 L 867.11,203.444 L 868.182,203.89 L 869.359,204.346 L 870.555,204.773 L 871.846,205.171 L 873.166,205.542 L 874.57,205.893 L 876.004,206.225 L 877.485,206.529 L 879.003,206.794 L 880.57,207.051 L 882.174,207.279 L 883.816,207.468 L 885.467,207.63 L 887.138,207.753 L 888.828,207.867 L 890.536,207.943 L 892.264,207.991 L 893.972,208 L 893.972,208 L 895.7,207.991 L 897.409,207.943 L 899.127,207.867 L 900.816,207.753 L 902.487,207.63 L 904.139,207.468 L 905.79,207.279 L 907.366,207.051 L 908.951,206.794 L 910.46,206.529 L 911.96,206.225 L 913.384,205.893 L 914.779,205.542 L 916.118,205.171 L 917.399,204.773 L 918.605,204.346 L 919.772,203.89 L 920.845,203.444 L 921.86,202.969 L 922.8,202.466 L 923.692,201.935 L 924.49,201.422 L 925.211,200.881 L 925.847,200.33 L 926.407,199.77 L 926.882,199.191 L 927.262,198.612 L 927.556,198.014 L 927.774,197.426 L 927.907,196.828 L 927.964,196.239z"/>
    <path style="fill: none; fill-opacity:0; stroke-width: 0.02; stroke: #aae6ff" d="M 927.556 196.059 L 927.518,195.461 L 927.394,194.872 L 927.176,194.312 L 926.891,193.743 L 926.474,193.154 L 925.999,192.594 L 925.477,192.053 L 924.822,191.493 L 924.101,190.971 L 923.322,190.449 L 922.439,189.946 L 921.5,189.462 L 920.503,188.987 L 919.43,188.522 L 918.263,188.095 L 917.057,187.687 L 915.776,187.298 L 914.466,186.918 L 913.08,186.567 L 911.647,186.253 L 910.166,185.95 L 908.657,185.693 L 907.11,185.437 L 905.524,185.228 L 903.892,185.038 L 902.25,184.877 L 900.589,184.725 L 898.908,184.64 L 897.209,184.564 L 895.482,184.516 L 893.783,184.488 L 893.783,184.488 L 892.065,184.516 L 890.356,184.564 L 888.657,184.64 L 886.967,184.725 L 885.306,184.877 L 883.673,185.038 L 882.05,185.228 L 880.446,185.437 L 878.889,185.693 L 877.399,185.95 L 875.899,186.253 L 874.476,186.567 L 873.109,186.918 L 871.78,187.298 L 870.508,187.687 L 869.293,188.095 L 868.135,188.522 L 867.072,188.987 L 866.047,189.462 L 865.107,189.946 L 864.243,190.449 L 863.446,190.971 L 862.734,191.493 L 862.098,192.053 L 861.547,192.594 L 861.073,193.154 L 860.683,193.743 L 860.38,194.312 L 860.152,194.872 L 860.038,195.461 L 860,196.059 L 860,196.059 L 860.038,196.647 L 860.152,197.226 L 860.38,197.805 L 860.683,198.375 L 861.073,198.963 L 861.547,199.514 L 862.098,200.065 L 862.734,200.615 L 863.446,201.137 L 864.243,201.669 L 865.107,202.172 L 866.047,202.646 L 867.072,203.121 L 868.135,203.586 L 869.293,204.023 L 870.508,204.421 L 871.78,204.82 L 873.109,205.19 L 874.476,205.532 L 875.899,205.864 L 877.399,206.168 L 878.889,206.424 L 880.446,206.681 L 882.05,206.889 L 883.673,207.079 L 885.306,207.231 L 886.967,207.374 L 888.657,207.468 L 890.356,207.544 L 892.065,207.592 L 893.783,207.601 L 893.783,207.601 L 895.482,207.592 L 897.209,207.544 L 898.908,207.468 L 900.589,207.374 L 902.25,207.231 L 903.892,207.079 L 905.524,206.889 L 907.11,206.681 L 908.657,206.424 L 910.166,206.168 L 911.647,205.864 L 913.08,205.532 L 914.466,205.19 L 915.776,204.82 L 917.057,204.421 L 918.263,204.023 L 919.43,203.586 L 920.503,203.121 L 921.5,202.646 L 922.439,202.172 L 923.322,201.669 L 924.101,201.137 L 924.822,200.615 L 925.477,200.065 L 925.999,199.514 L 926.474,198.963 L 926.891,198.375 L 927.176,197.805 L 927.394,197.226 L 927.518,196.647 L 927.556,196.059"/>
    <path style="fill: #0078aa" d="M 860 179.97 L 860,196.467 L 927.556,196.467 L 927.556,179.97 L 860,179.97z"/>
    <path style="fill: #00b4ff" d="M 927.964 179.742 L 927.907,179.144 L 927.774,178.555 L 927.556,177.967 L 927.262,177.369 L 926.882,176.799 L 926.407,176.23 L 925.847,175.67 L 925.211,175.1 L 924.49,174.569 L 923.692,174.037 L 922.8,173.515 L 921.86,173.031 L 920.845,172.556 L 919.772,172.091 L 918.605,171.645 L 917.399,171.227 L 916.118,170.829 L 914.779,170.458 L 913.384,170.107 L 911.96,169.775 L 910.46,169.471 L 908.951,169.206 L 907.366,168.94 L 905.79,168.712 L 904.139,168.532 L 902.487,168.37 L 900.816,168.237 L 899.127,168.133 L 897.409,168.057 L 895.7,168 L 893.972,168 L 893.972,168 L 892.264,168 L 890.536,168.057 L 888.828,168.133 L 887.138,168.237 L 885.467,168.37 L 883.816,168.532 L 882.174,168.712 L 880.57,168.94 L 879.003,169.206 L 877.485,169.471 L 876.004,169.775 L 874.57,170.107 L 873.166,170.458 L 871.846,170.829 L 870.555,171.227 L 869.359,171.645 L 868.182,172.091 L 867.11,172.556 L 866.084,173.031 L 865.145,173.515 L 864.262,174.037 L 863.465,174.569 L 862.743,175.1 L 862.117,175.67 L 861.547,176.23 L 861.073,176.799 L 860.702,177.369 L 860.389,177.967 L 860.18,178.555 L 860.038,179.144 L 860,179.742 L 860,179.742 L 860.038,180.34 L 860.18,180.928 L 860.389,181.526 L 860.702,182.105 L 861.073,182.684 L 861.547,183.244 L 862.117,183.814 L 862.743,184.374 L 863.465,184.906 L 864.262,185.437 L 865.145,185.959 L 866.084,186.443 L 867.11,186.937 L 868.182,187.393 L 869.359,187.839 L 870.555,188.256 L 871.846,188.645 L 873.166,189.035 L 874.57,189.386 L 876.004,189.709 L 877.485,190.012 L 879.003,190.288 L 880.57,190.544 L 882.174,190.762 L 883.816,190.952 L 885.467,191.113 L 887.138,191.246 L 888.828,191.351 L 890.536,191.427 L 892.264,191.474 L 893.972,191.493 L 893.972,191.493 L 895.7,191.474 L 897.409,191.427 L 899.127,191.351 L 900.816,191.246 L 902.487,191.113 L 904.139,190.952 L 905.79,190.762 L 907.366,190.544 L 908.951,190.288 L 910.46,190.012 L 911.96,189.709 L 913.384,189.386 L 914.779,189.035 L 916.118,188.645 L 917.399,188.256 L 918.605,187.839 L 919.772,187.393 L 920.845,186.937 L 921.86,186.443 L 922.8,185.959 L 923.692,185.437 L 924.49,184.906 L 925.211,184.374 L 925.847,183.814 L 926.407,183.244 L 926.882,182.684 L 927.262,182.105 L 927.556,181.526 L 927.774,180.928 L 927.907,180.34 L 927.964,179.742z"/>
    <path style="fill: none; fill-opacity:0; stroke-width: 0.02; stroke: #aae6ff" d="M 927.556 179.542 L 927.518,178.954 L 927.394,178.375 L 927.176,177.786 L 926.891,177.226 L 926.474,176.638 L 925.999,176.087 L 925.477,175.527 L 924.822,174.986 L 924.101,174.464 L 923.322,173.933 L 922.439,173.43 L 921.5,172.945 L 920.503,172.471 L 919.43,172.015 L 918.263,171.579 L 917.057,171.17 L 915.776,170.781 L 914.466,170.411 L 913.08,170.069 L 911.647,169.737 L 910.166,169.424 L 908.657,169.177 L 907.11,168.921 L 905.524,168.712 L 903.892,168.522 L 902.25,168.37 L 900.589,168.228 L 898.908,168.133 L 897.209,168.057 L 895.482,168 L 893.783,168 L 893.783,168 L 892.065,168 L 890.356,168.057 L 888.657,168.133 L 886.967,168.228 L 885.306,168.37 L 883.673,168.522 L 882.05,168.712 L 880.446,168.921 L 878.889,169.177 L 877.399,169.424 L 875.899,169.737 L 874.476,170.069 L 873.109,170.411 L 871.78,170.781 L 870.508,171.17 L 869.293,171.579 L 868.135,172.015 L 867.072,172.471 L 866.047,172.945 L 865.107,173.43 L 864.243,173.933 L 863.446,174.464 L 862.734,174.986 L 862.098,175.527 L 861.547,176.087 L 861.073,176.638 L 860.683,177.226 L 860.38,177.786 L 860.152,178.375 L 860.038,178.954 L 860,179.542 L 860,179.542 L 860.038,180.14 L 860.152,180.71 L 860.38,181.289 L 860.683,181.859 L 861.073,182.447 L 861.547,183.007 L 862.098,183.539 L 862.734,184.099 L 863.446,184.63 L 864.243,185.143 L 865.107,185.655 L 866.047,186.14 L 867.072,186.614 L 868.135,187.07 L 869.293,187.506 L 870.508,187.915 L 871.78,188.304 L 873.109,188.674 L 874.476,189.035 L 875.899,189.348 L 877.399,189.652 L 878.889,189.908 L 880.446,190.164 L 882.05,190.364 L 883.673,190.563 L 885.306,190.724 L 886.967,190.867 L 888.657,190.962 L 890.356,191.037 L 892.065,191.075 L 893.783,191.104 L 893.783,191.104 L 895.482,191.075 L 897.209,191.037 L 898.908,190.962 L 900.589,190.867 L 902.25,190.724 L 903.892,190.563 L 905.524,190.364 L 907.11,190.164 L 908.657,189.908 L 910.166,189.652 L 911.647,189.348 L 913.08,189.035 L 914.466,188.674 L 915.776,188.304 L 917.057,187.915 L 918.263,187.506 L 919.43,187.07 L 920.503,186.614 L 921.5,186.14 L 922.439,185.655 L 923.322,185.143 L 924.101,184.63 L 924.822,184.099 L 925.477,183.539 L 925.999,183.007 L 926.474,182.447 L 926.891,181.859 L 927.176,181.289 L 927.394,180.71 L 927.518,180.14 L 927.556,179.542"/>
    <path style="fill: none; fill-opacity:0; stroke-width: 0.02; stroke: #aae6ff" d="M 860 179.542 L 860,196.021"/>
    <path style="fill: none; fill-opacity:0; stroke-width: 0.02; stroke: #aae6ff" d="M 927.556 179.542 L 927.556,196.021"/>
    <path style="fill: #ffffff" d="M 881.433 175.831 L 883.056,182.846 L 883.892,182.846 L 885.126,178.726 L 886.36,182.846 L 887.186,182.846 L 888.837,175.831 L 887.613,175.831 L 886.777,179.97 L 885.543,175.831 L 884.708,175.831 L 883.493,179.97 L 882.231,175.831 L 881.433,175.831z"/>
    <path style="fill: none; fill-opacity:0; stroke-width: 0.02; stroke: #000000" d="M 881.433 175.831 L 883.056,182.846 L 883.892,182.846 L 885.126,178.726 L 886.36,182.846 L 887.186,182.846 L 888.837,175.831 L 887.613,175.831 L 886.777,179.97 L 885.543,175.831 L 884.708,175.831 L 883.493,179.97 L 882.231,175.831 L 881.433,175.831"/>
    <path style="fill: #ffffff" d="M 889.654 175.831 L 891.742,182.846 L 892.539,182.846 L 893.783,178.726 L 895.007,182.846 L 895.833,182.846 L 897.494,175.831 L 896.26,175.831 L 895.434,179.97 L 894.181,175.831 L 893.365,175.831 L 892.131,179.97 L 890.888,175.831 L 889.654,175.831z"/>
    <path style="fill: none; fill-opacity:0; stroke-width: 0.02; stroke: #000000" d="M 889.654 175.831 L 891.742,182.846 L 892.539,182.846 L 893.783,178.726 L 895.007,182.846 L 895.833,182.846 L 897.494,175.831 L 896.26,175.831 L 895.434,179.97 L 894.181,175.831 L 893.365,175.831 L 892.131,179.97 L 890.888,175.831 L 889.654,175.831"/>
    <path style="fill: #ffffff" d="M 898.32 175.831 L 899.962,182.846 L 901.187,182.846 L 902.439,178.726 L 903.664,182.846 L 904.499,182.846 L 906.151,175.831 L 904.907,175.831 L 904.082,179.97 L 902.838,175.831 L 902.012,175.831 L 900.788,179.97 L 899.525,175.831 L 898.32,175.831z"/>
    <path style="fill: none; fill-opacity:0; stroke-width: 0.02; stroke: #000000" d="M 898.32 175.831 L 899.962,182.846 L 901.187,182.846 L 902.439,178.726 L 903.664,182.846 L 904.499,182.846 L 906.151,175.831 L 904.907,175.831 L 904.082,179.97 L 902.838,175.831 L 902.012,175.831 L 900.788,179.97 L 899.525,175.831 L 898.32,175.831"/>
    <path style="fill: #ffffff" d="M 878.529 170.886 L 871.533,173.363 L 878.529,176.239 L 878.529,174.597 L 916.013,174.597 L 916.013,172.12 L 878.529,172.12 L 878.529,170.886z"/>
    <path style="fill: #000000" d="M 878.529 171.294 L 916.013,171.294 L 916.013,172.12 L 878.529,172.12 L 878.529,171.294z"/>
    <path style="fill: #ffffff" d="M 909.426 183.681 L 916.44,186.149 L 909.426,188.617 L 909.426,186.984 L 870.308,186.984 L 870.308,184.906 L 909.426,184.906 L 909.426,183.681z"/>
    <path style="fill: #000000" d="M 909.426 183.681 L 916.44,186.149 L 917.257,185.731 L 909.426,182.846 L 909.426,183.681z"/>
    <path style="fill: #000000" d="M 909.426 184.07 L 870.308,184.07 L 870.308,184.906 L 909.426,184.906 L 909.426,184.07z"/>
    <path style="fill: #000000" d="M 878.529 170.886 L 871.533,173.363 L 870.698,172.945 L 878.529,170.468 L 878.529,170.886z"/>
  </g>
  <text font-size="12.8" style="fill: #000000;text-anchor:start;font-family:sans-serif;font-style:normal;font-weight:normal" x="840" y="80">
    <tspan x="840" y="80">Genoscope web server</tspan>
    <tspan x="840" y="96">  - MicroScope code</tspan>
    <tspan x="840" y="112">    and data</tspan>
    <tspan x="840" y="128">  - jbpmmicroscope</tspan>
    <tspan x="840" y="144">    code</tspan>
    <tspan x="840" y="160">  - modules</tspan>
  </text>
  <g>
    <g>
      <line style="fill: none; fill-opacity:0; stroke-width: 2; stroke-dasharray: 4; stroke: #000000" x1="189.736" y1="540" x2="270.264" y2="540"/>
      <polygon style="fill: #000000" points="182.236,540 192.236,535 189.736,540 192.236,545 "/>
      <polygon style="fill: none; fill-opacity:0; stroke-width: 2; stroke: #000000" points="182.236,540 192.236,535 189.736,540 192.236,545 "/>
      <polygon style="fill: #000000" points="277.764,540 267.764,545 270.264,540 267.764,535 "/>
      <polygon style="fill: none; fill-opacity:0; stroke-width: 2; stroke: #000000" points="277.764,540 267.764,545 270.264,540 267.764,535 "/>
    </g>
    <g>
      <line style="fill: none; fill-opacity:0; stroke-width: 2; stroke: #000000" x1="270.264" y1="580" x2="189.736" y2="580"/>
      <polygon style="fill: #000000" points="277.764,580 267.764,585 270.264,580 267.764,575 "/>
      <polygon style="fill: none; fill-opacity:0; stroke-width: 2; stroke: #000000" points="277.764,580 267.764,585 270.264,580 267.764,575 "/>
      <polygon style="fill: #000000" points="182.236,580 192.236,575 189.736,580 192.236,585 "/>
      <polygon style="fill: none; fill-opacity:0; stroke-width: 2; stroke: #000000" points="182.236,580 192.236,575 189.736,580 192.236,585 "/>
    </g>
    <g>
      <line style="fill: none; fill-opacity:0; stroke-width: 2; stroke-dasharray: 20 8 4 8; stroke: #000000" x1="189.736" y1="620" x2="270.264" y2="620"/>
      <polygon style="fill: #000000" points="182.236,620 192.236,615 189.736,620 192.236,625 "/>
      <polygon style="fill: none; fill-opacity:0; stroke-width: 2; stroke: #000000" points="182.236,620 192.236,615 189.736,620 192.236,625 "/>
      <polygon style="fill: #000000" points="277.764,620 267.764,625 270.264,620 267.764,615 "/>
      <polygon style="fill: none; fill-opacity:0; stroke-width: 2; stroke: #000000" points="277.764,620 267.764,625 270.264,620 267.764,615 "/>
    </g>
    <text font-size="12.8" style="fill: #000000;text-anchor:start;font-family:sans-serif;font-style:normal;font-weight:normal" x="300" y="540">
      <tspan x="300" y="540">MySQL queries</tspan>
    </text>
    <text font-size="12.8" style="fill: #000000;text-anchor:start;font-family:sans-serif;font-style:normal;font-weight:normal" x="300" y="580">
      <tspan x="300" y="580">NFS mount (/env)</tspan>
    </text>
    <text font-size="12.8" style="fill: #000000;text-anchor:start;font-family:sans-serif;font-style:normal;font-weight:normal" x="300" y="620">
      <tspan x="300" y="620">SLURM</tspan>
    </text>
  </g>
  <g>
    <path style="fill: none; fill-opacity:0; stroke-width: 2; stroke: #000000" d="M 859.992 188 C 826.02,188.034 650.499,166.653 610.537,157.936"/>
    <polygon style="fill: #000000" points="603.209,156.337 614.045,153.583 610.537,157.936 611.914,163.354 "/>
    <polygon style="fill: none; fill-opacity:0; stroke-width: 2; stroke: #000000" points="603.209,156.337 614.045,153.583 610.537,157.936 611.914,163.354 "/>
  </g>
  <g>
    <path style="fill: none; fill-opacity:0; stroke-width: 2; stroke: #000000" d="M 859.992 188 C 826.02,188.034 675.079,181.335 435.256,160.105"/>
    <polygon style="fill: #000000" points="427.785,159.444 438.187,155.345 435.256,160.105 437.305,165.306 "/>
    <polygon style="fill: none; fill-opacity:0; stroke-width: 2; stroke: #000000" points="427.785,159.444 438.187,155.345 435.256,160.105 437.305,165.306 "/>
  </g>
  <g>
    <rect style="fill: none; fill-opacity:0; stroke-width: 2; stroke: #00ff00" x="460" y="540" width="100" height="20"/>
    <text font-size="12.8" style="fill: #000000;text-anchor:start;font-family:sans-serif;font-style:normal;font-weight:normal" x="580" y="540">
      <tspan x="580" y="540">A deployment</tspan>
      <tspan x="580" y="556">(temporary VMs)</tspan>
    </text>
    <g>
      <path style="fill: none; fill-opacity:0; stroke-width: 2; stroke: #000000" d="M 460 620 C 426.028,620.034 520,620 550.264,620"/>
      <polygon style="fill: #000000" points="557.764,620 547.764,625 550.264,620 547.764,615 "/>
      <polygon style="fill: none; fill-opacity:0; stroke-width: 2; stroke: #000000" points="557.764,620 547.764,625 550.264,620 547.764,615 "/>
    </g>
    <text font-size="12.7998" style="fill: #000000;text-anchor:start;font-family:sans-serif;font-style:normal;font-weight:normal" x="580" y="620">
      <tspan x="580" y="620">HTTP download</tspan>
    </text>
  </g>
</svg>
